<svg width="602" height="373" xmlns="http://www.w3.org/2000/svg">
    <path d="M42.205 1.749c-18.72 3.973-31.95 16.01-37.559 34.169-9.908 32.078.974 64.721 25.391 76.166 6.66 3.122 8.717 3.432 22.746 3.432 14.325 0 15.9-.25 22.092-3.515 3.669-1.934 8.728-5.637 11.245-8.228 4.466-4.6 12.294-18.498 12.294-21.83 0-.944-3.777-2.829-8.676-4.33l-10.74-3.293c-1.506-.463-2.67.954-4.304 5.229-4.468 11.7-11.963 17.33-23.071 17.33-15.106 0-24.556-10.47-26.344-29.183-2.84-29.737 6.773-46.812 26.458-46.99 4.504-.042 9.072.76 11.498 2.015 4.857 2.515 10.47 8.935 11.54 13.2.43 1.714 1.028 3.115 1.332 3.115.302 0 5.46-1.231 11.463-2.736 12.352-3.1 12.199-2.723 5.916-14.441-4.073-7.597-11.962-14.296-20.78-17.647C65.056 1.307 50.012.09 42.204 1.749m65.207 57.21v55.914h21.63l.432-27.544c.399-25.42.636-27.823 3.086-31.17 6.2-8.472 17.569-10.146 23.812-3.505 3.059 3.254 3.103 3.655 3.506 32.757l.408 29.462h21.908l-.478-31.813c-.533-35.395-1.015-37.78-9.062-44.846-9.839-8.64-26.12-8.522-37.639.27l-5.752 4.392V3.046h-21.851V58.96m142.677-46.274v9.64h21.851V3.046h-21.851v9.64m161.957 0v9.64h21.851V3.046h-21.851v9.64m-35.027-1.108l-9.961 5.837v16.48H356.775v16.71h10.096l.416 26.671c.464 29.916 1.235 32.988 9.227 36.781 5.087 2.414 18.939 2.823 24.924.737 3.676-1.282 3.879-1.694 3.326-6.748-1.212-11.065-1.167-10.997-6.84-10.236-8.765 1.176-9.015.486-9.015-24.868V50.605h14.14v-16.71h-14.14v-14.14c0-7.776-.433-14.11-.964-14.077-.53.035-5.447 2.69-10.926 5.9M227.354 32.701c-2.253.674-5.869 3.375-8.033 6.001l-3.938 4.777v-9.584h-20.566V114.873H216.44l.436-26.028c.393-23.46.695-26.473 3.07-30.528 3.896-6.65 8.363-8.417 15.41-6.097l5.63 1.854 2.484-7.198c1.367-3.958 2.867-8.126 3.333-9.263 1.549-3.77-11.904-7.168-19.449-4.912m76.54.318c-20.06 4.537-28.262 24.993-15.483 38.62 4.394 4.687 10.404 7.266 27.232 11.684 16.348 4.291 17.995 5.105 17.995 8.902 0 5.573-4.378 7.867-15.022 7.867-9.23 0-9.76-.166-13.362-4.198-2.063-2.309-3.75-5.096-3.75-6.192 0-1.292-.793-1.765-2.25-1.342-1.236.36-5.486 1.032-9.442 1.496-10.206 1.194-10.907 1.846-8.179 7.594 2.864 6.034 8.415 11.596 15.2 15.224 4.67 2.498 7.26 2.842 21.38 2.842 14.016 0 16.725-.355 21.21-2.774 19.064-10.288 21.523-32.824 4.585-42.042-3.462-1.885-13.141-5.215-21.508-7.398-17.705-4.621-19.711-5.516-19.711-8.795 0-4.757 3.476-6.473 13.115-6.473 8.698 0 9.252.186 13.296 4.476l4.22 4.474 7.5-1.333c13.503-2.401 13.378-2.194 7.108-11.778-6.446-9.856-26.614-14.816-44.134-10.854m159.1 1.473c-2.73.973-6.687 3.407-8.793 5.407-4.105 3.898-9.38 13.06-8.198 14.242.395.394 4.629 1.456 9.409 2.36 6.6 1.246 8.819 1.279 9.222.135.294-.83 2.197-3.171 4.23-5.206 3.436-3.436 4.254-3.657 11.55-3.13 9.2.666 13.005 3.91 12.354 10.534-.385 3.921-.414 3.934-17.096 7.957-20.097 4.848-22.153 5.648-26.59 10.355-9.672 10.264-7.651 26.893 4.222 34.75 4.875 3.227 6.599 3.618 15.847 3.598 10.644-.023 18.397-2.639 22.51-7.596 2.452-2.955 3.421-2.517 4.757 2.155l1.194 4.178 9.917.375c5.455.207 9.911-.082 9.904-.643-.008-.56-.876-3.857-1.928-7.328-1.399-4.611-1.917-12.74-1.922-30.206-.004-13.143-.597-26.017-1.316-28.611-1.588-5.717-8.42-12.01-15.03-13.846-6.917-1.92-28.307-1.595-34.243.52m98.155.709c-3.18 1.482-7.663 4.511-9.961 6.731l-4.178 4.035V33.895h-19.28v79.498l10.177.419 10.18.419.429-26.35c.475-29.232 1.08-31.814 8.646-36.907 6.288-4.233 13.118-3.934 18.427.808l4.198 3.748.643 29.35.643 29.35H601l-.058-30.206c-.07-35.941-1.051-40.614-9.83-46.745-7.391-5.163-21.277-6.127-29.963-2.078M250.09 74.384v40.49h21.851v-80.98h-21.851v40.49m161.957 0v40.49h21.851v-80.98h-21.851v40.49m66.84 4.603c-9.685 2.465-15.425 6.543-15.425 10.957 0 3.546 3.634 8.99 7.034 10.54 4.569 2.082 7.81 1.932 13.168-.61 6.25-2.966 9.351-8.538 9.356-16.814.007-7.862.355-7.762-14.134-4.073M4.89 186.533l.336 56.235H25.79v-41.99c0-23.095.289-41.706.642-41.359.354.347 5.304 19.242 11 41.99l10.36 41.36 10.605.228c8.125.175 10.769-.198 11.304-1.595.385-1.001 5.515-20.481 11.4-43.288l10.7-41.466.093 43.382.092 43.381h20.566V130.223l-16.911.359-16.912.359-9.662 36.986c-5.315 20.344-10.048 36.54-10.516 35.99-.469-.547-4.787-16.034-9.593-34.415-4.807-18.381-9.225-34.72-9.817-36.312-1.041-2.796-1.633-2.892-17.832-2.892H4.555l.334 56.235m289.491-54.628c-.34.884-.467 26.19-.281 56.235l.335 54.628 10.604.42 10.605.42v-113.31H305.32c-7.074 0-10.518.506-10.94 1.607m35.402 8.676v10.283h21.851v-20.566h-21.851v10.283m-99.822 21.056c-7.827 2.549-12.722 6.52-15.751 12.779-4.513 9.32-2.931 19.89 3.919 26.195 4.167 3.835 10.468 6.32 27.098 10.682 7.732 2.03 14.88 4.372 15.887 5.207 2.75 2.282 2.214 5.536-1.488 9.013-2.775 2.607-4.62 3.116-11.304 3.116-9.048 0-14.14-2.493-16.546-8.102-.818-1.906-1.603-3.651-1.745-3.876-.556-.89-21.073 2.7-21.073 3.688 0 6.07 9.384 16.636 18.326 20.636 5.67 2.536 8.891 3.018 20.326 3.047 12.612.03 14.13-.246 21.165-3.844 9.93-5.078 15.286-13.135 15.286-22.995 0-13.632-7.842-19.848-32.686-25.91-15.543-3.794-19.616-5.919-19.038-9.93 1.19-8.273 24.748-7.966 27.389.356.947 2.987 2.054 3.086 13.074 1.167 4.693-.816 8.139-2.07 8.139-2.962 0-.85-1.67-4.177-3.711-7.394-5.576-8.792-12.808-11.848-29.066-12.277-8.218-.216-14.782.29-18.201 1.404m167.304.624c-2.828 1.29-7.02 3.931-9.319 5.87l-4.177 3.528v-10.512h-19.281v82.46l10.604-.418 10.605-.42.642-28.279c.55-24.205.97-28.759 2.91-31.615 3.64-5.358 12.024-7.891 18.23-5.51 4.532 1.74 5.202 5.84 5.853 35.84l.643 29.563h20.566l.643-27.635c.432-18.595 1.166-28.55 2.241-30.428 4.795-8.376 15.367-10.802 20.993-4.819 3.088 3.285 3.12 3.594 3.541 33.515l.427 30.2 10.499-.416 10.5-.417v-30.206c0-16.614-.456-32.358-1.015-34.99-2.171-10.227-12.66-17.63-25.055-17.682-8.146-.034-13.614 2.072-20.044 7.717l-4.796 4.21-4.752-4.616c-2.613-2.539-6.379-5.229-8.369-5.977-5.532-2.082-16.36-1.573-22.089 1.037m-270.105.809c-.406 1.058-.526 15.374-.266 31.813.446 28.2.643 30.236 3.473 36.014 4.406 8.993 12.034 13.17 23.962 13.118 9.922-.041 16.73-2.752 22.494-8.953l3.214-3.458.642 5.403.643 5.404 9.64-.008 9.64-.006.34-40.624.34-40.626H179.61l-.43 27.957c-.479 31.098-.92 32.83-9.376 36.844-9.804 4.652-18.057.712-20.039-9.567-.61-3.16-1.134-16.882-1.165-30.49l-.056-24.744H138.22c-7.98 0-10.491.437-11.062 1.923m202.623 39.26v41.185l10.604-.374 10.605-.373.339-40.81.34-40.811h-21.888v41.183M5.867 314.75v55.913H27.72v-47.559H73.992v-19.28H27.72v-25.708h53.985v-19.28H5.867v55.913m348.297-25.724c-3.202 1.022-8.264 3.948-11.247 6.5l-5.423 4.643v-10.483h-19.28v80.979h21.851l.072-26.03c.047-16.68.625-27.6 1.607-30.407 1.86-5.307 6.455-8.93 12.587-9.926 3.674-.596 5.299-.11 8.324 2.49l3.76 3.233.406 30.32.408 30.32H388.727l.412-27.315c.464-30.744 1.183-33.607 9.414-37.512 5.428-2.578 10.835-1.804 14.323 2.048 2.15 2.373 2.424 5.58 2.809 32.704l.424 30.074h21.644v-28.858c0-16.221-.622-31.759-1.42-35.483-3.878-18.081-25.791-24.57-42.997-12.733-3.018 2.078-5.735 4.507-6.039 5.4-.344 1.01-1.894.032-4.122-2.603-1.963-2.322-5.145-5.038-7.072-6.034-5.459-2.823-15.368-3.422-21.939-1.327m-244.703 1.489c-8.713 2.674-19.783 13.919-23.164 23.527-5.548 15.77-1.809 35.838 8.57 45.999 8.75 8.565 16.073 11.265 30.54 11.258 10.74-.004 12.995-.418 18.72-3.433 7.78-4.1 15.258-12.036 19.016-20.182 4.237-9.186 3.924-26.58-.654-36.346-7.076-15.093-20.063-23.016-37.452-22.848-5.098.049-12.108.96-15.576 2.025m97.444-.863c-1.48.6-4.807 3.56-7.39 6.577l-4.698 5.488V289.685H176.18l.287 40.168.285 40.168 9.492.183 9.492.183.687-24.605c.534-19.158 1.18-25.826 2.914-30.117 3.381-8.37 10.741-11.071 20.08-7.37 1.675.664 2.657-.807 4.82-7.21 1.493-4.423 2.716-8.453 2.716-8.953 0-2.908-14.542-4.707-20.047-2.48m23.903 28.248c0 15.518.63 31.152 1.4 34.742 2.655 12.385 11.952 19.307 25.932 19.307 9.27 0 19.63-4.27 24.078-9.926l2.576-3.275v11.915h20.566V289.685h-21.596l-.45 27.372c-.384 23.492-.77 27.863-2.716 30.83-3.403 5.192-7.896 7.573-14.48 7.672-4.777.072-6.587-.576-9.369-3.355l-3.447-3.446-.409-29.537-.407-29.536H230.808V317.9m-115.614-10.01c-7.348 4.996-9.713 10.433-9.692 22.284.013 7.264.667 11.48 2.23 14.359 5.229 9.636 18.356 13.555 26.555 7.928 7.626-5.234 9.662-9.165 10.193-19.674.583-11.543-1.045-16.899-6.845-22.52-3.63-3.52-5.663-4.396-11.223-4.842-5.57-.447-7.585-.004-11.218 2.466" stroke="#9BC4BB" fill="none" fill-rule="evenodd"/>
</svg>
