<?xml version="1.0" encoding="UTF-8"?>
<svg width="602px" height="373px" viewBox="0 0 602 373" version="1.1" xmlns="http://www.w3.org/2000/svg" xmlns:xlink="http://www.w3.org/1999/xlink">
    <!-- Generator: Sketch 48.2 (47327) - http://www.bohemiancoding.com/sketch -->
    <title>Shape</title>
    <desc>Created with Sketch.</desc>
    <defs></defs>
    <g id="illistrations" stroke="none" stroke-width="1" fill="none" fill-rule="evenodd">
        <path d="M42.2047711,1.74879739 C23.4845595,5.72189365 10.2541876,17.759437 4.64609347,35.9179393 C-5.26158234,67.995775 5.62040824,100.639176 30.0374048,112.084161 C36.6969362,115.206339 38.7535373,115.516114 52.783413,115.516114 C67.1076396,115.516114 68.6835102,115.265466 74.8751649,112.000612 C78.5436271,110.067407 83.6028658,106.364239 86.1196314,103.772922 C90.586312,99.1738477 98.4142499,85.2750803 98.4142499,81.9421012 C98.4142499,80.9986354 94.6365308,79.1142747 89.737964,77.6129559 C84.9653641,76.1501983 80.1323515,74.6681602 78.9973648,74.3198234 C77.4921898,73.8570881 76.3276395,75.2735721 74.693927,79.5487317 C70.2259611,91.2482212 62.7309354,96.8781667 51.6227187,96.8781667 C36.5169836,96.8781667 27.0669016,86.4087817 25.278944,67.6962824 C22.4382637,37.9591159 32.0515885,20.8841853 51.7371172,20.705518 C56.2410736,20.664386 60.8092988,21.4651751 63.2348027,22.7209871 C68.0922374,25.2364673 73.7041877,31.6556335 74.7749056,35.9217954 C75.2042211,37.6352012 75.8032062,39.0362607 76.1065548,39.0362607 C76.4086181,39.0362607 81.5668308,37.8048708 87.5695352,36.2996959 C99.9219956,33.2006551 99.7690359,33.5772702 93.4861195,21.8585 C89.412764,14.2619297 81.5244134,7.56255163 72.7054508,4.21157721 C65.0574654,1.30662816 50.0134284,0.0906627566 42.2047711,1.74879739 M107.41188,58.9595839 L107.41188,114.873426 L118.227031,114.873426 L129.042182,114.873426 L129.474068,87.3291107 C129.872534,61.9082357 130.110329,59.5058686 132.560255,56.1587503 C138.759622,47.6868391 150.12877,46.01328 156.37184,52.6535308 C159.431034,55.908102 159.474737,56.3091392 159.878345,85.4113302 L160.285809,114.873426 L171.23978,114.873426 L182.193752,114.873426 L181.715592,83.060378 C181.183447,47.6649877 180.701431,45.2793304 172.653694,38.2136203 C162.815428,29.5746103 146.53486,29.6915795 135.015323,38.4848346 L129.263266,42.8756779 L129.263266,22.960067 L129.263266,3.04574146 L118.337573,3.04574146 L107.41188,3.04574146 L107.41188,58.9595839 M250.088581,12.6860591 L250.088581,22.3263768 L261.014274,22.3263768 L271.939968,22.3263768 L271.939968,12.6860591 L271.939968,3.04574146 L261.014274,3.04574146 L250.088581,3.04574146 L250.088581,12.6860591 M412.045918,12.6860591 L412.045918,22.3263768 L422.971611,22.3263768 L433.897304,22.3263768 L433.897304,12.6860591 L433.897304,3.04574146 L422.971611,3.04574146 L412.045918,3.04574146 L412.045918,12.6860591 M377.01943,11.5780653 L367.057769,17.4149563 L367.057769,25.6554998 L367.057769,33.894758 L361.916266,33.894758 L356.774763,33.894758 L356.774763,42.2496999 L356.774763,50.6046419 L361.823719,50.6046419 L366.871389,50.6046419 L367.286566,77.2761874 C367.750586,107.192021 368.521812,110.264069 376.514278,114.057213 C381.600509,116.471148 395.453003,116.879898 401.437712,114.793733 C405.113887,113.512213 405.316976,113.099608 404.764264,108.045511 C403.552155,96.9809967 403.597143,97.0491216 397.92478,97.8100641 C389.158518,98.9861828 388.909155,98.2959361 388.909155,72.9419006 L388.909155,50.6046419 L395.978722,50.6046419 L403.048288,50.6046419 L403.048288,42.2496999 L403.048288,33.894758 L395.978722,33.894758 L388.909155,33.894758 L388.909155,19.7556254 C388.909155,11.9791025 388.475984,5.6447711 387.945124,5.67819087 C387.414263,5.71289602 382.497701,8.36719681 377.01943,11.5780653 M227.354141,32.700644 C225.100878,33.3754662 221.485116,36.0760405 219.320543,38.702063 L215.383437,43.4785191 L215.383437,38.6866385 L215.383437,33.894758 L205.100432,33.894758 L194.817426,33.894758 L194.817426,74.3840921 L194.817426,114.873426 L205.628721,114.873426 L216.440016,114.873426 L216.875759,88.8445686 C217.269084,65.385177 217.571147,62.3722563 219.946521,58.316896 C223.842495,51.6676476 228.309175,49.900256 235.355605,52.2203592 L240.98555,54.0738709 L243.470182,46.875767 C244.836536,42.9180953 246.336569,38.7496219 246.803161,37.6133498 C248.352039,33.8420576 234.899297,30.4448096 227.354141,32.700644 M303.894407,33.0194171 C283.833549,37.5555079 275.631567,58.012262 288.410772,71.639815 C292.805471,76.3262948 298.814603,78.9047584 315.642741,83.3225947 C331.991435,87.6144641 333.638001,88.4281069 333.638001,92.2251067 C333.638001,97.7984957 329.260011,100.091606 318.615815,100.091606 C309.385532,100.091606 308.855958,99.9257924 305.254335,95.8935689 C303.191307,93.5850342 301.503609,90.7983397 301.503609,89.7019142 C301.503609,88.4101116 300.710532,87.9370934 299.254201,88.359982 C298.01767,88.7198872 293.768218,89.3921387 289.811831,89.8561593 C279.605948,91.0502733 278.905419,91.7019588 281.632986,97.4501589 C284.496803,103.483712 290.04834,109.045533 296.832553,112.674149 C301.502323,115.171633 304.093641,115.516114 318.213493,115.516114 C332.229229,115.516114 334.937516,115.16135 339.422191,112.742273 C358.486884,102.454126 360.945807,79.9176345 344.008412,70.7002054 C340.54561,68.8145593 330.866731,65.4854363 322.50022,63.301583 C304.795456,58.6806574 302.788984,57.7860359 302.788984,54.5070425 C302.788984,49.7498671 306.26464,48.0338905 315.903672,48.0338905 C324.60181,48.0338905 325.155807,48.22027 329.199599,52.5095687 L333.420772,56.9839615 L340.920939,55.6510269 C354.422526,53.2499451 354.297844,53.4568906 348.027782,43.8731294 C341.581623,34.0168687 321.414078,29.0566039 303.894407,33.0194171 M462.994354,34.4924577 C460.264216,35.4654871 456.306544,37.8987032 454.201099,39.8987478 C450.095609,43.7972923 444.821712,52.9594502 446.002973,54.1407104 C446.397583,54.5353208 450.631611,55.5970411 455.411923,56.5006602 C462.012327,57.7474746 464.230885,57.779609 464.634493,56.6356246 C464.927559,55.8065573 466.8312,53.4646028 468.864665,51.4298531 C472.300474,47.9940439 473.117973,47.7729593 480.413765,48.2999633 C489.614484,48.9657879 493.419196,52.2100762 492.767511,58.8336171 C492.383184,62.7552983 492.35362,62.7681521 475.672014,66.791378 C455.575165,71.6385297 453.518564,72.4393187 449.082733,77.1463645 C439.410281,87.4100894 441.430891,104.038995 453.303907,111.896496 C458.179337,115.122789 459.903025,115.513543 469.151303,115.494263 C479.7955,115.471126 487.5476,112.855386 491.660802,107.897692 C494.113299,104.942614 495.082473,105.380927 496.417978,110.053267 L497.612092,114.230738 L507.528765,114.606068 C512.9839,114.813014 517.440297,114.523804 517.432585,113.96338 C517.424873,113.402957 516.557244,110.105968 515.504521,106.635454 C514.106033,102.023526 513.588026,93.8948097 513.582885,76.4291249 C513.579029,63.2861585 512.986471,50.4118356 512.26666,47.8179474 C510.679221,42.1005964 503.847449,35.807397 497.236762,33.9718805 C490.320156,32.0515292 468.930219,32.3767293 462.994354,34.4924577 M561.149498,35.2006997 C557.968193,36.6827378 553.486088,39.7123683 551.187836,41.9322121 L547.010365,45.9670064 L547.010365,39.9308822 L547.010365,33.894758 L537.370047,33.894758 L527.72973,33.894758 L527.72973,73.6437157 L527.72973,113.392674 L537.907334,113.811706 L548.086224,114.230738 L548.51554,87.8805369 C548.991129,58.648523 549.595255,56.0674886 557.162262,50.9735447 C563.45032,46.7408026 570.279521,47.0402951 575.589408,51.782046 L579.787445,55.5302016 L580.430133,84.88047 L581.072821,114.230738 L591.037053,114.230738 L601,114.230738 L600.942158,84.0244098 C600.872748,48.0827348 599.890721,43.4103942 591.11289,37.2791522 C583.720695,32.115798 569.834781,31.1517663 561.149498,35.2006997 M250.088581,74.3840921 L250.088581,114.873426 L261.014274,114.873426 L271.939968,114.873426 L271.939968,74.3840921 L271.939968,33.894758 L261.014274,33.894758 L250.088581,33.894758 L250.088581,74.3840921 M412.045918,74.3840921 L412.045918,114.873426 L422.971611,114.873426 L433.897304,114.873426 L433.897304,74.3840921 L433.897304,33.894758 L422.971611,33.894758 L412.045918,33.894758 L412.045918,74.3840921 M478.885454,78.9870225 C469.201433,81.4523731 463.460945,85.5295847 463.460945,89.9435648 C463.460945,93.4899164 467.094702,98.9347678 470.494521,100.483645 C475.064032,102.565954 478.304464,102.415565 483.663195,99.873092 C489.912692,96.9077303 493.014303,91.3356267 493.019445,83.060378 C493.025871,75.197735 493.374208,75.2979943 478.885454,78.9870225 M4.88902947,186.533121 L5.22451253,242.768307 L15.507518,242.768307 L25.7905235,242.768307 L25.7905235,200.777654 C25.7905235,177.683309 26.0797331,159.072355 26.4332114,159.419406 C26.7866897,159.766458 31.7366715,178.66148 37.4334565,201.408774 L47.7922992,242.768307 L58.397934,242.997104 C66.5227937,243.171915 69.1668115,242.799156 69.7015278,241.401953 C70.0871405,240.400645 75.2170749,220.920777 81.1015248,198.114356 L91.8022774,156.648136 L91.8948244,200.029566 L91.9873715,243.410995 L102.270377,243.410995 L112.553382,243.410995 L112.553382,186.817189 L112.553382,130.223383 L95.6416945,130.582003 L78.7300066,130.940622 L69.0678376,167.927308 C63.7528091,188.270949 59.0200558,204.466683 58.5521791,203.917827 C58.0830169,203.370257 53.76544,187.882765 48.9594203,169.501893 C44.1521152,151.121021 39.734279,134.781325 39.1417208,133.19003 C38.1005665,130.394338 37.5092937,130.297935 21.3097039,130.297935 L4.55483179,130.297935 L4.88902947,186.533121 M294.380057,131.904654 C294.040717,132.788993 293.913465,158.094184 294.098559,188.139841 L294.434042,242.768307 L305.038392,243.188625 L315.642741,243.607658 L315.642741,186.953439 L315.642741,130.297935 L305.319889,130.297935 C298.246467,130.297935 294.80166,130.804373 294.380057,131.904654 M329.781874,140.58094 L329.781874,150.863946 L340.707567,150.863946 L351.63326,150.863946 L351.63326,140.58094 L351.63326,130.297935 L340.707567,130.297935 L329.781874,130.297935 L329.781874,140.58094 M229.959598,161.636679 C222.132945,164.185579 217.238235,168.15739 214.208604,174.415884 C209.69565,183.736143 211.277948,194.305788 218.127715,200.610555 C222.294903,204.446116 228.595814,206.930748 245.226005,211.293313 C252.95754,213.322921 260.106799,215.664876 261.113248,216.50037 C263.862667,218.781912 263.326665,222.036483 259.624783,225.513424 C256.849657,228.120166 255.005143,228.629175 248.32119,228.629175 C239.27343,228.629175 234.180772,226.135546 231.774548,220.527452 C230.957049,218.62124 230.171685,216.875699 230.030293,216.650759 C229.473726,215.761279 208.956559,219.351333 208.956559,220.338502 C208.956559,226.409331 218.341087,236.975119 227.283446,240.975208 C232.953238,243.511254 236.174389,243.99327 247.609091,244.021549 C260.221198,244.051112 261.739226,243.776042 268.774087,240.178275 C278.703615,235.099756 284.059775,227.043021 284.059775,217.182904 C284.059775,203.551495 276.217698,197.335418 251.373957,191.272301 C235.831194,187.479157 231.757838,185.354431 232.336257,181.342774 C233.526515,173.070096 257.083596,173.377301 259.725043,181.698823 C260.672364,184.686036 261.779073,184.78501 272.798599,182.865944 C277.491505,182.049731 280.937598,180.795204 280.937598,179.904438 C280.937598,179.054805 279.267895,175.726968 277.226718,172.509672 C271.650758,163.717702 264.419235,160.662364 248.160518,160.233049 C239.943111,160.017106 233.378697,160.522258 229.959598,161.636679 M397.264097,162.261372 C394.436271,163.550604 390.243375,166.192051 387.945124,168.131683 L383.767653,171.658753 L383.767653,166.402852 L383.767653,161.146951 L374.127335,161.146951 L364.487017,161.146951 L364.487017,202.377947 L364.487017,243.607658 L375.091367,243.188625 L385.695716,242.768307 L386.338404,214.490042 C386.888545,190.285133 387.307577,185.731046 389.248495,182.874942 C392.888678,177.517496 401.271899,174.98402 407.477693,177.365822 C412.009927,179.104935 412.679608,183.205283 413.331293,213.204666 L413.973981,242.768307 L424.256987,242.768307 L434.539992,242.768307 L435.18268,215.13273 C435.614566,196.538485 436.348516,186.583251 437.424375,184.705317 C442.218827,176.328523 452.791042,173.903019 458.417131,179.886443 C461.504603,183.170578 461.536738,183.480354 461.958341,213.401329 L462.385086,243.601231 L472.884034,243.184769 L483.384268,242.768307 L483.384268,212.561979 C483.384268,195.948498 482.92796,180.203931 482.368822,177.572767 C480.197822,167.345033 469.709156,159.941269 457.314279,159.889854 C449.167568,159.856434 443.699579,161.961879 437.27013,167.607249 L432.474394,171.816855 L427.72236,167.201071 C425.109191,164.662454 421.34304,161.972162 419.353279,161.224074 C413.821022,159.141765 402.993017,159.650774 397.264097,162.261372 M127.159106,163.069873 C126.752928,164.127737 126.633388,178.444252 126.893034,194.882921 C127.339059,223.082779 127.535721,225.118814 130.366119,230.896577 C134.772387,239.890351 142.399806,244.066537 154.328092,244.015122 C164.249907,243.97399 171.058542,241.263132 176.822167,235.06248 L180.035606,231.603534 L180.678294,237.007253 L181.320982,242.410973 L190.961299,242.403261 L200.601617,242.396834 L200.940956,201.772535 L201.280295,161.146951 L190.445864,161.146951 L179.610147,161.146951 L179.180831,189.103872 C178.701386,220.202252 178.260502,221.934938 169.804016,225.947881 C160.000455,230.599656 151.747058,226.659979 149.765009,216.38083 C149.154455,213.220091 148.631307,199.498705 148.600458,185.890433 L148.543902,161.146951 L138.22105,161.146951 C130.241437,161.146951 127.729813,161.583979 127.159106,163.069873 M329.781874,202.330388 L329.781874,243.515111 L340.386223,243.141066 L350.990573,242.768307 L351.329912,201.957629 L351.669251,161.146951 L340.725562,161.146951 L329.781874,161.146951 L329.781874,202.330388 M5.86720037,314.749346 L5.86720037,370.663188 L16.7928937,370.663188 L27.7185871,370.663188 L27.7185871,346.883738 L27.7185871,323.104288 L50.8553494,323.104288 L73.9921118,323.104288 L73.9921118,313.46397 L73.9921118,303.823652 L50.8553494,303.823652 L27.7185871,303.823652 L27.7185871,290.969896 L27.7185871,278.116139 L54.7114765,278.116139 L81.704366,278.116139 L81.704366,268.475821 L81.704366,258.835503 L43.7857832,258.835503 L5.86720037,258.835503 L5.86720037,314.749346 M354.164165,289.025122 C350.962294,290.046996 345.900485,292.972511 342.917128,295.525267 L337.494128,300.168044 L337.494128,294.926282 L337.494128,289.68452 L327.85381,289.68452 L318.213493,289.68452 L318.213493,330.173854 L318.213493,370.663188 L329.139186,370.663188 L340.064879,370.663188 L340.13686,344.634331 C340.184419,327.95401 340.761553,317.033458 341.74358,314.227483 C343.603518,308.920167 348.198737,305.296693 354.331264,304.300527 C358.004868,303.705398 359.629583,304.19127 362.655357,306.791585 L366.415081,310.024305 L366.82126,340.343746 L367.228724,370.663188 L377.977035,370.663188 L388.726632,370.663188 L389.139238,343.348955 C389.603258,312.605339 390.321783,309.741522 398.553329,305.836551 C403.981471,303.259373 409.387761,304.033169 412.87627,307.88544 C415.025419,310.258243 415.300489,313.465255 415.684816,340.589253 L416.10899,370.663188 L426.931854,370.663188 L437.753432,370.663188 L437.753432,341.805219 C437.753432,325.583777 437.13131,310.046156 436.333091,306.322423 C432.455113,288.241043 410.542028,281.752466 393.335989,293.589491 C390.317927,295.666658 387.600643,298.096018 387.297294,298.988069 C386.952814,299.99966 385.40265,299.021489 383.175094,296.386469 C381.212326,294.063795 378.029736,291.347796 376.102957,290.35163 C370.643967,287.528945 360.735006,286.92996 354.164165,289.025122 M109.460769,290.513587 C100.748492,293.188454 89.6775513,304.432921 86.2970133,314.041104 C80.7493318,329.810093 84.4884897,349.878663 94.866613,360.039558 C103.617451,368.605302 110.940236,371.304591 125.407139,371.298164 C136.147739,371.294308 138.402288,370.880417 144.126065,367.864925 C151.906445,363.765862 159.38476,355.828667 163.143199,347.683242 C167.379797,338.496662 167.067451,321.102958 162.488943,311.336673 C155.412949,296.243792 142.425513,288.320736 125.036951,288.48912 C119.939151,288.537965 112.928712,289.449296 109.460769,290.513587 M206.905099,289.6511 C205.424347,290.250085 202.097794,293.210305 199.514189,296.228367 L194.817426,301.715636 L194.817426,295.700078 L194.817426,289.68452 L185.498453,289.68452 L176.179479,289.68452 L176.466118,329.85251 L176.751471,370.0205 L186.242685,370.204309 L195.735185,370.386832 L196.421575,345.782171 C196.956292,326.623646 197.60155,319.956403 199.335522,315.664533 C202.717345,307.295452 210.077407,304.593592 219.415661,308.294189 C221.090506,308.958728 222.072533,307.488259 224.23582,301.084517 C225.729426,296.661539 226.951819,292.631886 226.951819,292.131875 C226.951819,289.224355 212.410364,287.424829 206.905099,289.6511 M230.807946,317.899802 C230.807946,333.418142 231.43778,349.052167 232.20772,352.642221 C234.863306,365.026816 244.160428,371.948564 258.140174,371.948564 C267.410304,371.948564 277.769147,367.678546 282.217832,362.022893 L284.793725,358.747756 L284.793725,364.705472 L284.793725,370.663188 L295.07673,370.663188 L305.359736,370.663188 L305.359736,330.173854 L305.359736,289.68452 L294.561294,289.68452 L283.764139,289.68452 L283.314257,317.056595 C282.92993,340.549407 282.544317,344.919684 280.598258,347.887616 C277.194584,353.079249 272.702196,355.459765 266.118501,355.558738 C261.34076,355.63072 259.530951,354.98289 256.749398,352.203908 L253.30202,348.757816 L252.893271,319.221168 L252.485807,289.68452 L241.646234,289.68452 L230.807946,289.68452 L230.807946,317.899802 M115.193544,307.890581 C107.846337,312.885551 105.481245,318.32269 105.501811,330.173854 C105.514665,337.437512 106.168921,341.653544 107.731938,344.532786 C112.960847,354.169247 126.088388,358.088358 134.286515,352.460983 C141.912649,347.226933 143.948684,343.296254 144.479544,332.787023 C145.063104,321.244349 143.434533,315.888189 137.634918,310.267241 C134.005017,306.747882 131.971553,305.871256 126.412303,305.425231 C120.84277,304.97792 118.827301,305.421374 115.193544,307.890581" id="Shape" stroke="#9BC4BB"></path>
    </g>
</svg>