<?xml version="1.0" encoding="UTF-8"?>
<svg width="600px" height="452px" viewBox="0 0 600 452" version="1.1" xmlns="http://www.w3.org/2000/svg" xmlns:xlink="http://www.w3.org/1999/xlink">
    <!-- Generator: Sketch 48.2 (47327) - http://www.bohemiancoding.com/sketch -->
    <title>Combined Shape</title>
    <desc>Created with Sketch.</desc>
    <defs></defs>
    <g id="illistrations" stroke="none" stroke-width="1" fill="none" fill-rule="evenodd">
        <path d="M225.269461,205.071856 L26.2275449,7.10778443 C33.2335329,3.15568862 41.3173653,1 49.9401198,1 L550.05988,1 C558.682635,1 566.766467,3.15568862 573.772455,7.10778443 L374.730539,205.071856 L351.017964,228.60479 L310.778443,268.664671 C307.005988,272.437126 302.335329,273.155689 300,273.155689 C297.664671,273.155689 293.173653,272.616766 289.221557,268.664671 L225.269461,205.071856 Z M201.736527,228.60479 L6.28742515,422.796407 C3.23353293,416.508982 1.43712575,409.323353 1.43712575,401.778443 L1.43712575,49.3233533 C1.43712575,43.3952096 2.51497006,37.8263473 4.49101796,32.6167665 L201.736527,228.60479 Z M374.730539,252.137725 L569.640719,445.97006 C563.712575,448.664671 557.065868,450.101796 550.05988,450.101796 L49.9401198,450.101796 C42.9341317,450.101796 36.2874251,448.664671 30.3592814,445.97006 L225.269461,252.137725 L265.688623,292.197605 C275.209581,301.538922 287.60479,306.389222 300,306.389222 C312.39521,306.389222 324.790419,301.718563 334.311377,292.197605 L374.730539,252.137725 Z M598.562874,49.3233533 L598.562874,401.778443 C598.562874,409.323353 596.766467,416.508982 593.712575,422.796407 L398.443114,228.60479 L595.688623,32.4371257 C597.48503,37.8263473 598.562874,43.3952096 598.562874,49.3233533 Z" id="Combined-Shape" stroke="#9BC4BB" stroke-width="2" fill-rule="nonzero"></path>
    </g>
</svg>