<svg width="600" height="452" xmlns="http://www.w3.org/2000/svg">
    <path d="M225.27 205.072L26.227 7.108C33.234 3.156 41.318 1 49.94 1h500.12c8.623 0 16.706 2.156 23.712 6.108L374.731 205.072l-23.713 23.533-40.24 40.06c-3.772 3.772-8.443 4.49-10.778 4.49-2.335 0-6.826-.538-10.778-4.49l-63.953-63.593zm-23.533 23.533L6.287 422.796a48.192 48.192 0 0 1-4.85-21.018V49.323a46.756 46.756 0 0 1 3.054-16.706l197.246 195.988zm172.994 23.533L569.64 445.97c-5.928 2.695-12.575 4.132-19.581 4.132H49.94c-7.006 0-13.653-1.437-19.58-4.132l194.91-193.832 40.419 40.06c9.52 9.34 21.916 14.191 34.311 14.191s24.79-4.67 34.311-14.191l40.42-40.06zM598.563 49.323v352.455c0 7.545-1.797 14.731-4.85 21.018l-195.27-194.191L595.69 32.437c1.796 5.39 2.874 10.958 2.874 16.886z" stroke="#9BC4BB" stroke-width="2" fill="none" fill-rule="evenodd"/>
</svg>
