<svg width="645" height="665" xmlns="http://www.w3.org/2000/svg">
    <path d="M598.88 296.84c38.545 47.187 54.24 108.356 37.908 169.718-8.523 32.024-25.54 60.924-51.627 87.685l-12.429 12.75 2.609 8.691c5.415 18.049 14.89 31.644 34.86 50.017 34.527 31.767 34.74 32.141 20.57 35.976-11.112 3.005-35.85 3.11-52.412.223-30.675-5.348-65.228-16.57-104.822-34.044l-15.485-6.834-11.317 1.596c-67.983 9.593-136.276-6.997-189.447-46.018-5.54-4.065-17.062-14.43-25.604-23.035-5.956-5.999-11.419-12.094-16.405-18.32.891-.389 1.784-.781 2.678-1.176l19.802-8.739 14.471 2.041c86.936 12.267 174.268-8.947 242.263-58.847 7.084-5.2 21.819-18.454 32.742-29.457 40.967-41.263 63.668-86.08 71.495-141.148l.15-1.079zM259.085 3.423c-10.054 1.19-27.548 4.472-38.877 7.296C64.384 49.57-27.937 188.297 9.194 327.804c10.898 40.952 32.66 77.909 66.02 112.13l15.894 16.303-3.336 11.115c-6.925 23.08-19.042 40.467-44.578 63.961-44.154 40.624-44.427 41.102-26.305 46.005 14.209 3.843 45.844 3.979 67.023.287 39.226-6.84 83.413-21.19 134.045-43.536l19.802-8.739 14.471 2.041c86.936 12.267 174.268-8.947 242.263-58.847 7.084-5.2 21.819-18.454 32.742-29.457 40.967-41.263 63.668-86.08 71.495-141.148 10.607-74.636-16.328-151.269-73.006-207.71-66.59-66.312-166.038-98.681-266.64-86.786m.341 209.498v48.765h-44.174v6.376c0 9.085 4.226 24.896 9.424 35.26 5.496 10.957 14.482 20.875 25.99 28.69l8.76 5.95v20.506c0 23.976 1.528 22.648-19.893 17.295-35.87-8.964-59.587-31.216-70.449-66.095-6.128-19.676-7.348-36.25-6.844-92.918l.46-51.79 48.363-.402 48.363-.402v48.765m163.21-.02v48.704l-22.419.42-22.417.423.455 7.395c1.563 25.309 15.009 48.67 36.048 62.637l8.333 5.531v19.769c0 15.844-.437 19.936-2.204 20.614-3.681 1.412-29.785-6.9-42.634-13.574-21.424-11.132-36.271-28.093-44.547-50.888-6.715-18.499-8.084-34.491-8.093-94.516l-.01-55.218h97.488v48.703" stroke="#9BC4BB" stroke-width="2" fill="#FFF" fill-rule="evenodd"/>
</svg>
