<?xml version="1.0" encoding="UTF-8"?>
<svg width="602px" height="632px" viewBox="0 0 602 632" version="1.1" xmlns="http://www.w3.org/2000/svg" xmlns:xlink="http://www.w3.org/1999/xlink">
    <!-- Generator: Sketch 48.2 (47327) - http://www.bohemiancoding.com/sketch -->
    <title>Shape</title>
    <desc>Created with Sketch.</desc>
    <defs></defs>
    <g id="illistrations" stroke="none" stroke-width="1" fill="none" fill-rule="evenodd">
        <path d="M295.9217,2.84123082 C272.83161,13.2106821 250.910164,27.9630627 224.942335,50.609408 C203.955917,68.9113637 177.504646,97.1141486 154.49336,125.724115 C141.551083,141.814778 122.771173,166.695875 114.619724,178.551624 C105.355519,192.026604 86.3369618,220.214308 86.3369618,220.470682 C86.3369618,220.625959 84.7888292,223.074635 82.8969776,225.913178 C79.2367898,231.405384 69.3332123,247.506101 59.4525494,264.028521 C37.1700589,301.288727 13.6060276,347.03831 3.35314226,372.945461 C0.716845698,379.60671 0.716845698,379.60671 1.34336434,385.585412 C2.80878083,399.56923 10.3460069,424.791042 21.7815091,453.975755 C33.3438799,483.484426 56.6614396,534.530165 60.6720531,539.113613 C62.8394388,541.590217 66.2419771,547.58009 67.6520632,551.401678 C68.3735936,553.356598 68.3735936,553.356598 68.413275,551.541316 C68.4345129,550.543189 68.7038992,549.726033 69.0112901,549.726033 C69.3186811,549.726033 69.5701828,549.22334 69.5701828,548.608936 C69.5701828,547.918012 69.943523,547.490722 70.5482449,547.489605 C72.1779758,547.485695 104.488118,550.399084 104.67367,550.566649 C104.811717,550.691205 94.7438248,568.622843 87.6436528,580.898061 C86.5292209,582.823936 86.0971969,583.176939 85.4801794,582.665309 C85.0559799,582.313423 84.4752904,582.170435 84.1891374,582.346936 C83.9029844,582.523437 83.3468862,582.27991 82.9534258,581.805703 C82.5594065,581.331495 81.7462177,580.680786 81.1454081,580.359621 C80.5451574,580.038455 81.6187902,581.830837 83.5318797,584.342071 C85.6254915,587.090688 88.537881,592.070147 90.8494609,596.852997 C92.9615162,601.223079 95.2624772,605.317798 95.9622108,605.95175 C106.635942,615.623016 152.37851,624.539124 211.528912,628.479125 C242.70059,630.555249 250.098652,630.804362 289.712403,631.109329 C360.027803,631.651121 414.657322,628.420477 457.721118,621.173312 C489.645624,615.800634 507.992951,608.962885 509.792586,601.767664 C510.525853,598.835844 515.423988,589.072417 517.01795,587.367169 C519.38486,584.833593 522.427471,580.446196 521.81772,580.446196 C521.528772,580.446196 520.979381,580.823216 520.596539,581.284018 C520.213698,581.744821 519.478754,582.121841 518.963455,582.121841 C518.447597,582.121841 517.747305,582.399998 517.406939,582.740154 C516.954795,583.19202 516.569159,583.004347 515.973938,582.041969 C513.277281,577.683057 498.155323,550.745384 498.320755,550.594017 C498.527546,550.404111 530.696288,547.485695 532.538398,547.489605 C533.262723,547.491281 533.501929,547.79569 533.321407,548.486056 C533.17833,549.032316 533.400211,549.79641 533.814909,550.183484 C534.229607,550.570558 534.58674,551.443011 534.608536,552.121647 C534.658278,553.666034 536.758037,546.580289 536.784864,544.777294 C536.797719,543.923832 537.941213,542.349284 540.030913,540.308907 C542.982984,537.426797 543.79729,536.018138 549.603626,523.753532 C562.344142,496.839318 574.622455,468.659434 582.33685,448.628771 C591.727923,424.243106 599.386987,397.906431 600.618228,385.763589 C601.244188,379.59107 601.244188,379.59107 599.51162,375.1009 C592.137032,355.989607 578.082,327.185824 561.589637,297.382798 C559.331152,293.302602 557.483453,289.841836 557.483453,289.692704 C557.483453,289.54413 556.477446,287.767387 555.247883,285.744884 C554.018319,283.721821 553.012312,281.968538 553.012312,281.84845 C553.012312,281.21338 527.620702,239.115028 520.770355,228.393133 C508.430564,209.078529 489.576321,181.347717 477.002914,164.019311 C468.621201,152.467972 443.009387,119.576731 439.186002,115.454644 C438.616491,114.840241 436.151215,111.949753 433.707737,109.031337 C423.160874,96.4343952 400.349671,72.2062408 388.418431,60.9297069 C368.359215,41.9703397 345.397112,24.2995436 326.455122,13.244195 C321.140053,10.1420171 304.086004,1.69844077 301.790073,1.03209252 C301.113812,0.836042025 298.796085,1.55042544 295.9217,2.84123082 M290.01644,11.5294513 C263.872002,24.5525661 239.490869,42.8846834 210.486018,71.3276441 C163.468617,117.434698 113.090034,184.192404 66.9601541,261.515053 C42.354347,302.759385 20.022674,345.628534 9.0711728,372.64217 C5.84412673,380.60316 5.75749837,381.665519 7.53365917,391.522781 C11.8142179,415.280638 26.8869933,456.217768 49.1901628,504.66123 C52.9213301,512.764651 52.9213301,512.764651 55.3486008,510.912504 C58.0368743,508.862073 65.4958554,505.840885 73.2029849,503.680419 C118.798564,490.900273 236.078271,483.34814 347.060376,486.044812 C450.042492,488.547667 527.055661,497.934632 546.639818,510.371271 C549.489053,512.180968 549.489053,512.180968 550.625282,509.588744 C551.250682,508.163329 554.590066,500.71341 558.046258,493.03337 C578.909161,446.676644 592.00681,409.314224 595.180761,387.104105 C596.110759,380.596457 596.110759,380.596457 593.317972,373.613485 C579.711172,339.589509 547.603908,280.17448 516.13937,230.794891 C476.437873,168.487699 437.396428,117.910023 398.485764,78.3793178 C365.126022,44.4866003 335.800925,22.2658689 306.994481,9.05228914 C303.644478,7.51572246 300.834925,6.25842999 300.751091,6.25842999 C300.666698,6.25842999 295.836189,8.63058509 290.01644,11.5294513 M279.713814,43.9900507 C267.879262,52.1186058 257.505097,59.2780793 256.659492,59.8991851 C255.122538,61.0296871 255.122538,61.0296871 255.122538,259.856165 C255.122538,458.682642 255.122538,458.682642 301.23118,458.682642 C347.339822,458.682642 347.339822,458.682642 347.339822,259.624367 C347.339822,60.5666505 347.339822,60.5666505 324.449816,44.8625034 C311.860759,36.2256693 301.486035,29.1706443 301.395494,29.184608 C301.304954,29.1985717 291.548365,35.8609372 279.713814,43.9900507 M280.411312,48.4534111 C259.593679,62.7338183 259.593679,62.7338183 259.593679,258.753032 C259.593679,454.772803 259.593679,454.772803 301.510626,454.772803 C343.427574,454.772803 343.427574,454.772803 343.427574,258.792689 C343.427574,62.8125736 343.427574,62.8125736 322.926833,48.7220729 C311.651174,40.9722137 302.156706,34.5282407 301.827518,34.4020087 C301.498331,34.2757768 291.861345,40.5991034 280.411312,48.4534111 M286.845284,70.6847549 C283.06661,71.5320729 279.984318,73.7975452 278.152267,77.0728731 C277.119434,78.9199927 276.868491,80.2264374 276.860667,83.8011472 C276.84893,89.1531581 277.655971,91.3018938 280.713114,94.0588888 C284.319648,97.3113162 287.091755,97.8603693 299.907722,97.8603693 C312.523047,97.8603693 315.708176,97.3615855 318.950871,94.8766037 C322.495368,92.1603827 323.586885,89.5653668 323.586885,83.8530922 C323.586885,79.4919463 323.434308,78.8149856 321.891764,76.3210669 C320.595133,74.2253933 319.423135,73.1853762 316.910354,71.9012734 C313.624065,70.2217183 313.624065,70.2217183 301.838696,70.0938107 C293.818587,70.0061186 289.028318,70.1954665 286.845284,70.6847549 M286.173495,73.0004966 C282.938624,74.1522235 281.265299,75.5614411 279.853537,78.3223459 C277.152967,83.6050967 278.771521,90.3545957 283.532727,93.6639951 C285.954968,95.3469014 285.954968,95.3469014 299.380128,95.5234027 C312.805288,95.7004626 312.805288,95.7004626 315.821631,94.2253362 C320.074804,92.1458605 321.630761,89.3961267 321.630761,83.9592164 C321.630761,81.5345578 321.30828,79.3087424 320.820926,78.3664712 C319.643898,76.0915035 316.392819,73.4339302 313.961077,72.7592037 C310.683172,71.8493284 288.874623,72.0386763 286.173495,73.0004966 M289.214988,76.0334145 C283.528815,77.1560968 280.679021,83.4051364 283.639475,88.257805 C285.718556,91.6655089 288.080436,92.2491919 299.833948,92.2592458 C305.520681,92.2642728 311.095635,92.0123674 312.22348,91.6995803 C314.709994,91.0092145 317.718513,87.7651653 317.718513,85.7744988 C317.718513,84.3395879 317.718513,84.3395879 315.769654,86.0493046 C313.084175,88.4063789 310.028709,89.1185281 304.192193,88.7487691 C295.880901,88.2226165 292.007216,85.4985759 292.889148,80.7995081 C293.250752,78.8758674 295.356101,76.6355297 296.802515,76.6355297 C297.2038,76.6355297 297.687801,76.3841829 297.877824,76.0769813 C298.270167,75.4430288 292.355406,75.4128672 289.214988,76.0334145 M212.807099,100.900548 C181.761731,117.559255 139.906262,165.610057 96.0097166,234.984004 C64.8782791,284.184858 33.6792155,343.961826 23.9187145,373.110233 C21.4322012,380.536134 21.4322012,380.536134 22.6265548,386.794669 C26.8702266,409.035508 36.2892441,437.333246 47.5554019,461.692101 C51.6364359,470.51549 60.9922986,488.285708 61.5567802,488.285708 C61.7194179,488.285708 62.5203111,487.81541 63.3362943,487.240105 C74.4655233,479.396969 110.418528,472.200072 166.817501,466.525221 C183.388109,464.857954 206.160748,462.972294 218.375347,462.255118 C223.683709,461.944006 224.942335,461.708858 224.942335,461.027987 C224.942335,460.021483 218.702299,460.243227 195.879918,462.060743 C128.451199,467.431186 82.8047604,475.064867 65.4639986,483.8715 C62.3660567,485.444931 62.0234555,485.51084 61.3986135,484.657378 C59.8706011,482.568965 48.2025995,458.98761 45.0856553,451.687941 C35.5336213,429.320869 26.5248309,400.36181 24.1959253,384.539809 C23.5185474,379.936253 23.5185474,379.936253 25.5657711,373.876003 C35.6576955,344.012095 67.2871063,283.528005 98.3442112,234.70473 C126.712484,190.108549 152.92846,155.809208 177.129629,131.626855 C190.641976,118.125623 200.894303,109.772531 211.365156,103.734064 C213.887998,102.279046 216.346008,100.487781 216.827214,99.7538484 C217.308421,99.0193572 217.633696,98.4233861 217.549862,98.428413 C217.466028,98.4334399 215.331618,99.5460684 212.807099,100.900548 M384.823075,99.617004 C385.187473,100.383332 387.966846,102.412539 391.483957,104.479726 C423.322394,123.193332 466.951788,175.225468 511.247942,247.309492 C540.604896,295.082137 570.350279,353.558246 577.080464,376.725717 C578.340767,381.06508 578.340767,381.06508 576.779221,388.734508 C571.018715,417.031129 558.265903,451.735417 544.031466,477.849231 C541.823281,481.899824 539.930312,485.311438 539.823564,485.430967 C539.717374,485.549938 537.925564,484.761826 535.842012,483.679359 C519.116591,474.987229 472.34622,467.321711 402.166631,461.770298 C382.901043,460.246578 376.961132,460.066167 376.961132,461.006204 C376.961132,461.67311 378.914462,461.955177 387.440369,462.517636 C412.100948,464.145246 441.718904,466.972618 464.707276,469.893826 C503.079167,474.768837 527.605053,480.440337 537.524279,486.731826 C538.995844,487.665719 540.277384,488.334302 540.371278,488.218124 C541.058716,487.365779 546.852197,476.567362 550.073096,470.132885 C562.896328,444.517296 572.918391,416.162586 578.430749,389.902433 C580.348869,380.765139 580.348869,380.765139 577.87018,373.333094 C566.78678,340.101698 530.880723,272.917261 495.572121,219.344649 C469.771961,180.199342 448.197028,152.736075 425.350056,129.957912 C411.334147,115.984148 399.834372,106.834567 388.543623,100.673219 C384.575485,98.5082854 384.251886,98.4161249 384.823075,99.617004 M267.977068,134.724564 C266.910701,135.790275 266.859283,136.586206 266.859283,152.039565 C266.859283,167.492924 266.910701,168.288855 267.977068,169.354566 C269.069144,170.445969 269.839857,170.471663 301.510626,170.471663 C333.181395,170.471663 333.952108,170.445969 335.044184,169.354566 C336.110552,168.288855 336.16197,167.492924 336.16197,152.039565 C336.16197,136.586206 336.110552,135.790275 335.044184,134.724564 C333.952108,133.633161 333.181395,133.607468 301.510626,133.607468 C269.839857,133.607468 269.069144,133.633161 267.977068,134.724564 M271.025269,138.221077 C270.874368,138.613737 270.818478,145.087872 270.901194,152.608726 C271.050978,166.28255 271.050978,166.28255 301.510626,166.28255 C331.970275,166.28255 331.970275,166.28255 331.970275,152.039565 C331.970275,137.796581 331.970275,137.796581 301.6347,137.651917 C277.427943,137.536856 271.243796,137.651917 271.025269,138.221077 M289.773881,151.481017 C289.773881,155.390856 289.773881,155.390856 301.510626,155.390856 C313.247372,155.390856 313.247372,155.390856 313.247372,151.481017 C313.247372,147.571178 313.247372,147.571178 301.510626,147.571178 C289.773881,147.571178 289.773881,147.571178 289.773881,151.481017 M285.405017,207.28112 C282.031541,208.445135 278.844177,211.193752 277.657089,213.962476 C277.179794,215.075663 276.855078,217.626554 276.860667,220.220452 C276.871844,225.355188 277.989071,228.077553 281.15408,230.684857 C284.533704,233.468662 287.015187,233.866907 300.991974,233.866907 C313.607298,233.866907 313.607298,233.866907 316.901971,232.182884 C319.423135,230.893754 320.594015,229.855412 321.891764,227.758063 C323.434308,225.264145 323.586885,224.587184 323.586885,220.226038 C323.586885,214.513763 322.495368,211.918747 318.950871,209.202526 C315.691968,206.705257 312.510192,206.216527 299.666839,206.237193 C290.195845,206.252274 287.897678,206.420397 285.405017,207.28112 M285.668815,209.267877 C281.246856,210.843542 278.629562,214.897486 278.608324,220.203696 C278.586527,225.728857 281.692293,229.895069 286.913468,231.344503 C289.590564,232.087372 311.266097,232.067823 313.961077,231.319926 C316.392819,230.6452 319.643898,227.987627 320.820926,225.712659 C321.30828,224.770388 321.630761,222.544572 321.630761,220.119914 C321.630761,214.748354 320.080393,211.965107 315.940116,209.903505 C313.058466,208.468035 312.896387,208.452955 300.423021,208.477531 C291.216942,208.495404 287.238185,208.708211 285.668815,209.267877 M287.130878,212.901234 C281.34578,215.525853 280.891959,223.629832 286.340045,227.015752 C288.287785,228.226127 288.889713,228.281423 300.113395,228.281423 C310.186317,228.281423 312.100524,228.144579 313.617359,227.315134 C315.911613,226.060635 317.718513,223.73428 317.718513,222.035735 C317.718513,220.688516 317.718513,220.688516 315.590808,222.397116 C312.532548,224.853053 308.450955,225.593688 302.416591,224.786586 C299.797061,224.436376 296.891379,223.755505 295.959146,223.273478 C293.709044,222.11058 292.385586,219.507186 292.876853,217.209318 C293.379856,214.856153 294.089091,214.059105 296.760039,212.844821 C298.995609,211.828821 298.995609,211.828821 294.245022,211.828821 C290.75362,211.828821 288.867916,212.113122 287.130878,212.901234 M269.892952,269.811173 C269.300526,269.92009 268.375,270.398766 267.837345,270.875208 C266.947588,271.66332 266.859283,273.223904 266.859283,288.110895 C266.859283,304.230602 266.877726,304.497029 268.082699,305.618594 C269.283759,306.737367 269.874509,306.757475 301.26136,306.757475 C332.743782,306.757475 333.238402,306.74016 334.689288,305.599604 C336.16197,304.442292 336.16197,304.442292 336.16197,288.284603 C336.16197,272.872018 336.110552,272.076087 335.044184,271.010376 C334.429402,270.395973 333.485992,269.872055 332.948337,269.845803 C329.592187,269.683265 270.769296,269.65087 269.892952,269.811173 M270.901753,288.180713 C271.050978,302.568362 271.050978,302.568362 301.510626,302.568362 C331.970275,302.568362 331.970275,302.568362 331.970275,288.325377 C331.970275,274.082393 331.970275,274.082393 301.361402,273.937729 C270.752529,273.793623 270.752529,273.793623 270.901753,288.180713 M289.773881,287.766829 C289.773881,291.676668 289.773881,291.676668 301.510626,291.676668 C313.247372,291.676668 313.247372,291.676668 313.247372,287.766829 C313.247372,283.85699 313.247372,283.85699 301.510626,283.85699 C289.773881,283.85699 289.773881,283.85699 289.773881,287.766829 M285.861632,343.160867 C283.918922,343.712713 280.660019,345.860332 279.265023,347.508608 C277.63641,349.433366 276.857313,352.241747 276.857313,356.189009 C276.857313,362.749719 278.78717,366.133405 283.905508,368.545775 C286.593782,369.812563 287.200739,369.862833 299.903251,369.86786 C314.616659,369.874004 316.533101,369.537199 319.880309,366.3585 C322.566347,363.808726 323.840064,360.724981 323.850683,356.747557 C323.863537,352.142326 323.019609,349.509887 320.711942,346.957321 C317.172475,343.042455 314.633425,342.496753 300.23188,342.554842 C293.404447,342.58277 286.937501,342.855341 285.861632,343.160867 M285.000379,345.788838 C280.552152,347.80799 278.302051,352.027265 278.705012,357.594317 C279.012962,361.852131 280.938906,364.809087 284.567237,366.594207 C287.167765,367.873842 287.703184,367.918526 300.392841,367.918526 C312.866766,367.918526 313.642509,367.856527 315.831691,366.686368 C318.453456,365.28497 320.910907,362.610082 321.412234,360.612712 C321.599463,359.867609 321.659824,357.412789 321.545809,355.157929 C321.299338,350.279008 319.779709,347.799612 315.880315,345.912835 C313.622947,344.820873 312.537578,344.739884 300.355954,344.751055 C288.858974,344.761667 286.982771,344.888458 285.000379,345.788838 M286.990596,349.068634 C283.884829,350.628101 282.361847,353.369457 282.644646,356.891663 C282.897266,360.040759 284.222959,362.011876 287.091196,363.5032 C289.332915,364.668891 311.519834,364.631468 313.790056,363.458517 C315.888139,362.374374 317.718513,359.757575 317.718513,357.842871 C317.718513,356.317475 317.718513,356.317475 316.611346,357.724459 C314.790474,360.037966 311.363345,361.109821 305.930349,361.066254 C300.202259,361.019894 297.108788,360.275908 294.890543,358.410356 C291.555072,355.605326 292.133526,351.20173 296.08825,349.284234 C298.436717,348.145912 298.436717,348.145912 293.686129,348.118543 C290.234408,348.098994 288.403476,348.358719 286.990596,349.068634 M110.928238,350.695127 C107.396595,351.073823 106.656621,351.397222 105.993775,352.850565 C105.518157,353.893934 105.339311,362.916166 105.339311,385.84402 C105.339311,417.400888 105.339311,417.400888 106.711393,418.771566 C108.082915,420.142802 108.082915,420.142802 124.062215,420.142802 C140.041514,420.142802 140.041514,420.142802 141.413037,418.771566 C142.785118,417.400888 142.785118,417.400888 142.785118,385.84402 C142.785118,363.579722 142.599007,353.878853 142.153569,352.901952 C141.806497,352.140092 140.863086,351.279927 140.057722,350.990599 C138.666638,350.490698 115.067955,350.251639 110.928238,350.695127 M462.36328,350.993392 C461.377952,351.334106 460.667041,352.127804 460.305996,353.292936 C459.964513,354.392159 459.792374,367.091874 459.85497,386.539413 C459.956688,418.007471 459.956688,418.007471 461.276234,419.074857 C462.505798,420.070191 463.673324,420.142802 478.487332,420.142802 C494.379445,420.142802 494.379445,420.142802 495.750967,418.771566 C497.123049,417.400888 497.123049,417.400888 497.123049,385.32066 C497.123049,354.567543 497.078896,353.186253 496.054446,351.922258 C494.986402,350.603525 494.986402,350.603525 479.42739,350.538175 C470.870185,350.502428 463.191559,350.707415 462.36328,350.993392 M109.617076,359.400662 C109.419787,361.935355 109.258267,373.559865 109.258267,385.233526 C109.258267,396.907188 109.419787,408.531698 109.617076,411.06639 C109.975885,415.674415 109.975885,415.674415 124.062215,415.674415 C138.148545,415.674415 138.148545,415.674415 138.507354,411.06639 C138.704643,408.531698 138.866163,396.907188 138.866163,385.233526 C138.866163,373.559865 138.704643,361.935355 138.507354,359.400662 C138.148545,354.792638 138.148545,354.792638 124.062215,354.792638 C109.975885,354.792638 109.975885,354.792638 109.617076,359.400662 M463.95333,359.896095 C463.481624,366.533326 463.481624,403.926466 463.952771,410.561463 C464.315492,415.674415 464.315492,415.674415 478.767897,415.674415 C493.220301,415.674415 493.220301,415.674415 493.076107,385.373163 C492.931354,355.071912 492.931354,355.071912 478.624261,354.92278 C464.317169,354.774206 464.317169,354.774206 463.95333,359.896095 M114.973503,362.51066 C114.421317,362.867014 114.300596,367.855968 114.41461,385.549665 C114.56104,408.134011 114.56104,408.134011 124.030917,408.134011 C133.500793,408.134011 133.500793,408.134011 133.511971,385.233526 C133.523149,362.333042 133.523149,362.333042 124.600987,362.194522 C119.69391,362.118 115.361374,362.26043 114.973503,362.51066 M469.399179,362.707269 C469.090112,363.20717 468.864878,402.458601 469.140971,407.728505 C469.170033,408.282026 471.263645,408.406024 478.539868,408.287053 C487.90132,408.134011 487.90132,408.134011 487.90132,385.233526 C487.90132,362.333042 487.90132,362.333042 478.860673,362.179999 C472.212645,362.067172 469.708806,362.20681 469.399179,362.707269 M269.653746,406.009852 C269.19266,406.183002 268.375,406.708037 267.837345,407.176101 C266.947588,407.950807 266.859283,409.503013 266.859283,424.377716 C266.859283,440.728104 266.859283,440.728104 268.331965,441.885416 C269.782291,443.025972 270.280824,443.043287 301.510626,443.043287 C332.740429,443.043287 333.238961,443.025972 334.689288,441.885416 C336.16197,440.728104 336.16197,440.728104 336.16197,424.377716 C336.16197,408.466906 336.130113,407.999401 334.98606,406.963852 C333.861568,405.946736 332.420742,405.895349 302.151117,405.797603 C284.738817,405.74119 270.114832,405.836702 269.653746,406.009852 M270.771531,424.247574 C270.771531,438.406218 270.771531,438.406218 276.220735,438.76704 C283.282902,439.234545 319.738351,439.234545 326.800518,438.76704 C332.249721,438.406218 332.249721,438.406218 332.249721,424.247574 C332.249721,410.088931 332.249721,410.088931 301.510626,410.088931 C270.771531,410.088931 270.771531,410.088931 270.771531,424.247574 M289.773881,424.052641 C289.773881,427.96248 289.773881,427.96248 301.510626,427.96248 C313.247372,427.96248 313.247372,427.96248 313.247372,424.052641 C313.247372,420.142802 313.247372,420.142802 301.510626,420.142802 C289.773881,420.142802 289.773881,420.142802 289.773881,424.052641 M251.769182,488.070667 C171.17854,490.763987 122.898041,495.054756 85.3186594,502.86438 C66.5588692,506.763048 53.3622963,512.316695 53.3622963,516.313109 C53.3622963,517.235831 59.0249965,529.878015 59.7733538,530.625912 C59.9063702,530.759405 61.0303033,530.000338 62.270486,528.939096 C76.12264,517.089491 137.106769,507.946054 229.413476,503.879263 C250.758145,502.938667 297.532428,502.482333 330.293597,502.894542 C437.585893,504.243995 523.712925,515.120049 538.657714,529.206082 C540.7843,531.210153 540.7843,531.210153 542.628087,528.319665 C547.755368,520.282712 549.658956,516.999006 549.658956,516.192462 C549.658956,514.300659 545.558361,511.428603 539.320001,508.951999 C515.376482,499.446622 460.503285,492.703826 375.284454,488.795104 C363.22411,488.242141 264.050289,487.660692 251.769182,488.070667 M252.607521,505.087403 C150.559873,507.771786 71.8622015,518.855621 62.1715621,531.908897 C61.0928993,533.361682 61.0928993,533.361682 63.8784202,538.908626 C66.6633822,544.45557 66.6633822,544.45557 87.8180273,546.309951 C99.4524953,547.32986 109.03974,548.227448 109.122456,548.304527 C109.205172,548.381607 104.489795,556.804517 98.6432187,567.022043 C92.7972018,577.240128 88.0136397,585.819431 88.0136397,586.087535 C88.0136397,586.356196 89.1929032,588.947303 90.6337284,591.846727 C93.2538171,597.117749 93.2538171,597.117749 96.0113933,594.640028 C123.582685,569.866172 327.647799,560.068116 448.499389,577.715453 C480.268523,582.354756 501.565686,588.643452 507.699533,595.196342 C508.445096,595.992832 509.225869,596.6441 509.434894,596.6441 C509.866359,596.6441 514.625889,586.632678 514.631478,585.714424 C514.633155,585.385998 509.928397,576.873162 504.175715,566.79639 C498.423592,556.720176 493.79149,548.408417 493.883148,548.325752 C494.026783,548.196169 532.427737,544.687368 533.609236,544.695746 C534.191603,544.700215 539.039996,534.708901 539.039996,533.504112 C539.039996,528.807278 524.779851,523.070986 501.59419,518.441737 C449.071695,507.95499 348.551502,502.563881 252.607521,505.087403 M252.197294,512.815479 C250.37195,514.444764 250.37195,514.444764 250.206518,535.142334 C250.022083,558.196978 250.188633,559.731869 253.055194,561.479009 C254.789996,562.536341 256.219085,562.568737 301.109341,562.570412 C350.556249,562.572647 350.308101,562.586052 351.766252,559.863687 C352.169214,559.110764 352.369856,551.387156 352.369856,536.594001 C352.369856,514.451467 352.369856,514.451467 350.736213,512.81883 C349.10257,511.186193 349.10257,511.186193 301.562603,511.186193 C254.022637,511.186193 254.022637,511.186193 252.197294,512.815479 M256.495737,517.470421 C256.347071,517.858054 256.291182,526.719424 256.372221,537.162604 C256.519769,556.14934 256.519769,556.14934 263.785373,556.589476 C271.44332,557.053071 345.383139,556.907849 345.830812,556.428614 C345.973889,556.275013 346.183473,547.352202 346.29637,536.600146 C346.501483,517.050951 346.501483,517.050951 301.634142,516.907963 C265.912519,516.794019 256.711469,516.908521 256.495737,517.470421 M171.009196,523.80436 C163.631813,524.526563 156.338264,525.518545 154.80131,526.009509 C148.639518,527.977275 143.625134,532.828268 142.155246,538.242836 C141.347646,541.218782 141.901509,546.876319 143.312713,550.064514 C146.76108,557.855147 154.751568,562.573764 164.491949,562.57153 C166.847123,562.57153 175.186918,561.949307 183.025388,561.189681 C197.018383,559.833525 197.350924,559.771526 201.347565,557.79985 C206.246818,555.381894 209.376058,551.80495 210.773848,547.024893 C211.563004,544.327663 211.602127,543.292673 211.041558,540.002264 C209.862294,533.080173 205.934397,527.930916 199.519427,524.897998 C193.309571,521.962267 190.812439,521.866197 171.009196,523.80436 M407.758911,523.241343 C403.290005,524.442222 399.549337,526.693731 396.51958,530.00704 C393.138279,533.704631 391.798055,537.386582 391.782965,543.023452 C391.773463,546.628324 392.001492,547.62645 393.418843,550.183484 C395.471097,553.886102 397.994497,556.130349 402.449431,558.213735 C405.595996,559.684951 407.191635,559.959199 419.80137,561.191356 C427.439756,561.937577 435.740988,562.553656 438.249857,562.560359 C446.571769,562.5827 453.695414,559.234203 457.70491,553.415804 C463.570488,544.904643 462.081598,534.804971 454.09614,528.936303 C450.101176,526.000014 446.817681,525.269432 430.855149,523.765262 C413.846928,522.162786 411.932721,522.119219 407.758911,523.241343 M330.85249,527.022716 C326.381349,528.843025 326.381349,528.843025 326.225417,535.898609 C326.068928,542.954192 326.068928,542.954192 330.913409,545.223016 C333.57765,546.470813 335.84899,547.49184 335.95965,547.49184 C336.07087,547.49184 336.16197,542.464904 336.16197,536.320871 C336.16197,530.176839 335.973623,525.161633 335.7428,525.176155 C335.511977,525.190119 333.311617,526.021239 330.85249,527.022716 M171.009196,526.864647 C164.861377,527.448888 158.306684,528.323017 156.442777,528.80672 C149.59243,530.584021 144.860845,536.00976 144.860845,542.089001 C144.860845,550.822464 151.034373,557.57308 160.639502,559.34312 C164.955271,560.139051 194.114376,557.42283 198.379286,555.828175 C204.319197,553.606828 208.175556,548.646918 208.175556,543.227881 C208.175556,536.333718 204.757369,531.032535 198.241799,527.823674 C194.767722,526.112282 194.095374,525.981582 188.350517,525.894448 C184.960833,525.84362 177.157015,526.279847 171.009196,526.864647 M267.418176,536.320871 C267.418176,544.679548 267.57243,546.992497 268.116791,546.77969 C268.501309,546.629441 270.639074,545.688845 272.867379,544.690161 C276.91935,542.873761 276.91935,542.873761 276.91935,536.055002 C276.91935,528.641948 277.460358,529.283161 268.396238,525.948627 C267.48636,525.614057 267.418176,526.335143 267.418176,536.320871 M407.174309,526.630056 C404.033332,527.728721 402.376216,528.751982 399.688501,531.25372 C396.573792,534.153703 395.272131,537.038606 394.965858,541.72371 C394.647289,546.600396 395.937773,549.777978 399.461591,552.791905 C403.374957,556.139845 406.062113,556.777148 423.141872,558.40811 C436.356329,559.669871 439.260335,559.797778 442.289533,559.250959 C451.80971,557.532864 457.417639,551.692682 457.85134,543.044677 C458.045275,539.177288 457.925672,538.601424 456.385364,535.974571 C454.44433,532.666289 450.741667,529.960681 446.554443,528.79108 C443.221207,527.860539 420.169122,525.697281 413.988887,525.735262 C411.577824,525.749784 408.555333,526.146912 407.174309,526.630056 M182.652047,530.680649 C180.756284,530.864412 179.062839,531.156533 178.889582,531.3308 C178.716325,531.504508 179.823492,531.966428 181.350945,532.357412 C184.671885,533.208081 186.667691,535.306547 187.210935,538.517642 C188.105163,543.807654 182.971175,547.844284 173.193907,549.536685 C165.953453,550.790626 159.001947,550.36613 155.259602,548.442489 C153.666758,547.623657 151.969401,546.390382 151.487076,545.70225 C150.406178,544.160098 150.363702,544.704683 151.375298,547.124873 C153.050858,551.133017 159.243388,554.752969 164.424882,554.752969 C169.271599,554.752969 191.754173,552.457335 194.485481,551.683745 C197.279385,550.892282 200.57797,548.135287 201.961788,545.434147 C204.674653,540.13855 199.367408,532.37361 191.949226,530.783422 C188.980948,530.147236 188.246563,530.139416 182.652047,530.680649 M410.37844,530.944284 C398.38684,534.241954 396.943779,547.691241 408.157401,551.645206 C409.308161,552.050712 416.701193,552.960028 424.586609,553.664917 C436.833064,554.76023 439.379379,554.845688 442.047533,554.2486 C445.783171,553.413011 449.391941,550.832518 451.141834,547.744862 C452.849251,544.73261 452.726294,544.298618 450.730489,546.293195 C447.117807,549.903652 439.777311,551.148097 430.614825,549.703133 C418.765183,547.834788 413.784332,543.269772 416.329529,536.609641 C417.072856,534.665334 417.763648,533.914086 419.646557,533.003094 C420.954925,532.370258 422.63775,531.844664 423.386108,531.835728 C424.420059,531.822322 424.545251,531.705027 423.908113,531.345881 C422.321976,530.451086 413.15949,530.179073 410.37844,530.944284 M283.626062,536.041597 C283.626062,541.347807 283.626062,541.347807 301.510626,541.347807 C319.395191,541.347807 319.395191,541.347807 319.395191,536.041597 C319.395191,530.735387 319.395191,530.735387 301.510626,530.735387 C283.626062,530.735387 283.626062,530.735387 283.626062,536.041597 M71.0495716,557.350778 C70.5655705,563.069755 70.5929563,566.616537 71.1194331,566.389208 C72.8894461,565.625672 92.9447494,555.026099 92.832412,554.913831 C92.6446241,554.726159 74.7522353,553.082351 72.8659726,553.079558 C71.4564454,553.077324 71.3994383,553.211375 71.0495716,557.350778 M518.443685,553.958154 C514.339177,554.365336 510.758352,554.773077 510.48673,554.865237 C510.21455,554.956839 514.92825,557.615529 520.960937,560.773004 C526.993624,563.930478 532.046014,566.397028 532.188531,566.254598 C532.331608,566.112168 532.266217,563.088745 532.044337,559.536377 C531.640258,553.077324 531.640258,553.077324 528.773138,553.147701 C527.196502,553.186799 522.547633,553.551531 518.443685,553.958154 M83.7269332,563.334507 C77.8345281,566.448414 72.8564714,569.153464 72.6647713,569.346163 C72.30708,569.70531 81.6892107,577.442322 82.8645619,577.757344 C83.2239298,577.853973 86.1463794,573.34537 89.3594532,567.739219 C92.5725269,562.133069 95.0305367,557.574197 94.8215109,557.609385 C94.6119262,557.644574 89.6198971,560.221158 83.7269332,563.334507 M508.688773,559.263806 C509.32591,560.315552 512.035422,565.01071 514.710282,569.698049 C517.879762,575.251696 519.800117,578.082977 520.224876,577.827162 C522.819255,576.264344 530.643752,569.606447 530.276001,569.274669 C530.02394,569.04734 524.803324,566.271913 518.674507,563.106619 C507.734184,557.456343 507.551985,557.385966 508.688773,559.263806 M267.341048,570.980476 C241.424638,571.593762 216.287324,572.992367 191.96767,575.174057 C133.474526,580.42162 94.7203513,590.382213 94.7203513,600.16854 C94.7203513,603.733755 101.361114,608.127855 112.046023,611.632746 C137.079383,619.844525 179.891677,625.387559 243.106346,628.602005 C261.935998,629.559916 340.445323,629.56215 359.63546,628.605915 C421.637891,625.516026 466.12351,619.771355 490.97523,611.645034 C501.112983,608.330608 508.307049,603.657792 508.296989,600.394752 C508.270721,591.553489 478.970775,582.844044 430.055932,577.136796 C384.476561,571.819416 325.762095,569.59751 267.341048,570.980476 M250.092504,581.346576 C184.128083,583.509834 144.208617,586.579057 119.591074,591.379781 C100.214825,595.158919 94.3973114,599.934508 103.7705,604.367707 C117.570118,610.894345 160.998311,615.621899 233.884617,618.532495 C256.682407,619.442929 346.130379,619.445163 368.857189,618.535846 C453.183468,615.161655 499.614033,609.190214 503.232863,601.252683 C507.228386,592.489058 464.536255,585.999843 376.961132,582.060401 C364.921467,581.518609 262.426705,580.942187 250.092504,581.346576" id="Shape" stroke="#9BC4BB"></path>
    </g>
</svg>