<svg width="602" height="632" xmlns="http://www.w3.org/2000/svg">
    <path d="M295.922 2.841c-23.09 10.37-45.012 25.122-70.98 47.768-20.986 18.302-47.437 46.505-70.449 75.115-12.942 16.09-31.722 40.972-39.873 52.828-9.264 13.475-28.283 41.662-28.283 41.919 0 .155-1.548 2.604-3.44 5.442-3.66 5.492-13.564 21.593-23.444 38.116-22.283 37.26-45.847 83.01-56.1 108.916-2.636 6.662-2.636 6.662-2.01 12.64 1.466 13.984 9.003 39.206 20.439 68.39 11.562 29.51 34.88 80.555 38.89 85.139 2.167 2.476 5.57 8.466 6.98 12.288.722 1.955.722 1.955.761.14.022-.999.29-1.816.598-1.816s.56-.503.56-1.117c0-.691.373-1.118.977-1.12 1.63-.003 33.94 2.91 34.126 3.078.138.124-9.93 18.056-17.03 30.331-1.115 1.926-1.547 2.279-2.164 1.767-.424-.352-1.005-.495-1.29-.318-.287.176-.843-.067-1.237-.541-.394-.475-1.207-1.125-1.808-1.446-.6-.322.474 1.47 2.387 3.982 2.093 2.749 5.006 7.728 7.317 12.511 2.113 4.37 4.413 8.465 5.113 9.099 10.674 9.671 56.417 18.587 115.567 22.527 31.172 2.076 38.57 2.325 78.183 2.63 70.316.542 124.945-2.689 168.01-9.936 31.924-5.372 50.271-12.21 52.07-19.405.734-2.932 5.632-12.696 7.226-14.4 2.367-2.534 5.41-6.922 4.8-6.922-.29 0-.839.377-1.221.838-.383.46-1.118.838-1.634.838-.515 0-1.216.278-1.556.618-.452.452-.838.264-1.433-.698-2.697-4.359-17.819-31.297-17.653-31.448.207-.19 32.375-3.108 34.217-3.104.725.001.964.306.783.996-.143.546.08 1.31.494 1.697.415.388.772 1.26.794 1.939.05 1.544 2.149-5.542 2.176-7.345.013-.853 1.156-2.428 3.246-4.468 2.952-2.882 3.766-4.29 9.573-16.555 12.74-26.915 25.018-55.095 32.733-75.125 9.39-24.386 17.05-50.723 18.281-62.865.626-6.173.626-6.173-1.106-10.663-7.375-19.111-21.43-47.915-37.922-77.718-2.259-4.08-4.107-7.541-4.107-7.69 0-.149-1.006-1.926-2.235-3.948-1.23-2.023-2.236-3.776-2.236-3.897 0-.635-25.391-42.733-32.242-53.455-12.34-19.314-31.194-47.045-43.767-64.374-8.382-11.551-33.994-44.442-37.817-48.564-.57-.615-3.035-3.505-5.478-6.424-10.547-12.597-33.358-36.825-45.29-48.101-20.059-18.96-43.02-36.63-61.963-47.686-5.315-3.102-22.369-11.546-24.665-12.212-.676-.196-2.994.518-5.868 1.81m-5.906 8.687c-26.144 13.024-50.525 31.356-79.53 59.799-47.017 46.107-97.396 112.864-143.526 190.187C42.354 302.76 20.023 345.63 9.071 372.642c-3.227 7.961-3.314 9.024-1.537 18.88 4.28 23.759 19.353 64.696 41.656 113.14 3.731 8.103 3.731 8.103 6.159 6.25 2.688-2.05 10.147-5.071 17.854-7.232 45.596-12.78 162.875-20.332 273.857-17.635 102.982 2.503 179.996 11.89 199.58 24.326 2.85 1.81 2.85 1.81 3.985-.782.626-1.426 3.965-8.876 7.421-16.556 20.863-46.356 33.96-83.719 37.135-105.929.93-6.508.93-6.508-1.863-13.49-13.607-34.024-45.714-93.44-77.179-142.82-39.701-62.306-78.743-112.884-117.653-152.415-33.36-33.892-62.685-56.113-91.492-69.327-3.35-1.536-6.16-2.794-6.243-2.794-.084 0-4.915 2.373-10.735 5.271M279.714 43.99c-11.835 8.129-22.209 15.288-23.055 15.91-1.536 1.13-1.536 1.13-1.536 199.956 0 198.827 0 198.827 46.108 198.827 46.109 0 46.109 0 46.109-199.059 0-199.057 0-199.057-22.89-214.761-12.59-8.637-22.964-15.692-23.055-15.678-.09.014-9.847 6.676-21.681 14.805m.697 4.463c-20.817 14.28-20.817 14.28-20.817 210.3s0 196.02 41.917 196.02 41.917 0 41.917-195.98 0-195.98-20.501-210.07c-11.276-7.75-20.77-14.195-21.1-14.321-.329-.126-9.966 6.197-21.416 14.051m6.434 22.232c-3.778.847-6.86 3.113-8.693 6.388-1.033 1.847-1.284 3.153-1.291 6.728-.012 5.352.795 7.5 3.852 10.258 3.607 3.252 6.379 3.801 19.195 3.801 12.615 0 15.8-.498 19.043-2.983 3.544-2.717 4.636-5.312 4.636-11.024 0-4.361-.153-5.038-1.695-7.532-1.297-2.096-2.469-3.136-4.982-4.42-3.286-1.68-3.286-1.68-15.071-1.807-8.02-.088-12.81.101-14.994.59M286.173 73c-3.234 1.152-4.908 2.561-6.32 5.322-2.7 5.283-1.081 12.033 3.68 15.342 2.422 1.683 2.422 1.683 15.847 1.86 13.425.176 13.425.176 16.442-1.299 4.253-2.08 5.809-4.829 5.809-10.266 0-2.424-.323-4.65-.81-5.593-1.177-2.274-4.428-4.932-6.86-5.607-3.278-.91-25.086-.72-27.788.241m3.042 3.033c-5.686 1.123-8.536 7.372-5.576 12.225 2.08 3.408 4.441 3.991 16.195 4.001 5.687.005 11.262-.247 12.39-.56 2.486-.69 5.495-3.934 5.495-5.925 0-1.434 0-1.434-1.95.275-2.685 2.357-5.74 3.07-11.577 2.7-8.311-.526-12.185-3.25-11.303-7.95.362-1.923 2.467-4.163 3.914-4.163.4 0 .885-.252 1.075-.559.392-.634-5.523-.664-8.663-.044m-76.408 24.868c-31.045 16.658-72.9 64.71-116.797 134.083-31.132 49.2-62.33 108.978-72.091 138.126-2.487 7.426-2.487 7.426-1.292 13.685 4.243 22.24 13.662 50.538 24.928 74.897 4.081 8.823 13.437 26.594 14.002 26.594.162 0 .963-.47 1.78-1.046 11.129-7.843 47.082-15.04 103.48-20.715 16.571-1.667 39.344-3.553 51.558-4.27 5.309-.311 6.567-.546 6.567-1.227 0-1.007-6.24-.785-29.062 1.033-67.429 5.37-113.075 13.004-130.416 21.81-3.098 1.574-3.44 1.64-4.065.786-1.528-2.088-13.196-25.67-16.313-32.97-9.552-22.366-18.561-51.325-20.89-67.147-.677-4.604-.677-4.604 1.37-10.664 10.092-29.864 41.721-90.348 72.778-139.171 28.368-44.596 54.584-78.896 78.786-103.078 13.512-13.501 23.764-21.854 34.235-27.893 2.523-1.455 4.981-3.246 5.462-3.98.481-.735.807-1.33.723-1.326-.084.005-2.218 1.118-4.743 2.473m172.016-1.284c.364.766 3.144 2.796 6.661 4.863 31.838 18.713 75.468 70.745 119.764 142.83 29.357 47.772 59.102 106.248 65.832 129.416 1.26 4.34 1.26 4.34-.3 12.009-5.761 28.296-18.514 63-32.749 89.114-2.208 4.05-4.1 7.462-4.207 7.582-.107.119-1.898-.67-3.982-1.752-16.725-8.692-63.496-16.357-133.675-21.909-19.266-1.523-25.206-1.704-25.206-.764 0 .667 1.953.95 10.48 1.512 24.66 1.627 54.278 4.455 77.266 7.376 38.372 4.875 62.898 10.546 72.817 16.838 1.472.934 2.753 1.602 2.847 1.486.688-.852 6.481-11.65 9.702-18.085 12.823-25.616 22.845-53.97 28.358-80.23 1.918-9.138 1.918-9.138-.56-16.57-11.084-33.231-46.99-100.416-82.299-153.988-25.8-39.146-47.375-66.609-70.222-89.387-14.016-13.974-25.516-23.123-36.806-29.285-3.969-2.165-4.292-2.257-3.72-1.056m-116.847 35.108c-1.066 1.065-1.118 1.861-1.118 17.315 0 15.453.052 16.249 1.118 17.315 1.092 1.091 1.863 1.117 33.534 1.117 31.67 0 32.441-.026 33.533-1.117 1.067-1.066 1.118-1.862 1.118-17.315 0-15.454-.051-16.25-1.118-17.315-1.092-1.092-1.863-1.118-33.533-1.118-31.671 0-32.442.026-33.534 1.118m3.048 3.496c-.15.393-.207 6.867-.124 14.388.15 13.674.15 13.674 30.61 13.674s30.46 0 30.46-14.243 0-14.243-30.336-14.388c-24.207-.115-30.391 0-30.61.57m18.749 13.259c0 3.91 0 3.91 11.737 3.91 11.736 0 11.736 0 11.736-3.91s0-3.91-11.736-3.91c-11.737 0-11.737 0-11.737 3.91m-4.369 55.8c-3.373 1.164-6.56 3.913-7.748 6.681-.477 1.114-.802 3.665-.796 6.258.01 5.135 1.128 7.858 4.293 10.465 3.38 2.784 5.861 3.182 19.838 3.182 12.615 0 12.615 0 15.91-1.684 2.521-1.29 3.692-2.328 4.99-4.425 1.542-2.494 1.695-3.17 1.695-7.532 0-5.712-1.092-8.307-4.636-11.023-3.259-2.498-6.44-2.986-19.284-2.966-9.471.015-11.77.183-14.262 1.044m.264 1.987c-4.422 1.576-7.04 5.63-7.06 10.936-.022 5.525 3.083 9.691 8.304 11.14 2.678.743 24.353.724 27.048-.024 2.432-.675 5.683-3.332 6.86-5.607.487-.943.81-3.168.81-5.593 0-5.372-1.55-8.155-5.69-10.216-2.883-1.436-3.045-1.451-15.518-1.426-9.206.017-13.185.23-14.754.79m1.462 3.633c-5.785 2.625-6.239 10.729-.791 14.115 1.948 1.21 2.55 1.265 13.773 1.265 10.073 0 11.988-.136 13.504-.966 2.295-1.254 4.102-3.58 4.102-5.28 0-1.346 0-1.346-2.128.362-3.058 2.456-7.14 3.197-13.174 2.39-2.62-.35-5.526-1.031-6.458-1.514-2.25-1.162-3.573-3.766-3.082-6.064.503-2.353 1.212-3.15 3.883-4.364 2.236-1.016 2.236-1.016-2.515-1.016-3.491 0-5.377.284-7.114 1.072m-17.238 56.91c-.592.11-1.518.588-2.056 1.064-.89.788-.978 2.349-.978 17.236 0 16.12.019 16.386 1.224 17.508 1.2 1.118 1.792 1.138 33.178 1.138 31.483 0 31.977-.017 33.428-1.157 1.473-1.158 1.473-1.158 1.473-17.315 0-15.413-.051-16.209-1.118-17.275-.615-.614-1.558-1.138-2.096-1.164-3.356-.163-62.179-.195-63.055-.035m1.009 18.37c.149 14.387.149 14.387 30.609 14.387s30.46 0 30.46-14.243 0-14.243-30.61-14.387c-30.608-.144-30.608-.144-30.46 14.243m18.873-.414c0 3.91 0 3.91 11.737 3.91 11.736 0 11.736 0 11.736-3.91s0-3.91-11.736-3.91c-11.737 0-11.737 0-11.737 3.91m-3.912 55.394c-1.943.552-5.202 2.7-6.597 4.348-1.629 1.924-2.408 4.733-2.408 8.68 0 6.56 1.93 9.944 7.049 12.357 2.688 1.267 3.295 1.317 15.997 1.322 14.714.006 16.63-.33 19.977-3.51 2.686-2.55 3.96-5.633 3.97-9.61.014-4.606-.83-7.238-3.138-9.79-3.54-3.916-6.079-4.461-20.48-4.403-6.828.028-13.294.3-14.37.606m-.862 2.628c-4.448 2.019-6.698 6.238-6.295 11.805.308 4.258 2.234 7.215 5.862 9 2.6 1.28 3.136 1.325 15.826 1.325 12.474 0 13.25-.062 15.439-1.233 2.621-1.401 5.079-4.076 5.58-6.073.187-.745.248-3.2.134-5.455-.247-4.879-1.766-7.358-5.666-9.245-2.257-1.092-3.342-1.173-15.524-1.162-11.497.01-13.373.137-15.356 1.038m1.99 3.28c-3.105 1.56-4.628 4.3-4.345 7.823.252 3.149 1.578 5.12 4.446 6.611 2.242 1.166 24.429 1.128 26.7-.044 2.097-1.085 3.928-3.701 3.928-5.616 0-1.526 0-1.526-1.108-.119-1.82 2.314-5.248 3.386-10.68 3.342-5.729-.046-8.822-.79-11.04-2.656-3.336-2.805-2.757-7.208 1.197-9.126 2.349-1.138 2.349-1.138-2.402-1.165-3.452-.02-5.283.24-6.695.95m-176.063 1.626c-3.531.379-4.271.702-4.934 2.156-.476 1.043-.655 10.065-.655 32.993 0 31.557 0 31.557 1.372 32.928 1.372 1.37 1.372 1.37 17.351 1.37 15.98 0 15.98 0 17.351-1.37 1.372-1.371 1.372-1.371 1.372-32.928 0-22.264-.186-31.965-.631-32.942-.348-.762-1.29-1.622-2.096-1.911-1.391-.5-24.99-.74-29.13-.296m351.435.298c-.985.341-1.696 1.135-2.057 2.3-.341 1.1-.514 13.799-.451 33.246.102 31.468.102 31.468 1.421 32.536 1.23.995 2.397 1.068 17.211 1.068 15.892 0 15.892 0 17.264-1.371 1.372-1.371 1.372-1.371 1.372-33.451 0-30.753-.044-32.135-1.069-33.399-1.068-1.318-1.068-1.318-16.627-1.384-8.557-.036-16.235.17-17.064.455m-352.746 8.408c-.197 2.534-.359 14.159-.359 25.833 0 11.673.162 23.298.36 25.832.358 4.608.358 4.608 14.444 4.608 14.087 0 14.087 0 14.445-4.608.198-2.534.36-14.159.36-25.832 0-11.674-.162-23.299-.36-25.833-.358-4.608-.358-4.608-14.445-4.608-14.086 0-14.086 0-14.445 4.608m354.336.495c-.471 6.637-.471 44.03 0 50.665.362 5.113.362 5.113 14.815 5.113 14.452 0 14.452 0 14.308-30.3-.145-30.302-.145-30.302-14.452-30.451-14.307-.149-14.307-.149-14.67 4.973m-348.98 2.615c-.553.356-.673 5.345-.56 23.039.147 22.584.147 22.584 9.617 22.584s9.47 0 9.481-22.9c.011-22.901.011-22.901-8.911-23.04-4.907-.076-9.24.066-9.627.317m354.425.196c-.309.5-.534 39.752-.258 45.022.029.553 2.123.677 9.399.558 9.361-.153 9.361-.153 9.361-23.053 0-22.901 0-22.901-9.04-23.054-6.648-.113-9.152.027-9.462.527M269.654 406.01c-.461.173-1.279.698-1.817 1.166-.89.775-.978 2.327-.978 17.202 0 16.35 0 16.35 1.473 17.507 1.45 1.141 1.949 1.158 33.179 1.158s31.728-.017 33.178-1.158c1.473-1.157 1.473-1.157 1.473-17.507 0-15.911-.032-16.379-1.176-17.414-1.124-1.017-2.565-1.069-32.835-1.166-17.412-.057-32.036.039-32.497.212m1.118 18.238c0 14.158 0 14.158 5.449 14.519 7.062.468 43.517.468 50.58 0 5.449-.36 5.449-.36 5.449-14.52 0-14.158 0-14.158-30.74-14.158-30.738 0-30.738 0-30.738 14.159m19.002-.195c0 3.91 0 3.91 11.737 3.91 11.736 0 11.736 0 11.736-3.91s0-3.91-11.736-3.91c-11.737 0-11.737 0-11.737 3.91m-38.005 64.018c-80.59 2.693-128.871 6.984-166.45 14.793-18.76 3.899-31.957 9.453-31.957 13.45 0 .922 5.663 13.564 6.411 14.312.133.133 1.257-.626 2.497-1.687 13.853-11.85 74.837-20.993 167.143-25.06 21.345-.94 68.12-1.397 100.88-.984 107.293 1.349 193.42 12.225 208.365 26.311 2.126 2.004 2.126 2.004 3.97-.886 5.127-8.037 7.031-11.321 7.031-12.128 0-1.891-4.1-4.763-10.339-7.24-23.944-9.505-78.817-16.248-164.036-20.157-12.06-.553-111.234-1.134-123.515-.724m.839 17.016C150.56 507.772 71.862 518.856 62.172 531.91c-1.08 1.453-1.08 1.453 1.706 7 2.785 5.547 2.785 5.547 23.94 7.401 11.634 1.02 21.222 1.917 21.304 1.995.083.077-4.632 8.5-10.479 18.717-5.846 10.218-10.63 18.797-10.63 19.066 0 .268 1.18 2.86 2.62 5.759 2.62 5.27 2.62 5.27 5.378 2.793 27.572-24.774 231.637-34.572 352.488-16.925 31.77 4.64 53.067 10.928 59.2 17.481.746.797 1.527 1.448 1.736 1.448.431 0 5.19-10.011 5.196-10.93.002-.328-4.703-8.84-10.455-18.918-5.752-10.076-10.385-18.388-10.293-18.47.144-.13 38.545-3.639 39.726-3.63.583.004 5.431-9.987 5.431-11.192 0-4.697-14.26-10.433-37.446-15.062-52.522-10.487-153.042-15.878-248.986-13.355m-.41 7.728c-1.826 1.63-1.826 1.63-1.991 22.327-.185 23.055-.018 24.59 2.848 26.337 1.735 1.057 3.164 1.09 48.054 1.091 49.447.003 49.2.016 50.657-2.706.403-.753.604-8.477.604-23.27 0-22.143 0-22.143-1.634-23.775-1.633-1.633-1.633-1.633-49.173-1.633s-47.54 0-49.366 1.63m4.299 4.654c-.149.388-.205 9.25-.124 19.693.148 18.986.148 18.986 7.413 19.426 7.658.464 81.598.319 82.046-.16.143-.154.352-9.077.465-19.829.205-19.549.205-19.549-44.662-19.692-35.721-.114-44.923 0-45.138.562m-85.487 6.334c-7.377.723-14.67 1.715-16.208 2.206-6.161 1.967-11.176 6.818-12.646 12.233-.807 2.976-.253 8.633 1.158 11.822 3.448 7.79 11.439 12.509 21.179 12.507 2.355 0 10.695-.623 18.533-1.382 13.993-1.356 14.326-1.418 18.323-3.39 4.899-2.418 8.028-5.995 9.426-10.775.789-2.697.828-3.732.268-7.023-1.18-6.922-5.108-12.071-11.523-15.104-6.21-2.936-8.707-3.032-28.51-1.094m236.75-.563c-4.469 1.201-8.21 3.453-11.24 6.766-3.38 3.698-4.72 7.38-4.736 13.016-.01 3.605.218 4.603 1.636 7.16 2.052 3.703 4.575 5.947 9.03 8.03 3.147 1.472 4.743 1.746 17.352 2.978 7.639.747 15.94 1.363 18.449 1.37 8.322.022 15.445-3.327 19.455-9.145 5.865-8.511 4.377-18.611-3.609-24.48-3.995-2.936-7.278-3.667-23.24-5.17-17.01-1.603-18.923-1.647-23.097-.525m-76.907 3.782c-4.47 1.82-4.47 1.82-4.627 8.876-.156 7.055-.156 7.055 4.688 9.324 2.665 1.248 4.936 2.269 5.047 2.269.11 0 .202-5.027.202-11.171 0-6.144-.188-11.16-.42-11.145-.23.014-2.43.845-4.89 1.847m-159.843-.158c-6.148.584-12.702 1.458-14.566 1.942-6.85 1.777-11.582 7.203-11.582 13.282 0 8.733 6.173 15.484 15.779 17.254 4.315.796 33.474-1.92 37.74-3.515 5.94-2.221 9.796-7.181 9.796-12.6 0-6.894-3.419-12.195-9.934-15.404-3.474-1.712-4.147-1.842-9.891-1.93-3.39-.05-11.194.386-17.342.97m96.41 9.457c0 8.359.153 10.671.698 10.459.384-.15 2.522-1.091 4.75-2.09 4.052-1.816 4.052-1.816 4.052-8.635 0-7.413.541-6.772-8.523-10.106-.91-.335-.978.386-.978 10.372m139.756-9.69c-3.14 1.098-4.798 2.121-7.485 4.623-3.115 2.9-4.417 5.785-4.723 10.47-.319 4.876.972 8.054 4.496 11.068 3.913 3.348 6.6 3.985 23.68 5.616 13.214 1.262 16.118 1.39 19.148.843 9.52-1.718 15.128-7.558 15.561-16.206.194-3.868.075-4.444-1.466-7.07-1.94-3.309-5.643-6.014-9.83-7.184-3.334-.93-26.386-3.094-32.566-3.056-2.411.015-5.434.412-6.815.895m-224.522 4.05c-1.896.184-3.59.477-3.762.65-.174.175.933.636 2.46 1.027 3.322.851 5.318 2.95 5.86 6.16.895 5.29-4.239 9.327-14.016 11.02-7.24 1.254-14.192.83-17.934-1.095-1.593-.818-3.29-2.052-3.773-2.74-1.08-1.542-1.123-.997-.112 1.423 1.676 4.008 7.868 7.628 13.05 7.628 4.847 0 27.33-2.296 30.06-3.07 2.794-.79 6.093-3.548 7.477-6.249 2.713-5.295-2.595-13.06-10.013-14.65-2.968-.637-3.702-.645-9.297-.103m227.726.263c-11.991 3.298-13.434 16.747-2.22 20.701 1.15.406 8.543 1.315 16.429 2.02 12.246 1.095 14.792 1.18 17.46.584 3.736-.836 7.345-3.416 9.095-6.504 1.707-3.012 1.584-3.446-.412-1.452-3.612 3.61-10.953 4.855-20.115 3.41-11.85-1.868-16.83-6.433-14.285-13.093.743-1.945 1.434-2.696 3.317-3.607 1.308-.633 2.99-1.158 3.74-1.167 1.033-.014 1.158-.131.521-.49-1.586-.895-10.749-1.167-13.53-.402m-126.752 5.098c0 5.306 0 5.306 17.885 5.306 17.884 0 17.884 0 17.884-5.306 0-5.307 0-5.307-17.884-5.307-17.885 0-17.885 0-17.885 5.307M71.05 557.35c-.484 5.719-.457 9.266.07 9.038 1.77-.763 21.825-11.363 21.712-11.475-.187-.188-18.08-1.832-19.966-1.834-1.41-.003-1.467.131-1.816 4.27m447.394-3.392c-4.105.407-7.686.815-7.957.907-.272.092 4.441 2.75 10.474 5.908 6.033 3.157 11.085 5.624 11.228 5.482.143-.143.077-3.166-.145-6.719-.404-6.459-.404-6.459-3.27-6.388-1.577.039-6.226.404-10.33.81m-434.717 9.377c-5.892 3.113-10.87 5.818-11.062 6.011-.358.36 9.024 8.096 10.2 8.411.359.097 3.281-4.412 6.494-10.018 3.214-5.606 5.672-10.165 5.463-10.13-.21.036-5.202 2.612-11.095 5.726m424.962-4.071c.637 1.052 3.346 5.747 6.021 10.434 3.17 5.554 5.09 8.385 5.515 8.13 2.594-1.564 10.419-8.222 10.051-8.553-.252-.228-5.473-3.003-11.601-6.168-10.94-5.65-11.123-5.721-9.986-3.843M267.34 570.98c-25.916.614-51.054 2.012-75.373 4.194-58.493 5.248-97.248 15.208-97.248 24.995 0 3.565 6.641 7.959 17.326 11.464 25.033 8.212 67.846 13.755 131.06 16.969 18.83.958 97.34.96 116.53.004 62.002-3.09 106.488-8.835 131.34-16.961 10.137-3.314 17.331-7.987 17.321-11.25-.026-8.842-29.326-17.551-78.241-23.258-45.58-5.318-104.294-7.54-162.715-6.157m-17.248 10.367c-65.965 2.163-105.884 5.232-130.502 10.033-19.376 3.779-25.194 8.555-15.82 12.988 13.8 6.526 57.227 11.254 130.114 14.164 22.797.91 112.245.913 134.972.004 84.326-3.374 130.757-9.346 134.376-17.283 3.995-8.764-38.697-15.253-126.272-19.193-12.04-.541-114.534-1.118-126.868-.713" stroke="#9BC4BB" fill="none" fill-rule="evenodd"/>
</svg>
