<svg width="602" height="778" xmlns="http://www.w3.org/2000/svg">
    <path d="M178.246 18.264v17.264h70.207V23.605c0-6.56-.329-14.329-.732-17.265L246.99 1h-68.743v17.264m-25.609 18.099l-10.07.406v315.27h-14.244c-7.833 0-15.86.323-17.84.719l-3.596.72V317.51H1v105.887h35.68V353.19h70.207V387.718h10.765c5.921 0 13.95.332 17.84.739l7.074.74v34.26l17.552-.318 17.552-.317V36.104l-7.48-.074c-4.116-.041-12.013.108-17.553.333m95.816 158.571V353.19h34.512l.295-70.495.297-70.495 35.392-.304 35.391-.305v141.6H388.87V247.301h71.358v140.416h34.506l.3-52.656.298-52.656h15.538c8.546 0 16.444.372 17.552.828 1.787.734 2.014 2.706 2.014 17.552v16.724h36.057l-.764 74.426c-.42 40.935-.764 96.353-.764 123.151v48.726H530.435V669.7h35.68V565.183l17.184-.828 17.185-.829.367-54.815c.202-30.148.198-85.501-.008-123.007l-.376-68.194h-34.352v-34.528h-16.02c-8.81 0-16.838-.314-17.839-.699-1.548-.594-1.82-3.27-1.82-17.84v-17.14h-70.209v-34.181l-11.221-.744c-6.172-.408-29.939-.746-52.814-.75l-41.591-.005-.833-17.2-.833-17.202-33.732-.35c-18.552-.194-34.162-.783-34.688-1.31-.527-.528-1.137-31.992-1.358-69.92l-.4-68.962h-34.304v158.255M41.574 423.061c-2.688.347-3.896 1.187-4.305 2.998-.776 3.436-1.16 14.601-.849 24.673l.26 8.345h16.688c9.179 0 16.784.128 16.9.287.116.16.505 15.826.864 34.816l.651 34.529 17.552.317 17.552.318v70.148h34.363l.717-6.043c.393-3.323.56-19.25.37-35.391l-.346-29.35-16.845-.317-16.846-.318-.848-35.073-.848-35.074H72.419l-.318-17.552-.318-17.552-13.236-.121c-7.28-.066-14.917.095-16.973.36m106.052 176.114l-4.724.433-.651 13.226c-.358 7.275-.354 23.045.008 35.046l.66 21.82H177.072l.299 52.655.3 52.656 96.679.807c53.173.444 132.475.5 176.226.125l79.546-.68.833-49.617c.458-27.289.473-51.04.033-52.781l-.803-3.165h-35.429v70.217l-140.703-.293-140.703-.292-.305-34.816-.304-34.816H178.246v-69.875l-7.77-.734c-7.814-.738-14.119-.714-22.85.084" stroke="#9BC4BB" stroke-width="2" fill="none" fill-rule="evenodd"/>
</svg>
