<svg width="602" height="132" xmlns="http://www.w3.org/2000/svg">
    <g transform="translate(1 1)" stroke="#9BC4BB" stroke-width="2" fill="none" fill-rule="evenodd">
        <path d="M558.21 78.078l17.918 20.612-6.073 5.279-17.747-20.416a30.9 30.9 0 0 1-18.016 5.77C517.01 89.324 503 75.149 503 57.663S517.01 26 534.292 26c17.282 0 31.292 14.176 31.292 31.662 0 7.78-2.773 14.904-7.373 20.416zm-4.204-4.507a24.956 24.956 0 0 0 5.32-15.457c0-13.74-11.008-24.877-24.587-24.877s-24.587 11.138-24.587 24.877c0 13.74 11.008 24.878 24.587 24.878 4.995 0 9.642-1.507 13.52-4.096l-.163-.188 5.91-5.137z"/>
        <rect width="600" height="130" rx="7"/>
    </g>
</svg>
