<svg width="602" height="602" xmlns="http://www.w3.org/2000/svg">
    <path d="M301 1C135.314 1 1 135.314 1 301s134.314 300 300 300 300-134.314 300-300S466.686 1 301 1zm172.407 211.575c.172 3.813.26 7.65.26 11.507 0 117.552-89.478 253.104-253.101 253.104-50.236 0-96.994-14.729-136.363-39.968a180.7 180.7 0 0 0 21.22 1.244c41.678 0 80.034-14.224 110.479-38.081-38.926-.716-71.777-26.44-83.1-61.778a89.036 89.036 0 0 0 16.738 1.595 89.12 89.12 0 0 0 23.436-3.12c-40.694-8.176-71.359-44.128-71.359-87.227 0-.375 0-.749.01-1.119a88.605 88.605 0 0 0 40.291 11.126c-23.871-15.95-39.574-43.18-39.574-74.044 0-16.302 4.387-31.584 12.044-44.721 43.874 53.82 109.423 89.234 183.354 92.946-1.516-6.514-2.303-13.302-2.303-20.276 0-49.125 39.832-88.952 88.956-88.952 25.585 0 48.706 10.802 64.932 28.09a178.153 178.153 0 0 0 56.492-21.586c-6.642 20.774-20.748 38.206-39.114 49.215 17.995-2.15 35.138-6.933 51.092-14.006-11.925 17.84-27.006 33.507-44.39 46.051z" stroke="#9BC4BB" stroke-width="2" fill="none" fill-rule="evenodd"/>
</svg>
