<?xml version="1.0" encoding="UTF-8"?>
<svg width="600px" height="600px" viewBox="0 0 600 600" version="1.1" xmlns="http://www.w3.org/2000/svg" xmlns:xlink="http://www.w3.org/1999/xlink">
    <!-- Generator: Sketch 48.2 (47327) - http://www.bohemiancoding.com/sketch -->
    <title>Shape</title>
    <desc>Created with Sketch.</desc>
    <defs></defs>
    <g id="illistrations" stroke="none" stroke-width="1" fill="none" fill-rule="evenodd">
        <path d="M219.885909,0.242074415 C219.764585,0.360767507 217.28088,0.735392577 214.366977,1.07451569 C211.453074,1.41310893 207.161689,2.13215592 204.830567,2.67157363 C202.499444,3.21099134 198.804085,4.06356806 196.618658,4.56589418 C178.54981,8.71856274 156.682292,20.5767444 141.254499,34.587828 C123.235452,50.952638 111.335072,69.0162428 103.108859,92.4899212 C100.323697,100.438119 100.323697,100.438119 92.9743036,102.873447 C70.6379118,110.274809 51.6848264,122.660221 35.1513403,140.660771 C27.2006232,149.316358 18.1007687,162.622172 14.0615692,171.49713 C13.2795836,173.21553 11.819983,176.402228 10.81866,178.578974 C7.21495653,186.411659 3.06132011,200.495866 1.67218303,209.593373 C1.3606603,211.633411 0.853641158,214.890052 0.54476743,216.831002 C-0.181589143,221.399627 -0.181589143,242.826909 0.54476743,247.395533 C0.853641158,249.336483 1.3606603,252.593125 1.67218303,254.633162 C3.6223789,267.405387 10.332303,286.951066 16.2560031,297.117871 C16.9654061,298.335535 17.5460675,299.555318 17.5460675,299.828206 C17.5460675,300.101094 15.6721629,304.231508 13.3813053,309.006785 C7.45972439,321.352457 3.27006153,334.332924 1.68595784,345.24262 C1.34741528,347.574092 0.82715113,350.874714 0.530462814,352.576688 C-0.182118944,356.661532 -0.173112334,378.532853 0.543178028,383.035772 C0.852581557,384.981491 1.3601305,388.242372 1.67112343,390.28241 C3.9905903,405.4995 11.054951,424.584713 19.5752037,438.650904 C30.9473728,457.426668 47.9380769,474.13431 67.2704994,485.552161 C70.5796337,487.506358 73.3541993,489.105006 73.4363184,489.105006 C73.5184375,489.105006 76.1753873,490.331678 79.3404159,491.831238 C82.5059742,493.330798 88.3883499,495.681875 92.4121852,497.055853 C96.4365503,498.430362 99.938532,499.766719 100.194426,500.02583 C100.450319,500.285471 101.716543,503.59722 103.008196,507.385861 C118.815326,553.746641 157.281496,587.697104 205.360367,597.723491 C213.973865,599.519784 219.010149,599.93521 232.115296,599.928851 C245.933554,599.921963 251.12348,599.412748 262.843729,596.914365 C272.686893,594.81604 291.239449,587.560925 298.646061,582.913879 C299.626192,582.299218 300.598906,582.640461 307.503797,586.020035 C321.791988,593.013919 332.525748,596.423696 347.876719,598.844187 C357.683857,600.390907 378.192437,600.384018 388.141562,598.83094 C399.700221,597.026169 412.227885,593.521014 420.459396,589.78801 C441.157645,580.400659 455.547558,570.149603 469.113631,555.126448 C476.63309,546.799386 485.980362,533.184123 489.702211,525.136837 C490.173733,524.116818 491.437837,521.37469 492.510683,519.043219 C493.58353,516.711747 495.546441,511.585159 496.873061,507.650801 C498.199682,503.716443 499.549084,500.235662 499.872262,499.915615 C500.194911,499.596097 503.320204,498.420294 506.816888,497.302777 C541.349289,486.267499 572.389244,458.464702 587.697832,424.857601 C593.402724,412.33389 596.619143,401.488839 598.815696,387.36807 C600.393442,377.22617 600.395032,358.418613 598.818875,348.15696 C596.524309,333.215407 592.842195,321.55805 586.004589,307.585648 C582.244065,299.90027 582.244065,299.90027 583.648036,297.402416 C588.383393,288.976796 593.97173,274.454379 596.434773,264.171 C599.095431,253.061539 599.917682,245.492205 599.917682,232.113268 C599.917682,222.118144 599.699404,218.249491 598.810928,212.507712 C596.667355,198.659302 593.611995,188.353138 587.971209,175.946001 C579.182877,156.615454 567.85733,141.761861 550.525435,126.835675 C543.33763,120.645618 531.907713,113.444551 521.431437,108.5066 C515.914094,105.90542 503.339277,101.246716 501.783783,101.226581 C500.173719,101.206445 499.632263,100.230936 497.050015,92.6933951 C488.05665,66.4463255 472.276011,44.468498 450.183857,27.4227924 C436.402155,16.7886332 417.71291,7.85591831 401.386576,4.09854013 C387.21706,0.837659392 384.357726,0.476811199 370.332316,0.18007847 C355.835383,-0.126192096 349.612346,0.55258402 334.631705,4.07469553 C324.265627,6.51214295 317.624047,8.98456243 305.278105,15.0013484 C299.76553,17.6878393 299.76553,17.6878393 297.305136,16.304323 C292.716003,13.7243379 281.678668,8.96071784 275.558942,6.91856081 C267.924516,4.37142826 257.453008,2.08022769 246.684811,0.600803089 C242.744685,0.0597957389 220.378094,-0.240116269 219.885909,0.242074415 M221.519285,2.69912738 C214.596381,3.22582798 208.78129,4.12079508 201.121963,5.83813575 C193.684623,7.50566771 183.903445,10.7209788 183.903445,11.4983125 C183.903445,12.2565706 253.055663,58.406988 254.63182,58.7005415 C255.457249,58.8542066 256.512082,57.7573553 259.400025,53.7419256 C266.654584,43.656722 287.325813,24.5455447 295.029113,20.8019434 C295.976396,20.3414777 296.750965,19.6340881 296.750965,19.2303197 C296.750965,18.5483643 283.424891,11.805113 280.327147,10.918624 C279.598671,10.7103812 277.452979,9.99292383 275.558942,9.32421543 C269.124514,7.05368018 258.799761,4.66869087 250.393415,3.51249299 C242.941241,2.48770532 229.34179,2.10460217 221.519285,2.69912738 M357.94293,2.67051387 C347.080959,3.43725005 334.911969,5.84396443 324.565494,9.27122744 C316.504579,11.941822 303.108571,18.1276396 303.108571,19.1789213 C303.108571,19.4205465 304.12208,20.2482189 305.360224,21.0186642 C317.302988,28.4459904 333.921772,44.0700283 341.519112,55.0141672 C343.552487,57.9433431 344.431956,58.8001589 345.304007,58.7037208 C346.741356,58.5442269 416.506024,12.1209214 416.30629,11.4569819 C415.98735,10.3972222 404.844584,7.06480766 394.234268,4.85573847 C384.276137,2.78231852 369.209139,1.87516418 357.94293,2.67051387 M172.247832,16.1172754 C169.771014,17.3699114 166.131285,19.3887537 164.158837,20.6027085 C162.186919,21.8171932 160.437518,22.810718 160.271161,22.810718 C159.424539,22.810718 147.9729,31.6008952 143.108801,35.9840615 C128.684981,48.9830745 118.002082,63.4535639 110.253219,80.4876122 C107.400773,86.7582106 103.373759,97.6726762 103.373759,99.1330252 C103.373759,99.8531319 104.954154,99.6946978 110.890039,98.3784762 C112.838116,97.9466241 117.725526,97.1926051 121.750951,96.7029961 C130.458223,95.6432363 145.667738,95.8864512 155.249181,97.2381747 C158.575269,97.7071184 161.475927,97.9037039 161.695794,97.6747958 C162.049171,97.3065292 178.605439,15.7225149 178.605439,14.3495961 C178.605439,13.3237487 176.754316,13.8382621 172.247832,16.1172754 M181.037753,14.7300499 C180.879343,15.2403242 179.321199,22.810718 177.575507,31.5537358 C175.829814,40.2967537 172.128627,58.7074299 169.350883,72.4668206 C166.573668,86.2262112 164.300824,97.7362618 164.300824,98.0446519 C164.300824,98.7859539 165.847841,99.3688217 170.65843,100.441828 C188.987411,104.529322 211.744994,116.602105 226.254112,129.934942 C228.421526,131.926231 230.475033,133.555611 230.818344,133.555611 C231.52033,133.555611 232.115296,130.025022 232.115296,125.861756 C232.115296,122.108616 233.901783,110.698183 235.55688,103.882338 C238.329327,92.4613077 244.151305,78.0506947 250.19421,67.6502125 C251.906526,64.7035506 253.307318,62.0318962 253.307318,61.7139683 C253.307318,61.1194431 182.707685,13.8027601 181.820799,13.8027601 C181.548481,13.8027601 181.196164,14.2197756 181.037753,14.7300499 M382.186074,37.5148844 C362.595638,50.5568177 346.564403,61.3822635 346.560165,61.5719605 C346.555926,61.7611276 348.004931,64.4486783 349.780822,67.5442366 C360.540542,86.2988048 366.749804,106.822112 368.029273,127.859403 C368.220001,130.992582 368.553246,133.665826 368.769934,133.799886 C368.986622,133.933416 371.049666,132.350665 373.354828,130.281484 C383.01839,121.60735 392.511357,115.306549 404.83028,109.39044 C408.181268,107.781195 411.638217,106.144926 412.512388,105.754934 C415.703906,104.330617 425.358992,101.310302 430.393157,100.161522 C434.864674,99.1409734 435.558712,98.8368223 435.558712,97.8962855 C435.558712,96.5874823 419.20165,14.8694083 418.813836,14.2420305 C418.664962,14.0004053 418.37622,13.8027601 418.173307,13.8027601 C417.970393,13.8027601 401.775979,24.473481 382.186074,37.5148844 M421.48562,15.2599298 C421.659394,16.061638 425.452237,34.8978077 429.914217,57.1183202 C434.376197,79.3393625 438.154735,97.647242 438.310496,97.8035566 C438.466788,97.9593412 441.308638,97.704469 444.626249,97.2376449 C454.303586,95.8747938 468.883168,95.6416467 478.220373,96.7008766 C482.58434,97.1957844 488.130822,98.0605483 490.546183,98.622221 C495.890811,99.8647893 496.485777,99.8806857 496.485777,98.7790654 C496.485777,97.2662584 492.425386,86.1933587 489.907773,80.841572 C488.572146,78.0019457 487.479168,75.5618489 487.479168,75.4198411 C487.479168,74.5799815 478.674412,60.4210614 475.523158,56.1931499 C471.675747,51.0310602 462.861455,41.0396453 460.133511,38.7479149 C459.292718,38.0421149 456.936165,36.0004877 454.896433,34.2116133 C447.298563,27.547844 434.377787,19.0941405 425.778064,15.1597825 C421.861778,13.3677287 421.079793,13.3862745 421.48562,15.2599298 M296.015601,22.8674151 C289.177995,27.1605018 280.497213,34.2815574 273.163184,41.6135052 C264.334587,50.4391844 256.532744,60.2318943 257.592345,61.1575945 C259.053005,62.4340751 299.567914,89.045702 300.050563,89.045702 C301.220362,89.045702 342.313813,61.3520604 342.313813,60.5635991 C342.313813,58.3243268 330.781644,44.7440355 322.304835,37.0003711 C314.086039,29.493033 302.354135,21.226907 299.929768,21.2364448 C299.201292,21.2390942 297.439705,21.9729779 296.015601,22.8674151 M252.802948,67.5437067 C242.421506,84.7330097 235.374099,107.332386 234.380193,126.618424 C234.083505,132.382457 234.115823,132.650047 235.079,132.393055 C235.836615,132.190641 296.010833,92.464487 297.251096,91.3475002 C297.380897,91.2309266 297.023282,90.6893894 296.456395,90.144143 C295.35547,89.0838534 257.362942,63.7116154 256.220162,63.2728749 C255.7995,63.1112615 254.494601,64.7422318 252.802948,67.5437067 M323.816356,76.3338839 C312.91465,83.5874095 303.645789,89.870725 303.219829,90.2967484 C302.540095,90.9765843 306.259295,93.6153861 333.557269,111.820469 C350.884927,123.376619 364.991396,132.445513 365.397224,132.290258 C366.301593,131.943187 366.009673,126.479596 364.538417,116.221651 C362.746102,103.722845 359.221868,91.992364 353.563068,79.690143 C350.327047,72.6554578 345.097915,63.5235081 344.168115,63.2829426 C343.876725,63.2076997 334.718592,69.0808882 323.816356,76.3338839 M272.143318,110.75594 C257.297776,120.671052 244.916337,129.01878 244.629185,129.305975 C243.537796,130.397527 244.863357,130.434619 247.837128,129.395524 C258.109431,125.808238 274.169805,123.023189 291.055609,121.901433 C302.921552,121.112972 315.3316,121.909911 333.307203,124.614948 C337.068258,125.18086 350.42559,128.599645 353.617638,129.8136 C355.715648,130.611069 356.346111,130.530527 355.546112,129.566146 C354.479623,128.281187 301.371885,93.1098807 300.194668,92.9090562 C299.49851,92.7903631 289.88157,98.908886 272.143318,110.75594 M126.684984,98.6031453 C123.042605,98.8156271 118.51281,99.2665549 116.618773,99.6051481 C109.819312,100.820163 103.100382,102.359464 102.65323,102.804563 C101.984622,103.469032 100.843431,108.515078 99.5925722,116.334515 C98.1202564,125.541708 97.9999917,145.671845 99.3652878,154.485866 C99.8617109,157.69164 100.472571,160.523847 100.722637,160.77925 C101.283696,161.35258 150.014222,151.707176 150.86773,150.85354 C151.555941,150.165226 161.411291,101.345804 160.954603,100.889047 C160.240432,100.174239 152.256338,99.0429456 144.698203,98.5845995 C135.768944,98.0435921 136.28338,98.0430623 126.684984,98.6031453 M454.631533,98.573472 C447.184126,99.0471846 440.280295,100.105355 439.429965,100.903884 C438.943078,101.36117 439.571952,105.336329 442.165855,118.189095 C448.234721,148.257658 448.749157,150.669671 449.176176,151.046416 C449.606374,151.42581 497.305908,161.109365 498.744317,161.109365 C501.240737,161.109365 502.733185,134.421435 500.995969,120.838494 C499.669878,110.466096 498.300874,103.896115 497.247101,102.842184 C496.964717,102.559758 495.068561,101.955695 493.033597,101.499999 C481.506196,98.9194836 466.808999,97.7993175 454.631533,98.573472 M163.48599,102.355755 C162.435926,105.665914 153.867991,149.773645 154.204944,150.135553 C154.419513,150.36605 168.878301,147.673201 186.335229,144.151619 C203.792687,140.630038 220.102068,137.373926 222.578886,136.916109 C229.084307,135.713812 229.169075,135.478016 224.578353,131.361379 C209.822348,118.130278 187.237479,106.185196 170.200683,102.601619 C168.266911,102.195201 166.051815,101.700823 165.277776,101.502648 C164.114334,101.205385 163.804401,101.353222 163.48599,102.355755 M429.995806,102.571416 C414.548941,106.219109 397.216516,114.468808 383.797727,124.559311 C377.877206,129.011362 371.982645,134.260881 371.982645,135.081665 C371.982645,135.804951 371.256818,135.639099 396.618371,140.720117 C409.148154,143.230158 425.218065,146.470903 432.329578,147.921714 C439.7897,149.443529 445.456976,150.361811 445.726115,150.092632 C445.995783,149.822923 445.148632,144.489153 443.723469,137.484141 C442.36506,130.806065 441.140691,124.746358 441.002943,124.017774 C440.865195,123.289189 440.272348,120.308615 439.685859,117.394275 C439.099369,114.479936 438.181755,109.887467 437.647186,107.189319 C436.661757,102.216926 436.319506,101.197967 435.659904,101.276389 C435.45858,101.300764 432.909709,101.883102 429.995806,102.571416 M92.7777476,105.245719 C89.7181493,106.263619 86.4996109,107.425645 85.62544,107.827824 C84.751269,108.229473 82.3671665,109.315727 80.3274343,110.240897 C78.2877021,111.166067 75.7843945,112.309548 74.7645284,112.781141 C71.1491694,114.454502 61.1428261,120.72722 55.986807,124.552422 C45.6922523,132.190111 34.4938578,143.646644 27.2451264,153.955986 C23.9264557,158.675626 16.4864664,170.774903 16.4864664,171.45103 C16.4864664,171.594628 15.8904408,172.947941 15.161965,174.458098 C13.7383909,177.409529 13.5153448,178.595401 14.3842178,178.595401 C16.3720295,178.595401 97.353635,161.948165 97.6434359,161.479751 C97.8431708,161.158114 97.8977402,160.286991 97.7652901,159.544629 C94.9822477,143.951325 95.478141,120.685889 98.8757521,107.410809 C99.6185324,104.509186 99.5687312,103.324375 98.7067457,103.373124 C98.5054215,103.384781 95.8373458,104.22729 92.7777476,105.245719 M500.736897,104.544688 C500.743784,105.20068 500.978486,106.690702 501.258221,107.856438 C501.537955,109.022173 502.259544,113.194977 502.862457,117.129335 C504.256362,126.233201 504.405236,145.91188 503.136893,153.426107 C502.219279,158.863204 502.10855,161.450077 502.776099,161.862324 C503.030403,162.019698 519.182433,165.353702 538.670087,169.271104 C558.157212,173.188506 576.523278,176.888657 579.482744,177.49431 C585.998231,178.827488 586.022072,178.828018 586.022072,177.662282 C586.022072,176.586096 582.018899,168.501189 578.612282,162.699004 C574.185268,155.157754 565.880644,144.674081 558.433768,137.226089 C546.927029,125.717628 534.221882,116.817236 520.142962,110.40198 C514.589062,107.871274 502.412126,103.352459 501.146433,103.352459 C500.91438,103.352459 500.730009,103.888697 500.736897,104.544688 M286.949654,124.350008 C285.492703,124.467112 281.439728,124.934996 277.943045,125.389633 C274.446361,125.84427 269.797361,126.444623 267.611934,126.72387 C265.426506,127.003647 262.923199,127.454574 262.049028,127.726403 C261.174857,127.998231 258.194729,128.805238 255.426521,129.518986 C249.230503,131.117104 236.229197,135.526764 234.94549,136.465712 C234.075558,137.101567 234.241915,137.420555 237.056746,140.521942 C241.811176,145.760334 250.121098,157.094995 253.703079,163.228884 C264.447965,181.628433 270.789148,202.738317 272.165569,224.694949 C272.514178,230.258688 272.514178,230.258688 276.023577,233.606999 C283.133501,240.391051 297.783546,251.191063 299.87149,251.187353 C302.10354,251.184174 315.899546,241.238329 323.14298,234.410827 C327.548271,230.258688 327.548271,230.258688 328.005489,223.37025 C330.025089,192.963623 342.26825,163.593971 362.105573,141.570574 C364.040934,139.421382 365.625038,137.365448 365.625038,137.00248 C365.625038,135.448872 340.873285,127.877419 331.941378,126.699496 C329.633037,126.394815 325.24099,125.779094 322.181392,125.331346 C316.789611,124.542355 292.841566,123.875236 286.949654,124.350008 M227.08219,139.506162 C217.660747,143.585707 204.119574,151.590073 194.400383,158.823993 C177.163322,171.654504 160.391425,190.266535 148.993296,209.212919 C145.069063,215.73627 138.340596,229.205817 138.340596,230.538995 C138.340596,231.35448 138.99384,231.534109 142.976351,231.812296 C151.379518,232.399933 161.303742,233.773911 166.684926,235.095432 C189.561185,240.712688 210.005129,251.2928 226.249874,265.920663 C231.245363,270.419343 231.245363,270.419343 238.435287,270.091348 C251.346526,269.502651 265.201341,266.827818 266.029419,264.763406 C267.570079,260.925486 269.505441,247.933361 270.028354,237.92393 C270.375373,231.282416 270.375373,231.282416 266.091936,226.592979 C251.831824,210.979539 240.44641,189.076424 235.357145,167.467923 C233.59238,159.977011 232.117415,150.463018 232.110528,146.52972 C232.108408,145.076789 231.955826,142.636163 231.771985,141.1064 C231.385231,137.88473 231.072648,137.778224 227.08219,139.506162 M368.026624,144.550619 C366.755102,165.67375 360.257628,186.951076 349.452876,205.37076 C345.651557,211.850661 338.07117,222.272339 334.047335,226.549529 C329.450255,231.436611 329.636215,230.820361 330.127341,239.531586 C330.874889,252.796599 333.094224,264.483629 335.102698,265.734146 C337.83276,267.434 350.780556,269.55087 361.701335,270.08287 C368.639073,270.420403 368.639073,270.420403 373.356947,266.195141 C389.84752,251.426329 410.48643,240.666059 432.644809,235.285658 C439.757382,233.55825 444.296713,232.887952 454.366632,232.076706 C458.154706,231.772025 461.469668,231.30891 461.73245,231.047679 C462.374568,230.411293 454.641069,214.916546 449.932731,207.404439 C435.264673,184.002295 416.953176,165.461268 394.234268,151.007205 C387.05706,146.4407 371.282778,138.32453 369.585297,138.32453 C368.447815,138.32453 368.386358,138.571454 368.026624,144.550619 M213.307376,141.005722 C211.859431,141.418499 203.603549,143.103517 197.678259,144.195599 C188.999596,145.794777 153.591965,153.097581 153.351435,153.337617 C153.111436,153.578182 145.809724,188.991114 144.210786,197.671076 C143.133702,203.5183 141.435691,211.876625 140.969466,213.628938 C140.346421,215.969947 140.307216,218.336391 140.891586,218.336391 C141.128936,218.336391 141.744035,217.442484 142.259001,216.349341 C143.858469,212.951752 150.005745,202.94497 153.787461,197.581526 C169.4632,175.350946 190.573634,156.358462 213.466846,143.888269 C216.141809,142.431099 218.333064,141.0603 218.335713,140.84146 C218.342071,140.326416 215.345519,140.423914 213.307376,141.005722 M381.754816,140.9273 C381.919054,141.19277 384.138389,142.530717 386.686729,143.900456 C393.08672,147.339906 405.028425,155.382423 411.853316,160.850253 C428.824417,174.446441 445.927439,194.51935 455.191002,211.712893 C457.829409,216.609512 459.922651,219.871983 459.944902,219.121673 C459.953379,218.835538 457.038946,203.976117 453.46862,186.101149 C448.514985,161.299062 446.773531,153.492342 446.117108,153.141031 C445.643996,152.887749 443.849561,152.434171 442.129299,152.1332 C440.409566,151.832758 437.214339,151.213858 435.028912,150.758161 C432.843484,150.302465 429.982561,149.733374 428.671305,149.493338 C427.360049,149.253303 416.694104,147.118946 404.969087,144.750383 C383.546072,140.422854 381.205413,140.037102 381.754816,140.9273 M234.242975,144.815559 C234.25463,148.815622 236.064959,160.977425 237.614626,167.467923 C241.487468,183.690725 249.63792,201.318769 259.533535,214.873096 C263.563727,220.393385 268.587826,226.284589 269.265971,226.284589 C270.588353,226.284589 269.004779,211.41404 266.58571,201.115295 C262.713398,184.629672 254.343608,166.60157 244.027861,152.52849 C240.003496,147.037875 235.575953,142.033689 234.743107,142.033689 C234.463372,142.033689 234.238207,143.285795 234.242975,144.815559 M362.561731,144.354033 C358.858425,148.372642 352.487043,157.273564 348.545327,163.934684 C341.867721,175.221655 336.630113,188.115222 333.542435,200.867841 C331.104293,210.938738 329.296083,226.284589 330.548002,226.284589 C331.282836,226.284589 335.193823,221.941694 339.137129,216.746751 C349.395127,203.233755 358.131539,184.786517 362.45842,167.506075 C364.665039,158.692053 366.480136,142.585294 365.310336,142.194243 C364.991926,142.087737 363.754842,143.059537 362.561731,144.354033 M125.403396,158.654431 C109.927922,161.801388 101.525285,163.734919 101.376941,164.182668 C101.062769,165.130623 102.978528,172.447734 105.44157,179.703909 C107.228588,184.970385 108.648983,188.337242 112.757586,197.049527 C117.656652,207.438881 133.199941,228.537108 135.347223,227.713145 C135.72603,227.567428 136.408413,225.380084 136.891592,222.761948 C137.367352,220.181963 140.634632,203.809734 144.151978,186.378276 C147.669854,168.946818 150.409453,154.461492 150.240976,154.188074 C150.07197,153.914656 149.768924,153.71913 149.5676,153.753042 C149.366276,153.787485 138.492119,155.992845 125.403396,158.654431 M450.072599,154.094285 C449.439487,154.518189 463.680526,227.068811 464.572181,227.960599 C464.852975,228.241435 466.562641,226.749294 468.751247,224.313436 C480.861429,210.832232 491.339294,191.65429 496.624055,173.296602 C498.776635,165.818407 499.052131,164.34852 498.398357,163.81917 C498.074649,163.55741 487.506187,161.285815 474.912828,158.771535 C462.319469,156.257255 451.710212,154.088456 451.336703,153.951218 C450.963193,153.814509 450.394717,153.878624 450.072599,154.094285 M82.7115369,167.210931 C75.2810839,168.743344 57.1619047,172.417001 42.446694,175.374261 C13.10316,181.270764 13.8374636,181.105441 13.8374636,181.811241 C13.8374636,182.648452 61.1295811,253.308463 61.6901101,253.308463 C61.9793812,253.308463 64.6644105,251.877257 67.656724,250.127594 C78.1536626,243.991585 93.3070183,237.980098 105.492961,235.118746 C111.36686,233.739469 121.203667,232.352243 128.936636,231.811766 C131.922062,231.603523 133.569742,231.269169 133.564444,230.873349 C133.560206,230.535285 131.824049,228.341053 129.705906,225.997394 C116.836521,211.758992 105.828325,191.384581 100.753365,172.410113 C100.143035,170.12898 99.4007844,167.368836 99.1035663,166.275693 C98.6760172,164.7046 98.3178721,164.302951 97.3923105,164.356469 C96.748073,164.39356 90.1419898,165.677989 82.7115369,167.210931 M501.33875,165.215934 C501.07332,165.725678 500.455043,167.812345 499.963918,169.852383 C495.306441,189.217372 483.771623,211.074387 470.425417,225.824123 C468.149394,228.339993 466.287145,230.664576 466.287145,230.990452 C466.287145,231.316858 466.823833,231.595575 467.479196,231.610412 C469.918928,231.665519 479.946993,232.58751 484.300364,233.156601 C498.845509,235.05834 518.256342,241.925583 532.310361,250.141371 C535.28996,251.883086 537.983996,253.308463 538.297108,253.308463 C539.095517,253.308463 585.68247,183.329347 585.723265,182.067703 C585.754523,181.122398 582.297045,180.337646 544.432728,172.694658 C521.704284,168.106958 502.818483,164.338983 502.464576,164.320967 C502.11067,164.303481 501.60418,164.706189 501.33875,165.215934 M10.6056801,185.351369 C7.46555219,193.569276 4.97019154,203.109763 3.4321805,212.772652 C2.12887112,220.963535 2.13257972,243.163912 3.43853811,251.453883 C5.1180059,262.113476 9.07826511,276.193444 12.5680614,283.911145 C16.2586521,292.072884 18.7195758,296.758612 19.3156014,296.758612 C19.7007664,296.758612 20.3545403,296.10739 20.7677847,295.31098 C21.1810292,294.515101 23.9847338,290.55054 26.9971798,286.501727 C33.5788922,277.656443 46.1669536,264.915481 53.7727705,259.402081 C57.7070695,256.550268 58.8487897,255.448117 58.7131607,254.633162 C58.4874657,253.27561 12.3471346,183.894199 11.6695197,183.894199 C11.3908446,183.894199 10.9119049,184.550191 10.6056801,185.351369 M564.56462,218.906012 C551.743446,238.162376 541.180282,254.240521 541.089687,254.635282 C540.99962,255.029512 543.026108,256.932841 545.592991,258.864783 C551.67934,263.444535 559.714825,270.858614 565.415479,277.153057 C569.976003,282.188505 578.092547,292.934469 579.242744,295.459347 C580.463405,298.138419 581.791615,296.448632 586.344721,286.425955 C597.220997,262.482273 600.622316,233.124278 595.575436,206.742619 C595.064708,204.073614 594.739941,202.730369 593.319545,197.406136 C591.777296,191.625147 589.00432,183.894199 588.47346,183.894199 C588.144453,183.894199 577.385264,199.649647 564.56462,218.906012 M116.611356,235.304204 C104.96475,237.001409 91.4182793,241.006771 80.5923346,245.9532 C73.2741994,249.297272 63.3642799,255.105815 63.4278559,256.014029 C63.4871936,256.859717 88.5721907,294.806535 90.1674202,296.463999 C90.712585,297.03097 91.2540411,297.388639 91.3705973,297.258819 C91.8532456,296.72311 131.982459,236.283422 132.507492,235.302085 C133.063253,234.26352 132.93716,234.234377 128.160478,234.285245 C125.454787,234.314389 120.257973,234.772735 116.611356,235.304204 M136.298215,235.160077 C134.002059,239.501383 127.83624,261.063784 126.638891,268.939919 C126.372931,270.688522 125.742998,274.742103 125.238098,277.947877 C123.93161,286.251094 123.936378,313.523481 125.246575,321.927906 C125.746707,325.133679 126.387766,329.306483 126.672268,331.200804 C127.925247,339.548531 134.510138,362.234808 136.450797,364.888976 C137.277286,366.01974 137.753577,365.753211 142.112776,361.724004 C153.26031,351.42049 170.18214,341.428015 187.082248,335.169074 C196.40091,331.718496 212.800357,328.52703 225.339147,327.724792 C230.48298,327.395736 230.48298,327.395736 234.929067,322.542567 C239.878463,317.139912 246.630242,308.328009 249.455668,303.584525 C250.75156,301.408838 251.211427,300.103744 250.99156,299.227322 C250.298581,296.465589 240.356344,283.206404 233.546287,275.960827 C230.184173,272.384138 230.184173,272.384138 226.249344,272.379899 C217.064721,272.370891 201.733353,269.480926 189.20145,265.397142 C172.512732,259.958985 154.142957,249.299921 141.275161,237.589046 C139.247085,235.742945 137.407617,234.232787 137.18828,234.232787 C136.968413,234.232787 136.567883,234.650332 136.298215,235.160077 M142.0492,234.685834 C142.0492,236.949481 163.701089,252.343021 171.982932,255.9674 C173.148493,256.477144 176.128621,257.838935 178.605439,258.993544 C189.880654,264.247833 206.603279,268.474154 222.128025,269.99279 C226.948151,270.464383 227.249607,269.737388 223.591335,266.462201 C208.935991,253.341845 186.835361,242.102563 166.155126,237.252573 C156.675934,235.029726 142.0492,233.47188 142.0492,234.685834 M272.736165,234.630197 C272.606364,234.849037 272.334046,237.531289 272.131662,240.591346 C271.682921,247.376987 270.559214,255.517532 269.40107,260.368582 C268.872329,262.58401 268.728223,264.174709 269.02809,264.474621 C270.267294,265.71401 296.754143,254.848823 296.749375,253.103399 C296.748845,252.779113 293.743817,250.381406 290.072299,247.775457 C286.400781,245.169508 281.135623,241.05658 278.372183,238.635029 C273.059343,233.980034 273.103846,234.011827 272.736165,234.630197 M322.422451,238.001823 C318.826694,241.217134 306.8834,250.242578 303.876782,252.016615 C302.294798,252.949734 303.402611,253.800191 310.734521,257.280442 C319.329475,261.359987 330.090784,265.215393 330.827737,264.47833 C331.173167,264.132849 331.05767,262.547978 330.488135,259.823865 C329.191183,253.617912 328.009728,244.821377 328.00337,241.318341 C327.996483,237.716217 327.49794,234.232787 326.988802,234.232787 C326.795425,234.232787 324.740328,235.928933 322.422451,238.001823 M444.300422,235.315862 C428.151571,237.593285 411.97517,243.284725 396.764066,252.04099 C390.219969,255.808436 380.534685,262.708531 375.703434,267.046658 C371.973108,270.395499 372.856816,270.651431 383.483025,269.295998 C402.664455,266.849013 420.200324,260.908 436.109175,251.46607 C444.776712,246.321996 456.547821,237.43856 457.969276,234.96879 C458.564772,233.933405 453.127429,234.071704 444.300422,235.315862 M459.134837,237.195346 C446.923994,248.418201 429.717131,258.737082 413.601128,264.502705 C401.529622,268.821226 383.549251,272.384138 373.82794,272.384138 C369.987946,272.384138 369.987946,272.384138 366.827685,275.695887 C359.739483,283.124273 352.750354,292.153956 349.962014,297.484548 C348.540029,300.202831 348.540029,300.202831 350.250755,303.117171 C353.960949,309.438637 367.634571,326.399562 369.640926,327.169478 C370.014965,327.313075 372.422909,327.575896 374.992442,327.753405 C388.311098,328.674337 403.427897,331.672927 413.3553,335.36354 C430.362958,341.685537 446.253266,351.084546 458.054044,361.801366 C460.380928,363.914527 462.559998,365.642996 462.896951,365.642996 C463.645559,365.642996 463.981983,364.812674 467.296945,354.780458 C471.485018,342.107321 473.39442,333.07075 475.35892,316.629107 C476.096932,310.451768 476.094813,288.78551 475.355741,282.981735 C473.107268,265.328258 471.446873,257.64129 467.003965,244.310043 C464.268075,236.100614 463.446354,234.203644 462.646356,234.253452 C462.463045,234.26458 460.883179,235.58875 459.134837,237.195346 M467.346746,234.730344 C467.346746,235.509798 508.607614,297.288492 509.128408,297.288492 C509.888142,297.288492 536.843335,256.433694 536.5636,255.705109 C536.200157,254.757684 525.341895,248.638101 518.737401,245.658587 C511.982444,242.610718 502.822192,239.418192 495.691076,237.626668 C485.886057,235.162726 467.346746,233.268406 467.346746,234.730344 M470.145682,245.095325 C470.301974,245.969626 471.519455,250.976991 472.851374,256.222802 C474.183822,261.468613 475.535873,267.548984 475.856933,269.734739 C476.177462,271.920493 476.649514,275.139513 476.905938,276.888117 C480.174807,299.19447 477.568718,330.880756 470.728463,351.9917 C470.281311,353.372037 469.997338,354.921936 470.097471,355.43592 C470.300914,356.477663 507.308013,301.258352 507.291589,299.937891 C507.282583,299.249048 473.71283,248.412902 470.900648,244.830385 C469.86118,243.505685 469.86118,243.505685 470.145682,245.095325 M111.005006,271.84631 C98.8974739,290.01748 92.7353635,299.717991 92.9001315,300.348548 C93.2143032,301.549786 128.520743,354.680311 129.600476,355.576338 C130.606038,356.411428 130.602329,355.769744 129.584052,352.884548 C127.936373,348.213127 124.585384,333.357415 123.557571,326.166945 C121.824063,314.039584 121.224329,301.227089 121.900355,290.757193 C122.459824,282.089948 124.007901,269.569416 125.15492,264.43594 C126.689752,257.568697 128.84604,249.063065 129.571867,247.015609 C130.023787,245.740718 130.393588,244.607835 130.393588,244.49868 C130.393588,243.092908 126.58803,248.461121 111.005006,271.84631 M297.280765,255.762866 C292.475474,258.533078 282.005555,263.071499 275.37775,265.257254 C271.635239,266.491344 268.378555,267.705829 268.139615,267.955402 C267.901205,268.205505 266.640279,271.509836 265.33803,275.298477 C262.772735,282.762365 259.081615,291.38563 256.220692,296.597529 C254.41831,299.881194 254.41831,299.881194 258.676847,308.732308 C261.019625,313.600314 263.972204,320.678979 265.238957,324.462851 C266.50571,328.246724 267.765576,331.566421 268.038953,331.839839 C268.31233,332.113257 271.36769,333.284291 274.828877,334.442079 C281.206086,336.575375 292.829381,341.596517 296.221164,343.682124 C299.436524,345.660166 300.151754,345.689839 303.205525,343.974088 C308.05267,341.251035 317.920736,336.979674 325.243109,334.435191 C332.278331,331.990855 332.278331,331.990855 334.5925,325.076982 C336.970774,317.971823 341.170503,308.23581 344.046791,303.158501 C345.674868,300.285493 345.674868,300.285493 344.018181,297.064883 C340.255008,289.748831 337.056602,282.291302 334.662963,275.248669 C332.124159,267.781072 332.124159,267.781072 324.901388,265.383365 C317.950404,263.076268 307.504327,258.559572 303.638372,256.189419 C300.599966,254.327422 299.857715,254.277613 297.280765,255.762866 M55.9179329,260.637761 C50.2268153,264.824872 42.0260324,272.294058 36.8509405,278.004044 C29.3738651,286.253744 21.2546715,297.69597 21.2546715,299.983991 C21.2546715,303.367274 34.2973017,320.231231 43.7711954,329.097181 C51.4315818,336.265926 59.148127,342.328281 60.6130255,342.328281 C61.5592493,342.328281 89.227554,300.837097 88.9854351,299.781047 C88.6770912,298.435682 61.2895809,257.576115 60.686138,257.561278 C60.3735557,257.55386 58.2278634,258.937906 55.9179329,260.637761 M524.993816,278.345287 C517.35833,289.783803 511.107213,299.539952 511.101915,300.025322 C511.0892,301.273719 538.453929,342.297548 539.310086,342.314504 C541.45366,342.356895 555.572315,330.412343 562.83853,322.409567 C567.93839,316.79284 576.068179,305.995478 577.885395,302.427267 C579.180758,299.882254 579.180758,299.882254 577.594005,297.108863 C572.85176,288.818892 563.423959,277.53457 553.947416,268.806389 C548.585305,263.866849 540.431674,257.547502 539.421345,257.547502 C539.122007,257.547502 532.629301,266.90677 524.993816,278.345287 M259.929825,269.511129 C256.283738,270.532208 242.260447,272.384138 238.177804,272.384138 C236.334628,272.384138 234.686418,272.610927 234.515292,272.888054 C234.344167,273.165181 236.067078,275.490294 238.344161,278.054382 C242.299652,282.509612 247.771962,289.66776 250.933812,294.523579 C251.745996,295.771446 252.672087,296.721521 252.991557,296.63515 C254.679502,296.177864 265.55048,270.584666 264.665713,269.152401 C264.277899,268.525023 263.146774,268.610863 259.929825,269.511129 M335.426406,269.635121 C335.426406,272.454612 343.685467,292.678537 346.073278,295.706271 C347.101621,297.009775 347.120694,297.012425 347.911686,295.963792 C348.35142,295.380924 350.884927,291.923458 353.541876,288.280534 C356.198826,284.63761 360.026635,279.822062 362.047824,277.57961 C364.069543,275.337158 365.567819,273.250492 365.378151,272.943161 C365.187952,272.635831 363.529147,272.384138 361.691798,272.384138 C357.6224,272.384138 343.919639,270.572479 339.681764,269.474038 C335.758591,268.457728 335.426406,268.469915 335.426406,269.635121 M90.0158972,303.51458 C87.8405361,306.015084 63.1030882,344.00959 63.3695779,344.440912 C63.9719611,345.415891 74.0741983,351.044275 80.2797523,353.862176 C95.9427761,360.974224 110.154146,364.581116 127.877035,365.942378 C131.948552,366.255007 132.51279,366.193541 132.51279,365.437402 C132.51279,364.69504 91.493511,302.587291 91.0034455,302.587291 C90.903843,302.587291 90.4598701,303.004836 90.0158972,303.51458 M488.067776,333.761713 C476.671236,350.864116 467.346746,365.178821 467.346746,365.571462 C467.346746,366.144262 468.315222,366.215266 472.247401,365.93019 C489.524198,364.677025 505.374241,360.634571 520.061902,353.734475 C529.203611,349.439799 536.828501,344.931051 536.639892,343.931698 C536.425322,342.795635 510.136089,303.219967 509.392249,302.914227 C509.053176,302.774338 499.71809,316.278327 488.067776,333.761713 M18.1463316,304.260651 C16.487526,306.917469 11.442765,318.707296 9.33945679,324.842245 C4.17602049,339.90514 2.51986393,350.393053 2.51986393,368.027455 C2.51986393,382.244662 3.07880353,387.63248 5.68118389,398.495548 C7.2806518,405.171504 10.6676668,415.573046 11.4077982,416.080671 C12.0403801,416.515172 58.8747499,346.473531 58.8620347,345.11174 C58.8567367,344.564904 57.293825,343.093428 55.0612454,341.533461 C52.0509186,339.430368 42.2702704,331.093768 39.5327909,328.297592 C33.2361112,321.86644 24.8069842,311.408731 21.0522876,305.36916 C19.4528197,302.797123 19.135999,302.675781 18.1463316,304.260651 M252.009307,304.282376 C245.803753,313.093219 242.084553,317.950098 238.535949,321.875978 C236.190522,324.4708 234.383902,326.775247 234.52165,326.997797 C234.658868,327.219816 236.617541,327.547282 238.873962,327.724792 C246.613818,328.334154 253.048776,329.159177 258.515788,330.242251 C261.667041,330.86698 264.186773,331.12927 264.455382,330.860621 C265.41697,329.898889 255.571156,305.306104 253.554205,303.632214 C253.040829,303.205661 252.651955,303.369393 252.009307,304.282376 M345.928113,304.3094 C343.132885,308.777877 335.426406,327.940983 335.426406,330.424 C335.426406,331.410636 335.567333,331.405337 341.700834,330.172837 C346.719635,329.164475 353.360155,328.341572 361.519084,327.715784 C363.777623,327.543043 365.625038,327.184314 365.625038,326.918845 C365.625038,326.653375 364.043583,324.712955 362.111401,322.606682 C358.131539,318.269086 351.738965,309.973816 349.213406,305.868307 C348.282546,304.3555 347.330495,303.117171 347.097382,303.117171 C346.8648,303.117171 346.338178,303.653939 345.928113,304.3094 M578.597447,305.875195 C571.670835,317.193429 557.747146,332.077755 545.901335,340.828191 C542.300811,343.487658 540.953528,344.785334 541.122534,345.431788 C541.541077,347.031495 588.158228,416.563392 588.620744,416.277786 C589.053591,416.010197 592.204845,406.771212 593.330671,402.469647 C593.635836,401.303911 594.142326,399.369849 594.456497,398.171261 C597.423381,386.850908 598.660465,367.108643 597.208281,354.250578 C596.395038,347.05375 594.800338,338.395513 593.401135,333.585263 C591.654382,327.578545 591.079549,325.752579 589.898093,322.457786 C588.476638,318.491635 588.215447,317.864787 585.267636,311.330309 C582.856514,305.98647 581.463668,303.452055 580.819431,303.237453 C580.541815,303.144724 579.542082,304.331655 578.597447,305.875195 M230.205895,330.77796 C229.361922,331.424413 226.883515,333.526447 224.698088,335.449381 C209.344997,348.954959 187.640658,360.027859 167.214727,364.775582 C160.046525,366.441525 155.016599,367.189715 145.757804,367.968638 C138.605496,368.569522 138.605496,368.569522 138.711456,370.067492 C138.769735,370.890926 140.571586,375.06108 142.715689,379.334032 C157.454211,408.709512 180.255768,433.410922 208.605926,450.715209 C216.335716,455.433259 230.478212,462.340774 231.111324,461.707567 C231.382052,461.436798 231.727482,459.204415 231.878475,456.746832 C233.825492,425.063724 245.516071,396.780856 266.442134,373.125429 C270.370075,368.686096 270.370075,368.686096 270.026235,362.262892 C269.429679,351.1121 267.027034,336.494304 265.486374,334.637075 C264.223859,333.11632 248.76163,330.492884 237.623102,329.909487 C232.108938,329.621232 231.644303,329.67528 230.205895,330.77796 M359.002531,330.150582 C349.140293,330.788027 335.502697,333.233423 334.479652,334.548055 C332.249722,337.413115 328.757276,366.15221 330.282042,369.087215 C330.585088,369.670083 332.464291,371.946447 334.45793,374.145978 C339.16044,379.334032 345.279637,387.791974 349.391419,394.786389 C360.503986,413.690913 366.692586,433.95034 368.048875,455.862992 C368.242782,459.000411 368.631126,461.709157 368.910861,461.882427 C369.563045,462.285136 384.095475,455.115861 390.5903,451.187332 C414.582319,436.673922 434.55527,417.037634 449.573527,393.196749 C454.796301,384.905719 462.445031,369.394545 461.575629,368.857247 C461.195232,368.62251 458.344905,368.264841 455.241333,368.062957 C425.505217,366.128895 395.977312,353.918344 374.366747,334.619059 C369.483046,330.258148 368.376822,329.580431 366.322255,329.692766 C365.501594,329.737276 362.207824,329.943399 359.002531,330.150582 M213.006449,331.193915 C190.002509,334.696951 169.950617,343.044149 151.55859,356.773336 C144.950918,361.705988 141.747743,364.726303 142.254763,365.547087 C142.631451,366.156449 146.687074,365.911645 155.029314,364.774522 C176.79617,361.807725 198.328854,352.862293 216.13916,339.387448 C224.244049,333.255148 226.28749,331.504955 226.28749,330.696358 C226.28749,329.878754 220.125909,330.109781 213.006449,331.193915 M373.572046,330.625884 C373.572046,330.892944 375.062375,332.392504 376.8833,333.958829 C396.00963,350.408419 421.196879,361.746259 445.360023,364.78353 C459.322387,366.538493 459.693247,366.466959 455.789147,362.769457 C444.83711,352.398648 424.424953,340.929398 407.479282,335.624771 C396.663934,332.239368 373.572046,328.83489 373.572046,330.625884 M268.888223,335.639078 C268.734581,336.040197 268.967163,337.769195 269.404779,339.480707 C270.438949,343.521571 271.672325,352.756847 272.13802,359.946787 C272.340933,363.079967 272.736694,365.642996 273.017489,365.642996 C273.298283,365.642996 275.540399,363.852531 277.999733,361.664128 C282.476018,357.680491 290.356802,351.650988 294.529511,349.016425 C295.751231,348.24492 296.750965,347.295905 296.750965,346.906973 C296.750965,345.99452 284.762637,340.353419 276.315497,337.290713 C272.703317,335.98138 269.617759,334.909963 269.458289,334.909963 C269.298819,334.909963 269.042395,335.237959 268.888223,335.639078 M324.300594,337.003518 C317.567888,339.451563 304.738768,345.274943 303.638372,346.382392 C302.931618,347.093491 302.960757,347.266762 303.903272,347.945008 C304.486053,348.364143 307.684989,350.62408 311.012136,352.966679 C314.339284,355.309278 319.171065,359.119644 321.749604,361.43469 C324.328144,363.749205 326.642312,365.642996 326.892378,365.642996 C327.542973,365.642996 328.009198,362.863776 328.009198,358.982406 C328.009198,355.47884 329.70456,342.892073 330.719128,338.861807 C331.295551,336.571136 331.104823,334.874991 330.277274,334.945465 C330.04999,334.964541 327.360192,335.890771 324.300594,337.003518 M45.6541066,370.020333 C37.0739865,382.91337 26.3656575,399.0143 21.8586441,405.800472 C16.9203731,413.234686 13.8560066,418.330011 14.1479267,418.620385 C14.4144164,418.885325 33.4178328,422.867372 56.3777998,427.469909 C92.1843709,434.647662 98.1933689,435.725967 98.6150902,435.05037 C98.8858183,434.616929 99.3774732,432.970062 99.7075389,431.39049 C100.463564,427.770881 103.873361,417.254355 105.648193,413.067244 C112.201296,397.607469 120.653204,384.091823 130.601269,373.163051 C132.540339,371.032934 134.008947,369.099932 133.865371,368.867844 C133.721795,368.635227 130.914911,368.278088 127.628029,368.074614 C106.218258,366.745676 84.6246467,360.077667 66.8175199,349.296201 C64.3407023,347.796112 62.0758049,346.571559 61.7844146,346.574209 C61.4930243,346.576858 54.2342268,357.127826 45.6541066,370.020333 M532.512215,349.65599 C521.617926,356.188879 507.021921,362.070016 494.896375,364.812144 C487.592015,366.464309 482.396261,367.237934 473.747797,367.96228 C469.579855,368.310941 466.558933,368.79737 466.446085,369.137023 C466.340125,369.456011 467.766878,371.363579 469.615882,373.376062 C474.676007,378.883634 480.814806,387.272162 485.171356,394.632723 C487.314929,398.254452 489.068569,401.295963 489.068569,401.391871 C489.068569,401.487779 490.338501,404.272828 491.890287,407.581398 C495.747235,415.805133 498.711999,424.504171 500.937161,434.129969 C501.168684,435.130382 501.611068,435.587139 502.34908,435.587139 C502.940867,435.587139 516.466146,432.957345 532.405196,429.743094 C548.344775,426.528842 566.929649,422.7916 573.704209,421.437757 C582.276912,419.725185 586.022072,418.765042 586.022072,418.280732 C586.022072,417.204016 538.84916,346.562551 538.156711,346.602292 C537.820287,346.621898 535.280423,347.995876 532.512215,349.65599 M296.486064,350.352252 C291.835475,353.240097 284.43787,358.846226 279.838671,362.968692 C272.010338,369.984301 272.586231,369.059131 272.176695,375.275682 C270.113122,406.625495 258.449033,435.153167 238.370651,457.958137 C236.095687,460.542361 234.234498,462.858996 234.234498,463.10698 C234.234498,463.660704 234.356352,463.709983 243.506008,466.861709 C247.585472,468.26695 253.068908,469.918056 255.691421,470.531127 C258.313934,471.144198 262.366908,472.123416 264.69803,472.707343 C279.300923,476.365634 305.761283,477.033813 326.949597,474.278967 C338.105607,472.828686 365.360138,464.790938 365.360138,462.951725 C365.360138,462.48649 363.797226,460.37174 361.887295,458.25222 C353.844393,449.326394 345.565199,436.632592 340.365207,425.254481 C333.022701,409.187464 329.302971,394.574437 328.025622,376.776302 C327.512775,369.628752 327.512775,369.628752 323.389867,365.768047 C315.904844,358.759326 301.982215,348.666174 299.840761,348.696907 C299.452418,348.702206 297.943016,349.447217 296.486064,350.352252 M131.254514,375.757343 C126.699818,380.677807 120.988568,388.665216 116.221423,396.782446 C114.108578,400.379271 112.380368,403.411243 112.380368,403.519869 C112.380368,403.628494 111.517853,405.582161 110.46408,407.862234 C106.263821,416.949144 101.254557,432.107418 101.254557,435.731796 C101.254557,436.319433 102.739058,436.81858 106.949913,437.647312 C110.082094,438.263562 114.433346,439.136804 116.618773,439.587732 C118.8042,440.03866 121.665123,440.604571 122.97638,440.844607 C124.287636,441.084642 130.823256,442.392916 137.500332,443.752058 C144.504296,445.177964 149.837268,446.025772 150.106937,445.756063 C150.376075,445.486884 149.457931,439.818759 147.936344,432.357521 C146.48575,425.244943 143.24549,409.172627 140.735824,396.640968 C135.724971,371.62163 135.810269,372.001554 135.175567,372.001554 C134.931329,372.001554 133.166564,373.691341 131.254514,375.757343 M464.167943,372.233112 C464.167943,372.360813 462.351257,381.481105 460.130862,392.501017 C457.910468,403.520928 454.606102,419.929189 452.788356,428.96364 C450.970081,437.998092 449.656705,445.585442 449.868626,445.823888 C450.081076,446.062864 461.002384,444.09542 474.139319,441.452379 C487.275724,438.809338 498.154649,436.646898 498.314649,436.646898 C499.315972,436.646898 497.622199,429.220632 494.628296,420.485562 C489.036251,404.167382 479.347259,387.380258 468.712042,375.583542 C466.006351,372.581772 464.167943,371.22634 464.167943,372.233112 M266.014055,376.829819 C256.209036,388.104603 247.199248,403.808123 241.575415,419.425803 C237.595023,430.479097 233.898605,449.137757 234.331981,455.987514 C234.499398,458.636913 234.499398,458.636913 237.290388,455.722574 C241.051442,451.795104 248.183087,441.864626 252.131691,435.057259 C260.434196,420.744144 266.15975,404.271768 268.708091,387.36807 C269.758685,380.40015 270.041599,373.591194 269.280805,373.591194 C269.032859,373.591194 267.563192,375.048363 266.014055,376.829819 M330.140586,376.638003 C330.15648,380.631708 331.797272,391.438608 333.50164,398.772145 C336.37104,411.122055 342.231164,425.57082 348.9893,436.961117 C354.155915,445.669163 364.617357,459.026375 365.544508,458.099085 C366.024507,457.619014 365.697091,452.024542 364.804377,445.453502 C361.484117,421.007494 350.405457,396.176793 334.483361,377.494819 C332.653959,375.347745 330.92522,373.591194 330.642307,373.591194 C330.359923,373.591194 330.133698,374.961993 330.140586,376.638003 M456.754443,385.645961 C448.702534,400.340589 439.482945,412.661356 427.166671,425.187716 C414.373047,438.199976 400.757173,448.55118 385.627658,456.766437 C378.952701,460.391345 379.262634,460.490433 390.260764,458.25275 C393.174667,457.659815 396.631616,456.978919 397.942872,456.739413 C399.254129,456.499908 401.995847,455.962609 404.035579,455.545594 C406.075311,455.128049 416.326952,453.068936 426.817003,450.970081 C437.307054,448.871227 446.167439,446.876229 446.507041,446.537106 C446.846113,446.197453 448.840812,437.335742 450.939352,426.844121 C453.037892,416.352499 455.096697,406.099324 455.51418,404.059286 C455.931133,402.019249 456.468351,399.27712 456.707821,397.965668 C456.947291,396.654215 457.631263,393.196749 458.228349,390.28241 C459.563446,383.762238 460.091657,380.479632 459.803975,380.479632 C459.684241,380.479632 458.311527,382.804745 456.754443,385.645961 M140.459798,382.499534 C140.459798,383.143868 142.397279,393.266163 144.764958,404.992935 C147.132636,416.719706 149.182435,426.910356 149.320183,427.638941 C149.457931,428.367525 150.052367,431.3481 150.641506,434.262439 C151.230114,437.176778 152.006272,441.063977 152.366006,442.901071 C152.725211,444.738164 153.23329,446.436959 153.494482,446.676465 C154.048653,447.18409 218.232932,460.085605 218.974123,459.838681 C219.248559,459.747012 216.53598,458.010065 212.946052,455.978506 C184.264239,439.744576 160.546657,416.167041 144.727342,388.16289 C140.973175,381.516607 140.459798,380.835181 140.459798,382.499534 M14.0705758,421.967106 C13.9100463,422.385182 14.813886,424.845944 16.0795796,427.434937 C29.0241967,453.926811 51.7372767,476.254359 78.7899531,489.080631 C87.7790792,493.342985 98.64211,497.193092 99.4362811,496.398802 C99.6206516,496.214934 99.3954864,494.558 98.9361493,492.717197 C95.8950941,480.53102 95.0484728,460.306035 96.9886024,446.184736 C97.7292636,440.793208 97.8209191,438.884581 97.3610522,438.436303 C97.0256885,438.108837 78.6320725,434.222168 56.486409,429.798731 C34.3407454,425.374764 15.8030237,421.632222 15.2917661,421.481737 C14.7651444,421.325952 14.2358736,421.536844 14.0705758,421.967106 M544.962529,429.456958 C523.108255,433.882515 504.540335,437.681224 503.700071,437.897945 C502.177954,438.290586 502.173716,438.302773 502.48259,441.575841 C502.653185,443.382202 503.055834,446.529158 503.377953,448.569196 C504.144574,453.420776 504.132918,474.480321 503.361529,479.567168 C503.029874,481.752923 502.550934,484.971943 502.297159,486.720546 C502.043915,488.46915 501.493982,491.288641 501.075439,492.986376 C500.403652,495.713138 500.407891,496.108428 501.111466,496.378667 C503.313317,497.223825 521.646006,489.470093 532.273805,483.198965 C550.576825,472.398423 568.015741,455.075591 578.632414,437.147635 C584.654127,426.97924 587.126177,421.172287 585.359822,421.345028 C584.995849,421.380529 566.816802,425.030872 544.962529,429.456958 M100.529789,439.183433 C100.387803,439.412871 99.8648897,442.214346 99.367407,445.409522 C97.9846275,454.294018 98.1091306,474.379644 99.603698,483.541267 C101.273629,493.778016 101.832039,496.167245 102.779852,497.136395 C103.746738,498.125151 110.514411,499.89177 116.883673,500.818 C122.775585,501.674286 146.24628,502.060569 150.526009,501.371195 C152.420046,501.065984 155.283088,500.674933 156.888384,500.502192 C158.49315,500.329451 160.155134,499.972842 160.581624,499.709492 C161.241225,499.301484 160.657385,495.744931 156.647855,475.754153 C154.058719,462.84257 151.736073,451.525925 151.487067,450.606584 C150.983757,448.749355 151.197266,448.825657 140.459798,446.678584 C137.4002,446.066573 127.308029,444.036073 118.032811,442.166127 C98.8916461,438.307012 100.863564,438.643486 100.529789,439.183433 M473.522631,443.818293 C460.16477,446.533927 449.121607,448.869638 448.982799,449.008466 C448.843461,449.147824 446.465187,460.526995 443.698038,474.296453 C439.78811,493.749403 438.816456,499.423887 439.338839,499.746583 C439.70864,499.975491 441.214863,500.305077 442.685589,500.478877 C444.156316,500.652678 447.267305,501.049028 449.598427,501.359538 C454.652725,502.032485 476.892693,501.699191 482.847121,500.861451 C488.310954,500.092595 496.605512,498.092828 497.333988,497.367953 C497.942199,496.76389 499.224316,491.305597 500.146699,485.395847 C501.669876,475.630691 501.875438,472.354443 501.641796,461.551253 C501.314379,446.43166 500.237295,438.674749 498.485774,438.823645 C498.114384,438.855438 486.881023,441.103188 473.522631,443.818293 M154.101103,450.029015 C153.782163,450.986508 163.310626,497.818351 163.953274,498.450497 C165.05314,499.532512 181.092323,494.811282 189.479595,490.936801 C197.859981,487.064968 202.307657,484.712832 207.74447,481.275501 C216.475583,475.755742 228.891459,465.5333 227.975964,464.617667 C227.710534,464.352198 211.427114,460.930763 191.791115,457.014421 C172.155117,453.098609 155.683088,449.800107 155.187194,449.685123 C154.691301,449.570669 154.202825,449.724864 154.101103,450.029015 M428.936205,452.819362 C419.903106,454.63738 403.497301,457.942241 392.479039,460.162967 C381.460777,462.383694 372.341849,464.200652 372.214167,464.200652 C371.207546,464.200652 372.562776,466.039335 375.564096,468.745432 C386.806994,478.884153 404.08591,489.058906 418.833438,494.225235 C425.414091,496.530213 435.694871,499.196038 436.190764,498.726035 C436.84083,498.110314 446.24426,450.299253 445.793929,449.899194 C445.555519,449.687242 437.969305,451.000814 428.936205,452.819362 M225.672391,470.493505 C210.599035,484.006502 191.046216,494.449904 170.994324,499.696775 C167.827706,500.525507 165.013935,501.426832 164.740558,501.70025 C164.036983,502.403931 180.764376,585.590302 181.680931,585.942672 C182.487817,586.253182 253.307318,539.189251 253.307318,538.342503 C253.307318,538.028285 251.89434,535.346033 250.16719,532.381355 C243.991305,521.781638 238.889856,509.19911 235.793171,496.931332 C233.986022,489.771595 232.115296,478.115827 232.115296,474.014027 C232.115296,469.908518 231.522979,466.315932 230.851192,466.350375 C230.526424,466.366801 228.196361,468.231448 225.672391,470.493505 M368.065299,472.01638 C366.745036,493.27887 360.158026,515.035207 349.714067,532.626689 C347.975262,535.555865 346.552218,538.145918 346.552218,538.382244 C346.552218,538.965642 417.377546,586.073023 418.254896,586.073023 C418.739134,586.073023 419.699662,582.326242 421.413567,573.753316 C422.768267,566.977742 426.50495,548.391675 429.717661,532.451829 C432.930372,516.511983 435.558712,503.015412 435.558712,502.460098 C435.558712,501.655741 434.828647,501.263629 431.982558,500.538754 C424.617271,498.663509 413.893578,494.937924 407.710275,492.105716 C395.831087,486.665439 381.749518,477.424864 372.512445,469.008782 C370.909798,467.548433 369.333112,466.346135 369.008344,466.337128 C368.632186,466.32653 368.290994,468.379814 368.065299,472.01638 M234.242975,471.4865 C234.260458,480.279857 237.107077,495.226178 240.928528,506.591042 C244.461238,517.09697 253.694603,535.836172 255.72162,536.614035 C256.43791,536.889043 297.280765,509.915508 297.280765,509.167847 C297.280765,508.646976 235.511317,467.379931 234.731981,467.379931 C234.458074,467.379931 234.238207,469.227622 234.242975,471.4865 M333.744289,488.105652 C316.297427,499.737046 302.76632,509.094194 302.905658,509.432787 C303.210293,510.174089 342.787985,536.468318 343.923347,536.683979 C344.838843,536.85778 350.303206,527.572695 353.994326,519.573099 C356.713263,513.679245 360.355112,503.19981 362.163321,496.064978 C364.714311,485.99832 366.729142,468.035922 365.360138,467.563799 C365.068747,467.463122 350.841483,476.706877 333.744289,488.105652 M244.830509,470.934365 C248.410902,473.745378 299.241027,507.321746 299.929768,507.330754 C300.683144,507.340822 351.506912,473.848175 354.672471,471.256002 C356.021873,470.150143 356.062138,470.02933 355.080417,470.02933 C354.481213,470.02933 353.092076,470.370043 351.993269,470.786529 C348.283606,472.19283 334.161242,475.244938 324.565494,476.713765 C315.80948,478.054891 313.793589,478.173054 299.929768,478.158747 C288.543294,478.14762 283.462507,477.92825 279.267546,477.268019 C276.207948,476.785829 271.439743,476.041877 268.671535,475.614264 C265.903327,475.186651 259.823865,473.851354 255.16162,472.646937 C250.499375,471.44252 245.969581,470.330832 245.09541,470.176107 C243.506008,469.894741 243.506008,469.894741 244.830509,470.934365 M103.373759,501.077642 C103.373759,501.596924 107.107263,512.559609 107.868057,514.2743 C108.255871,515.148602 109.429909,517.729117 110.476795,520.00919 C111.523681,522.289263 112.380368,524.248229 112.380368,524.362683 C112.380368,525.044638 120.572675,538.361049 123.451081,542.357933 C135.949606,559.714678 155.168122,575.943839 172.952467,584.160156 C177.176567,586.111174 178.605439,586.467253 178.605439,585.567517 C178.605439,585.28933 176.333124,573.784049 173.55591,560.000813 C170.779225,546.217048 167.0738,527.788356 165.322809,519.047988 C163.571288,510.307619 161.922019,502.940169 161.657119,502.675229 C161.368907,502.386975 158.6256,502.556006 154.811036,503.097014 C141.97079,504.918211 116.30831,503.9533 107.615872,501.322446 C105.588325,500.708845 103.373759,500.581144 103.373759,501.077642 M491.452672,501.536518 C482.211361,503.99463 457.989409,504.861514 445.930088,503.165898 C438.058311,502.058979 438.335397,502.019238 437.729305,504.339052 C437.443743,505.432194 433.728251,523.732656 429.472363,545.007332 C425.216475,566.282009 421.600587,584.225331 421.436878,584.880793 C420.942045,586.863073 422.856744,586.366046 430.000045,582.657417 C442.55208,576.141484 451.900411,569.220193 462.588607,558.529867 C474.431769,546.683872 483.06169,534.336082 489.630158,519.838038 C492.399425,513.725874 496.485777,502.701194 496.485777,501.342582 C496.485777,500.590682 494.758627,500.657447 491.452672,501.536518 M278.605295,524.870308 C267.022795,532.596486 257.545723,539.185542 257.545723,539.513008 C257.545723,541.464026 269.803189,555.753296 277.621985,562.917802 C282.867541,567.723812 293.68236,575.926353 297.709374,578.152908 C299.991755,579.414552 299.991755,579.414552 302.343539,578.167215 C305.772409,576.347607 317.634643,567.355546 322.61,562.804408 C330.295817,555.772902 342.296859,541.526552 342.288912,539.443594 C342.286263,538.752101 302.664069,511.915805 300.459569,511.112507 C299.979039,510.937646 291.338522,516.376863 278.605295,524.870308 M219.003262,564.512211 C189.844098,583.964631 182.371261,589.252302 184.036424,589.252302 C184.110067,589.252302 186.948208,590.198137 190.34423,591.354335 C203.557986,595.853015 216.106312,597.766412 232.380196,597.764292 C248.754742,597.762702 259.392078,596.067617 274.499341,591.053363 C282.108337,588.527426 282.168204,588.503052 291.298787,584.124124 C297.489507,581.155207 298.044208,580.473782 295.292953,579.220086 C292.757328,578.064418 281.216682,569.242978 276.035763,564.500023 C269.983851,558.959069 262.636576,550.799449 258.605324,545.140862 C257.002677,542.890992 255.333806,541.060787 254.89672,541.074034 C254.459635,541.086751 238.307605,551.63401 219.003262,564.512211 M340.846266,545.883754 C331.787206,558.107023 319.687091,569.440623 306.139031,578.391884 C304.455324,579.504632 303.159962,580.663479 303.261154,580.96657 C303.503273,581.693036 305.235721,582.608138 313.174782,586.202313 C331.313034,594.414392 347.296587,597.778599 368.16914,597.778599 C380.28409,597.778599 386.31269,597.159169 397.677972,594.747156 C402.51717,593.719719 416.485892,589.1707 416.485892,588.622275 C416.485892,588.105112 346.690496,541.500058 345.416855,541.166763 C344.771558,540.998261 343.478315,542.333029 340.846266,545.883754" id="Shape" fill="#9BC4BB"></path>
    </g>
</svg>