<svg width="600" height="600" xmlns="http://www.w3.org/2000/svg">
    <path d="M219.886.242c-.121.119-2.605.493-5.519.833-2.914.338-7.205 1.057-9.536 1.597-2.332.539-6.027 1.392-8.212 1.894-18.07 4.153-39.937 16.01-55.365 30.022-18.019 16.365-29.919 34.428-38.145 57.902-2.785 7.948-2.785 7.948-10.135 10.383-22.336 7.402-41.29 19.787-57.823 37.788-7.95 8.655-17.05 21.961-21.09 30.836-.781 1.719-2.241 4.905-3.242 7.082-3.604 7.833-7.758 21.917-9.147 31.014-.311 2.04-.818 5.297-1.127 7.238-.727 4.569-.727 25.996 0 30.565.309 1.94.816 5.197 1.127 7.237 1.95 12.772 8.66 32.318 14.584 42.485.71 1.218 1.29 2.437 1.29 2.71 0 .273-1.874 4.404-4.165 9.179-5.921 12.345-10.11 25.326-11.695 36.236a323.195 323.195 0 0 1-1.156 7.334c-.712 4.085-.703 25.956.013 30.459.31 1.945.817 5.206 1.128 7.246 2.32 15.218 9.384 34.303 17.904 48.369 11.372 18.776 28.363 35.483 47.695 46.901 3.31 1.954 6.084 3.553 6.166 3.553.082 0 2.74 1.227 5.904 2.726 3.166 1.5 9.048 3.85 13.072 5.225 4.025 1.374 7.527 2.71 7.782 2.97.256.26 1.523 3.571 2.814 7.36 15.807 46.36 54.273 80.311 102.352 90.337 8.614 1.797 13.65 2.212 26.755 2.206 13.819-.007 19.008-.516 30.729-3.015 9.843-2.098 28.395-9.353 35.802-14 .98-.615 1.953-.274 8.858 3.106 14.288 6.994 25.022 10.404 40.373 12.824 9.807 1.547 30.315 1.54 40.265-.013 11.558-1.805 24.086-5.31 32.317-9.043 20.699-9.387 35.089-19.638 48.655-34.662 7.52-8.327 16.866-21.942 20.588-29.99.472-1.02 1.736-3.761 2.809-6.093 1.073-2.331 3.035-7.458 4.362-11.392 1.327-3.935 2.676-7.415 3-7.735.322-.32 3.447-1.496 6.944-2.613 34.532-11.036 65.572-38.838 80.88-72.445 5.706-12.524 8.922-23.37 11.119-37.49 1.577-10.142 1.579-28.95.003-39.211-2.295-14.942-5.977-26.599-12.814-40.571-3.76-7.686-3.76-7.686-2.357-10.184 4.735-8.425 10.324-22.948 12.787-33.231 2.66-11.11 3.483-18.679 3.483-32.058 0-9.995-.219-13.864-1.107-19.605-2.144-13.849-5.199-24.155-10.84-36.562-8.788-19.33-20.114-34.184-37.446-49.11-7.187-6.19-18.617-13.391-29.094-18.33-5.517-2.6-18.092-7.26-19.647-7.28-1.61-.02-2.152-.995-4.734-8.533-8.993-26.247-24.774-48.225-46.866-65.27-13.782-10.634-32.471-19.567-48.797-23.324C387.217.838 384.357.477 370.332.18c-14.497-.306-20.72.373-35.7 3.895-10.366 2.437-17.008 4.91-29.354 10.926-5.512 2.687-5.512 2.687-7.973 1.303-4.589-2.58-15.626-7.343-21.746-9.385C267.925 4.37 257.453 2.08 246.685.6c-3.94-.541-26.307-.841-26.8-.359M221.52 2.7c-6.923.527-12.738 1.422-20.397 3.14-7.437 1.667-17.219 4.882-17.219 5.66 0 .758 69.153 46.908 70.729 47.202.825.153 1.88-.944 4.768-4.96 7.255-10.084 27.926-29.195 35.63-32.94.946-.46 1.721-1.167 1.721-1.57 0-.683-13.326-7.426-16.424-8.312-.728-.209-2.874-.926-4.768-1.595-6.434-2.27-16.76-4.655-25.166-5.812-7.452-1.024-21.051-1.407-28.874-.813m136.424-.028c-10.862.766-23.031 3.173-33.378 6.6-8.06 2.67-21.456 8.857-21.456 9.908 0 .242 1.013 1.07 2.251 1.84 11.943 7.427 28.562 23.051 36.16 33.995 2.032 2.93 2.912 3.786 3.784 3.69 1.437-.16 71.202-46.583 71.002-47.247-.319-1.06-11.461-4.392-22.072-6.601-9.958-2.074-25.025-2.98-36.291-2.185M172.248 16.117c-2.477 1.253-6.117 3.272-8.09 4.486-1.971 1.214-3.72 2.208-3.887 2.208-.846 0-12.298 8.79-17.162 13.173-14.424 13-25.107 27.47-32.856 44.504-2.852 6.27-6.88 17.185-6.88 18.645 0 .72 1.581.562 7.517-.755 1.948-.431 6.836-1.185 10.861-1.675 8.707-1.06 23.917-.817 33.498.535 3.326.47 6.227.666 6.447.437.353-.368 16.91-81.952 16.91-83.325 0-1.026-1.852-.512-6.358 1.767m8.79-1.387c-.159.51-1.717 8.08-3.462 16.824-1.746 8.743-5.447 27.153-8.225 40.913-2.777 13.76-5.05 25.27-5.05 25.578 0 .741 1.547 1.324 6.357 2.397 18.33 4.087 41.087 16.16 55.596 29.493 2.168 1.991 4.221 3.62 4.564 3.62.702 0 1.297-3.53 1.297-7.693 0-3.753 1.787-15.164 3.442-21.98 2.772-11.42 8.594-25.831 14.637-36.232 1.713-2.946 3.113-5.618 3.113-5.936 0-.595-70.6-47.911-71.486-47.911-.273 0-.625.417-.783.927m201.148 22.785c-19.59 13.042-35.622 23.867-35.626 24.057-.004.19 1.445 2.877 3.22 5.972 10.76 18.755 16.97 39.278 18.25 60.315.19 3.134.523 5.807.74 5.94.217.134 2.28-1.448 4.585-3.518 9.663-8.674 19.156-14.974 31.475-20.89 3.351-1.61 6.808-3.246 7.682-3.636 3.192-1.424 12.847-4.445 17.881-5.593 4.472-1.021 5.166-1.325 5.166-2.266 0-1.309-16.357-83.027-16.745-83.654-.149-.242-.438-.44-.64-.44-.204 0-16.398 10.671-35.988 23.713m39.3-22.255c.173.802 3.966 19.638 8.428 41.858 4.462 22.221 8.24 40.53 8.396 40.686.157.155 2.999-.1 6.316-.566 9.678-1.363 24.257-1.596 33.594-.537 4.364.495 9.91 1.36 12.326 1.921 5.345 1.243 5.94 1.259 5.94.157 0-1.513-4.06-12.586-6.578-17.937-1.336-2.84-2.429-5.28-2.429-5.422 0-.84-8.805-14.999-11.956-19.227-3.847-5.162-12.662-15.153-15.39-17.445-.84-.706-3.197-2.748-5.237-4.536-7.597-6.664-20.518-15.118-29.118-19.052-3.916-1.792-4.698-1.774-4.292.1m-125.47 7.607c-6.838 4.294-15.519 11.415-22.853 18.747-8.828 8.825-16.63 18.618-15.57 19.544 1.46 1.276 41.975 27.888 42.458 27.888 1.17 0 42.263-27.694 42.263-28.482 0-2.24-11.532-15.82-20.01-23.564-8.218-7.507-19.95-15.773-22.374-15.764-.729.003-2.49.737-3.914 1.631m-43.213 44.677c-10.381 17.189-17.429 39.788-18.423 59.074-.296 5.764-.264 6.032.699 5.775.758-.202 60.932-39.929 62.172-41.045.13-.117-.228-.659-.795-1.204-1.1-1.06-39.093-26.432-40.236-26.871-.42-.162-1.725 1.47-3.417 4.27m71.013 8.79c-10.901 7.254-20.17 13.538-20.596 13.964-.68.68 3.04 3.318 30.337 21.523 17.328 11.557 31.434 20.626 31.84 20.47.905-.347.613-5.81-.859-16.068-1.792-12.5-5.316-24.23-10.975-36.532-3.236-7.035-8.465-16.166-9.395-16.407-.291-.075-9.45 5.798-20.352 13.05m-51.673 34.423c-14.845 9.915-27.227 18.263-27.514 18.55-1.091 1.092.234 1.129 3.208.09 10.272-3.588 26.333-6.373 43.219-7.495 11.866-.788 24.276.009 42.251 2.714 3.761.566 17.119 3.985 20.31 5.199 2.099.797 2.73.717 1.93-.248-1.067-1.285-54.175-36.456-55.352-36.657-.696-.119-10.313 6-28.052 17.847M126.685 98.603c-3.642.213-8.172.664-10.066 1.002-6.8 1.215-13.519 2.754-13.966 3.2-.668.664-1.81 5.71-3.06 13.53-1.473 9.207-1.593 29.337-.228 38.15.497 3.207 1.108 6.039 1.358 6.294.56.574 49.291-9.072 50.145-9.925.688-.689 10.543-49.508 10.087-49.965-.715-.715-8.699-1.846-16.257-2.304-8.93-.541-8.415-.542-18.013.018m327.947-.03c-7.448.474-14.352 1.532-15.202 2.33-.487.458.142 4.433 2.736 17.286 6.069 30.069 6.583 32.48 7.01 32.857.43.38 48.13 10.063 49.568 10.063 2.497 0 3.99-26.688 2.252-40.27-1.326-10.373-2.695-16.943-3.749-17.997-.282-.282-2.178-.886-4.213-1.342-11.528-2.58-26.225-3.7-38.402-2.927m-291.146 3.783c-1.05 3.31-9.618 47.418-9.281 47.78.215.23 14.673-2.463 32.13-5.984 17.458-3.522 33.767-6.778 36.244-7.236 6.505-1.202 6.59-1.438 2-5.555-14.757-13.23-37.342-25.176-54.378-28.76-1.934-.406-4.15-.9-4.923-1.098-1.164-.298-1.474-.15-1.792.853m266.51.215c-15.447 3.648-32.78 11.898-46.198 21.988-5.92 4.452-11.815 9.702-11.815 10.523 0 .723-.726.557 24.635 5.638 12.53 2.51 28.6 5.75 35.712 7.202 7.46 1.522 13.127 2.44 13.396 2.17.27-.27-.577-5.603-2.003-12.608a3051.443 3051.443 0 0 1-2.72-13.466c-.138-.729-.73-3.71-1.317-6.624-.587-2.914-1.504-7.507-2.039-10.205-.985-4.972-1.327-5.991-1.987-5.913-.201.025-2.75.607-5.664 1.295m-337.218 2.675c-3.06 1.018-6.278 2.18-7.153 2.582-.874.401-3.258 1.488-5.298 2.413-2.04.925-4.543 2.069-5.562 2.54-3.616 1.674-13.622 7.946-18.778 11.771-10.295 7.638-21.493 19.095-28.742 29.404-3.319 4.72-10.759 16.819-10.759 17.495 0 .144-.596 1.497-1.324 3.007-1.424 2.952-1.647 4.137-.778 4.137 1.988 0 82.97-16.647 83.26-17.115.2-.322.254-1.193.121-1.935-2.783-15.594-2.287-38.86 1.11-52.134.744-2.902.694-4.087-.168-4.038-.202.012-2.87.854-5.93 1.873m407.96-.701c.007.656.241 2.146.521 3.311.28 1.166 1.002 5.339 1.604 9.273 1.394 9.104 1.543 28.783.275 36.297-.918 5.437-1.028 8.024-.36 8.436.253.158 16.405 3.492 35.893 7.41 19.487 3.917 37.853 7.617 40.813 8.222 6.515 1.333 6.54 1.334 6.54.168 0-1.076-4.004-9.16-7.41-14.963-4.428-7.541-12.732-18.025-20.18-25.473-11.506-11.508-24.211-20.409-38.29-26.824-5.554-2.53-17.73-7.05-18.997-7.05-.232 0-.416.537-.41 1.193M286.95 124.35c-1.457.117-5.51.585-9.007 1.04-3.497.454-8.146 1.055-10.331 1.334-2.185.28-4.689.73-5.563 1.002-.874.272-3.854 1.08-6.622 1.793-6.196 1.598-19.198 6.008-20.482 6.947-.87.636-.703.955 2.112 4.056 4.754 5.238 13.064 16.573 16.646 22.707 10.745 18.4 17.086 39.51 18.463 61.466.348 5.564.348 5.564 3.858 8.912 7.11 6.784 21.76 17.584 23.847 17.58 2.233-.003 16.029-9.949 23.272-16.776 4.405-4.152 4.405-4.152 4.862-11.04 2.02-30.407 14.263-59.777 34.1-81.8 1.936-2.15 3.52-4.206 3.52-4.569 0-1.553-24.752-9.125-33.684-10.303-2.308-.304-6.7-.92-9.76-1.368-5.391-.789-29.34-1.456-35.231-.981m-59.868 15.156c-9.421 4.08-22.962 12.084-32.682 19.318-17.237 12.83-34.009 31.443-45.407 50.389-3.924 6.523-10.652 19.993-10.652 21.326 0 .815.653.995 4.635 1.273 8.404.588 18.328 1.962 23.709 3.283 22.876 5.618 43.32 16.198 59.565 30.826 4.995 4.498 4.995 4.498 12.185 4.17 12.912-.588 26.766-3.263 27.594-5.328 1.541-3.838 3.476-16.83 4-26.84.346-6.64.346-6.64-3.937-11.33-14.26-15.613-25.646-37.517-30.735-59.125-1.765-7.491-3.24-17.005-3.246-20.938-.003-1.453-.155-3.894-.339-5.424-.387-3.221-.7-3.328-4.69-1.6m140.945 5.045c-1.272 21.123-7.77 42.4-18.574 60.82-3.801 6.48-11.382 16.901-15.406 21.179-4.597 4.887-4.41 4.27-3.92 12.982.748 13.265 2.967 24.952 4.976 26.202 2.73 1.7 15.678 3.817 26.598 4.349 6.938.337 6.938.337 11.656-3.888 16.49-14.769 37.13-25.529 59.288-30.91 7.112-1.727 11.652-2.397 21.722-3.208 3.788-.305 7.103-.768 7.365-1.03.643-.636-7.09-16.13-11.8-23.643-14.667-23.402-32.979-41.943-55.698-56.397-7.177-4.566-22.951-12.682-24.649-12.682-1.137 0-1.199.246-1.558 6.226m-154.72-3.545c-1.448.412-9.703 2.098-15.629 3.19-8.678 1.599-44.086 8.902-44.327 9.142-.24.24-7.541 35.653-9.14 44.333-1.077 5.847-2.775 14.206-3.242 15.958-.623 2.34-.662 4.707-.077 4.707.237 0 .852-.894 1.367-1.987 1.6-3.397 7.747-13.404 11.528-18.767 15.676-22.231 36.787-41.224 59.68-53.694 2.675-1.457 4.866-2.828 4.869-3.047.006-.515-2.99-.417-5.029.165m168.448-.079c.164.266 2.383 1.604 4.932 2.973 6.4 3.44 18.341 11.482 25.166 16.95 16.971 13.596 34.074 33.67 43.338 50.863 2.638 4.897 4.732 8.159 4.754 7.409.008-.286-2.906-15.146-6.476-33.02-4.954-24.803-6.695-32.61-7.352-32.961-.473-.253-2.267-.707-3.988-1.008-1.72-.3-4.915-.92-7.1-1.375a338.386 338.386 0 0 0-6.358-1.265c-1.311-.24-11.977-2.374-23.702-4.743-21.423-4.327-23.764-4.713-23.214-3.823m-147.512 3.889c.012 4 1.822 16.161 3.372 22.652 3.872 16.223 12.023 33.85 21.919 47.405 4.03 5.52 9.054 11.412 9.732 11.412 1.322 0-.261-14.871-2.68-25.17-3.873-16.485-12.242-34.513-22.558-48.587-4.025-5.49-8.452-10.494-9.285-10.494-.28 0-.505 1.252-.5 2.782m128.319-.462c-3.704 4.019-10.075 12.92-14.017 19.58-6.677 11.288-11.915 24.181-15.003 36.934-2.438 10.07-4.246 25.417-2.994 25.417.735 0 4.646-4.343 8.59-9.538 10.257-13.513 18.994-31.96 23.32-49.24 2.207-8.815 4.022-24.922 2.852-25.313-.318-.106-1.555.866-2.748 2.16m-237.159 14.3c-15.475 3.147-23.878 5.08-24.026 5.529-.314.948 1.602 8.265 4.065 15.52 1.787 5.267 3.207 8.634 7.316 17.347 4.899 10.389 20.442 31.487 22.59 30.663.378-.146 1.06-2.333 1.544-4.951.475-2.58 3.743-18.952 7.26-36.384 3.518-17.431 6.257-31.917 6.089-32.19-.169-.273-.472-.469-.673-.435-.202.034-11.076 2.24-24.165 4.901m324.67-4.56c-.634.424 13.608 72.975 14.5 73.867.28.28 1.99-1.212 4.178-3.648 12.11-13.48 22.588-32.659 27.873-51.016 2.153-7.479 2.428-8.948 1.774-9.478-.323-.262-10.892-2.533-23.485-5.047-12.594-2.515-23.203-4.684-23.576-4.82-.374-.137-.942-.073-1.264.142M82.712 167.211c-7.43 1.532-25.55 5.206-40.265 8.163-29.344 5.897-28.61 5.731-28.61 6.437 0 .837 47.293 71.497 47.853 71.497.29 0 2.974-1.43 5.967-3.18 10.497-6.136 25.65-12.148 37.836-15.01 5.874-1.379 15.71-2.766 23.444-3.306 2.985-.208 4.633-.543 4.627-.939-.004-.338-1.74-2.532-3.858-4.876-12.87-14.238-23.878-34.612-28.953-53.587-.61-2.281-1.352-5.041-1.65-6.134-.427-1.571-.785-1.973-1.71-1.92-.645.038-7.251 1.322-14.681 2.855m418.627-1.995c-.266.51-.884 2.596-1.375 4.636-4.658 19.365-16.192 41.222-29.539 55.972-2.276 2.516-4.138 4.84-4.138 5.166 0 .327.537.606 1.192.62 2.44.056 12.468.978 16.821 1.547 14.546 1.901 33.956 8.769 48.01 16.984 2.98 1.742 5.674 3.167 5.987 3.167.799 0 47.385-69.979 47.426-71.24.032-.946-3.426-1.73-41.29-9.373-22.729-4.588-41.615-8.356-41.968-8.374-.354-.018-.86.385-1.126.895M10.606 185.35c-3.14 8.218-5.636 17.759-7.174 27.422-1.303 8.19-1.3 30.39.007 38.68 1.679 10.66 5.64 24.74 9.13 32.458 3.69 8.162 6.15 12.848 6.747 12.848.385 0 1.039-.652 1.452-1.448.413-.796 3.217-4.76 6.23-8.81 6.58-8.845 19.169-21.586 26.775-27.099 3.934-2.852 5.076-3.954 4.94-4.769-.226-1.357-46.366-70.739-47.043-70.739-.28 0-.758.656-1.064 1.457m553.959 33.555c-12.822 19.256-23.385 35.335-23.475 35.73-.09.394 1.936 2.297 4.503 4.229 6.086 4.58 14.122 11.994 19.822 18.288 4.561 5.036 12.678 15.781 13.828 18.306 1.22 2.68 2.549.99 7.102-9.033 10.876-23.944 14.277-53.302 9.23-79.683-.51-2.67-.835-4.013-2.255-9.337-1.543-5.78-4.316-13.512-4.847-13.512-.329 0-11.088 15.756-23.908 35.012M116.61 235.304c-11.646 1.697-25.193 5.703-36.019 10.65-7.318 3.343-17.228 9.152-17.164 10.06.06.846 25.144 38.793 26.74 40.45.545.567 1.086.925 1.203.795.482-.536 40.611-60.976 41.136-61.957.556-1.038.43-1.068-4.347-1.017-2.705.03-7.902.488-11.549 1.02m19.687-.145c-2.296 4.341-8.462 25.904-9.66 33.78a2238.17 2238.17 0 0 1-1.4 9.008c-1.306 8.303-1.302 35.575.009 43.98.5 3.206 1.14 7.378 1.425 9.273 1.253 8.348 7.838 31.034 9.779 33.688.826 1.13 1.303.864 5.662-3.165 11.147-10.304 28.07-20.296 44.97-26.555 9.318-3.45 25.717-6.642 38.256-7.444 5.144-.33 5.144-.33 9.59-5.182 4.95-5.403 11.701-14.215 14.527-18.958 1.296-2.176 1.755-3.481 1.536-4.358-.693-2.761-10.636-16.02-17.446-23.266-3.362-3.577-3.362-3.577-7.297-3.581-9.184-.01-24.516-2.9-37.048-6.983-16.688-5.438-35.058-16.097-47.926-27.808-2.028-1.846-3.867-3.356-4.087-3.356-.22 0-.62.417-.89.927m5.751-.474c0 2.263 21.652 17.657 29.934 21.281a415.64 415.64 0 0 1 6.622 3.027c11.276 5.254 27.998 9.48 43.523 10.999 4.82.471 5.122-.256 1.463-3.53-14.655-13.121-36.756-24.36-57.436-29.21-9.48-2.223-24.106-3.781-24.106-2.567m130.687-.056c-.13.219-.402 2.901-.604 5.961-.45 6.786-1.573 14.927-2.73 19.778-.53 2.215-.674 3.806-.374 4.106 1.24 1.239 27.726-9.626 27.721-11.372 0-.324-3.005-2.722-6.677-5.328-3.671-2.605-8.936-6.718-11.7-9.14-5.313-4.655-5.268-4.623-5.636-4.005m49.686 3.372c-3.595 3.215-15.539 12.24-18.545 14.015-1.582.933-.474 1.783 6.858 5.263 8.594 4.08 19.356 7.935 20.093 7.198.345-.345.23-1.93-.34-4.654-1.297-6.206-2.478-15.003-2.485-18.506-.007-3.602-.505-7.085-1.014-7.085-.194 0-2.249 1.696-4.567 3.769m121.878-2.686c-16.148 2.277-32.325 7.969-47.536 16.725-6.544 3.767-16.23 10.668-21.06 15.006-3.73 3.348-2.847 3.604 7.779 2.249 19.181-2.447 36.717-8.388 52.626-17.83 8.668-5.144 20.439-14.027 21.86-16.497.596-1.036-4.842-.897-13.669.347m14.835 1.88c-12.211 11.222-29.418 21.541-45.534 27.307-12.071 4.318-30.052 7.881-39.773 7.881-3.84 0-3.84 0-7 3.312-7.089 7.428-14.078 16.458-16.866 21.789-1.422 2.718-1.422 2.718.289 5.632 3.71 6.322 17.384 23.283 19.39 24.052.374.144 2.782.407 5.351.584 13.32.921 28.436 3.92 38.363 7.61 17.008 6.323 32.898 15.722 44.699 26.438 2.327 2.114 4.506 3.842 4.843 3.842.749 0 1.085-.83 4.4-10.863 4.188-12.673 6.097-21.71 8.062-38.15.738-6.178.736-27.844-.003-33.648-2.249-17.654-3.91-25.34-8.352-38.672-2.736-8.21-3.558-10.106-4.358-10.057-.183.012-1.763 1.336-3.511 2.942m8.212-2.465c0 .78 41.26 62.558 41.781 62.558.76 0 27.715-40.854 27.436-41.583-.364-.947-11.222-7.067-17.827-10.046-6.755-3.048-15.915-6.24-23.046-8.032-9.805-2.464-28.344-4.359-28.344-2.897m2.799 10.365c.156.875 1.373 5.882 2.705 11.128 1.333 5.246 2.685 11.326 3.006 13.512l1.049 7.153c3.269 22.306.663 53.993-6.178 75.104-.447 1.38-.73 2.93-.63 3.444.203 1.042 37.21-54.178 37.194-55.498-.01-.689-33.58-51.525-36.391-55.108-1.04-1.324-1.04-1.324-.755.265m-359.141 26.751c-12.108 18.171-18.27 27.872-18.105 28.503.314 1.2 35.62 54.331 36.7 55.227 1.006.835 1.002.194-.016-2.691-1.648-4.672-4.999-19.528-6.026-26.718-1.734-12.127-2.334-24.94-1.658-35.41.56-8.667 2.108-21.188 3.255-26.321 1.535-6.867 3.691-15.373 4.417-17.42.452-1.275.822-2.408.822-2.517 0-1.406-3.806 3.962-19.389 27.347m186.276-16.083c-4.806 2.77-15.275 7.308-21.903 9.494-3.743 1.234-7 2.449-7.238 2.698-.239.25-1.5 3.555-2.802 7.343-2.565 7.464-6.256 16.088-9.117 21.3-1.803 3.283-1.803 3.283 2.456 12.134 2.343 4.868 5.295 11.947 6.562 15.73 1.267 3.785 2.527 7.104 2.8 7.378.273.273 3.329 1.444 6.79 2.602 6.377 2.133 18 7.155 21.392 9.24 3.216 1.978 3.93 2.008 6.985.292 4.847-2.723 14.715-6.994 22.037-9.539 7.035-2.444 7.035-2.444 9.35-9.358 2.378-7.105 6.578-16.841 9.454-21.918 1.628-2.874 1.628-2.874-.029-6.094-3.763-7.316-6.961-14.774-9.355-21.816-2.539-7.468-2.539-7.468-9.762-9.866-6.95-2.307-17.397-6.823-21.263-9.194-3.038-1.862-3.78-1.911-6.357-.426m-241.363 4.875c-5.691 4.187-13.892 11.656-19.067 17.366-7.477 8.25-15.596 19.692-15.596 21.98 0 3.383 13.042 20.247 22.516 29.113 7.66 7.169 15.377 13.231 16.842 13.231.946 0 28.615-41.49 28.372-42.547-.308-1.345-27.695-42.205-28.299-42.22-.312-.007-2.458 1.377-4.768 3.077m469.076 17.707c-7.636 11.439-13.887 21.195-13.892 21.68-.013 1.249 27.352 42.273 28.208 42.29 2.144.042 16.262-11.903 23.529-19.905 5.1-5.617 13.23-16.415 15.046-19.983 1.296-2.545 1.296-2.545-.291-5.318-4.742-8.29-14.17-19.574-23.647-28.303-5.362-4.94-13.515-11.258-14.526-11.258-.299 0-6.792 9.359-14.427 20.797m-265.064-8.834c-3.646 1.021-17.67 2.873-21.752 2.873-1.843 0-3.492.227-3.663.504-.17.277 1.552 2.602 3.83 5.166 3.955 4.456 9.427 11.614 12.589 16.47.812 1.247 1.738 2.198 2.058 2.111 1.688-.457 12.558-26.05 11.674-27.483-.388-.627-1.52-.541-4.736.36m75.496.123c0 2.82 8.26 23.044 10.647 26.071 1.029 1.304 1.048 1.306 1.839.258.44-.583 2.973-4.04 5.63-7.683s6.485-8.459 8.506-10.701c2.022-2.243 3.52-4.33 3.33-4.637-.19-.307-1.849-.559-3.686-.559-4.07 0-17.772-1.812-22.01-2.91-3.923-1.016-4.256-1.004-4.256.161m-245.41 33.88c-2.175 2.5-26.913 40.495-26.646 40.926.602.975 10.704 6.603 16.91 9.421 15.663 7.112 29.874 10.72 47.597 12.08 4.072.313 4.636.252 4.636-.505 0-.742-41.02-62.85-41.51-62.85-.1 0-.543.418-.987.928m398.052 30.247c-11.397 17.102-20.721 31.417-20.721 31.81 0 .572.968.643 4.9.358 17.277-1.253 33.127-5.295 47.815-12.196 9.142-4.294 16.767-8.803 16.578-9.802-.215-1.136-26.504-40.712-27.248-41.018-.339-.14-9.674 13.364-21.324 30.848M18.146 304.26c-1.658 2.656-6.703 14.446-8.807 20.581-5.163 15.063-6.82 25.551-6.82 43.185 0 14.218.56 19.605 3.162 30.469 1.6 6.676 4.987 17.077 5.727 17.585.632.434 47.467-69.607 47.454-70.97-.005-.546-1.568-2.018-3.8-3.578-3.011-2.103-12.792-10.44-15.53-13.235-6.296-6.432-14.725-16.89-18.48-22.929-1.6-2.572-1.916-2.693-2.906-1.108m233.863.021c-6.205 8.811-9.924 13.668-13.473 17.594-2.345 2.595-4.152 4.9-4.014 5.122.137.222 2.096.55 4.352.727 7.74.61 14.175 1.434 19.642 2.517 3.151.625 5.67.887 5.94.619.961-.962-8.885-25.555-10.902-27.229-.513-.426-.902-.263-1.545.65m93.92.027c-2.796 4.469-10.503 23.632-10.503 26.115 0 .987.141.981 6.275-.251 5.019-1.009 11.66-1.831 19.818-2.457 2.259-.173 4.106-.532 4.106-.797 0-.266-1.581-2.206-3.514-4.312-3.98-4.338-10.372-12.633-12.898-16.739-.93-1.512-1.883-2.75-2.116-2.75-.232 0-.759.536-1.169 1.191m232.67 1.566c-6.927 11.318-20.85 26.203-32.697 34.953-3.6 2.66-4.947 3.957-4.778 4.604.418 1.6 47.035 71.131 47.498 70.846.433-.268 3.584-9.507 4.71-13.808l1.125-4.299c2.967-11.32 4.204-31.062 2.752-43.92-.813-7.197-2.408-15.855-3.807-20.666-1.747-6.006-2.321-7.832-3.503-11.127-1.421-3.966-1.683-4.593-4.63-11.128-2.411-5.344-3.804-7.878-4.449-8.093-.277-.092-1.277 1.095-2.222 2.638m-348.391 24.903c-.844.646-3.322 2.748-5.508 4.671-15.353 13.506-37.057 24.579-57.483 29.327-7.168 1.666-12.198 2.414-21.457 3.193-7.153.6-7.153.6-7.047 2.098.059.824 1.86 4.994 4.005 9.267 14.738 29.376 37.54 54.077 65.89 71.381 7.73 4.718 21.872 11.626 22.505 10.993.271-.271.616-2.504.767-4.961 1.947-31.683 13.638-59.966 34.564-83.622 3.928-4.439 3.928-4.439 3.584-10.862-.596-11.15-2.999-25.769-4.54-27.626-1.262-1.52-16.724-4.144-27.863-4.728-5.514-.288-5.979-.234-7.417.869m128.797-.627c-9.863.637-23.5 3.082-24.523 4.397-2.23 2.865-5.723 31.604-4.198 34.54.303.582 2.182 2.858 4.176 5.058 4.702 5.188 10.822 13.646 14.933 20.64 11.113 18.905 17.302 39.164 18.658 61.077.194 3.137.582 5.846.862 6.02.652.402 15.184-6.767 21.68-10.696 23.991-14.513 43.964-34.15 58.983-57.99 5.222-8.291 12.871-23.802 12.002-24.34-.38-.234-3.231-.592-6.335-.794-29.736-1.934-59.264-14.145-80.874-33.444-4.884-4.36-5.99-5.039-8.045-4.926-.82.044-4.114.25-7.32.458m-145.996 1.043c-23.003 3.503-43.055 11.85-61.447 25.58-6.608 4.932-9.811 7.952-9.304 8.773.376.61 4.432.365 12.774-.772 21.767-2.967 43.3-11.913 61.11-25.388 8.105-6.132 10.148-7.882 10.148-8.69 0-.818-6.161-.587-13.28.497m160.565-.568c0 .267 1.49 1.767 3.311 3.333 19.127 16.45 44.314 27.787 68.477 30.825 13.962 1.754 14.333 1.683 10.43-2.015-10.953-10.37-31.365-21.84-48.31-27.144-10.816-3.386-33.908-6.79-33.908-5m-104.684 5.014c-.153.401.08 2.13.517 3.842 1.034 4.04 2.267 13.276 2.733 20.466.203 3.133.599 5.696.88 5.696.28 0 2.522-1.79 4.982-3.979 4.476-3.984 12.357-10.013 16.53-12.648 1.221-.771 2.221-1.72 2.221-2.109 0-.912-11.988-6.554-20.436-9.616-3.612-1.31-6.697-2.381-6.857-2.381-.16 0-.416.328-.57.73m55.413 1.364c-6.733 2.448-19.562 8.27-20.663 9.378-.706.711-.677.885.265 1.563.583.42 3.782 2.68 7.11 5.022 3.326 2.342 8.158 6.153 10.737 8.468 2.578 2.314 4.892 4.208 5.142 4.208.651 0 1.117-2.78 1.117-6.66 0-3.504 1.696-16.09 2.71-20.121.577-2.29.386-3.987-.442-3.917-.227.02-2.917.946-5.976 2.059M45.654 370.02A61841.019 61841.019 0 0 0 21.86 405.8c-4.939 7.435-8.003 12.53-7.711 12.82.266.265 19.27 4.247 42.23 8.85 35.806 7.178 41.815 8.256 42.237 7.58.27-.433.762-2.08 1.093-3.66.756-3.62 4.165-14.136 5.94-18.323 6.553-15.46 15.005-28.975 24.953-39.904 1.94-2.13 3.408-4.063 3.264-4.295-.143-.233-2.95-.59-6.237-.793-21.41-1.33-43.003-7.997-60.81-18.779-2.477-1.5-4.742-2.724-5.034-2.722-.291.003-7.55 10.554-16.13 23.446m486.858-20.364c-10.894 6.533-25.49 12.414-37.616 15.156-7.304 1.652-12.5 2.426-21.148 3.15-4.168.349-7.19.835-7.302 1.175-.106.319 1.32 2.227 3.17 4.24 5.06 5.507 11.199 13.895 15.555 21.256 2.144 3.621 3.898 6.663 3.898 6.759 0 .096 1.27 2.88 2.821 6.19 3.857 8.223 6.822 16.922 9.047 26.548.232 1 .674 1.457 1.412 1.457.592 0 14.117-2.63 30.056-5.844 15.94-3.214 34.525-6.951 41.3-8.305 8.572-1.713 12.317-2.673 12.317-3.157 0-1.077-47.173-71.718-47.865-71.679-.337.02-2.877 1.394-5.645 3.054m-236.026.696c-4.65 2.888-12.048 8.494-16.647 12.617-7.829 7.015-7.253 6.09-7.662 12.307-2.064 31.35-13.728 59.877-33.806 82.682-2.275 2.584-4.137 4.901-4.137 5.149 0 .554.122.603 9.272 3.755 4.08 1.405 9.563 3.056 12.185 3.67 2.623.612 6.676 1.591 9.007 2.175 14.603 3.659 41.063 4.327 62.252 1.572 11.156-1.45 38.41-9.488 38.41-11.327 0-.466-1.563-2.58-3.473-4.7-8.043-8.926-16.322-21.62-21.522-32.998-7.342-16.067-11.062-30.68-12.34-48.478-.512-7.147-.512-7.147-4.635-11.008-7.485-7.009-21.408-17.102-23.55-17.071-.388.005-1.897.75-3.354 1.655m-165.231 25.405c-4.555 4.92-10.266 12.908-15.034 21.025-2.112 3.597-3.84 6.63-3.84 6.738 0 .108-.863 2.062-1.917 4.342-4.2 9.087-9.21 24.245-9.21 27.87 0 .587 1.485 1.087 5.696 1.915 3.132.617 7.483 1.49 9.669 1.94 2.185.452 5.046 1.018 6.357 1.258 1.312.24 7.847 1.548 14.524 2.907 7.004 1.426 12.337 2.274 12.607 2.004.27-.27-.65-5.937-2.17-13.398-1.451-7.113-4.692-23.185-7.201-35.717-5.011-25.02-4.926-24.64-5.56-24.64-.245 0-2.01 1.69-3.921 3.756m332.913-3.524c0 .128-1.817 9.248-4.037 20.268-2.22 11.02-5.525 27.428-7.343 36.463-1.818 9.034-3.131 16.621-2.92 16.86.213.239 11.134-1.729 24.271-4.372s24.016-4.805 24.176-4.805c1.001 0-.693-7.426-3.687-16.161-5.592-16.319-15.28-33.106-25.916-44.902-2.706-3.002-4.544-4.358-4.544-3.35m-198.154 4.596c-9.805 11.275-18.815 26.978-24.439 42.596-3.98 11.053-7.676 29.712-7.243 36.562.167 2.649.167 2.649 2.958-.265 3.761-3.928 10.893-13.858 14.842-20.666 8.302-14.313 14.028-30.785 16.576-47.689 1.05-6.968 1.334-13.777.573-13.777-.248 0-1.718 1.457-3.267 3.239m64.127-.192c.015 3.994 1.656 14.8 3.36 22.134 2.87 12.35 8.73 26.799 15.488 38.19 5.167 8.707 15.628 22.064 16.556 21.137.48-.48.152-6.074-.74-12.645-3.32-24.447-14.4-49.277-30.322-67.96-1.829-2.146-3.558-3.903-3.84-3.903-.283 0-.51 1.371-.502 3.047m126.613 9.008c-8.051 14.695-17.271 27.015-29.587 39.542-12.794 13.012-26.41 23.363-41.54 31.578-6.674 3.625-6.364 3.724 4.634 1.487a538.6 538.6 0 0 1 7.682-1.514c1.311-.24 4.053-.776 6.093-1.193 2.04-.418 12.291-2.477 22.781-4.576 10.49-2.099 19.35-4.094 19.69-4.433.34-.34 2.334-9.201 4.432-19.693 2.099-10.492 4.158-20.745 4.575-22.785.417-2.04.954-4.782 1.194-6.093.24-1.312.923-4.77 1.52-7.684 1.335-6.52 1.864-9.802 1.576-9.802-.12 0-1.492 2.325-3.05 5.166M140.46 382.5c0 .644 1.937 10.766 4.305 22.493a8912.417 8912.417 0 0 1 4.555 22.646c.138.729.732 3.71 1.322 6.623.588 2.915 1.364 6.802 1.724 8.64.36 1.836.867 3.535 1.128 3.774.555.508 64.739 13.41 65.48 13.163.275-.092-2.438-1.829-6.028-3.86-28.682-16.234-52.4-39.812-68.219-67.816-3.754-6.646-4.267-7.328-4.267-5.663M14.07 421.967c-.16.418.744 2.879 2.01 5.468 12.944 26.492 35.657 48.82 62.71 61.646 8.99 4.262 19.852 8.112 20.646 7.318.185-.184-.04-1.841-.5-3.682-3.04-12.186-3.888-32.411-1.947-46.532.74-5.392.832-7.3.372-7.749-.335-.327-18.729-4.214-40.875-8.637-22.145-4.424-40.683-8.167-41.194-8.317-.527-.156-1.056.055-1.221.485m530.892 7.49c-21.855 4.426-40.423 8.224-41.263 8.44-1.522.394-1.526.406-1.217 3.679.17 1.806.573 4.953.895 6.993.767 4.852.755 25.911-.016 30.998-.332 2.186-.811 5.405-1.065 7.154a79.02 79.02 0 0 1-1.222 6.265c-.671 2.727-.667 3.122.036 3.393 2.202.845 20.535-6.909 31.163-13.18 18.303-10.8 35.742-28.123 46.358-46.051 6.022-10.169 8.494-15.976 6.728-15.803-.364.036-18.543 3.686-40.397 8.112m-444.433 9.726c-.142.23-.665 3.031-1.163 6.227-1.382 8.884-1.258 28.97.237 38.131 1.67 10.237 2.228 12.626 3.176 13.595.967.99 7.734 2.756 14.104 3.682 5.892.856 29.362 1.243 33.642.553 1.894-.305 4.757-.696 6.362-.869 1.605-.173 3.267-.53 3.694-.793.66-.408.075-3.964-3.934-23.955-2.59-12.911-4.912-24.228-5.16-25.147-.504-1.858-.29-1.781-11.028-3.928-3.06-.612-13.152-2.643-22.427-4.513-19.141-3.859-17.17-3.523-17.503-2.983m372.993 4.635c-13.358 2.716-24.401 5.052-24.54 5.19-.14.14-2.518 11.519-5.285 25.288-3.91 19.453-4.882 25.128-4.36 25.45.37.23 1.877.56 3.348.733 1.47.174 4.581.57 6.912.88 5.055.673 27.295.34 33.25-.498 5.463-.768 13.758-2.768 14.486-3.493.608-.604 1.89-6.062 2.813-11.972 1.523-9.765 1.728-13.042 1.495-23.845-.328-15.12-1.405-22.876-3.156-22.727-.372.031-11.605 2.28-24.963 4.994M154.1 450.03c-.319.958 9.21 47.79 9.852 48.421 1.1 1.083 17.14-3.639 25.527-7.513 8.38-3.872 12.828-6.224 18.264-9.661 8.732-5.52 21.147-15.743 20.232-16.658-.265-.266-16.549-3.687-36.185-7.604-19.636-3.915-36.108-7.214-36.604-7.329-.496-.114-.984.04-1.086.344m274.835 2.79c-9.033 1.818-25.439 5.123-36.457 7.344-11.018 2.22-20.137 4.038-20.265 4.038-1.006 0 .349 1.838 3.35 4.544 11.243 10.14 28.522 20.314 43.27 25.48 6.58 2.305 16.86 4.971 17.357 4.501.65-.616 10.053-48.427 9.603-48.827-.238-.212-7.825 1.102-16.858 2.92m-203.264 17.675c-15.073 13.513-34.626 23.956-54.678 29.203-3.166.829-5.98 1.73-6.253 2.003-.704.704 16.023 83.89 16.94 84.243.807.31 71.626-46.754 71.626-47.6 0-.315-1.413-2.997-3.14-5.962-6.176-10.6-11.277-23.182-14.374-35.45-1.807-7.16-3.678-18.815-3.678-22.917 0-4.105-.592-7.698-1.264-7.664-.325.017-2.655 1.881-5.179 4.144m142.393 1.522c-1.32 21.263-7.907 43.02-18.35 60.61-1.74 2.93-3.163 5.52-3.163 5.756 0 .584 70.826 47.691 71.703 47.691.484 0 1.445-3.747 3.159-12.32 1.354-6.775 5.091-25.361 8.304-41.301 3.212-15.94 5.84-29.437 5.84-29.992 0-.804-.73-1.196-3.575-1.921-7.366-1.875-18.09-5.601-24.273-8.433-11.879-5.44-25.96-14.681-35.198-23.097-1.602-1.46-3.179-2.663-3.504-2.672-.376-.01-.717 2.043-.943 5.68m-133.822-.53c.017 8.793 2.864 23.74 6.686 35.104 3.532 10.506 12.766 29.245 14.793 30.023.716.275 41.559-26.698 41.559-27.446 0-.521-61.77-41.788-62.549-41.788-.274 0-.494 1.848-.489 4.106m99.501 16.62c-17.447 11.631-30.978 20.988-30.838 21.327.304.741 39.882 27.035 41.017 27.251.916.174 6.38-9.111 10.071-17.11 2.72-5.895 6.361-16.374 8.17-23.509 2.55-10.067 4.565-28.03 3.196-28.501-.291-.1-14.519 9.143-31.616 20.542m-88.913-17.172c3.58 2.811 54.41 36.388 55.099 36.397.753.01 51.577-33.483 54.742-36.075 1.35-1.106 1.39-1.227.408-1.227-.599 0-1.988.341-3.087.758-3.71 1.406-17.832 4.458-27.428 5.927-8.756 1.34-10.771 1.46-24.635 1.445-11.387-.011-16.467-.23-20.662-.891-3.06-.482-7.828-1.226-10.596-1.654-2.769-.427-8.848-1.763-13.51-2.967-4.663-1.204-9.192-2.316-10.067-2.47-1.589-.282-1.589-.282-.264.757m-141.457 30.144c0 .519 3.733 11.482 4.494 13.196.388.875 1.562 3.455 2.609 5.735 1.047 2.28 1.903 4.24 1.903 4.354 0 .682 8.193 13.998 11.071 17.995 12.499 17.357 31.717 33.586 49.501 41.802 4.225 1.951 5.653 2.307 5.653 1.408 0-.279-2.272-11.784-5.05-25.567a49948.994 49948.994 0 0 1-8.232-40.953c-1.752-8.74-3.401-16.108-3.666-16.373-.288-.288-3.031-.119-6.846.422-12.84 1.821-38.503.856-47.195-1.775-2.028-.613-4.242-.74-4.242-.244m388.079.459c-9.242 2.458-33.464 3.325-45.523 1.629-7.872-1.107-7.595-1.147-8.2 1.173-.286 1.093-4.002 19.394-8.258 40.668-4.256 21.275-7.871 39.218-8.035 39.874-.495 1.982 1.42 1.485 8.563-2.224 12.552-6.516 21.9-13.437 32.589-24.127 11.843-11.846 20.473-24.194 27.041-38.692 2.77-6.112 6.856-17.137 6.856-18.495 0-.752-1.727-.686-5.033.194M278.605 524.87c-11.582 7.726-21.06 14.316-21.06 14.643 0 1.951 12.258 16.24 20.077 23.405 5.246 4.806 16.06 13.008 20.087 15.235 2.283 1.262 2.283 1.262 4.635.014 3.428-1.82 15.29-10.811 20.266-15.363 7.686-7.031 19.687-21.277 19.679-23.36-.003-.692-39.625-27.528-41.83-28.331-.48-.175-9.12 5.264-21.854 13.757m-59.602 39.642c-29.159 19.453-36.632 24.74-34.967 24.74.074 0 2.912.946 6.308 2.102 13.214 4.499 25.762 6.412 42.036 6.41 16.375-.001 27.012-1.696 42.12-6.71 7.608-2.527 7.668-2.55 16.799-6.93 6.19-2.969 6.745-3.65 3.994-4.904-2.536-1.156-14.076-9.977-19.257-14.72-6.052-5.54-13.4-13.7-17.43-19.36-1.603-2.249-3.272-4.08-3.71-4.066-.436.013-16.588 10.56-35.893 23.438m121.843-18.628c-9.059 12.223-21.159 23.557-34.707 32.508-1.684 1.113-2.979 2.271-2.878 2.575.242.726 1.975 1.641 9.914 5.235 18.138 8.212 34.122 11.577 54.994 11.577 12.115 0 18.144-.62 29.509-3.032 4.84-1.027 18.808-5.576 18.808-6.125 0-.517-69.796-47.122-71.07-47.455-.644-.169-1.938 1.166-4.57 4.717" fill="#9BC4BB" fill-rule="evenodd"/>
</svg>
