<svg width="57" height="55" xmlns="http://www.w3.org/2000/svg">
    <path d="M28.4.403a83.814 83.814 0 0 0-.104 2.082c-.037.927-.095 2.143-.128 2.703-.034.56-.065 1.304-.07 1.653-.015 1.092-.01 1.08-.468 1.294-.66.309-.974.9-.767 1.442.116.304.42.607.777.776l.244.115-.025 1.017c-.013.559-.048 1.08-.077 1.16-.05.133-.092.142-.618.142-.31 0-.578.016-.598.035-.019.019.057.284.168.588.19.52.203.605.2 1.38l-.004.827-.382.032-.381.032-.047.381c-.025.21-.03.61-.01.89.052.741.008.815-.558.95-2.325.552-4.53 1.952-6.234 3.959-.34.4-1.012 1.436-1.286 1.98-.299.596-.7 1.592-.808 2.011-.388 1.488-.378 1.382-.416 4.557l-.036 2.965.341.033c.28.027 21.332.02 22.685-.008l.404-.008-.034-2.91c-.026-2.27-.054-3.014-.131-3.386a64.542 64.542 0 0 1-.135-.668c-.048-.255-.324-1.11-.523-1.621-.531-1.368-1.362-2.623-2.463-3.721-.9-.898-1.011-.992-1.826-1.543-1.132-.766-2.726-1.466-3.868-1.7a.957.957 0 0 1-.286-.097c-.038-.03-.061-.443-.057-1.026.004-.648-.017-.99-.064-1.022-.038-.025-.216-.047-.395-.047l-.324-.001-.042-.496c-.056-.672.005-1.23.192-1.762a9.4 9.4 0 0 0 .169-.508c.007-.038-.228-.071-.578-.082-.543-.017-.596-.03-.644-.16-.03-.077-.064-.596-.077-1.154l-.024-1.013.252-.131c.62-.322.957-.918.796-1.407-.106-.32-.56-.763-.88-.86-.141-.042-.274-.12-.295-.175-.045-.118-.19-2.843-.35-6.56-.064-1.501-.048-1.336-.122-1.336-.032 0-.074.18-.093.398M14.339 34.068c-.475.25-.707.59-.77 1.124-.034.288-.016.402.1.642.175.363.573.71.88.768.13.025 6.433.043 14.01.041 15.439-.004 14.084.04 14.524-.474.465-.543.459-1.244-.016-1.77-.43-.475.858-.436-14.603-.434-12.57.003-13.953.013-14.125.103m-1.849 3.11c-.7.346-1.043 1.043-.855 1.741.097.359.553.849.882.947.185.056 4.21.074 15.996.074 17.248 0 15.934.031 16.405-.383.35-.306.445-.532.448-1.049.001-.391-.022-.48-.189-.73a2.1 2.1 0 0 0-.475-.475l-.285-.192-15.866-.015c-14.052-.013-15.888-.003-16.06.082m-1.923 3.328c-.596.206-.954.682-1.014 1.351-.028.312-.007.421.137.717.095.194.276.43.406.532.505.391-.945.363 18.422.358 13.59-.004 17.785-.023 17.926-.081a1.596 1.596 0 0 0 .925-1.9c-.117-.419-.613-.91-1.03-1.018-.238-.063-4.068-.079-17.87-.077-16.86.002-17.579.006-17.902.118m-2.226 3.555c-.875.345-1.266 1.4-.834 2.25.153.3.275.424.662.68l.255.167h40.062l.254-.138c.729-.393 1.062-1.164.837-1.934a1.525 1.525 0 0 0-.817-.975l-.33-.164-19.908.003c-18.561.003-19.926.01-20.181.111M.06 47.727c-.074.074-.082 7.089-.008 7.205.04.063 5.776.076 28.471.064l28.422-.016.016-3.59c.011-2.458-.005-3.61-.05-3.656-.09-.089-56.763-.096-56.851-.007" fill="#6BABB5" fill-rule="evenodd"/>
</svg>
