<svg width="266" height="265" xmlns="http://www.w3.org/2000/svg">
    <path d="M14.556 3.534l-.658 3.513-3.436 3.438-3.436 3.437-3.513.659-3.513.66v8.846l1.686 2.715 1.686 2.715 8.667 9 8.666 8.999 1.252 3.848 1.253 3.849-.411 6.15-.412 6.151-2.617 4.102-2.617 4.103-4.55 3.014-4.55 3.015-4.027.644L0 83.037v98.706l3.856.517 3.858.518 3.687 1.75 3.687 1.75 3.168 3.36 3.167 3.36 1.728 4.253 1.726 4.254.056 5.184.056 5.185-1.066 2.815-1.065 2.814-9.18 9.57-9.18 9.57-2.249 2.764L0 242.172V250l3.249.007 3.248.006 2.769 1.827 2.77 1.827 2.521 3.416 2.523 3.416-.562 2.25-.563 2.25H27.29l9.594-9.958 9.595-9.958 4.498-2.02 4.498-2.018H66.47l3.998 1.825 3.998 1.824 3.782 3.903 3.781 3.903 1.466 4.932 1.467 4.93V265h95.956l.01-2.25.01-2.25 2.346-5.04 2.346-5.041 3.262-2.745 3.261-2.746 2.63-1.321 2.628-1.323 3.887-.601 3.887-.6 5.11 1.053 5.108 1.053 10.813 10.905L237.029 265h11.779l1.182-3.95 1.184-3.95 2.67-2.56 2.67-2.56 4.433-1.278 4.433-1.279.31-4.84.31-4.841-1.56.599-1.559.598v-1.736l-8.59-9.187-8.593-9.188-2.543-5.556-2.543-5.557.082-5.783.082-5.781 1.954-3.823 1.954-3.823 2.475-2.664 2.475-2.665 4.086-2.085 4.084-2.085h8.076V82.359l-3.005.442-3.004.441-5.392-2.639-5.391-2.639-2.437-3.225-2.437-3.225-1.781-4.709-1.783-4.71.688-5.29.688-5.29 1.181-2.755 1.183-2.756 10.745-10.845 10.745-10.844v-10.02l-2.249.404-2.249.403-3.498-1.894-3.499-1.893-2.249-3.296-2.249-3.296V.019H238.476l-6.539 7.007-6.539 7.009-1.127-.009-1.127-.008-1.372 1.659-1.371 1.659-4.998 2.33-4.998 2.331-5.28.01-5.28.01-3.715-1.55-3.717-1.55-3.333-3.2-3.335-3.199-1.581-3-1.581-3-.623-3-.624-2.999-48.64-.259L84.056 0l-.623 3.76-.621 3.758-1.127 2.946-1.126 2.945-2.952 3.364-2.952 3.363-4.052 2.067-4.053 2.07-6.037.028-6.038.03-4.65-2.22-4.648-2.221-9.558-9.936L26.06.02H15.216l-.66 3.515m226.993-.68L238.556 4.7l-1.836 2.064-1.835 2.064-.943 4.187L233 17.2l1.05 3.18 1.052 3.18 3.441 3.33 3.441 3.33 5.27.39 5.27.389 3.252-2.038 3.251-2.04 1.983-3.247 1.983-3.247.003-1.088.004-1.087-3.824-1.145-3.824-1.143-2.548-2.252-2.548-2.252-1.609-3.188-1.61-3.19V1l-1.247.004-1.248.003-2.993 1.847M16.253 7.764l-2.896 5.765-5.679 2.827L2 19.183l1.145 3.093 1.146 3.093 2.823 2.827 2.823 2.828 3.725.989 3.724.987 3.875-.88 3.875-.88 2.551-2.338 2.55-2.34 1.382-3.226L33 20.11v-6.786l-2.29-3.382-2.291-3.383-3.4-2.28L21.622 2h-2.473l-2.895 5.765M86.95 7.75l-.668 5.75-1.419 6.329-1.42 6.329-3.092 7.391-3.093 7.391-3.856 5.935-3.856 5.935-3.772 4.155L62 61.12l9.407 9.397 9.407 9.398 4.887 1.042L90.587 82h10.772l3.985-4.75 3.987-4.75 5.101-8.867 5.102-8.867 3.142-8.633 3.141-8.633 1.96-8 1.96-8 .63-9.75L131 2H87.618l-.668 5.75m48.739 2.005l.688 7.755 1.302 7.005 1.302 7.005 2.99 9.077 2.99 9.078 3.723 7.4 3.723 7.403 4.346 6.605 4.347 6.605 1.827 1.656L164.755 81l9.23-.276 9.23-.277 9.392-9.365L202 61.717l-5.448-6.97-5.449-6.971-4.482-9.13-4.484-9.128-2-8.005-2-8.005-.635-5.754L176.865 2H135l.689 7.755m46.328 4.212l.016.966 1.83 7.062 1.828 7.062 3.226 7.022 3.226 7.021 1.141.95 1.14.95 10.288-10.456L215 24.089l-2.955.774-2.955.773-5.348-.133-5.348-.134-5.222-2.563-5.221-2.563-2.976-3.62L182 13l.017.967M0 20.5V26l.416-2.75.417-2.75-.417-2.75L0 15v5.5m218.975 4.17l-9.398 9.67-6.289 6.578L197 47.496l.608 1.92.608 1.92 5.687 5.962 5.686 5.963 3.85 2.869 3.85 2.87 16.856-17.33L251 34.34l-4.374-.516-4.375-.515-3.45-2.018-3.45-2.017-2.15-3.193-2.148-3.193-.666-3.944-.665-3.944h-1.35l-9.397 9.67M35.899 19.291v3.292l-2.873 4.534-2.872 4.534-4.408 2.136-4.408 2.136H15v1.324l15.945 15.876L46.889 69l3.711-2.783 3.71-2.783 6.165-6.322 6.165-6.322.68-2.145L68 46.5 52.493 31.25 36.986 16H35.899v3.291m42.157 1.203l-2.338 2.494-5.052 2.169-5.052 2.168-6.807-.383L52 26.558l8.702 8.721 8.7 8.721h1.564l1.986-3.227 1.985-3.227 3.031-7.805L81 21.937l-.304-1.97L80.393 18l-2.337 2.494m52.9 6.244l-1.324 6.739-1.98 6.502-1.98 6.503-5.319 11.003-5.318 11.004-4.018 6.003L107 80.494l5.9 1.605 5.9 1.606 3.837 2.642 3.838 2.642 2.867 4.505L132.21 98h1.504l.572-2.262.571-2.263 4.321-4.365 4.321-4.365 4.364-1.875 4.364-1.876H156.975l.512-.824.513-.824-3.353-4.684-3.354-4.686-3.562-6.745-3.562-6.746-3.16-7.919-3.161-7.919-2.432-9.974-2.431-9.974-.352-.35-.352-.349-1.324 6.738m97.714 35.06L220 70.594l1.29 1.05 1.292 1.05 5.921 2.968 5.921 2.967 4.934 1.544 4.934 1.546 2.854.64L250 83l-4.512-5.065-4.51-5.067-1.642-4.992-1.643-4.992.339-4.942.34-4.942h-.515l-.514.001-8.672 8.797M26.593 57.05l.608 3.05-1.717 6.362-1.718 6.362-4.382 4.588L15 82h1.468l6.479-1.899 6.478-1.899 5.983-2.694 5.983-2.693 1.305-1.078L44 70.659l-8.263-8.33L27.475 54h-1.49l.608 3.05m26.18 11.522l-5.476 4.436-6.471 3.419-6.471 3.419-7.467 2.476-7.466 2.477-8.711 1.204L2 87.207V130h10.6l9.384-1.586 9.384-1.585 8.935-2.971 8.935-2.971 8.752-4.4 8.75-4.401 5.213-3.547 5.21-3.546 1.919-1.486L81 102.021l-.15-5.716-.15-5.716-1.738-4.856-1.738-4.855-8.756-8.439L59.712 64l-.731.068-.733.068-5.476 4.436m143.241 4.048l-8.317 8.622-1.184 4.567-1.184 4.569-.163 3.085L185 96.55l.102 3.182.1 3.182 8.23 5.419 8.228 5.417 5.45 2.759 5.45 2.759 6.303 2.375 6.303 2.375 7.198 1.93 7.197 1.931 8.452 1.062 8.452 1.06H263V88.061l-2.743-.074-2.743-.075-2.493-.418-2.494-.42-7.319-1.591-7.319-1.592-3.652-1.505-3.653-1.506-3.49-1.606-3.491-1.607-5.486-3.457-5.486-3.457-4.15-3.376L204.33 64l-8.317 8.62M.001 133v50l.285-25.32.286-25.319-.286-24.681L0 83l.001 50m165.034-49.062l-15.271.562-4.339 3.031-4.337 3.031-2.904 4.665-2.903 4.664-.14 7.215-.141 7.215 2.926.795 2.927.795 3.353 3.228 3.354 3.229 1.659 4.316 1.66 4.316h9.474l4.736-1.416 4.736-1.415 3.4-2.576 3.401-2.576 2.598-5.274 2.597-5.273-.157-10.485-.156-10.485.746-4.25L183 83l-1.347.188-1.347.189-15.271.561m-81.319 4.588l.715 3.527.13 12.09.131 12.09 1.648 3.1 1.647 3.097 3.99 3.644 3.993 3.643 3.802 1.141 3.802 1.142 4.835-.326 4.836-.327 1.323-3.904 1.323-3.904 3.316-3.467 3.316-3.466 4.238-1.15 4.239-1.152V104.9l-1.539-4.408-1.539-4.409-3.642-3.77-3.642-3.77-4.262-1.644-4.262-1.645-14.557-.127L83 85l.716 3.526M73.03 111.595l-6.492 4.478-6.991 3.407-6.991 3.407-5.398 2.102-5.397 2.103-9.448 2.401-9.447 2.4-.433.433-.432.433 4.79.712 4.79.712 9.489 3.012 9.488 3.012 8.989 4.334 8.989 4.334 5.33 3.563L79.197 156h.682l1.628-5.605 1.627-5.606 4.591-4.914 4.592-4.915 2.342-.588 2.341-.589v-1.328l-3.567-1.923-3.566-1.923-2.806-3.555-2.805-3.554-1.618-4.785-1.618-4.785V107l-.75.058-.749.058-6.492 4.479m111.88.65l-1.074 4.247-.937 2.23-.937 2.23-3.974 4.307-3.974 4.305-4.006 1.805-4.007 1.804 4.922 2.809 4.924 2.807 3.011 4.372 3.01 4.372 1.224 4.816 1.224 4.817.295.417.294.417 2.23-2.016 2.232-2.017 7.449-4.4 7.45-4.4 7.945-3.499 7.946-3.5 7.946-2.107 7.945-2.107 3.477-.897 3.476-.898-2.98-.715-2.98-.716-8.935-2.464-8.936-2.463-8.656-3.893-8.657-3.893-6.742-4.293-6.742-4.292-1.194-.716-1.196-.714-1.073 4.246m-59.534 6.658l-4.082 1.86-2.146 3.486-2.147 3.486v9.968l2.262 3.398 2.262 3.398 3.467 1.748 3.467 1.749 3.27.001 3.27.002 3.207-1.371 3.206-1.371 2.446-2.661 2.446-2.662.348-6.217.349-6.218-1.95-3.113-1.95-3.114-4.397-2.136-4.397-2.137-2.426.022-2.425.022-4.08 1.86M2.014 153.8l.013 19.798.567 2.106.568 2.106 8.169.67 8.169.672 9.676 3.293 9.677 3.293 7.04 4.239 7.04 4.239 4.437 3.892L61.807 202h1.653l8.77-8.699 8.77-8.699V167.37l-.644-3.21-.644-3.207-4.606-3.375-4.606-3.376-7.661-4.009-7.662-4.01-8.905-3.426-8.905-3.427-9.933-1.98-9.934-1.978-7.75-.685L2 134l.014 19.8m253.96-19.457l-4.014.342-9.532 1.625-9.532 1.623-8.529 2.955-8.528 2.956-8.228 4.322-8.227 4.323-5.318 3.588-5.318 3.587-2.374 1.998L184 163.66l.4 9.917.4 9.918 9.161 9.252 9.162 9.253 3.348-2.74 3.347-2.74 8.833-5.837 8.833-5.838 9.539-3.149 9.54-3.15 8.372-1.075 8.373-1.076.346-8.62.346-8.62-.502-12.475-.501-12.477-1.505-.102-1.505-.101-4.014.343M96.418 137.03l-3.993 1.951-3.26 3.695-3.261 3.695-1.452 4.898L83 156.166l.669 9.667.668 9.667-.05 2.655-.05 2.654 2.97.596 2.972.595h19.464l4.299-1.52 4.3-1.519 3.432-2.624 3.434-2.623 2.276-5.107 2.276-5.107.67-5.754.67-5.753-1.82-.564-1.818-.565-4.253-1.923-4.251-1.924-2.025-3.259-2.027-3.258-.585-2.75-.585-2.75-6.613.04-6.613.04-3.992 1.95m55.366-1.103l-1.65.927V138.787l-2.494 3.783-2.493 3.783-3.832 2.163-3.83 2.162H134l.57 6.829.57 6.828 1.607 3.863 1.607 3.862 2.671 2.824 2.671 2.824 2.972 1.607 2.97 1.606 13.867.734 13.866.734 1.815.306L181 183l-.128-14.814-.129-14.813-1.342-3.227-1.343-3.226-3.624-4.029-3.625-4.028-4.643-1.464-4.642-1.464-4.045-.468-4.045-.467-1.65.927M130.394 170l-.64 2.002-2.67 3.156-2.673 3.156-4.483 2.827-4.484 2.826h-5.295l-.575.57-.574.572 3.785 5.666 3.785 5.667 4.25 8.407 4.251 8.407 3.318 10.067 3.317 10.067.725 4.805.725 4.804.723-.823.724-.824 1.684-7.87 1.685-7.87 4.041-10.274 4.04-10.274 5.474-9.024 5.473-9.025v-1.052l-2.259-.022-2.259-.022-4.273-1.928-4.273-1.928-3.38-2.562-3.38-2.563-2.384-4.469-2.386-4.47H131.033l-.64 2.001M19.667 186.726l4.667 4.727 2.084 5.527 2.082 5.526-.424 5.247L27.65 213l9.174-9.123L46 194.754l-.533-.86-.533-.861-8.06-3.742-8.061-3.74-4.94-1.185-4.94-1.185-1.967-.591L15 182l4.667 4.726m218.828-1.368l-6.59 2.315-5.252 2.648-5.25 2.648-.702 1.12-.701 1.12 9.022 8.895 9.022 8.896-.028-7.745-.028-7.745 2.373-4.503 2.372-4.503 2.634-2.752L248 183l-1.457.021-1.457.021-6.59 2.316m-150.526-.181l-3.737.994-9.617 9.172L65 204.514l4.42 5.388 4.42 5.387.745.331.745.332V217.745l2.867 4.736 2.867 4.737 2.528 7.455 2.529 7.455 1.146 6.958 1.147 6.958.692 3.478.691 3.478 20.808-.337 20.81-.336.292-.287.293-.287-1.517-12.297-1.518-12.298-2.573-8.876-2.573-8.876-4.418-9.513-4.417-9.514-5.097-7.599-5.098-7.6-3.562-.59-3.563-.59-2.978.091-2.978.093-3.738.993m72.986 3.073l-2.122 2.25-4.062 6.922-4.061 6.922-3.316 7.177-3.317 7.178-2.601 8.901-2.601 8.9-1.418 10.5-1.419 10.5-.019 2.75L136 263h40.909l.475-3.25.475-3.25 1.194-7.5 1.194-7.5 2.901-7.338 2.902-7.339 1.954-3.831 1.955-3.832 5.02-6.633 5.021-6.633-.038-.697-.038-.697-7.712-8.143-7.712-8.143-4-1.101-4-1.102-6.711-.005-6.711-.006-2.122 2.25M32.662 211.773L17 227.545v1.255h6.053l3.227 1.343 3.227 1.343 3.184 3.61 3.183 3.61 1.223 4.24 1.224 4.242.31.406.312.406 15.528-15.589L70 216.822l-1.945-2.708-1.946-2.708-4.15-4.204-4.151-4.206-4.288-3.497L49.233 196h-.908l-15.663 15.773m179.17-12.023l-3.321 2.75-2.839 3-2.84 3-3.416 4.103-3.416 4.103v2.004l15.636 16.145L227.273 251h1.318l.237-3.75.237-3.75 2.717-4.409 2.718-4.41 3.911-2.022 3.911-2.022 3.336-.069 3.336-.068.003-.929.003-.93-15.709-15.82L217.581 197h-2.428l-3.321 2.75M62.856 228.758L54 237.5l7.856.558 7.854.557 4.125 2.149 4.125 2.148 2.562 3.044L83.084 249H84l-.946-4.21-.945-4.21-2.607-6.54-2.606-6.54-2.356-3.75-2.354-3.75-.238.008-.237.008-8.855 8.742m128.16-3.518l-1.978 3.24-3.019 7.936-3.019 7.936V248l4.672-3.983 4.671-3.983 4.426-1.029 4.426-1.03 4.403-.024 4.402-.024-7.822-7.963-7.822-7.964h-1.36l-1.98 3.24m-178.861 8.425l-3.273 1.619-2.44 4.181L4 243.646v3l3.865 1.163 3.866 1.162 3.483 3.87 3.484 3.871.688 3.144.687 3.144 2.149-.671 2.148-.672 2.076-.778 2.074-.779 2.606-3.107 2.604-3.108.635-3.396.635-3.397-1.149-3.494-1.148-3.494-2.018-2.575-2.02-2.577-2.843-1.476L22.978 232l-3.775.023-3.776.023-3.272 1.619m227.188 2.31l-3.248 1.966-2.048 3.225-2.047 3.225.474 5.784.476 5.782 2.133 2.255 2.133 2.254 3.305 1.767 3.306 1.767 1.625-.62 1.625-.618v-4.714l2.898-3.97 2.897-3.972 4.564-1.867 4.564-1.868-.615-1.98-.614-1.979-1.942-2.736-1.941-2.737-2.862-1.47-2.863-1.469-4.285.004-4.286.003-3.249 1.967M.014 246l.014 5 .418-2.765.417-2.762-.431-2.237L0 241l.014 5" fill="#E6E6E6" fill-rule="evenodd"/>
</svg>
