<?xml version="1.0" encoding="UTF-8"?>
<svg width="366px" height="627px" viewBox="0 0 366 627" version="1.1" xmlns="http://www.w3.org/2000/svg" xmlns:xlink="http://www.w3.org/1999/xlink">
    <!-- Generator: Sketch 48.2 (47327) - http://www.bohemiancoding.com/sketch -->
    <title>Shape</title>
    <desc>Created with Sketch.</desc>
    <defs></defs>
    <g id="pattern" stroke="none" stroke-width="1" fill="none" fill-rule="evenodd">
        <path d="M12.6511879,50.5996783 C9.41418788,51.4426783 5.28518788,52.1326783 3.47618788,52.1326783 C1.11418788,52.1326783 0.186187882,52.5886783 0.186187882,53.7476783 C0.186187882,55.1276783 1.01018788,55.2606783 5.83118788,54.6576783 L11.4771879,53.9526783 L10.8541879,57.7926783 C10.5121879,59.9046783 7.97218788,66.2826783 5.20918788,71.9656783 C2.44618788,77.6486783 0.186187882,83.2616783 0.186187882,84.4386783 C0.186187882,86.5436783 0.208187882,86.5456783 1.56318788,84.6056783 C4.33218788,80.6386783 10.5851879,67.5606783 12.7611879,61.1826783 C14.3041879,56.6626783 15.2031879,55.1466783 15.6631879,56.2916783 C16.9131879,59.3996783 39.4371879,75.1326783 42.6381879,75.1326783 C43.9761879,75.1326783 42.4921879,50.1076783 40.8391879,44.8046783 C39.4461879,40.3326783 39.4581879,40.0266783 41.0101879,40.6696783 C47.4071879,43.3176783 74.1861879,45.4156783 74.1861879,43.2686783 C74.1861879,40.2306783 59.6241879,19.0476783 55.9641879,16.7616783 C53.3241879,15.1126783 53.7691879,14.4546783 57.9821879,13.7816783 C61.8151879,13.1686783 79.9881879,4.67467832 83.6861879,1.76867832 C88.0221879,-1.64032168 81.9931879,0.155678316 70.8631879,5.58767832 C64.7161879,8.58767832 58.1541879,11.3386783 56.2821879,11.7006783 L52.8771879,12.3596783 L53.5161879,6.24567832 C54.0151879,1.47067832 53.8601879,0.132678316 52.8081879,0.132678316 C51.9181879,0.132678316 51.2391879,2.02767832 50.8051879,5.72067832 C48.2851879,27.1546783 32.8201879,45.3466783 12.6511879,50.5996783 Z M95.0901879,13.8246783 C98.8871879,20.3186783 101.788188,25.9656783 101.537188,26.3736783 C101.285188,26.7806783 95.2071879,30.1006783 88.0291879,33.7496783 L74.9791879,40.3856783 L75.7041879,58.7596783 L76.4291879,77.1326783 L60.0581879,77.1406783 L43.6861879,77.1476783 L41.3041879,81.3906783 C39.9951879,83.7236783 36.5001879,89.7826783 33.5381879,94.8556783 L28.1521879,104.078678 L17.9191879,97.7976783 C-1.44681212,85.9106783 -0.056812118,86.6356783 0.335187882,88.6306783 C0.554187882,89.7456783 15.1401879,99.2906783 39.1861879,114.054678 L77.6861879,137.692678 L77.9691879,148.912678 C78.1241879,155.083678 78.0171879,160.132678 77.7311879,160.132678 C77.4441879,160.132678 61.3421879,150.380678 41.9481879,138.461678 C-4.02781212,110.206678 0.186187882,112.627678 0.186187882,114.462678 C0.186187882,115.302678 3.56118788,118.093678 7.68618788,120.664678 C11.8111879,123.235678 15.1861879,125.615678 15.1861879,125.953678 C15.1861879,126.290678 11.7771879,132.520678 7.61018788,139.797678 C3.04418788,147.769678 0.163187882,153.885678 0.360187882,155.184678 C0.593187882,156.726678 3.07718788,153.176678 9.09318788,142.698678 C13.7171879,134.645678 17.7851879,127.880678 18.1351879,127.664678 C18.8191879,127.241678 34.1861879,136.768678 34.1861879,137.616678 C34.1861879,137.896678 26.5361879,151.325678 17.1861879,167.458678 C-1.26881212,199.301678 -2.01181212,201.292678 2.18618788,207.632678 C4.68418788,211.403678 4.68418788,212.132678 2.18618788,212.132678 C1.07518788,212.132678 0.186187882,212.799678 0.186187882,213.632678 C0.186187882,214.658678 1.21418788,215.132678 3.43618788,215.132678 C6.49518788,215.133678 6.99418788,215.680678 11.9361879,224.464678 C14.8231879,229.597678 17.1861879,234.097678 17.1861879,234.464678 C17.1861879,234.831678 13.3611879,235.132678 8.68618788,235.132678 C-3.06281212,235.132678 -2.11381212,236.991678 9.81618788,237.346678 L19.4461879,237.632678 L27.6021879,251.632678 C32.0871879,259.332678 37.2141879,268.179678 38.9931879,271.291678 L42.2291879,276.951678 L21.2071879,288.121678 C3.08618788,297.750678 0.186187882,299.611678 0.186187882,301.613678 C0.186187882,303.627678 3.60618788,305.761678 25.9361879,317.678678 C40.0991879,325.236678 51.8991879,331.606678 52.1591879,331.833678 C52.6431879,332.254678 46.7981879,343.574678 44.4161879,346.832678 C42.9381879,348.852678 45.8171879,350.126678 14.9361879,333.788678 C4.53018788,328.283678 0.186187882,326.431678 0.186187882,327.499678 C0.186187882,328.446678 7.68918788,333.016678 20.1981879,339.688678 C31.2051879,345.559678 40.4651879,350.775678 40.7771879,351.279678 C41.0891879,351.784678 36.6231879,360.395678 30.8521879,370.414678 L20.3601879,388.632678 L10.2731879,388.917678 C2.21018788,389.145678 0.186187882,389.496678 0.186187882,390.667678 C0.186187882,391.929678 5.72618788,392.132678 40.2241879,392.132678 L80.2611879,392.132678 L79.9741879,401.382678 L79.6861879,410.632678 L39.9361879,410.893678 C5.52318788,411.120678 0.186187882,411.355678 0.186187882,412.643678 C0.186187882,413.565678 1.13918788,414.132678 2.68618788,414.132678 C4.06118788,414.132678 5.18618788,414.300678 5.18618788,414.506678 C5.18618788,414.712678 4.02818788,416.951678 2.61318788,419.483678 C1.19918788,422.015678 0.186187882,425.057678 0.363187882,426.244678 C0.611187882,427.898678 1.62018788,426.736678 4.68618788,421.269678 L8.68618788,414.137678 L19.4361879,414.134678 C25.3491879,414.133678 30.1861879,414.505678 30.1861879,414.961678 C30.1861879,415.417678 23.4421879,427.454678 15.1991879,441.711678 C3.36718788,462.176678 0.210187882,468.405678 0.199187882,471.303678 C0.187187882,474.693678 3.70418788,481.782678 13.3501879,497.814678 L15.2651879,500.996678 L8.12818788,505.236678 C1.66518788,509.076678 -0.823812118,511.456678 0.374187882,512.653678 C0.613187882,512.892678 4.04718788,511.073678 8.00418788,508.610678 C11.9621879,506.147678 15.6081879,504.132678 16.1061879,504.132678 C16.9211879,504.132678 25.0651879,517.346678 25.5051879,519.383678 C25.6051879,519.842678 20.0611879,523.722678 13.1861879,528.005678 C1.22018788,535.459678 0.673187882,535.947678 0.378187882,539.418678 C0.143187882,542.194678 1.37918788,545.697678 5.64318788,554.339678 C8.70718788,560.550678 11.5011879,567.154678 11.8521879,569.013678 L12.4881879,572.394678 L6.33718788,571.949678 C-1.56181212,571.378678 -2.31881212,573.621678 5.43618788,574.622678 C17.4791879,576.175678 26.8471879,580.327678 35.1611879,587.795678 C44.9781879,596.613678 52.1861879,610.983678 52.1861879,621.737678 C52.1861879,625.146678 52.5541879,626.132678 53.8281879,626.132678 C55.2421879,626.132678 55.3821879,625.281678 54.8321879,620.021678 L54.1941879,613.911678 L57.9401879,614.564678 C60.0001879,614.923678 66.6781879,617.672678 72.7781879,620.674678 C83.7511879,626.073678 90.1481879,627.978678 85.6861879,624.517678 C82.0411879,621.690678 66.6361879,614.319678 60.8711879,612.643678 L55.1971879,610.993678 L58.0401879,608.601678 C61.2511879,605.900678 69.8271879,593.796678 73.0751879,587.382678 C74.2581879,585.045678 75.4871879,583.132678 75.8061879,583.132678 C76.6111879,583.132678 102.475188,597.160678 103.596188,598.205678 C104.129188,598.700678 101.470188,604.365678 97.1961879,611.842678 C93.1761879,618.877678 89.6751879,625.013678 89.4171879,625.478678 C89.1601879,625.944678 89.7151879,626.169678 90.6511879,625.978678 C91.6861879,625.768678 100.840188,610.948678 114.029188,588.132678 L135.705188,550.632678 L145.607188,550.344678 C151.054188,550.185678 155.924188,550.470678 156.431188,550.977678 C156.994188,551.540678 149.309188,565.802678 136.722188,587.557678 C125.375188,607.169678 115.840188,623.871678 115.532188,624.674678 C115.210188,625.512678 115.549188,626.127678 116.329188,626.121678 C117.075188,626.116678 119.607188,622.741678 121.954188,618.621678 C124.302188,614.502678 126.689188,611.132678 127.258188,611.132678 C129.355188,611.132678 152.190188,624.316678 151.639188,625.209678 C151.317188,625.730678 153.382188,626.125678 156.377188,626.115678 L161.686188,626.098678 L145.186188,617.148678 C135.954188,612.140678 128.822188,607.665678 128.995188,606.989678 C129.696188,604.241678 137.360188,592.132678 138.397188,592.132678 C139.014188,592.132678 153.636188,599.782678 170.889188,609.132678 C198.060188,623.857678 208.906188,628.724678 206.741188,625.220678 C206.195188,624.337678 209.008188,622.634678 227.384188,612.719678 L236.082188,608.027678 L241.374188,617.079678 C244.284188,622.058678 247.232188,626.132678 247.926188,626.132678 C249.798188,626.132678 249.621188,625.673678 244.186188,616.439678 C241.436188,611.767678 239.186188,607.563678 239.186188,607.098678 C239.186188,606.302678 253.916188,598.132678 255.352188,598.132678 C255.719188,598.132678 259.233188,603.706678 263.160188,610.519678 C271.678188,625.297678 272.533188,626.523678 273.962188,626.020678 C274.584188,625.801678 271.405188,619.318678 266.665188,611.142678 C262.046188,603.172678 258.586188,596.343678 258.976188,595.966678 C259.367188,595.590678 265.648188,592.050678 272.936188,588.101678 L286.186188,580.921678 L286.186188,565.527678 L286.186188,550.132678 L301.936188,550.121678 L317.686188,550.110678 L324.465188,538.272678 C334.576188,520.616678 332.475188,521.783678 342.832188,528.075678 C347.702188,531.034678 354.031188,534.940678 356.898188,536.756678 L362.110188,540.058678 L356.636188,550.845678 C353.626188,556.778678 350.632188,563.908678 349.983188,566.691678 L348.804188,571.750678 L345.149188,568.095678 C340.944188,563.890678 334.616188,559.397678 326.195188,554.637678 L320.306188,551.309678 L319.720188,553.976678 C319.005188,557.232678 320.733188,577.321678 322.136188,582.066678 C322.695188,583.954678 323.043188,585.608678 322.911188,585.741678 C322.778188,585.873678 319.973188,585.348678 316.678188,584.573678 C308.631188,582.680678 289.186188,582.613678 289.186188,584.478678 C289.186188,586.739678 302.934188,606.790678 306.279188,609.408678 L309.420188,611.866678 L305.553188,612.554678 C301.609188,613.257678 283.309188,621.724678 279.686188,624.523678 L277.686188,626.068678 L279.686188,626.107678 C280.786188,626.129678 286.242188,623.858678 291.810188,621.061678 C297.379188,618.264678 303.764188,615.730678 306.001188,615.430678 L310.067188,614.885678 L309.487188,620.508678 C308.993188,625.290678 309.152188,626.132678 310.546188,626.132678 C311.777188,626.132678 312.186188,625.188678 312.186188,622.342678 C312.186188,616.965678 314.792188,607.646678 317.956188,601.707678 C319.443188,598.916678 323.656188,593.594678 327.319188,589.882678 C335.471188,581.620678 344.881188,576.825678 356.676188,574.921678 C363.094188,573.886678 364.736188,573.264678 365.022188,571.764678 C365.281188,570.407678 365.009188,570.125678 364.032188,570.734678 C363.292188,571.195678 360.274188,571.840678 357.327188,572.167678 L351.968188,572.761678 L352.453188,568.453678 C353.008188,563.536678 361.551188,545.590678 363.737188,544.751678 C364.701188,544.381678 365.186188,542.710678 365.186188,539.757678 C365.186188,535.958678 364.924188,535.388678 363.366188,535.795678 C362.205188,536.099678 351.613188,530.162678 334.116188,519.400678 C319.030188,510.121678 301.687188,499.483678 295.577188,495.760678 L284.468188,488.992678 L283.827188,481.411678 C283.063188,472.377678 283.001188,466.132678 283.675188,466.132678 C283.943188,466.132678 301.156188,476.572678 321.925188,489.332678 C343.470188,502.569678 360.748188,512.554678 362.159188,512.582678 C363.787188,512.615678 364.757188,512.002678 365.000188,510.785678 C365.290188,509.336678 364.940188,509.075678 363.374188,509.572678 C362.001188,510.008678 359.005188,508.765678 353.773188,505.588678 C349.590188,503.049678 346.324188,500.670678 346.516188,500.301678 C346.708188,499.933678 349.943188,494.283678 353.705188,487.745678 C360.402188,476.105678 360.580188,475.901678 362.242188,477.952678 C363.918188,480.023678 363.945188,480.003678 364.551188,476.340678 C365.433188,471.007678 365.324188,466.336678 364.305188,465.705678 C363.820188,465.406678 359.038188,472.804678 353.678188,482.146678 C348.318188,491.488678 343.799188,499.132678 343.637188,499.132678 C342.977188,499.132678 327.911188,489.523678 327.803188,489.033678 C327.529188,487.793678 363.641188,426.295678 364.376188,426.749678 C365.372188,427.365678 365.464188,422.743678 364.474188,421.754678 C364.083188,421.362678 363.046188,421.992678 362.170188,423.154678 C360.603188,425.231678 360.532188,425.183678 357.881188,420.313678 C356.399188,417.590678 355.186188,415.109678 355.186188,414.801678 C355.186188,414.494678 357.319188,414.104678 359.927188,413.937678 C363.174188,413.728678 364.758188,413.159678 364.954188,412.132678 C365.190188,410.899678 364.107188,410.690678 358.871188,410.960678 L352.500188,411.289678 L347.343188,402.218678 C344.507188,397.229678 342.186188,392.934678 342.186188,392.673678 C342.186188,392.411678 347.243188,392.070678 353.424188,391.915678 C362.464188,391.687678 364.719188,391.339678 364.951188,390.132678 C365.198188,388.850678 363.380188,388.672678 352.463188,388.909678 L339.686188,389.187678 L328.775188,370.068678 C320.058188,354.793678 318.148188,350.767678 319.275188,350.045678 C326.883188,345.172678 361.205188,327.784678 362.936188,327.926678 C366.485188,328.216678 365.580188,325.688678 361.436188,323.734678 C359.374188,322.761678 346.313188,315.886678 332.412188,308.455678 L307.139188,294.945678 L309.031188,291.788678 C310.071188,290.052678 312.150188,286.495678 313.649188,283.882678 C315.149188,281.269678 316.846188,279.132678 317.419188,279.132678 C317.993188,279.132678 328.574188,284.532678 340.932188,291.132678 C353.290188,297.732678 363.803188,303.132678 364.294188,303.132678 C364.785188,303.132678 365.186188,302.012678 365.186188,300.643678 C365.186188,298.674678 364.716188,298.193678 362.936188,298.338678 C360.450188,298.542678 320.272188,277.520678 319.550188,275.638678 C319.301188,274.989678 323.939188,266.073678 329.856188,255.824678 L340.614188,237.190678 L352.568188,236.911678 C359.393188,236.752678 364.665188,236.203678 364.855188,235.632678 C365.073188,234.973678 350.861188,234.725678 323.186188,234.903678 L281.186188,235.175678 L281.186188,225.164678 L281.186188,215.154678 L322.922188,214.893678 C359.087188,214.667678 364.698188,214.432678 364.948188,213.132678 C365.182188,211.920678 364.249188,211.700678 360.093188,211.987678 L354.948188,212.341678 L357.539188,207.996678 C360.625188,202.822678 361.767188,202.237678 362.749188,205.327678 C363.454188,207.545678 363.512188,207.556678 364.264188,205.632678 C365.254188,203.099678 365.276188,196.220678 364.302188,193.739678 C363.708188,192.225678 362.409188,193.877678 357.816188,201.989678 L352.073188,212.132678 L341.129188,212.132678 C335.111188,212.132678 330.186188,211.898678 330.186188,211.612678 C330.186188,211.326678 337.717188,198.049678 346.922188,182.109678 C359.157188,160.922678 363.845188,153.598678 364.352188,154.880678 C365.287188,157.241678 365.256188,152.596678 364.315188,149.232678 L363.643188,146.833678 L362.377188,149.612678 C361.681188,151.140678 360.950188,152.220678 360.752188,152.011678 C360.488188,151.732678 348.014188,130.353678 345.627188,126.088678 C345.179188,125.287678 361.278188,115.668678 363.099188,115.649678 C363.954188,115.639678 364.799188,114.881678 364.977188,113.964678 C365.539188,111.073678 361.234188,112.460678 352.338188,118.036678 C347.746188,120.914678 343.889188,123.126678 343.766188,122.950678 C343.643188,122.775678 342.278188,120.382678 340.732188,117.632678 C339.187188,114.882678 337.085188,111.234678 336.061188,109.525678 L334.200188,106.419678 L346.800188,98.6606783 C353.730188,94.3936783 360.589188,90.5846783 362.043188,90.1956783 C364.689188,89.4876783 366.570188,85.8256783 364.014188,86.3566783 C363.253188,86.5146783 362.861188,85.9926783 363.096188,85.1326783 C363.322188,84.3076783 363.678188,82.0576783 363.888188,80.1326783 C364.262188,76.7016783 364.242188,76.6796783 362.862188,79.0346783 C361.463188,81.4186783 361.428188,81.3906783 357.890188,75.0346783 C353.475188,67.1046783 350.186188,58.8306783 350.186188,55.6536783 C350.186188,53.2876783 350.297188,53.2586783 357.186188,53.8356783 C363.254188,54.3446783 364.014188,53.7476783 365.186188,53.7476783 C365.186188,53.3506053 365.411166,51.7910058 365.022188,51.5530578 C364.119055,51.0005883 361.861871,51.1326783 358.896188,51.1326783 C335.703188,51.1326783 314.022188,31.8126783 310.128188,7.67567832 C308.706188,-1.13932168 306.844188,-2.43732168 307.343188,5.73567832 L307.686188,11.3386783 L303.388188,10.8526783 C301.015188,10.5846783 294.453188,8.03467832 288.736188,5.15767832 C275.567188,-1.46832168 271.125188,-1.24932168 283.301188,5.42467832 C292.228188,10.3186783 301.959188,14.1246783 305.593188,14.1436783 C307.436188,14.1536783 307.309188,14.4516783 304.530188,16.6426783 C301.741188,18.8416783 294.493188,28.9016783 288.329188,39.1326783 C287.169188,41.0576783 286.207188,41.9576783 286.191188,41.1326783 C286.174188,40.2246783 280.828188,36.9156783 272.646188,32.7496783 C259.647188,26.1306783 259.182188,25.7856783 260.487188,23.7496783 C263.202188,19.5156783 273.186188,1.48667832 273.186188,0.818678316 C273.186188,-2.98032168 267.426188,5.91367832 248.686188,38.6486783 L226.686188,77.0786783 L215.377188,77.1056783 C209.157188,77.1206783 204.285188,76.7816783 204.550188,76.3526783 C206.739188,72.8106783 248.186188,0.740678316 248.186188,0.476678316 C248.186188,0.287678316 247.523188,0.132678316 246.712188,0.132678316 C245.901188,0.132678316 244.483188,1.59567832 243.561188,3.38267832 C242.640188,5.17067832 240.805188,8.34767832 239.485188,10.4436783 L237.084188,14.2536783 L223.552188,7.13467832 C215.127188,2.70267832 209.109188,0.132678316 207.608188,0.324678316 C205.810188,0.553678316 209.013188,2.62367832 220.191188,8.45467832 C228.438188,12.7556783 235.186188,16.6536783 235.186188,17.1166783 C235.186188,18.2376783 227.240188,31.9816783 226.231188,32.6046783 C225.795188,32.8736783 211.275188,25.6776783 193.964188,16.6136783 C155.286188,-3.63932168 158.443188,-3.09632168 138.894188,7.13267832 C131.536188,10.9826783 125.104188,14.1296783 124.601188,14.1256783 C124.098188,14.1226783 121.972188,10.9726783 119.877188,7.12567832 C117.783188,3.27967832 115.420188,0.132678316 114.627188,0.132678316 C112.683188,0.132678316 112.645188,0.0186783163 117.186188,7.89467832 C119.386188,11.7106783 121.186188,15.2496783 121.186188,15.7596783 C121.186188,16.2696783 117.441188,18.5446783 112.864188,20.8146783 L104.542188,24.9416783 L97.6141879,12.5796783 C93.8041879,5.78067832 90.1241879,0.198678316 89.4361879,0.174678316 C88.7491879,0.151678316 88.1861879,0.556678316 88.1861879,1.07467832 C88.1861879,1.59267832 91.2931879,7.33067832 95.0901879,13.8246783 Z M78.6861879,41.7696783 L78.3641879,50.2006783 C78.1871879,54.8386783 78.3411879,62.7956783 78.7071879,67.8826783 L79.3731879,77.1326783 L88.7791879,77.1326783 L98.1861879,77.1326783 L98.1861879,65.2216783 L98.1861879,53.3116783 L128.936188,37.2896783 C145.848188,28.4776783 163.884188,19.0466783 169.016188,16.3336783 L178.345188,11.3996783 L168.351188,6.26667832 C162.854188,3.44267832 157.756188,1.15767832 157.021188,1.18867832 C156.287188,1.21867832 138.361188,10.3626783 117.186188,21.5066783 L78.6861879,41.7696783 Z M137.843188,36.1006783 C137.379188,36.5506783 142.253188,45.9676783 148.673188,57.0256783 L160.347188,77.1326783 L180.666188,77.1326783 L200.985188,77.1326783 L212.586188,57.0076783 C218.966188,45.9386783 224.186188,36.5636783 224.186188,36.1726783 C224.186188,35.5566783 182.112188,13.0936783 181.075188,13.1556783 C180.861188,13.1686783 171.236188,18.1526783 159.686188,24.2306783 C148.136188,30.3086783 138.307188,35.6496783 137.843188,36.1006783 Z M44.1101879,31.3536783 C40.5931879,36.5126783 40.3811879,37.1666783 41.9531879,38.0076783 C44.9301879,39.6006783 55.2141879,41.1326783 62.9341879,41.1326783 L70.3141879,41.1326783 L68.0781879,37.1546783 C64.8231879,31.3636783 56.0301879,20.0186783 53.5601879,18.4256783 C51.5611879,17.1356783 51.3331879,17.3086783 49.7221879,21.3436783 C48.7811879,23.7026783 46.2551879,28.2076783 44.1101879,31.3536783 Z M291.186188,40.5846783 C291.186188,42.4676783 318.457188,39.1216783 319.716188,37.0846783 C320.017188,36.5966783 318.731188,33.9686783 316.857188,31.2446783 C314.983188,28.5206783 312.603188,24.2326783 311.568188,21.7156783 C310.533188,19.1996783 309.162188,17.1386783 308.521188,17.1366783 C307.880188,17.1346783 305.472188,19.2696783 303.170188,21.8826783 C299.136188,26.4606783 291.186188,38.8676783 291.186188,40.5846783 Z M250.853188,40.3576783 L248.131188,45.0826783 L256.251188,49.1656783 L264.371188,53.2476783 L263.795188,63.4406783 C263.478188,69.0456783 262.979188,84.2076783 262.686188,97.1326783 C262.392188,110.057678 261.876188,126.840678 261.539188,134.428678 L260.925188,148.224678 L270.906188,142.108678 L280.887188,135.992678 L281.527188,118.312678 C281.879188,108.588678 282.464188,87.3296783 282.828188,71.0706783 L283.489188,41.5076783 L270.778188,34.9336783 L258.068188,28.3586783 L255.821188,31.9956783 C254.586188,33.9956783 252.350188,37.7586783 250.853188,40.3576783 Z M117.206188,46.7106783 L142.292188,90.1716783 C156.089188,114.074678 167.505188,133.765678 167.661188,133.927678 C167.816188,134.090678 170.455188,129.932678 173.526188,124.688678 L179.108188,115.153678 L156.897188,76.6576783 C144.681188,55.4846783 134.236188,38.1616783 133.686188,38.1626783 C133.136188,38.1646783 129.203188,40.0876783 124.946188,42.4376783 L117.206188,46.7106783 Z M297.936188,43.0366783 L286.186188,43.1326783 L286.186188,52.4816783 C286.186188,57.6236783 285.896188,65.2626783 285.541188,69.4566783 L284.897188,77.0816783 L301.236188,77.3576783 L317.575188,77.6326783 L324.837188,90.1186783 C328.831188,96.9856783 332.560188,102.757678 333.124188,102.945678 C333.872188,103.194678 358.666188,88.6726783 360.992188,86.6236783 C361.161188,86.4746783 359.009188,82.3656783 356.211188,77.4926783 C353.413188,72.6196783 350.111188,65.4296783 348.874188,61.5156783 L346.624188,54.3986783 L342.707188,58.3626783 C338.717188,62.4006783 331.468188,67.5796783 322.936188,72.4856783 L318.186188,75.2166783 L318.210188,63.9246783 C318.232188,53.9926783 318.931188,48.0196783 320.791188,41.8826783 C321.390188,39.9056783 321.481188,39.9086783 314.686188,41.6556783 C311.936188,42.3626783 304.398188,42.9836783 297.936188,43.0366783 Z M21.5131879,50.2626783 C16.4791879,52.3786783 16.3801879,52.4986783 17.8341879,54.7186783 C19.6671879,57.5156783 27.8391879,63.8546783 35.0641879,68.0836783 L40.4411879,71.2316783 L39.9081879,59.9316783 C39.4221879,49.6476783 37.7471879,41.0296783 36.2681879,41.1996783 C35.9481879,41.2366783 33.6611879,42.8016783 31.1861879,44.6776783 C28.7111879,46.5536783 24.3581879,49.0666783 21.5131879,50.2626783 Z M321.058188,70.1326783 C324.120188,70.1326783 344.186188,54.7486783 344.186188,52.4006783 C344.186188,51.8526783 342.219188,50.6536783 339.815188,49.7346783 C337.411188,48.8166783 333.250188,46.5056783 330.568188,44.5996783 C327.886188,42.6926783 325.342188,41.1326783 324.914188,41.1326783 C324.487188,41.1326783 323.662188,42.3696783 323.082188,43.8826783 C321.051188,49.1776783 319.435188,70.1326783 321.058188,70.1326783 Z M99.9201879,55.5316783 L100.547188,63.5816783 C100.892188,68.0096783 101.177188,72.8696783 101.180188,74.3826783 L101.186188,77.1326783 L116.269188,77.1326783 C124.565188,77.1326783 131.203188,76.7626783 131.019188,76.3116783 C129.883188,73.5126783 114.823188,48.1376783 114.312188,48.1616783 C113.967188,48.1776783 110.589188,49.8426783 106.803188,51.8606783 L99.9201879,55.5316783 Z M230.186188,76.6356783 C230.186188,76.9086783 236.904188,77.1326783 245.114188,77.1326783 L260.042188,77.1326783 L260.685188,71.8826783 C261.038188,68.9946783 261.183188,63.9326783 261.007188,60.6326783 L260.686188,54.6326783 L254.686188,51.4106783 C251.386188,49.6386783 248.170188,48.1766783 247.539188,48.1606783 C246.909188,48.1456783 242.746188,54.4336783 238.289188,62.1356783 C233.833188,69.8376783 230.186188,76.3626783 230.186188,76.6356783 Z M34.0561879,99.3976783 C32.4781879,102.018678 31.1861879,104.572678 31.1861879,105.072678 C31.1861879,106.364678 46.1341879,115.282678 47.1981879,114.624678 C47.6831879,114.325678 49.9901879,110.721678 52.3261879,106.616678 L56.5721879,99.1536783 L100.339188,98.8926783 L144.106188,98.6326783 L138.823188,89.6326783 L133.541188,80.6326783 L89.4141879,80.3726783 L45.2861879,80.1116783 L41.1061879,87.3726783 C38.8071879,91.3656783 35.6351879,96.7766783 34.0561879,99.3976783 Z M170.880188,95.3826783 L173.211188,99.1326783 L216.699188,99.1326783 L260.186188,99.1326783 L260.186188,89.6326783 L260.186188,80.1326783 L211.113188,80.1326783 L162.039188,80.1326783 L165.294188,85.8826783 C167.085188,89.0446783 169.598188,93.3206783 170.880188,95.3826783 Z M285.186188,99.1326783 L294.629188,99.1326783 C302.968188,99.1326783 304.238188,99.3686783 305.486188,101.150678 C306.264188,102.260678 316.077188,119.092678 327.293188,138.553678 C338.509188,158.015678 347.995188,173.748678 348.372188,173.516678 C348.749188,173.283678 351.359188,169.072678 354.172188,164.156678 L359.286188,155.219678 L337.599188,117.676678 L315.911188,80.1326783 L300.548188,80.1326783 L285.186188,80.1326783 L285.186188,89.6326783 L285.186188,99.1326783 Z M0.869187882,89.3206783 C1.15818788,88.5986783 1.12218788,87.7356783 0.790187882,87.4036783 C0.458187882,87.0716783 0.222187882,87.6616783 0.265187882,88.7156783 C0.313187882,89.8806783 0.550187882,90.1176783 0.869187882,89.3206783 Z M50.2161879,117.457678 C51.4171879,118.561678 77.4241879,134.215678 77.6021879,133.942678 C77.7141879,133.771678 77.6181879,126.544678 77.3891879,117.882678 L76.9721879,102.132678 L67.5641879,102.132678 L58.1571879,102.132678 L56.1791879,105.382678 C52.5251879,111.386678 49.7421879,117.022678 50.2161879,117.457678 Z M81.5191879,169.632678 L82.6861879,211.632678 L92.5021879,211.919678 L102.317188,212.206678 L101.716188,194.419678 C100.776188,166.601678 99.1861879,111.372678 99.1861879,106.518678 L99.1861879,102.132678 L89.3991879,102.132678 L79.6121879,102.132678 L79.9821879,114.882678 C80.1861879,121.895678 80.8781879,146.532678 81.5191879,169.632678 Z M103.067188,143.027678 L103.686188,150.423678 L123.651188,162.703678 C134.632188,169.458678 143.926188,174.793678 144.305188,174.558678 C144.684188,174.324678 149.784188,165.814678 155.637188,155.648678 L166.279188,137.163678 L156.310188,119.898678 L146.340188,102.632678 L124.263188,102.363678 L102.186188,102.094678 L102.317188,118.863678 C102.389188,128.086678 102.726188,138.960678 103.067188,143.027678 Z M177.822188,107.596678 C180.671188,112.693678 180.642188,112.701678 184.245188,105.882678 L186.227188,102.132678 L180.706188,102.132678 C177.670188,102.132678 175.186188,102.300678 175.186188,102.506678 C175.186188,102.712678 176.372188,105.002678 177.822188,107.596678 Z M147.808188,175.874678 C147.693188,177.320678 160.423188,186.060678 162.686188,186.090678 C163.236188,186.097678 170.085188,174.972678 177.906188,161.367678 C185.727188,147.763678 196.617188,128.870678 202.106188,119.382678 L212.086188,102.132678 L200.886188,102.137678 L189.686188,102.141678 L168.808188,138.238678 C157.325188,158.091678 147.875188,175.027678 147.808188,175.874678 Z M199.736188,128.892678 L195.000188,137.152678 L205.185188,154.892678 C210.787188,164.649678 215.892188,173.143678 216.528188,173.768678 C217.397188,174.621678 222.678188,171.821678 237.686188,162.549678 C255.926188,151.281678 257.744188,149.905678 258.348188,146.913678 C258.713188,145.108678 259.163188,134.294678 259.348188,122.882678 L259.686188,102.132678 L237.494188,102.132678 L215.303188,102.132678 L209.887188,111.382678 C206.909188,116.470678 202.341188,124.349678 199.736188,128.892678 Z M284.812188,133.132678 C286.071188,133.132678 311.121188,117.607678 311.153188,116.807678 C311.171188,116.353678 309.335188,112.865678 307.072188,109.057678 L302.958188,102.132678 L294.239188,102.132678 C289.443188,102.132678 285.219188,102.432678 284.853188,102.799678 C284.007188,103.644678 283.968188,133.132678 284.812188,133.132678 Z M0.869187882,115.320678 C1.15818788,114.598678 1.12218788,113.735678 0.790187882,113.403678 C0.458187882,113.071678 0.222187882,113.661678 0.265187882,114.715678 C0.313187882,115.880678 0.550187882,116.117678 0.869187882,115.320678 Z M219.795188,177.448678 C219.190188,178.368678 220.279188,181.177678 223.193188,186.217678 C225.551188,190.295678 227.610188,193.790678 227.769188,193.984678 C228.229188,194.546678 322.152188,136.715678 322.170188,135.859678 C322.202188,134.307678 313.657188,120.196678 312.686188,120.199678 C312.136188,120.201678 291.211188,132.778678 266.186188,148.149678 C241.161188,163.519678 220.285188,176.704678 219.795188,177.448678 Z M14.0441879,178.347678 L23.7181879,195.239678 L33.3931879,212.132678 L56.7331879,212.132678 L80.0721879,212.132678 L79.4951879,188.882678 C79.1771879,176.095678 78.4931879,165.093678 77.9741879,164.435678 C77.0091879,163.212678 40.7411879,140.666678 38.1221879,139.661678 C37.0801879,139.261678 33.5141879,144.589678 25.3601879,158.727678 L14.0441879,178.347678 Z M283.346188,163.603678 L282.775188,173.617678 C282.461188,179.125678 282.078188,190.044678 281.924188,197.882678 L281.644188,212.132678 L304.165188,212.106678 L326.686188,212.080678 L334.186188,198.883678 C338.311188,191.624678 342.756188,183.794678 344.064188,181.483678 L346.441188,177.280678 L335.564188,158.240678 C329.581188,147.768678 324.236188,139.216678 323.686188,139.236678 C323.136188,139.256678 313.835188,144.747678 303.016188,151.438678 L283.346188,163.603678 Z M182.193188,159.233678 L203.952188,196.932678 L225.711188,234.632678 L240.698188,234.632678 L255.686188,234.632678 L255.972188,224.882678 L256.258188,215.132678 L246.472188,215.113678 L236.686188,215.093678 L219.893188,185.863678 C210.657188,169.786678 200.935188,152.881678 198.288188,148.296678 L193.476188,139.960678 L187.835188,149.597678 L182.193188,159.233678 Z M0.879187882,155.863678 C1.13318788,154.890678 1.11618788,153.540678 0.842187882,152.863678 C0.568187882,152.186678 0.361187882,152.982678 0.381187882,154.632678 C0.401187882,156.282678 0.625187882,156.836678 0.879187882,155.863678 Z M142.135188,199.982678 C162.889188,212.715678 180.151188,223.132678 180.493188,223.132678 C182.180188,223.132678 206.225188,207.629678 205.975188,206.703678 C205.365188,204.442678 197.649188,191.145678 196.943188,191.139678 C196.534188,191.135678 192.946188,193.157678 188.969188,195.632678 C184.992188,198.107678 181.188188,200.132678 180.515188,200.132678 C179.843188,200.132678 162.731188,189.952678 142.489188,177.511678 C122.247188,165.069678 105.124188,154.671678 104.436188,154.404678 C103.500188,154.040678 103.189188,155.894678 103.197188,161.775678 C103.219188,177.564678 99.2641879,173.682678 142.135188,199.982678 Z M166.186188,187.959678 C166.186188,188.905678 179.111188,197.132678 180.598188,197.132678 C181.792188,197.132678 195.168188,188.731678 195.177188,187.975678 C195.185188,187.432678 181.514188,163.144678 180.781188,162.398678 C180.654188,162.269678 177.319188,167.755678 173.368188,174.589678 C169.418188,181.423678 166.186188,187.440678 166.186188,187.959678 Z M260.686188,177.738678 L260.056188,193.685678 C259.710188,202.456678 259.092188,222.951678 258.683188,239.231678 L257.940188,268.830678 L270.424188,275.434678 C277.290188,279.067678 283.489188,282.173678 284.199188,282.336678 C285.449188,282.622678 293.964188,269.839678 294.113188,267.452678 C294.153188,266.803678 290.698188,264.360678 286.436188,262.024678 C282.174188,259.687678 278.461188,257.450678 278.186188,257.052678 C277.911188,256.655678 278.207188,238.847678 278.844188,217.481678 C280.316188,168.124678 280.339188,166.120678 279.436188,166.190678 C279.023188,166.222678 274.636188,168.833678 269.686188,171.993678 L260.686188,177.738678 Z M104.828188,208.382678 L105.448188,212.132678 L114.230188,212.132678 L123.013188,212.132678 L127.100188,205.044678 C129.347188,201.146678 131.186188,197.616678 131.186188,197.200678 C131.186188,196.784678 126.124188,193.368678 119.936188,189.607678 C113.749188,185.847678 107.673188,182.125678 106.436188,181.336678 L104.186188,179.902678 L104.197188,192.267678 C104.203188,199.068678 104.487188,206.320678 104.828188,208.382678 Z M230.389188,197.023678 C230.201188,197.586678 231.899188,201.216678 234.161188,205.089678 L238.274188,212.132678 L247.730188,212.132678 L257.186188,212.132678 L257.186188,196.132678 C257.186188,187.332678 256.849188,180.172678 256.436188,180.220678 C256.024188,180.269678 250.071188,183.839678 243.208188,188.154678 C236.345188,192.469678 230.577188,196.460678 230.389188,197.023678 Z M1.03618788,197.812678 C0.631187882,196.456678 0.385187882,197.523678 0.385187882,200.632678 C0.385187882,203.787678 0.625187882,204.811678 1.03618788,203.407678 C1.55918788,201.617678 5.69018788,208.135678 22.1861879,236.778678 C33.4611879,256.356678 43.1801879,273.062678 43.7831879,273.904678 C44.7351879,275.231678 45.9651879,274.857678 53.0331879,271.091678 C57.5171879,268.702678 61.1861879,266.488678 61.1861879,266.171678 C61.1861879,265.031678 13.3191879,182.677678 12.5121879,182.428678 C12.0581879,182.288678 9.43618788,186.183678 6.68618788,191.083678 C2.49118788,198.557678 1.58118788,199.641678 1.03618788,197.812678 Z M363.230188,200.659678 C363.756188,200.984678 364.186188,200.323678 364.186188,199.191678 C364.186188,196.776678 363.630188,196.533678 362.837188,198.600678 C362.527188,199.407678 362.704188,200.334678 363.230188,200.659678 Z M124.686188,215.100678 L80.4361879,215.116678 C45.6691879,215.129678 36.2031879,215.400678 36.2631879,216.382678 C36.3061879,217.070678 38.6731879,221.457678 41.5241879,226.132678 L46.7071879,234.632678 L91.0791879,234.632678 L135.451188,234.632678 L142.779188,222.132678 C146.809188,215.257678 150.125188,209.326678 150.146188,208.953678 C150.195188,208.117678 135.903188,199.132678 134.524188,199.132678 C133.977188,199.132678 131.540188,202.725678 129.108188,207.116678 L124.686188,215.100678 Z M137.621188,236.632678 L121.666188,237.132678 L105.711188,237.632678 L106.047188,253.132678 C106.233188,261.657678 106.537188,268.882678 106.724188,269.187678 C106.910188,269.492678 111.724188,269.824678 117.420188,269.924678 C127.096188,270.094678 135.447188,271.128678 139.362188,272.641678 C140.911188,273.240678 140.925188,272.924678 139.555188,268.460678 C138.739188,265.805678 137.803188,257.850678 137.474188,250.782678 L136.875188,237.933678 L141.281188,240.171678 C148.706188,243.945678 156.139188,249.008678 161.192188,253.735678 L166.012188,258.243678 L167.674188,252.437678 C168.589188,249.244678 171.727188,242.090678 174.649188,236.539678 L179.961188,226.446678 L166.643188,218.289678 C159.318188,213.803678 153.181188,210.136678 153.005188,210.142678 C152.830188,210.147678 149.296188,216.109678 145.153188,223.392678 L137.621188,236.632678 Z M181.851188,226.122678 C181.392188,226.551678 182.129188,228.665678 183.489188,230.820678 C187.803188,237.654678 193.062188,248.753678 194.283188,253.601678 L195.462188,258.285678 L200.074188,253.825678 C206.175188,247.926678 220.968188,238.132678 223.778188,238.132678 C224.804188,238.132678 223.501188,264.074678 222.275188,268.066678 C221.695188,269.954678 221.356188,271.635678 221.522188,271.801678 C221.688188,271.967678 224.943188,271.443678 228.755188,270.635678 C232.567188,269.827678 240.004188,269.159678 245.282188,269.149678 L254.878188,269.132678 L255.563188,253.963678 C255.939188,245.620678 255.886188,238.432678 255.444188,237.990678 C255.002188,237.548678 247.690188,237.062678 239.196188,236.909678 L223.751188,236.632678 L216.219188,223.418678 C212.076188,216.150678 208.461188,210.191678 208.186188,210.175678 C207.911188,210.160678 202.061188,213.566678 195.186188,217.745678 C188.311188,221.924678 182.310188,225.693678 181.851188,226.122678 Z M0.869187882,214.320678 C1.15818788,213.598678 1.12218788,212.735678 0.790187882,212.403678 C0.458187882,212.071678 0.222187882,212.661678 0.265187882,213.715678 C0.313187882,214.880678 0.550187882,215.117678 0.869187882,214.320678 Z M169.692188,255.230678 L169.021188,258.827678 L180.703188,258.786678 L192.385188,258.745678 L191.823188,255.284678 C191.184188,251.347678 183.477188,234.619678 181.575188,233.040678 C180.656188,232.277678 179.914188,232.619678 178.803188,234.315678 C176.070188,238.488678 170.379188,251.553678 169.692188,255.230678 Z M64.1141879,264.587678 C64.4471879,264.793678 68.4411879,262.928678 72.9891879,260.442678 L81.2581879,255.922678 L80.9721879,246.777678 L80.6861879,237.632678 L64.9361879,237.357678 C53.7531879,237.161678 49.1861879,237.408678 49.1861879,238.209678 C49.1861879,239.400678 63.0771879,263.946678 64.1141879,264.587678 Z M83.7631879,248.081678 L84.4051879,257.632678 L44.5451879,278.879678 C22.6231879,290.565678 4.07918788,300.519678 3.33618788,301.000678 C2.37618788,301.621678 4.79818788,303.353678 11.7301879,307.003678 C17.0891879,309.824678 21.8371879,312.132678 22.2811879,312.132678 C23.3761879,312.132678 102.556188,269.984678 103.186188,269.065678 C103.461188,268.664678 103.461188,261.428678 103.186188,252.984678 L102.686188,237.632678 L93.6381879,237.347678 C88.6611879,237.190678 84.2591879,237.392678 83.8551879,237.796678 C83.4521879,238.199678 83.4101879,242.828678 83.7631879,248.081678 Z M288.196188,259.876678 L296.168188,264.121678 L298.494188,260.376678 C302.394188,254.099678 311.186188,238.435678 311.186188,237.763678 C311.186188,237.416678 304.500188,237.132678 296.328188,237.132678 L281.471188,237.132678 L280.828188,243.279678 C279.529188,255.709678 279.269188,255.123678 288.196188,259.876678 Z M271.186188,313.785678 C271.186188,314.810678 285.298188,339.132678 285.892188,339.132678 C287.164188,339.132678 302.186188,330.683678 302.186188,329.968678 C302.186188,329.540678 300.153188,325.750678 297.667188,321.547678 L293.149188,313.904678 L314.667188,276.676678 C326.503188,256.200678 336.186188,238.927678 336.186188,238.290678 C336.186188,237.486678 332.979188,237.132678 325.709188,237.132678 C315.925188,237.132678 315.140188,237.281678 313.833188,239.382678 C309.974188,245.589678 271.186188,313.260678 271.186188,313.785678 Z M198.186188,260.136678 C198.186188,260.603678 200.774188,262.165678 203.936188,263.607678 C207.098188,265.049678 211.422188,267.617678 213.544188,269.314678 C216.625188,271.779678 217.577188,272.121678 218.268188,271.016678 C220.045188,268.173678 221.259188,259.147678 220.977188,250.863678 L220.686188,242.307678 L212.686188,247.541678 C204.838188,252.677678 198.186188,258.454678 198.186188,260.136678 Z M144.160188,272.132678 C144.510188,272.132678 146.347188,270.971678 148.242188,269.552678 C150.136188,268.133678 154.274188,265.651678 157.436188,264.037678 C160.598188,262.424678 163.186188,260.751678 163.186188,260.321678 C163.186188,258.033678 143.816188,243.132678 140.841188,243.132678 C140.279188,243.132678 140.135188,247.439678 140.484188,253.882678 C141.025188,263.909678 142.682188,272.132678 144.160188,272.132678 Z M130.367188,322.049678 C132.569188,332.696678 136.544188,340.371678 143.915188,348.208678 C153.985188,358.915678 166.024188,364.132678 180.657188,364.132678 C195.978188,364.132678 206.479188,359.810678 217.444188,348.991678 C235.405188,331.269678 237.816188,304.158678 223.272188,283.448678 C211.012188,265.991678 190.516188,258.069678 169.449188,262.646678 C143.167188,268.356678 124.981188,295.999678 130.367188,322.049678 Z M77.4171879,286.567678 C77.1431879,286.842678 80.3591879,293.118678 84.5651879,300.515678 L92.2111879,313.964678 L84.6991879,326.916678 C80.5671879,334.039678 77.1861879,340.351678 77.1861879,340.943678 C77.1861879,341.534678 83.7111879,345.452678 91.6861879,349.649678 L106.186188,357.280678 L105.531188,373.181678 L104.875188,389.082678 L121.769188,389.357678 L138.664188,389.632678 L145.909188,402.132678 C150.328188,409.756678 153.731188,414.580678 154.632188,414.499678 C155.445188,414.426678 161.734188,410.916678 168.608188,406.699678 L181.106188,399.032678 L178.143188,394.217678 C173.937188,387.381678 168.484188,375.273678 167.685188,370.998678 L167.007188,367.364678 L162.846188,371.506678 C158.778188,375.556678 147.913188,383.170678 141.436188,386.508678 L138.186188,388.183678 L138.202188,376.908678 C138.210188,370.706678 138.851188,362.936678 139.627188,359.640678 C140.402188,356.345678 140.957188,353.569678 140.860188,353.472678 C140.763188,353.375678 138.286188,353.918678 135.356188,354.678678 C132.426188,355.438678 124.889188,356.367678 118.607188,356.743678 C108.539188,357.345678 107.186188,357.237678 107.186188,355.832678 C107.186188,352.412678 121.660188,330.655678 124.715188,329.482678 C127.264188,328.504678 126.322188,327.409678 122.390188,326.781678 C118.607188,326.176678 100.487188,317.728678 96.6861879,314.798678 L94.6861879,313.256678 L96.6861879,311.709678 C100.403188,308.834678 118.659188,300.230678 122.457188,299.563678 L126.228188,298.901678 L122.180188,294.510678 C119.954188,292.095678 115.601188,286.184678 112.506188,281.375678 C109.412188,276.566678 106.612188,272.320678 106.283188,271.938678 C105.955188,271.556678 99.4381879,274.579678 91.8011879,278.656678 C84.1641879,282.733678 77.6921879,286.293678 77.4171879,286.567678 Z M239.622188,294.072678 L236.103188,297.966678 L241.895188,299.633678 C247.877188,301.354678 264.509188,309.611678 266.271188,311.735678 C267.959188,313.768678 250.739188,323.290678 240.284188,326.106678 L236.081188,327.237678 L241.079188,332.706678 C243.828188,335.713678 248.386188,341.997678 251.208188,346.668678 L256.339188,355.163678 L269.012188,348.501678 C275.983188,344.837678 281.996188,341.568678 282.374188,341.236678 C282.752188,340.904678 279.717188,334.782678 275.629188,327.632678 C271.541188,320.482678 268.194188,314.235678 268.191188,313.749678 C268.188188,313.264678 271.561188,307.049678 275.686188,299.937678 C279.811188,292.826678 283.186188,286.616678 283.186188,286.136678 C283.186188,285.349678 257.270188,271.132678 255.835188,271.132678 C255.503188,271.132678 254.479188,272.370678 253.559188,273.882678 C248.176188,282.732678 242.700188,290.664678 239.622188,294.072678 Z M128.361188,296.132678 C128.784188,296.132678 130.097188,293.885678 131.278188,291.139678 C132.460188,288.393678 134.925188,284.039678 136.756188,281.463678 C138.587188,278.887678 139.891188,276.464678 139.653188,276.079678 C138.854188,274.786678 130.769188,273.266678 120.936188,272.559678 C112.810188,271.975678 111.186188,272.097678 111.186188,273.292678 C111.186188,276.645678 125.840188,296.132678 128.361188,296.132678 Z M222.186188,276.165678 C222.186188,276.648678 223.967188,279.585678 226.143188,282.692678 C228.319188,285.798678 230.604188,289.868678 231.220188,291.736678 C231.837188,293.604678 232.929188,295.132678 233.647188,295.132678 C236.078188,295.132678 245.236188,283.562678 250.071188,274.382678 L251.256188,272.132678 L242.471188,272.268678 C237.639188,272.343678 232.561188,272.593678 231.186188,272.824678 C226.752188,273.568678 222.186188,275.263678 222.186188,276.165678 Z M57.5241879,297.950678 C57.7291879,298.325678 59.8251879,301.914678 62.1811879,305.926678 C65.9651879,312.367678 66.3321879,313.516678 65.3191879,315.740678 C64.1601879,318.283678 27.1171879,382.707678 24.4131879,386.882678 L22.9561879,389.132678 L34.3211879,389.118678 L45.6861879,389.103678 L67.1031879,351.984678 C78.8821879,331.568678 88.5091879,314.362678 88.4971879,313.748678 C88.4751879,312.670678 75.7751879,290.357678 74.3691879,288.927678 C73.9881879,288.539678 69.9581879,290.258678 65.4141879,292.745678 C60.8701879,295.233678 57.3201879,297.575678 57.5241879,297.950678 Z M296.398188,313.632678 L299.542188,319.217678 C305.795188,330.324678 303.679188,330.105678 319.936188,321.327678 C327.773188,317.095678 334.185188,313.407678 334.185188,313.132678 C334.185188,312.504678 307.480188,298.132678 306.315188,298.132678 C305.844188,298.132678 303.420188,301.620678 300.928188,305.882678 L296.398188,313.632678 Z M0.879187882,302.863678 C1.13318788,301.890678 1.11618788,300.540678 0.842187882,299.863678 C0.568187882,299.186678 0.361187882,299.982678 0.381187882,301.632678 C0.401187882,303.282678 0.625187882,303.836678 0.879187882,302.863678 Z M26.1951879,314.132678 C26.1861879,314.736678 52.8661879,329.132678 53.9951879,329.132678 C54.7841879,329.132678 63.1861879,315.004678 63.1861879,313.677678 C63.1861879,312.015678 54.8491879,299.140678 53.8221879,299.215678 C53.1971879,299.261678 46.7271879,302.523678 39.4451879,306.465678 C32.1621879,310.407678 26.2001879,313.857678 26.1951879,314.132678 Z M234.686188,324.261678 L238.186188,323.657678 C240.111188,323.325678 246.411188,320.785678 252.186188,318.012678 C262.105188,313.249678 262.575188,312.887678 260.686188,311.473678 C255.920188,307.904678 240.024188,301.132678 236.413188,301.132678 C234.877188,301.132678 234.686188,302.408678 234.686188,312.696678 L234.686188,324.261678 Z M100.186188,313.267678 C100.186188,314.485678 114.764188,321.632678 121.067188,323.504678 C126.399188,325.087678 128.781188,324.903678 127.604188,322.999678 C127.266188,322.452678 126.999188,317.533678 127.012188,312.068678 L127.036188,302.132678 L124.361188,302.211678 C122.890188,302.254678 121.011188,302.531678 120.186188,302.825678 C115.815188,304.385678 100.186188,312.545678 100.186188,313.267678 Z M258.186188,357.365678 L258.193188,366.498678 C258.197188,371.522678 258.487188,378.670678 258.838188,382.382678 L259.475188,389.132678 L268.831188,389.132678 L278.186188,389.132678 L278.186188,378.869678 L278.186188,368.605678 L318.186188,347.257678 C340.186188,335.515678 358.186188,325.768678 358.186188,325.597678 C358.186188,324.966678 338.861188,315.135678 337.792188,315.222678 C337.184188,315.272678 319.023188,324.775678 297.436188,336.339678 L258.186188,357.365678 Z M0.869187882,328.320678 C1.15818788,327.598678 1.12218788,326.735678 0.790187882,326.403678 C0.458187882,326.071678 0.222187882,326.661678 0.265187882,327.715678 C0.313187882,328.880678 0.550187882,329.117678 0.869187882,328.320678 Z M225.159188,344.671678 C223.418188,347.202678 222.241188,349.520678 222.544188,349.823678 C223.966188,351.245678 235.526188,353.102678 243.043188,353.116678 C250.425188,353.130678 251.326188,352.938678 250.762188,351.470678 C249.431188,348.002678 241.169188,336.475678 237.373188,332.791678 L233.416188,328.950678 L230.871188,334.510678 C229.471188,337.567678 226.901188,342.140678 225.159188,344.671678 Z M111.186188,353.348678 C111.186188,355.614678 138.226188,352.494678 139.734188,350.054678 C140.017188,349.597678 138.682188,347.043678 136.768188,344.378678 C134.853188,341.714678 132.381188,337.419678 131.272188,334.833678 C130.164188,332.247678 129.077188,330.132678 128.856188,330.132678 C128.636188,330.132678 127.285188,331.053678 125.853188,332.179678 C123.079188,334.362678 111.186188,351.526678 111.186188,353.348678 Z M66.1861879,360.019678 C66.1861879,360.542678 70.0111879,363.055678 74.6861879,365.603678 L83.1861879,370.237678 L83.1911879,376.934678 C83.1931879,380.618678 82.7041879,399.382678 82.1031879,418.632678 C81.5031879,437.882678 81.1631879,455.080678 81.3491879,456.850678 L81.6861879,460.068678 L90.6861879,454.503678 C95.6361879,451.442678 99.9331879,448.538678 100.235188,448.050678 C100.963188,446.876678 103.352188,360.210678 102.687188,359.134678 C102.251188,358.428678 75.7751879,344.112678 74.9641879,344.143678 C74.8111879,344.148678 72.7741879,347.509678 70.4361879,351.610678 C68.0981879,355.712678 66.1861879,359.496678 66.1861879,360.019678 Z M224.827188,375.382678 C225.347188,384.555678 225.215188,387.132678 224.225188,387.132678 C221.964188,387.132678 207.246188,377.830678 201.733188,372.916678 C198.781188,370.285678 196.158188,368.132678 195.904188,368.132678 C195.649188,368.132678 195.164188,369.866678 194.825188,371.986678 C194.486188,374.105678 191.505188,381.171678 188.200188,387.688678 C184.894188,394.204678 182.566188,399.912678 183.026188,400.372678 C183.486188,400.832678 189.658188,404.755678 196.741188,409.089678 L209.620188,416.970678 L215.506188,406.801678 C218.744188,401.208678 222.477188,394.945678 223.803188,392.882678 L226.214188,389.132678 L241.200188,389.132678 L256.186188,389.132678 L256.181188,382.382678 C256.178188,378.670678 255.889188,371.307678 255.539188,366.020678 L254.902188,356.408678 L242.294188,355.875678 C235.050188,355.569678 227.864188,354.704678 225.402188,353.842678 C221.175188,352.362678 221.127188,352.371678 221.806188,354.487678 C223.551188,359.922678 224.208188,364.470678 224.827188,375.382678 Z M298.206188,361.238678 L300.946188,366.008678 C330.381188,417.254678 347.820188,446.858678 348.371188,446.518678 C348.749188,446.284678 351.355188,442.079678 354.163188,437.173678 L359.267188,428.253678 L338.081188,391.442678 C326.429188,371.197678 316.399188,354.087678 315.791188,353.422678 C314.941188,352.490678 312.788188,353.251678 306.446188,356.725678 L298.206188,361.238678 Z M203.686188,362.285678 C200.936188,363.533678 198.494188,364.688678 198.259188,364.853678 C196.826188,365.860678 208.542188,375.446678 217.596188,380.674678 L222.506188,383.509678 L221.906188,372.571678 C221.367188,362.743678 220.012188,355.765678 218.300188,354.000678 C217.962188,353.652678 215.661188,354.864678 213.186188,356.692678 C210.711188,358.521678 206.436188,361.038678 203.686188,362.285678 Z M141.120188,383.132678 C142.830188,383.132678 160.059188,371.109678 162.139188,368.465678 C163.265188,367.033678 164.184188,365.585678 164.182188,365.247678 C164.180188,364.909678 162.101188,363.777678 159.561188,362.733678 C157.021188,361.688678 152.703188,359.326678 149.964188,357.483678 C147.226188,355.640678 144.794188,354.132678 144.561188,354.132678 C144.327188,354.132678 143.666188,355.370678 143.090188,356.882678 C140.911188,362.608678 139.371188,383.132678 141.120188,383.132678 Z M49.3531879,388.298678 C49.1691879,388.757678 55.9991879,389.132678 64.5291879,389.132678 L80.0391879,389.132678 L80.3631879,380.585678 L80.6861879,372.037678 L72.4461879,367.585678 C67.9131879,365.136678 64.0881879,363.137678 63.9461879,363.143678 C63.8031879,363.149678 60.5361879,368.624678 56.6861879,375.309678 C52.8361879,381.994678 49.5361879,387.839678 49.3531879,388.298678 Z M280.753188,370.693678 L281.060188,379.663678 C281.228188,384.596678 281.488188,388.757678 281.637188,388.910678 C281.786188,389.062678 288.436188,389.062678 296.416188,388.910678 L310.924188,388.632678 L303.652188,376.132678 C299.652188,369.257678 295.773188,363.538678 295.033188,363.423678 C294.292188,363.309678 290.776188,364.897678 287.219188,366.954678 L280.753188,370.693678 Z M180.392188,392.493678 C181.718188,394.219678 182.092188,393.840678 185.556188,387.247678 C189.116188,380.472678 193.185188,370.062678 193.187188,367.725678 C193.187188,366.997678 189.316188,366.632678 181.589188,366.632678 L169.992188,366.632678 L170.505188,370.467678 C171.007188,374.215678 177.551188,388.792678 180.392188,392.493678 Z M0.869187882,391.320678 C1.15818788,390.598678 1.12218788,389.735678 0.790187882,389.403678 C0.458187882,389.071678 0.222187882,389.661678 0.265187882,390.715678 C0.313187882,391.880678 0.550187882,392.117678 0.869187882,391.320678 Z M104.544188,404.985678 L103.901188,411.132678 L114.566188,411.132678 L125.230188,411.132678 L127.958188,415.479678 C129.458188,417.869678 139.236188,434.727678 149.686188,452.941678 C160.136188,471.155678 168.916188,486.074678 169.196188,486.095678 C169.772188,486.137678 180.186188,468.564678 180.186188,467.551678 C180.186188,467.192678 170.466188,450.075678 158.585188,429.515678 L136.984188,392.132678 L121.085188,392.132678 L105.186188,392.132678 L105.186188,395.485678 C105.186188,397.330678 104.897188,401.605678 104.544188,404.985678 Z M215.443188,412.441678 C213.533188,415.635678 212.131188,418.392678 212.328188,418.567678 C213.372188,419.494678 227.723188,428.132678 228.219188,428.132678 C228.540188,428.132678 231.014188,424.307678 233.715188,419.632678 L238.627188,411.132678 L280.907188,411.132678 C304.160188,411.132678 323.186188,410.852678 323.186188,410.511678 C323.186188,410.169678 320.880188,405.894678 318.062188,401.011678 L312.937188,392.132678 L270.106188,392.132678 L227.274188,392.132678 L223.095188,399.382678 C220.796188,403.370678 217.353188,409.246678 215.443188,412.441678 Z M155.139188,418.320678 L157.031188,421.476678 C158.071188,423.212678 160.150188,426.769678 161.649188,429.382678 C163.149188,431.995678 164.775188,434.132678 165.263188,434.132678 C165.751188,434.132678 169.196188,432.262678 172.918188,429.976678 C176.641188,427.690678 180.153188,425.815678 180.723188,425.809678 C181.294188,425.803678 198.715188,436.224678 219.436188,448.965678 C240.158188,461.707678 257.466188,472.133678 257.899188,472.134678 C258.332188,472.135678 258.461188,467.105678 258.186188,460.956678 L257.686188,449.775678 L219.686188,426.469678 C198.786188,413.650678 181.236188,403.165678 180.686188,403.168678 C180.136188,403.171678 174.163188,406.582678 167.412188,410.747678 L155.139188,418.320678 Z M0.869187882,413.320678 C1.15818788,412.598678 1.12218788,411.735678 0.790187882,411.403678 C0.458187882,411.071678 0.222187882,411.661678 0.265187882,412.715678 C0.313187882,413.880678 0.550187882,414.117678 0.869187882,413.320678 Z M23.7421879,432.421678 L14.0621879,449.210678 L24.8741879,468.147678 C30.8211879,478.562678 36.1361879,487.087678 36.6861879,487.092678 C37.2361879,487.097678 46.6861879,481.574678 57.6861879,474.819678 L77.6861879,462.538678 L78.3131879,452.085678 C78.6591879,446.336678 78.9961879,435.445678 79.0631879,427.882678 L79.1861879,414.132678 L56.7451879,414.132678 C44.4021879,414.132678 34.1051879,414.469678 33.8631879,414.882678 C33.6201879,415.295678 29.0661879,423.187678 23.7421879,432.421678 Z M103.705188,445.984678 C104.050188,446.329678 126.486188,432.854678 130.575188,429.846678 C132.387188,428.512678 132.294188,428.166678 128.281188,421.294678 L124.098188,414.132678 L114.293188,414.132678 L104.487188,414.132678 L103.913188,429.875678 C103.597188,438.533678 103.503188,445.783678 103.705188,445.984678 Z M231.666188,430.099678 C232.366188,431.232678 257.255188,446.397678 257.693188,445.958678 C257.881188,445.771678 257.775188,438.533678 257.459188,429.875678 L256.885188,414.132678 L248.558188,414.132678 C240.998188,414.132678 240.105188,414.339678 238.855188,416.382678 C232.959188,426.014678 231.207188,429.357678 231.666188,430.099678 Z M263.135188,525.882678 C263.163188,526.020678 267.250188,526.132678 272.217188,526.132678 C279.343188,526.132678 281.371188,525.814678 281.827188,524.624678 C282.355188,523.249678 281.119188,472.082678 279.563188,430.882678 L278.930188,414.132678 L269.558188,414.132678 L260.186188,414.132678 L260.220188,426.382678 C260.245188,435.602678 262.849188,524.480678 263.135188,525.882678 Z M284.465188,462.747678 C285.136188,463.367678 294.383188,469.170678 305.012188,475.641678 C321.219188,485.509678 324.543188,487.184678 325.606188,486.020678 C327.039188,484.451678 346.186188,451.309678 346.186188,450.399678 C346.186188,450.075678 341.573188,441.788678 335.936188,431.983678 L325.686188,414.157678 L303.778188,414.145678 L281.870188,414.132678 L282.557188,437.875678 C283.038188,454.512678 283.609188,461.956678 284.465188,462.747678 Z M0.879187882,426.863678 C1.13318788,425.890678 1.11618788,424.540678 0.842187882,423.863678 C0.568187882,423.186678 0.361187882,423.982678 0.381187882,425.632678 C0.401187882,427.282678 0.625187882,427.836678 0.879187882,426.863678 Z M167.173188,437.478678 C166.830188,438.381678 181.342188,464.129678 182.186188,464.116678 C182.461188,464.112678 184.139188,461.526678 185.914188,458.370678 C187.689188,455.214678 190.931188,449.468678 193.118188,445.602678 L197.095188,438.572678 L189.344188,433.852678 C185.081188,431.256678 181.164188,429.132678 180.640188,429.133678 C180.115188,429.133678 176.943188,430.820678 173.590188,432.883678 C170.238188,434.945678 167.350188,437.013678 167.173188,437.478678 Z M38.9341879,489.984678 C38.3851879,490.533678 39.9011879,494.129678 42.7501879,499.033678 C47.3721879,506.988678 47.5291879,507.137678 49.7551879,505.679678 C51.0071879,504.858678 71.9791879,491.974678 96.3591879,477.046678 C120.739188,462.118678 141.289188,449.337678 142.026188,448.643678 C143.136188,447.598678 142.621188,446.074678 139.026188,439.767678 C136.639188,435.579678 134.214188,432.148678 133.638188,432.143678 C133.061188,432.137678 111.722188,444.943678 86.2181879,460.602678 C60.7141879,476.260678 39.4361879,489.482678 38.9341879,489.984678 Z M151.186188,524.995678 C151.186188,525.877678 154.036188,526.124678 161.816188,525.916678 L172.447188,525.632678 L193.816188,488.655678 C205.570188,468.318678 215.186188,451.211678 215.186188,450.639678 C215.186188,450.067678 212.598188,448.066678 209.436188,446.192678 C206.274188,444.317678 202.743188,442.181678 201.590188,441.444678 C199.572188,440.154678 198.593188,441.665678 175.340188,481.947678 C162.055188,504.961678 151.186188,524.333678 151.186188,524.995678 Z M103.572188,476.386678 C102.757188,477.248678 102.285188,485.025678 102.040188,501.632678 L101.686188,525.632678 L123.764188,525.901678 C143.840188,526.145678 145.980188,526.009678 147.358188,524.401678 C149.252188,522.191678 167.186188,490.691678 167.186188,489.574678 C167.186188,487.917678 145.652188,451.161678 144.686188,451.169678 C144.136188,451.173678 134.925188,456.569678 124.218188,463.158678 C113.511188,469.748678 104.220188,475.700678 103.572188,476.386678 Z M197.186188,489.600678 C197.186188,491.086678 214.534188,521.561678 216.997188,524.402678 C218.387188,526.005678 220.467188,526.146678 239.109188,525.902678 L259.686188,525.632678 L259.330188,501.632678 C259.023188,480.991678 258.743188,477.408678 257.330188,476.033678 C255.710188,474.457678 219.635188,452.132678 218.709188,452.132678 C218.447188,452.132678 217.598188,453.144678 216.823188,454.382678 C211.245188,463.289678 197.186188,488.502678 197.186188,489.600678 Z M1.03618788,468.819678 C0.630187882,467.456678 0.385187882,468.516678 0.385187882,471.632678 C0.385187882,474.833678 0.619187882,475.815678 1.03618788,474.362678 C1.56318788,472.520678 5.82418788,479.267678 23.6281879,510.137678 L45.5701879,548.182678 L60.6281879,547.907678 L75.6861879,547.632678 L75.9721879,537.882678 L76.2581879,528.132678 L66.3271879,528.132678 L56.3961879,528.132678 L34.8961879,490.917678 C23.0711879,470.449678 13.0101879,453.573678 12.5371879,453.416678 C12.0641879,453.258678 9.42918788,457.151678 6.68218788,462.067678 C2.48818788,469.572678 1.58218788,470.655678 1.03618788,468.819678 Z M363.848188,473.382678 C364.126188,472.695678 364.126188,471.570678 363.848188,470.882678 C363.571188,470.195678 363.344188,470.757678 363.344188,472.132678 C363.344188,473.507678 363.571188,474.070678 363.848188,473.382678 Z M80.4461879,490.093678 L79.8341879,499.862678 C79.2961879,508.450678 77.6861879,565.959678 77.6861879,576.604678 L77.6861879,580.576678 L91.6861879,588.280678 C107.606188,597.040678 105.737188,597.228678 111.920188,586.240678 C116.105188,578.803678 116.416188,579.373678 105.010188,573.575678 C101.339188,571.709678 98.0621879,569.740678 97.7281879,569.200678 C97.1911879,568.330678 98.5241879,508.992678 99.5671879,487.382678 C99.8451879,481.621678 99.6211879,479.151678 98.8251879,479.194678 C98.1991879,479.228678 93.8071879,481.694678 89.0661879,484.674678 L80.4461879,490.093678 Z M49.6871879,509.293678 C49.3261879,509.657678 51.1391879,513.611678 53.7171879,518.081678 L58.4041879,526.207678 L67.0451879,525.919678 L75.6861879,525.632678 L76.4541879,516.632678 C76.8761879,511.682678 77.1011879,504.182678 76.9541879,499.966678 L76.6861879,492.299678 L63.5151879,500.466678 C56.2721879,504.957678 50.0491879,508.930678 49.6871879,509.293678 Z M284.842188,516.382678 L285.488188,526.132678 L293.682188,526.132678 C300.258188,526.132678 302.167188,525.787678 303.348188,524.382678 C304.783188,522.677678 312.186188,510.331678 312.186188,509.644678 C312.186188,509.455678 306.898188,506.046678 300.436188,502.069678 C293.974188,498.092678 287.674188,494.178678 286.436188,493.370678 L284.186188,491.902678 L284.191188,499.267678 C284.194188,503.318678 284.487188,511.019678 284.842188,516.382678 Z M184.985188,513.591678 C185.950188,515.707678 221.649188,577.795678 224.827188,582.882678 L226.232188,585.132678 L234.459188,580.630678 C238.984188,578.154678 242.595188,575.744678 242.484188,575.275678 C242.144188,573.838678 196.988188,495.723678 195.671188,494.294678 C194.668188,493.205678 193.456188,494.671678 189.189188,502.127678 C184.727188,509.923678 184.097188,511.642678 184.985188,513.591678 Z M0.869187882,512.320678 C1.15818788,511.598678 1.12218788,510.735678 0.790187882,510.403678 C0.458187882,510.071678 0.222187882,510.661678 0.265187882,511.715678 C0.313187882,512.880678 0.550187882,513.117678 0.869187882,512.320678 Z M304.745188,528.132678 L262.632188,528.132678 C239.470188,528.132678 220.259188,528.392678 219.941188,528.710678 C219.624188,529.028678 221.749188,533.415678 224.665188,538.460678 L229.967188,547.632678 L272.814188,547.632678 L315.661188,547.632678 L320.713188,539.132678 C323.492188,534.457678 327.001188,528.501678 328.509188,525.897678 L331.253188,521.162678 L324.072188,516.559678 C320.122188,514.027678 316.376188,511.758678 315.746188,511.517678 C315.116188,511.275678 312.383188,514.914678 309.673188,519.605678 L304.745188,528.132678 Z M176.186188,525.529678 C176.186188,526.318678 186.670188,526.315678 187.459188,525.525678 C188.070188,524.915678 183.119188,515.172678 182.186188,515.147678 C181.911188,515.140678 180.448188,517.337678 178.936188,520.030678 C177.424188,522.723678 176.186188,525.198678 176.186188,525.529678 Z M1.05718788,536.957678 C0.543187882,536.147678 0.249187882,537.577678 0.301187882,540.632678 C0.359187882,544.061678 0.593187882,544.894678 1.04518788,543.284678 C1.63218788,541.195678 2.12718788,541.692678 5.52518788,547.784678 C10.2791879,556.304678 14.1861879,565.444678 14.1861879,568.043678 C14.1861879,571.377678 15.7201879,571.210678 19.2781879,567.489678 C24.0841879,562.462678 41.0611879,551.132678 43.7871879,551.132678 C45.0081879,551.132678 43.3651879,576.420678 41.8171879,581.460678 C40.4461879,585.926678 40.4601879,586.237678 42.0101879,585.595678 C46.1041879,583.899678 52.5011879,582.900678 63.1861879,582.290678 L74.6861879,581.632678 L74.6861879,566.132678 L74.6861879,550.632678 L59.1031879,550.357678 L43.5201879,550.083678 L35.7631879,536.607678 C31.4971879,529.196678 27.6951879,523.132678 27.3151879,523.132678 C26.9351879,523.132678 21.0601879,526.541678 14.2611879,530.707678 C4.82418788,536.489678 1.69818788,537.969678 1.05718788,536.957678 Z M100.749188,547.233678 C101.343188,548.195678 199.456188,548.529678 200.412188,547.573678 C200.720188,547.265678 198.497188,542.765678 195.473188,537.573678 L189.974188,528.132678 L145.730188,528.132678 L101.485188,528.132678 L100.839188,537.233678 C100.484188,542.239678 100.443188,546.739678 100.749188,547.233678 Z M100.186188,559.631678 L100.186188,567.796678 L108.726188,572.214678 C115.931188,575.941678 117.409188,576.397678 118.178188,575.132678 C125.408188,563.245678 131.886188,551.474678 131.525188,550.882678 C130.960188,549.955678 101.776188,549.876678 100.853188,550.799678 C100.486188,551.165678 100.186188,555.140678 100.186188,559.631678 Z M139.565188,588.258678 C139.257188,588.819678 178.001188,610.132678 179.330188,610.132678 C179.901188,610.132678 222.382188,587.243678 223.085188,586.556678 C223.557188,586.096678 205.558188,554.436678 203.373188,551.882678 C202.041188,550.325678 199.718188,550.134678 182.281188,550.147678 C171.504188,550.156678 162.213188,550.493678 161.634188,550.897678 C160.868188,551.433678 145.556188,577.355678 139.565188,588.258678 Z M238.618188,562.632678 C242.590188,569.472678 245.584188,573.583678 246.533188,573.504678 C247.372188,573.433678 251.030188,571.713678 254.663188,569.682678 L261.268188,565.989678 L260.977188,558.310678 L260.686188,550.632678 L246.436188,550.355678 C238.598188,550.202678 232.195188,550.427678 232.207188,550.855678 C232.219188,551.282678 235.103188,556.582678 238.618188,562.632678 Z M264.186188,567.735678 L223.686188,589.614678 C201.411188,601.647678 183.188188,611.748678 183.191188,612.062678 C183.194188,612.375678 187.582188,614.957678 192.941188,617.798678 L202.686188,622.964678 L243.186188,601.046678 L283.686188,579.128678 L283.317188,565.380678 C283.114188,557.819678 282.750188,551.295678 282.508188,550.882678 C282.266188,550.469678 278.045188,550.132678 273.127188,550.132678 L264.186188,550.132678 L264.186188,558.934678 L264.186188,567.735678 Z M20.7051879,569.680678 L16.9151879,573.469678 L23.8011879,576.940678 C27.5881879,578.850678 32.1611879,581.536678 33.9631879,582.911678 C35.7661879,584.286678 37.3861879,585.236678 37.5651879,585.021678 C40.0371879,582.052678 42.6311879,556.132678 40.4561879,556.132678 C39.8991879,556.132678 36.0791879,558.328678 31.9681879,561.011678 C27.8581879,563.695678 22.7891879,567.596678 20.7051879,569.680678 Z M326.270188,584.684678 C326.730188,584.968678 329.712188,583.432678 332.897188,581.269678 C336.081188,579.106678 340.396188,576.629678 342.487188,575.764678 C345.732188,574.421678 346.142188,573.918678 345.288188,572.323678 C343.650188,569.263678 325.313188,556.132678 322.678188,556.132678 C322.245188,556.132678 322.197188,560.493678 322.572188,565.823678 C323.280188,575.898678 324.828188,583.793678 326.270188,584.684678 Z M0.869187882,573.320678 C1.15818788,572.598678 1.12218788,571.735678 0.790187882,571.403678 C0.458187882,571.071678 0.222187882,571.661678 0.265187882,572.715678 C0.313187882,573.880678 0.550187882,574.117678 0.869187882,573.320678 Z M44.6761879,593.985678 C46.5611879,596.610678 49.1941879,601.108678 50.5251879,603.981678 L52.9451879,609.206678 L56.1341879,606.522678 C59.0241879,604.090678 67.0931879,593.006678 70.0671879,587.382678 L71.2561879,585.132678 L62.9711879,585.216678 C58.4141879,585.262678 52.2111879,585.836678 49.1861879,586.492678 C40.9061879,588.288678 40.7591879,588.533678 44.6761879,593.985678 Z M309.174188,608.125678 C311.837188,609.551678 311.907188,609.508678 313.162188,605.704678 C313.785188,603.818678 316.078188,599.514678 318.259188,596.140678 C320.441188,592.765678 321.983188,589.613678 321.688188,589.135678 C320.546188,587.287678 293.186188,584.030678 293.186188,585.742678 C293.186188,588.472678 306.017188,606.436678 309.174188,608.125678 Z" id="Shape" fill="#158A70"></path>
    </g>
</svg>