<svg width="366" height="627" xmlns="http://www.w3.org/2000/svg">
    <path d="M12.651 50.6c-3.237.843-7.366 1.533-9.175 1.533-2.362 0-3.29.456-3.29 1.615 0 1.38.824 1.513 5.645.91l5.646-.705-.623 3.84c-.342 2.112-2.882 8.49-5.645 14.173C2.446 77.649.186 83.262.186 84.439c0 2.105.022 2.107 1.377.167 2.77-3.967 9.022-17.045 11.198-23.423 1.543-4.52 2.442-6.036 2.902-4.891 1.25 3.108 23.774 18.84 26.975 18.84 1.338 0-.146-25.024-1.799-30.327-1.393-4.472-1.38-4.778.171-4.135 6.397 2.648 33.176 4.746 33.176 2.599 0-3.038-14.562-24.221-18.222-26.507-2.64-1.65-2.195-2.307 2.018-2.98 3.833-.613 22.006-9.107 25.704-12.013 4.336-3.41-1.693-1.613-12.823 3.819-6.147 3-12.709 5.75-14.58 6.113l-3.406.659.64-6.114c.498-4.775.343-6.113-.709-6.113-.89 0-1.569 1.895-2.003 5.588C48.285 27.155 32.82 45.347 12.651 50.6zm82.44-36.775c3.796 6.494 6.697 12.14 6.446 12.549-.252.407-6.33 3.727-13.508 7.376l-13.05 6.636.725 18.374.725 18.373-16.37.008-16.373.007-2.382 4.243c-1.309 2.333-4.804 8.392-7.766 13.465l-5.386 9.223-10.233-6.281C-1.447 85.91-.057 86.636.335 88.63c.22 1.115 14.805 10.66 38.851 25.424l38.5 23.638.283 11.22c.155 6.17.048 11.22-.238 11.22-.287 0-16.389-9.752-35.783-21.671-45.976-28.255-41.762-25.834-41.762-24 0 .84 3.375 3.632 7.5 6.203 4.125 2.57 7.5 4.95 7.5 5.289 0 .337-3.409 6.567-7.576 13.844C3.044 147.77.163 153.886.36 155.185c.233 1.542 2.717-2.008 8.733-12.486 4.624-8.053 8.692-14.818 9.042-15.034.684-.423 16.051 9.104 16.051 9.952 0 .28-7.65 13.709-17 29.842-18.455 31.843-19.198 33.834-15 40.174 2.498 3.77 2.498 4.5 0 4.5-1.11 0-2 .667-2 1.5 0 1.026 1.028 1.5 3.25 1.5 3.06 0 3.558.548 8.5 9.332 2.887 5.133 5.25 9.633 5.25 10 0 .367-3.825.668-8.5.668-11.749 0-10.8 1.859 1.13 2.214l9.63.286 8.156 14c4.485 7.7 9.612 16.547 11.391 19.659l3.236 5.66-21.022 11.17C3.087 297.75.187 299.612.187 301.614c0 2.014 3.42 4.148 25.75 16.065 14.162 7.558 25.962 13.928 26.222 14.155.484.42-5.36 11.74-7.743 14.999-1.478 2.02 1.401 3.294-29.48-13.044-10.406-5.505-14.75-7.357-14.75-6.29 0 .948 7.503 5.518 20.012 12.19 11.007 5.87 20.267 11.087 20.58 11.59.311.506-4.155 9.117-9.926 19.136L20.36 388.633l-10.087.285c-8.063.228-10.087.579-10.087 1.75 0 1.262 5.54 1.465 40.038 1.465h40.037l-.287 9.25-.288 9.25-39.75.26c-34.413.228-39.75.463-39.75 1.75 0 .923.953 1.49 2.5 1.49 1.375 0 2.5.168 2.5.374s-1.158 2.445-2.573 4.977c-1.414 2.532-2.427 5.574-2.25 6.76.248 1.655 1.257.493 4.323-4.974l4-7.132 10.75-.003c5.913-.001 10.75.37 10.75.827 0 .456-6.744 12.493-14.987 26.75C3.367 462.177.21 468.406.2 471.304c-.012 3.39 3.505 10.479 13.151 26.51l1.915 3.183-7.137 4.24c-6.463 3.84-8.952 6.22-7.754 7.417.24.239 3.673-1.58 7.63-4.043 3.958-2.463 7.604-4.478 8.102-4.478.815 0 8.96 13.214 9.4 15.25.1.46-5.445 4.34-12.32 8.623C1.22 535.46.673 535.948.378 539.419c-.235 2.776 1.001 6.279 5.265 14.92 3.064 6.212 5.858 12.816 6.21 14.675l.635 3.38-6.15-.444c-7.9-.571-8.657 1.672-.902 2.673 12.043 1.553 21.411 5.705 29.725 13.173 9.817 8.818 17.025 23.188 17.025 33.942 0 3.409.368 4.395 1.642 4.395 1.414 0 1.554-.851 1.004-6.111l-.638-6.11 3.746.653c2.06.359 8.738 3.108 14.838 6.11 10.973 5.399 17.37 7.304 12.908 3.843-3.645-2.827-19.05-10.198-24.815-11.874l-5.674-1.65 2.843-2.392c3.211-2.701 11.787-14.805 15.035-21.22 1.183-2.336 2.412-4.25 2.731-4.25.805 0 26.67 14.029 27.79 15.074.533.495-2.126 6.16-6.4 13.637a5881.164 5881.164 0 0 0-7.779 13.636c-.257.466.298.69 1.234.5 1.035-.21 10.19-15.03 23.378-37.846l21.676-37.5 9.902-.288c5.447-.16 10.317.126 10.824.633.563.563-7.122 14.825-19.709 36.58-11.347 19.612-20.882 36.314-21.19 37.117-.322.838.017 1.453.797 1.447.746-.005 3.278-3.38 5.625-7.5 2.348-4.12 4.735-7.49 5.304-7.49 2.097 0 24.932 13.185 24.381 14.078-.322.52 1.743.916 4.738.906l5.31-.017-16.5-8.95c-9.233-5.008-16.365-9.483-16.192-10.16.701-2.747 8.365-14.856 9.402-14.856.617 0 15.24 7.65 32.492 17 27.171 14.725 38.017 19.592 35.852 16.088-.546-.883 2.267-2.586 20.643-12.501l8.698-4.692 5.292 9.052c2.91 4.979 5.858 9.053 6.552 9.053 1.872 0 1.695-.46-3.74-9.693-2.75-4.672-5-8.876-5-9.341 0-.796 14.73-8.966 16.166-8.966.367 0 3.881 5.574 7.808 12.387 8.518 14.778 9.373 16.004 10.802 15.5.622-.218-2.557-6.701-7.297-14.877-4.619-7.97-8.079-14.8-7.689-15.176.391-.376 6.672-3.916 13.96-7.865l13.25-7.18v-30.789l15.75-.011 15.75-.011 6.78-11.838c10.11-17.656 8.01-16.49 18.366-10.197 4.87 2.959 11.2 6.865 14.066 8.68l5.212 3.303-5.474 10.787c-3.01 5.933-6.004 13.063-6.653 15.846l-1.179 5.059-3.655-3.655c-4.205-4.205-10.533-8.698-18.954-13.458l-5.889-3.328-.586 2.667c-.715 3.256 1.013 23.345 2.416 28.09.56 1.888.907 3.542.775 3.675-.133.132-2.938-.393-6.233-1.168-8.047-1.893-27.492-1.96-27.492-.095 0 2.26 13.748 22.312 17.093 24.93l3.141 2.458-3.867.688c-3.944.703-22.244 9.17-25.867 11.969l-2 1.545 2 .039c1.1.022 6.556-2.25 12.124-5.046 5.57-2.797 11.954-5.331 14.191-5.631l4.066-.545-.58 5.623c-.494 4.782-.335 5.624 1.06 5.624 1.23 0 1.64-.944 1.64-3.79 0-5.377 2.605-14.696 5.77-20.635 1.486-2.791 5.7-8.113 9.362-11.825 8.152-8.262 17.562-13.057 29.357-14.961 6.418-1.035 8.06-1.657 8.346-3.157.26-1.357-.013-1.64-.99-1.03-.74.46-3.758 1.106-6.705 1.433l-5.359.594.485-4.308c.555-4.917 9.098-22.863 11.284-23.702.964-.37 1.45-2.041 1.45-4.994 0-3.8-.263-4.37-1.82-3.962-1.162.304-11.754-5.633-29.25-16.395-15.087-9.28-32.43-19.917-38.54-23.64l-11.109-6.768-.64-7.581c-.765-9.034-.827-15.28-.153-15.28.268 0 17.481 10.44 38.25 23.2 21.545 13.238 38.823 23.223 40.234 23.25 1.628.034 2.598-.58 2.841-1.796.29-1.45-.06-1.71-1.626-1.213-1.373.436-4.369-.807-9.6-3.984-4.184-2.54-7.45-4.918-7.258-5.287.192-.368 3.427-6.018 7.19-12.556 6.696-11.64 6.874-11.844 8.536-9.793 1.676 2.07 1.703 2.05 2.31-1.612.881-5.333.772-10.004-.247-10.635-.485-.3-5.267 7.099-10.627 16.44-5.36 9.343-9.879 16.987-10.04 16.987-.66 0-15.727-9.61-15.835-10.1-.274-1.24 35.838-62.737 36.573-62.283.996.616 1.088-4.006.098-4.995-.39-.392-1.428.238-2.304 1.4-1.567 2.077-1.638 2.029-4.289-2.841-1.482-2.723-2.695-5.204-2.695-5.512 0-.307 2.133-.697 4.741-.864 3.247-.21 4.831-.778 5.027-1.805.236-1.233-.847-1.442-6.083-1.172l-6.37.329-5.158-9.071c-2.836-4.99-5.157-9.284-5.157-9.545 0-.262 5.057-.603 11.238-.758 9.04-.228 11.295-.576 11.527-1.783.247-1.282-1.57-1.46-12.488-1.223l-12.777.278-10.91-19.12c-8.718-15.274-10.628-19.3-9.5-20.022 7.607-4.873 41.93-22.261 43.66-22.12 3.55.29 2.644-2.237-1.5-4.191-2.062-.973-15.123-7.848-29.024-15.28l-25.273-13.51 1.892-3.156a603.55 603.55 0 0 0 4.618-7.906c1.5-2.613 3.197-4.75 3.77-4.75.574 0 11.155 5.4 23.513 12 12.358 6.6 22.871 12 23.362 12 .491 0 .892-1.12.892-2.49 0-1.968-.47-2.45-2.25-2.304-2.486.204-42.664-20.818-43.386-22.7-.249-.65 4.39-9.565 10.306-19.814l10.758-18.634 11.954-.28c6.825-.158 12.097-.707 12.287-1.278.218-.66-13.994-.907-41.669-.73l-42 .273v-20.021l41.736-.261c36.165-.226 41.776-.461 42.026-1.761.234-1.212-.699-1.432-4.855-1.145l-5.145.354 2.591-4.345c3.086-5.174 4.228-5.76 5.21-2.67.705 2.219.763 2.23 1.515.306.99-2.533 1.012-9.412.038-11.893-.594-1.514-1.893.138-6.486 8.25l-5.743 10.143H341.13c-6.018 0-10.943-.234-10.943-.52 0-.286 7.531-13.563 16.736-29.503 12.235-21.187 16.923-28.511 17.43-27.23.935 2.362.904-2.283-.037-5.647l-.672-2.4-1.266 2.78c-.696 1.528-1.427 2.608-1.625 2.399-.264-.28-12.738-21.658-15.125-25.923-.448-.801 15.651-10.42 17.472-10.44.855-.01 1.7-.767 1.878-1.684.562-2.891-3.743-1.504-12.639 4.072-4.592 2.878-8.449 5.09-8.572 4.914-.123-.175-1.488-2.568-3.034-5.318-1.545-2.75-3.647-6.398-4.67-8.107l-1.862-3.106 12.6-7.76c6.93-4.266 13.79-8.075 15.243-8.464 2.646-.708 4.527-4.37 1.971-3.84-.76.159-1.153-.363-.918-1.223.226-.825.582-3.075.792-5 .374-3.431.354-3.453-1.026-1.098-1.399 2.384-1.434 2.356-4.972-4-4.415-7.93-7.704-16.204-7.704-19.381 0-2.366.111-2.395 7-1.818 6.068.509 6.828-.088 8-.088 0-.397.225-1.957-.164-2.195-.903-.552-3.16-.42-6.126-.42-23.193 0-44.874-19.32-48.768-43.457-1.422-8.815-3.284-10.113-2.785-1.94l.343 5.603-4.298-.486c-2.373-.268-8.935-2.818-14.652-5.695-13.169-6.626-17.61-6.407-5.435.267 8.927 4.894 18.658 8.7 22.292 8.719 1.843.01 1.716.308-1.063 2.499-2.789 2.199-10.037 12.259-16.2 22.49-1.16 1.925-2.123 2.825-2.139 2-.017-.908-5.363-4.217-13.545-8.383-12.999-6.62-13.464-6.964-12.159-9 2.715-4.234 12.7-22.263 12.7-22.931 0-3.8-5.76 5.095-24.5 37.83l-22 38.43-11.31.027c-6.22.015-11.092-.324-10.827-.753C206.74 72.81 248.186.74 248.186.477c0-.19-.663-.344-1.474-.344-.81 0-2.229 1.463-3.15 3.25-.922 1.788-2.757 4.965-4.077 7.06l-2.4 3.81-13.533-7.118C215.127 2.703 209.11.133 207.608.325c-1.798.229 1.405 2.299 12.583 8.13 8.247 4.3 14.995 8.199 14.995 8.662 0 1.12-7.946 14.865-8.955 15.488-.436.269-14.956-6.927-32.267-15.991-38.678-20.253-35.52-19.71-55.07-9.481-7.358 3.85-13.79 6.997-14.293 6.993-.503-.003-2.629-3.153-4.724-7-2.094-3.846-4.457-6.993-5.25-6.993-1.944 0-1.982-.114 2.56 7.762 2.2 3.816 4 7.355 4 7.865 0 .51-3.746 2.785-8.323 5.055l-8.322 4.127-6.928-12.362C93.804 5.78 90.124.199 89.436.175c-.687-.023-1.25.382-1.25.9s3.107 6.256 6.904 12.75zM78.685 41.77l-.322 8.43c-.177 4.639-.023 12.596.343 17.683l.666 9.25h18.814V53.312l30.75-16.022c16.912-8.812 34.948-18.243 40.08-20.956l9.33-4.934-9.995-5.133c-5.497-2.824-10.595-5.11-11.33-5.078-.734.03-18.66 9.174-39.835 20.318l-38.5 20.263zm59.157-5.67c-.464.45 4.41 9.868 10.83 20.926l11.674 20.107h40.639l11.601-20.125c6.38-11.07 11.6-20.444 11.6-20.835 0-.616-42.074-23.08-43.11-23.017-.215.013-9.84 4.997-21.39 11.075-11.55 6.078-21.379 11.419-21.843 11.87zM44.11 31.355c-3.517 5.159-3.729 5.813-2.157 6.654 2.977 1.593 13.261 3.125 20.981 3.125h7.38l-2.236-3.978C64.823 31.365 56.03 20.02 53.56 18.426c-1.999-1.29-2.227-1.116-3.838 2.919-.94 2.359-3.467 6.864-5.612 10.01zm247.076 9.23c0 1.884 27.271-1.462 28.53-3.5.301-.487-.985-3.115-2.859-5.84-1.874-2.723-4.254-7.011-5.289-9.528-1.035-2.516-2.406-4.577-3.047-4.58-.64-.001-3.049 2.134-5.35 4.747-4.035 4.578-11.985 16.985-11.985 18.702zm-40.333-.226l-2.722 4.725 8.12 4.083 8.12 4.082-.576 10.193c-.317 5.605-.816 20.767-1.109 33.692-.294 12.925-.81 29.708-1.147 37.296l-.614 13.796 9.981-6.116 9.981-6.116.64-17.68c.352-9.724.937-30.983 1.301-47.242l.661-29.563-12.71-6.574-12.71-6.575-2.248 3.637a389.77 389.77 0 0 0-4.968 8.362zM117.206 46.71l25.086 43.46c13.797 23.904 25.213 43.595 25.37 43.757.154.163 2.793-3.995 5.864-9.24l5.582-9.534-22.21-38.496c-12.217-21.173-22.662-38.496-23.212-38.495-.55.002-4.483 1.925-8.74 4.275l-7.74 4.273zm180.73-3.674l-11.75.096v9.349c0 5.142-.29 12.78-.645 16.975l-.644 7.625 16.34.276 16.338.275 7.262 12.486c3.994 6.867 7.723 12.639 8.287 12.827.748.249 25.542-14.273 27.868-16.322.17-.15-1.983-4.258-4.78-9.131-2.799-4.873-6.1-12.063-7.338-15.977l-2.25-7.117-3.917 3.964c-3.99 4.038-11.239 9.217-19.77 14.123l-4.75 2.73.023-11.291c.022-9.932.721-15.905 2.581-22.042.6-1.977.69-1.974-6.105-.227-2.75.707-10.288 1.328-16.75 1.38zM21.513 50.263c-5.034 2.116-5.133 2.236-3.679 4.456 1.833 2.797 10.005 9.136 17.23 13.365l5.377 3.148-.533-11.3c-.486-10.284-2.16-18.902-3.64-18.732-.32.037-2.607 1.602-5.082 3.478-2.475 1.876-6.828 4.389-9.673 5.585zm299.545 19.87c3.062 0 23.128-15.384 23.128-17.732 0-.548-1.967-1.747-4.37-2.666-2.405-.918-6.566-3.23-9.248-5.135-2.682-1.907-5.226-3.467-5.654-3.467-.427 0-1.252 1.237-1.832 2.75-2.03 5.295-3.647 26.25-2.024 26.25zM99.92 55.532l.627 8.05c.345 4.428.63 9.288.633 10.8l.006 2.75h15.083c8.296 0 14.934-.37 14.75-.82-1.136-2.8-16.196-28.174-16.707-28.15-.345.016-3.723 1.68-7.509 3.699l-6.883 3.67zm130.266 21.104c0 .273 6.718.497 14.928.497h14.928l.643-5.25c.353-2.888.498-7.95.322-11.25l-.32-6-6-3.222c-3.3-1.772-6.517-3.234-7.148-3.25-.63-.015-4.793 6.273-9.25 13.975-4.456 7.702-8.103 14.227-8.103 14.5zM34.056 99.398c-1.578 2.62-2.87 5.175-2.87 5.675 0 1.292 14.948 10.21 16.012 9.552.485-.3 2.792-3.903 5.128-8.008l4.246-7.463 43.767-.261 43.767-.26-5.283-9-5.282-9-44.127-.26-44.128-.261-4.18 7.26c-2.299 3.994-5.47 9.405-7.05 12.026zm136.824-4.015l2.331 3.75h86.975v-19H162.04l3.255 5.75c1.791 3.162 4.304 7.438 5.586 9.5zm114.306 3.75h9.443c8.34 0 9.61.236 10.857 2.018.778 1.11 10.591 17.942 21.807 37.403 11.216 19.462 20.702 35.195 21.08 34.963.376-.233 2.986-4.444 5.8-9.36l5.113-8.937-21.687-37.543-21.688-37.544h-30.725v19zM.87 89.32c.29-.722.253-1.585-.079-1.917-.332-.332-.568.258-.525 1.312.048 1.165.285 1.402.604.605zm49.347 28.137c1.201 1.104 27.208 16.758 27.386 16.485.112-.171.016-7.398-.213-16.06l-.417-15.75H58.157l-1.978 3.25c-3.654 6.004-6.437 11.64-5.963 12.075zm31.303 52.175l1.167 42 9.816.287 9.815.287-.6-17.787c-.94-27.818-2.53-83.047-2.53-87.901v-4.386H79.611l.37 12.75c.204 7.013.896 31.65 1.537 54.75zm21.548-26.605l.62 7.396 19.964 12.28c10.981 6.755 20.275 12.09 20.654 11.855.38-.234 5.48-8.744 11.332-18.91l10.642-18.485-9.969-17.265-9.97-17.266-22.077-.27-22.077-.268.131 16.769c.072 9.223.41 20.097.75 24.164zm74.755-35.431c2.85 5.097 2.82 5.105 6.423-1.714l1.982-3.75h-5.52c-3.037 0-5.52.168-5.52.374s1.185 2.496 2.635 5.09zm-30.014 68.278c-.115 1.446 12.615 10.186 14.878 10.216.55.007 7.4-11.118 15.22-24.723a22218.441 22218.441 0 0 1 24.2-41.985l9.98-17.25-11.2.005-11.2.004-20.878 36.097c-11.483 19.853-20.933 36.789-21 37.636zm51.928-46.982l-4.736 8.26 10.185 17.74c5.602 9.757 10.707 18.25 11.343 18.876.87.853 6.15-1.947 21.158-11.22 18.24-11.267 20.058-12.643 20.662-15.635.365-1.805.815-12.62 1-24.031l.338-20.75h-44.383l-5.417 9.25a2764.983 2764.983 0 0 0-10.15 17.51zm85.076 4.24c1.26 0 26.31-15.525 26.341-16.325.018-.454-1.818-3.942-4.08-7.75l-4.115-6.925h-8.719c-4.796 0-9.02.3-9.386.667-.846.845-.885 30.333-.04 30.333zM.87 115.32c.29-.722.253-1.585-.079-1.917-.332-.332-.568.258-.525 1.312.048 1.165.285 1.402.604.605zm218.926 62.128c-.605.92.484 3.729 3.398 8.769 2.358 4.078 4.417 7.573 4.576 7.767.46.562 94.383-57.27 94.401-58.125.032-1.552-8.513-15.663-9.484-15.66-.55.002-21.475 12.579-46.5 27.95-25.025 15.37-45.9 28.555-46.39 29.299zm-205.75.899l9.673 16.892 9.675 16.893h46.68l-.578-23.25c-.318-12.787-1.002-23.79-1.52-24.447-.966-1.223-37.234-23.77-39.853-24.774-1.042-.4-4.608 4.928-12.762 19.066l-11.316 19.62zm269.301-14.744l-.57 10.014c-.315 5.508-.698 16.427-.852 24.265l-.28 14.25 22.521-.026 22.521-.026 7.5-13.197c4.125-7.26 8.57-15.09 9.878-17.4l2.377-4.203-10.877-19.04c-5.983-10.472-11.328-19.024-11.878-19.004-.55.02-9.85 5.51-20.67 12.202l-19.67 12.165zm-101.153-4.37l21.76 37.699 21.758 37.7h29.975l.286-9.75.286-9.75-9.786-.02-9.786-.02-16.793-29.23a34013.092 34013.092 0 0 0-21.605-37.566l-4.812-8.336-5.64 9.637-5.643 9.636zM.88 155.864c.254-.973.237-2.323-.037-3-.274-.677-.48.119-.46 1.769.02 1.65.243 2.204.497 1.23zm141.256 44.119c20.754 12.733 38.016 23.15 38.358 23.15 1.687 0 25.732-15.503 25.482-16.43-.61-2.26-8.326-15.557-9.032-15.563-.409-.004-3.997 2.018-7.974 4.493-3.977 2.475-7.78 4.5-8.454 4.5-.672 0-17.784-10.18-38.026-22.621-20.242-12.442-37.365-22.84-38.053-23.107-.936-.364-1.247 1.49-1.239 7.37.022 15.79-3.933 11.908 38.938 38.208zm24.051-12.023c0 .946 12.925 9.173 14.412 9.173 1.194 0 14.57-8.401 14.58-9.157.007-.543-13.664-24.831-14.397-25.577-.127-.13-3.462 5.357-7.413 12.19-3.95 6.835-7.182 12.852-7.182 13.37zm94.5-10.221l-.63 15.947c-.346 8.77-.964 29.266-1.373 45.546l-.743 29.599 12.484 6.604c6.866 3.633 13.065 6.739 13.775 6.902 1.25.286 9.765-12.497 9.914-14.884.04-.65-3.415-3.092-7.677-5.428-4.262-2.337-7.975-4.574-8.25-4.972-.275-.397.021-18.205.658-39.571 1.472-49.357 1.495-51.361.592-51.291-.413.032-4.8 2.643-9.75 5.803l-9 5.745zm-155.858 30.644l.62 3.75h17.564l4.087-7.088c2.247-3.898 4.086-7.428 4.086-7.844 0-.416-5.062-3.832-11.25-7.593-6.187-3.76-12.263-7.482-13.5-8.271l-2.25-1.434.011 12.365c.006 6.8.29 14.053.631 16.115zm125.561-11.36c-.188.564 1.51 4.194 3.772 8.067l4.113 7.043h18.912v-16c0-8.8-.337-15.96-.75-15.912-.412.049-6.365 3.619-13.228 7.934-6.863 4.315-12.63 8.306-12.819 8.869zm-229.353.79c-.405-1.356-.65-.29-.65 2.82 0 3.155.24 4.179.65 2.775.523-1.79 4.654 4.728 21.15 33.37 11.275 19.579 20.994 36.285 21.597 37.127.952 1.327 2.182.953 9.25-2.813 4.484-2.39 8.153-4.603 8.153-4.92 0-1.14-47.867-83.494-48.674-83.743-.454-.14-3.076 3.755-5.826 8.655-4.195 7.474-5.105 8.558-5.65 6.729zm362.194 2.847c.526.325.956-.336.956-1.468 0-2.415-.556-2.658-1.349-.591-.31.807-.133 1.734.393 2.059zM124.686 215.1l-44.25.017c-34.767.013-44.233.284-44.173 1.266.043.688 2.41 5.075 5.261 9.75l5.183 8.5h88.744l7.328-12.5c4.03-6.875 7.346-12.806 7.367-13.18.05-.835-14.243-9.82-15.622-9.82-.547 0-2.984 3.593-5.416 7.984l-4.422 7.984zm12.935 21.533l-15.955.5-15.955.5.336 15.5c.186 8.525.49 15.75.677 16.055.186.305 5 .637 10.696.737 9.676.17 18.027 1.204 21.942 2.717 1.55.599 1.563.283.193-4.181-.816-2.655-1.752-10.61-2.08-17.678l-.6-12.85 4.406 2.239c7.425 3.774 14.858 8.837 19.911 13.564l4.82 4.508 1.662-5.806c.915-3.193 4.053-10.347 6.975-15.898l5.312-10.093-13.318-8.157c-7.325-4.486-13.462-8.153-13.638-8.147-.175.005-3.709 5.967-7.852 13.25l-7.532 13.24zm44.23-10.51c-.459.429.278 2.543 1.638 4.698 4.314 6.834 9.573 17.933 10.794 22.78l1.18 4.685 4.611-4.46c6.101-5.9 20.894-15.693 23.704-15.693 1.026 0-.277 25.942-1.503 29.934-.58 1.888-.919 3.569-.753 3.735.166.166 3.421-.358 7.233-1.166 3.812-.808 11.25-1.476 16.527-1.486l9.596-.017.685-15.17c.376-8.342.323-15.53-.119-15.972-.442-.442-7.754-.928-16.248-1.081l-15.445-.277-7.532-13.214c-4.143-7.268-7.758-13.227-8.033-13.243-.275-.015-6.125 3.39-13 7.57-6.875 4.179-12.876 7.948-13.335 8.377zM.87 214.32c.29-.722.253-1.585-.079-1.917-.332-.332-.568.258-.525 1.312.048 1.165.285 1.402.604.605zm168.823 40.91l-.67 3.597 11.681-.041 11.682-.041-.562-3.461c-.639-3.937-8.346-20.665-10.248-22.244-.919-.763-1.66-.421-2.772 1.275-2.733 4.173-8.424 17.238-9.11 20.915zm-105.578 9.357c.333.206 4.327-1.66 8.875-4.145l8.27-4.52-.287-9.145-.286-9.145-15.75-.275c-11.183-.196-15.75.05-15.75.852 0 1.19 13.891 25.737 14.928 26.378zm19.65-16.506l.641 9.55-39.86 21.248C22.623 290.566 4.08 300.52 3.336 301c-.96.622 1.462 2.354 8.394 6.004 5.36 2.82 10.107 5.129 10.551 5.129 1.095 0 80.275-42.148 80.905-43.067.275-.401.275-7.637 0-16.081l-.5-15.352-9.048-.285c-4.977-.157-9.379.045-9.783.449-.403.403-.445 5.032-.092 10.285zm204.432 11.795l7.972 4.245 2.326-3.745c3.9-6.277 12.692-21.941 12.692-22.613 0-.347-6.686-.631-14.858-.631h-14.857l-.643 6.147c-1.299 12.43-1.559 11.844 7.368 16.597zm-17.01 53.909c0 1.025 14.112 25.347 14.706 25.347 1.272 0 16.294-8.45 16.294-9.164 0-.428-2.033-4.218-4.519-8.421l-4.518-7.643 21.518-37.228c11.836-20.476 21.52-37.75 21.52-38.386 0-.804-3.208-1.158-10.478-1.158-9.784 0-10.569.149-11.876 2.25-3.859 6.207-42.647 73.878-42.647 74.403zm-73-53.65c0 .468 2.588 2.03 5.75 3.472 3.162 1.442 7.486 4.01 9.608 5.707 3.081 2.465 4.033 2.807 4.724 1.702 1.777-2.843 2.991-11.87 2.71-20.153l-.292-8.556-8 5.234c-7.848 5.136-14.5 10.913-14.5 12.595zm-54.026 11.997c.35 0 2.187-1.161 4.082-2.58 1.894-1.42 6.032-3.901 9.194-5.515 3.162-1.613 5.75-3.286 5.75-3.716 0-2.288-19.37-17.19-22.345-17.19-.562 0-.706 4.308-.357 10.75.541 10.028 2.198 18.25 3.676 18.25zm-13.793 49.917c2.202 10.647 6.177 18.322 13.548 26.159 10.07 10.707 22.11 15.924 36.742 15.924 15.321 0 25.822-4.322 36.787-15.141 17.961-17.722 20.372-44.833 5.828-65.543-12.26-17.457-32.756-25.38-53.823-20.802-26.282 5.71-44.468 33.353-39.082 59.403zm-52.95-35.482c-.274.275 2.942 6.55 7.148 13.948l7.646 13.449-7.512 12.952c-4.132 7.123-7.513 13.435-7.513 14.027 0 .59 6.525 4.509 14.5 8.706l14.5 7.63-.655 15.902-.656 15.9 16.894.276 16.895.275 7.245 12.5c4.42 7.624 7.822 12.448 8.723 12.367.813-.073 7.102-3.583 13.976-7.8l12.498-7.667-2.963-4.815c-4.206-6.836-9.659-18.944-10.458-23.22l-.678-3.633-4.16 4.142c-4.069 4.05-14.934 11.664-21.41 15.002l-3.25 1.675.015-11.275c.008-6.202.65-13.972 1.425-17.268.775-3.295 1.33-6.071 1.233-6.168-.097-.097-2.574.446-5.504 1.206-2.93.76-10.467 1.689-16.749 2.065-10.068.602-11.42.494-11.42-.911 0-3.42 14.473-25.177 17.528-26.35 2.55-.978 1.607-2.073-2.325-2.701-3.783-.605-21.903-9.053-25.704-11.983l-2-1.542 2-1.547c3.717-2.875 21.973-11.48 25.771-12.146l3.771-.662-4.048-4.391c-2.226-2.415-6.579-8.326-9.674-13.135-3.094-4.81-5.894-9.055-6.223-9.437-.328-.382-6.845 2.64-14.482 6.718-7.637 4.077-14.109 7.637-14.384 7.91zm162.205 7.505l-3.519 3.894 5.792 1.667c5.982 1.72 22.614 9.978 24.376 12.102 1.688 2.033-15.532 11.555-25.987 14.37l-4.203 1.132 4.998 5.469c2.75 3.007 7.307 9.29 10.13 13.962l5.13 8.495 12.673-6.662c6.971-3.664 12.984-6.933 13.362-7.265.378-.332-2.657-6.454-6.745-13.604-4.088-7.15-7.435-13.397-7.438-13.883-.003-.485 3.37-6.7 7.495-13.812 4.125-7.111 7.5-13.321 7.5-13.801 0-.787-25.916-15.004-27.35-15.004-.333 0-1.357 1.238-2.277 2.75-5.383 8.85-10.859 16.782-13.937 20.19zm-111.26 2.06c.422 0 1.735-2.247 2.916-4.993 1.182-2.746 3.647-7.1 5.478-9.676 1.831-2.576 3.135-5 2.897-5.384-.799-1.293-8.884-2.813-18.717-3.52-8.126-.584-9.75-.462-9.75.733 0 3.353 14.654 22.84 17.175 22.84zm93.824-19.967c0 .483 1.781 3.42 3.957 6.527 2.176 3.106 4.461 7.176 5.077 9.044.617 1.868 1.71 3.396 2.427 3.396 2.431 0 11.59-11.57 16.424-20.75l1.185-2.25-8.785.136c-4.832.075-9.91.325-11.285.556-4.434.744-9 2.439-9 3.34zM57.524 297.95c.205.375 2.301 3.964 4.657 7.976 3.784 6.44 4.151 7.59 3.138 9.814-1.159 2.543-38.202 66.967-40.906 71.142l-1.457 2.25 11.365-.014 11.365-.015 21.417-37.12c11.78-20.415 21.406-37.621 21.394-38.235-.022-1.078-12.722-23.391-14.128-24.821-.38-.388-4.41 1.33-8.955 3.818-4.544 2.488-8.094 4.83-7.89 5.205zm238.874 15.682l3.144 5.585c6.253 11.107 4.137 10.888 20.394 2.11 7.837-4.232 14.25-7.92 14.25-8.195 0-.628-26.706-15-27.87-15-.472 0-2.896 3.488-5.388 7.75l-4.53 7.75zM.88 302.863c.254-.972.237-2.322-.037-3-.274-.676-.48.12-.46 1.77.02 1.65.243 2.204.497 1.23zm25.316 11.27c-.009.604 26.671 15 27.8 15 .79 0 9.191-14.128 9.191-15.455 0-1.662-8.337-14.537-9.364-14.462-.625.046-7.095 3.308-14.377 7.25-7.283 3.942-13.245 7.392-13.25 7.667zm208.491 10.129l3.5-.604c1.925-.332 8.225-2.872 14-5.645 9.92-4.763 10.39-5.125 8.5-6.54-4.766-3.568-20.662-10.34-24.273-10.34-1.536 0-1.727 1.276-1.727 11.564v11.565zm-134.5-10.994c0 1.218 14.578 8.365 20.881 10.237 5.332 1.583 7.714 1.399 6.537-.505-.338-.547-.605-5.466-.592-10.931l.024-9.936-2.675.079c-1.47.043-3.35.32-4.175.614-4.37 1.56-20 9.72-20 10.442zm158 44.098l.007 9.133c.004 5.024.294 12.172.645 15.884l.637 6.75h18.711v-20.527l40-21.348c22-11.742 40-21.49 40-21.66 0-.631-19.325-10.462-20.394-10.375-.608.05-18.769 9.553-40.356 21.117l-39.25 21.026zM.87 328.32c.29-.722.253-1.585-.079-1.917-.332-.332-.568.258-.525 1.312.048 1.165.285 1.402.604.605zm224.29 16.35c-1.74 2.532-2.918 4.85-2.615 5.153 1.422 1.422 12.982 3.279 20.5 3.293 7.381.014 8.282-.178 7.718-1.646-1.33-3.468-9.593-14.995-13.389-18.68l-3.957-3.84-2.545 5.56c-1.4 3.057-3.97 7.63-5.712 10.16zm-113.973 8.678c0 2.266 27.04-.854 28.548-3.294.283-.457-1.052-3.011-2.966-5.676-1.915-2.664-4.387-6.96-5.496-9.545-1.108-2.586-2.195-4.701-2.416-4.701-.22 0-1.57.92-3.003 2.047-2.774 2.183-14.667 19.347-14.667 21.169zm-45 6.67c0 .524 3.825 3.037 8.5 5.585l8.5 4.634.005 6.697c.002 3.684-.487 22.448-1.088 41.698-.6 19.25-.94 36.448-.754 38.218l.337 3.218 9-5.565c4.95-3.061 9.247-5.965 9.55-6.453.727-1.174 3.116-87.84 2.451-88.916-.436-.706-26.912-15.022-27.723-14.991-.153.005-2.19 3.366-4.528 7.467-2.338 4.102-4.25 7.886-4.25 8.409zm158.641 15.364c.52 9.173.388 11.75-.602 11.75-2.26 0-16.979-9.302-22.492-14.216-2.952-2.631-5.575-4.784-5.829-4.784-.255 0-.74 1.734-1.079 3.854-.339 2.119-3.32 9.185-6.625 15.702-3.306 6.516-5.634 12.224-5.174 12.684.46.46 6.632 4.383 13.715 8.717l12.88 7.88 5.885-10.168c3.238-5.593 6.971-11.856 8.297-13.92l2.411-3.75h29.972l-.005-6.75c-.003-3.711-.292-11.074-.642-16.361l-.637-9.612-12.608-.533c-7.244-.306-14.43-1.171-16.892-2.033-4.227-1.48-4.275-1.471-3.596.645 1.745 5.435 2.402 9.983 3.021 20.895zm73.38-14.144l2.74 4.77c29.434 51.246 46.873 80.85 47.424 80.51.378-.234 2.984-4.44 5.792-9.345l5.104-8.92-21.186-36.811c-11.652-20.245-21.682-37.355-22.29-38.02-.85-.932-3.003-.171-9.345 3.303l-8.24 4.513zm-94.52 1.047c-2.75 1.248-5.193 2.403-5.428 2.568-1.433 1.007 10.283 10.593 19.337 15.82l4.91 2.836-.6-10.938c-.539-9.828-1.894-16.806-3.606-18.571-.338-.348-2.639.864-5.114 2.692-2.475 1.829-6.75 4.346-9.5 5.593zm-62.567 20.847c1.71 0 18.94-12.023 21.02-14.667 1.125-1.432 2.044-2.88 2.042-3.218-.002-.338-2.08-1.47-4.62-2.514-2.54-1.045-6.859-3.407-9.598-5.25-2.738-1.843-5.17-3.351-5.403-3.351-.234 0-.895 1.238-1.47 2.75-2.18 5.726-3.72 26.25-1.97 26.25zm-91.767 5.166c-.184.459 6.646.834 15.176.834h15.51l.324-8.547.323-8.548-8.24-4.452c-4.533-2.45-8.358-4.448-8.5-4.442-.143.006-3.41 5.48-7.26 12.166-3.85 6.685-7.15 12.53-7.333 12.989zm231.4-17.605l.307 8.97c.168 4.933.428 9.094.577 9.247.15.152 6.8.152 14.78 0l14.507-.278-7.272-12.5c-4-6.875-7.879-12.594-8.619-12.71-.74-.113-4.257 1.475-7.814 3.532l-6.466 3.739zm-100.36 21.8c1.325 1.726 1.7 1.347 5.163-5.246 3.56-6.775 7.63-17.185 7.631-19.522 0-.728-3.87-1.093-11.598-1.093h-11.597l.513 3.835c.502 3.748 7.046 18.325 9.887 22.026zM.868 391.32c.29-.722.253-1.585-.079-1.917-.332-.332-.568.258-.525 1.312.048 1.165.285 1.402.604.605zm103.675 13.665l-.643 6.147h21.329l2.728 4.347c1.5 2.39 11.278 19.248 21.728 37.462 10.45 18.214 19.23 33.133 19.51 33.154.576.042 10.99-17.531 10.99-18.544 0-.36-9.72-17.476-21.6-38.036l-21.602-37.383h-31.798v3.353c0 1.845-.289 6.12-.642 9.5zm110.9 7.456c-1.91 3.194-3.313 5.95-3.116 6.126 1.044.927 15.395 9.565 15.891 9.565.321 0 2.795-3.825 5.496-8.5l4.912-8.5h42.28c23.253 0 42.28-.28 42.28-.621 0-.342-2.307-4.617-5.125-9.5l-5.125-8.88h-85.663l-4.179 7.25a1167.54 1167.54 0 0 1-7.652 13.06zm-60.305 5.879l1.892 3.156a603.55 603.55 0 0 1 4.618 7.906c1.5 2.613 3.126 4.75 3.614 4.75s3.933-1.87 7.655-4.156c3.723-2.286 7.235-4.161 7.805-4.167.571-.006 17.992 10.415 38.713 23.156 20.722 12.742 38.03 23.168 38.463 23.169.433 0 .562-5.03.287-11.178l-.5-11.181-38-23.306c-20.9-12.82-38.45-23.304-39-23.301-.55.003-6.523 3.414-13.274 7.579l-12.273 7.573zm-154.27-5c.29-.722.253-1.585-.079-1.917-.332-.332-.568.258-.525 1.312.048 1.165.285 1.402.604.605zm22.873 19.1l-9.68 16.79 10.812 18.937c5.947 10.415 11.262 18.94 11.812 18.945.55.005 10-5.518 21-12.273l20-12.281.627-10.453c.346-5.75.683-16.64.75-24.203l.123-13.75h-22.44c-12.344 0-22.64.337-22.883.75-.243.413-4.797 8.305-10.12 17.539zm79.963 13.564c.345.345 22.781-13.13 26.87-16.138 1.812-1.334 1.72-1.68-2.294-8.552l-4.183-7.162h-19.61l-.574 15.743c-.316 8.658-.41 15.908-.208 16.109zM231.666 430.1c.7 1.133 25.59 16.298 26.027 15.859.188-.187.082-7.425-.234-16.083l-.574-15.743h-8.327c-7.56 0-8.453.207-9.703 2.25-5.896 9.632-7.648 12.975-7.189 13.717zm31.47 95.783c.027.138 4.114.25 9.081.25 7.126 0 9.154-.318 9.61-1.508.528-1.375-.708-52.542-2.264-93.742l-.633-16.75h-18.744l.034 12.25c.025 9.22 2.63 98.098 2.915 99.5zm21.33-63.135c.67.62 9.917 6.423 20.546 12.894 16.207 9.868 19.531 11.543 20.594 10.379 1.433-1.57 20.58-34.711 20.58-35.621 0-.324-4.613-8.611-10.25-18.416l-10.25-17.826-21.908-.012-21.908-.013.687 23.743c.481 16.637 1.052 24.08 1.908 24.872zM.878 426.864c.254-.973.237-2.323-.037-3-.274-.677-.48.119-.46 1.769.02 1.65.243 2.204.497 1.23zm166.294 10.615c-.343.903 14.17 26.65 15.013 26.638.275-.004 1.953-2.59 3.728-5.746 1.775-3.156 5.017-8.902 7.204-12.768l3.977-7.03-7.75-4.72c-4.264-2.596-8.18-4.72-8.705-4.72-.525 0-3.697 1.688-7.05 3.75-3.352 2.063-6.24 4.13-6.417 4.596zM38.934 489.985c-.549.549.967 4.145 3.816 9.049 4.622 7.955 4.78 8.104 7.005 6.646 1.252-.821 22.224-13.705 46.604-28.633 24.38-14.928 44.93-27.71 45.667-28.403 1.11-1.045.595-2.57-3-8.876-2.387-4.188-4.812-7.62-5.388-7.624-.577-.006-21.916 12.8-47.42 28.459-25.504 15.658-46.782 28.88-47.284 29.382zm112.252 35.01c0 .883 2.85 1.13 10.63.922l10.631-.284 21.37-36.977c11.753-20.337 21.37-37.444 21.37-38.016 0-.572-2.589-2.573-5.75-4.447-3.163-1.875-6.694-4.011-7.847-4.748-2.018-1.29-2.997.22-26.25 40.503-13.285 23.014-24.154 42.386-24.154 43.048zm-47.614-48.608c-.815.862-1.287 8.639-1.532 25.246l-.354 24 22.078.269c20.076.244 22.216.108 23.594-1.5 1.894-2.21 19.828-33.71 19.828-34.827 0-1.657-21.534-38.413-22.5-38.405-.55.004-9.76 5.4-20.468 11.989-10.707 6.59-19.998 12.542-20.646 13.228zm93.614 13.214c0 1.486 17.348 31.96 19.811 34.802 1.39 1.603 3.47 1.744 22.112 1.5l20.577-.27-.356-24c-.307-20.641-.587-24.224-2-25.6-1.62-1.575-37.695-23.9-38.62-23.9-.263 0-1.112 1.012-1.887 2.25-5.578 8.907-19.637 34.12-19.637 35.218zM1.036 468.82c-.406-1.363-.65-.303-.65 2.813 0 3.2.233 4.183.65 2.73.527-1.842 4.788 4.905 22.592 35.775l21.942 38.045 15.058-.275 15.058-.275.286-9.75.286-9.75H56.396l-21.5-37.215c-11.825-20.468-21.886-37.344-22.359-37.501-.473-.158-3.108 3.735-5.855 8.65-4.194 7.506-5.1 8.589-5.646 6.753zm362.812 4.563c.278-.687.278-1.812 0-2.5-.277-.687-.504-.125-.504 1.25s.227 1.938.504 1.25zm-283.402 16.71l-.612 9.77c-.538 8.588-2.148 66.097-2.148 76.742v3.972l14 7.704c15.92 8.76 14.051 8.948 20.234-2.04 4.185-7.437 4.496-6.867-6.91-12.665-3.67-1.866-6.948-3.835-7.282-4.375-.537-.87.796-60.208 1.84-81.818.277-5.761.053-8.231-.743-8.188-.626.034-5.018 2.5-9.759 5.48l-8.62 5.419zm-30.759 19.2c-.36.365 1.452 4.319 4.03 8.789l4.687 8.126 8.641-.288 8.641-.287.768-9c.422-4.95.647-12.45.5-16.666l-.268-7.667-13.17 8.167c-7.244 4.49-13.467 8.464-13.829 8.827zm235.155 7.09l.646 9.75h8.194c6.576 0 8.485-.345 9.666-1.75 1.435-1.705 8.838-14.051 8.838-14.738 0-.19-5.288-3.598-11.75-7.575-6.462-3.977-12.762-7.891-14-8.7l-2.25-1.467.005 7.365c.003 4.05.296 11.752.651 17.115zm-99.857-2.791c.965 2.116 36.664 64.204 39.842 69.29l1.405 2.25 8.227-4.501c4.525-2.476 8.136-4.886 8.025-5.355-.34-1.437-45.496-79.552-46.813-80.981-1.003-1.09-2.215.377-6.482 7.833-4.462 7.796-5.092 9.515-4.204 11.464zM.87 512.32c.29-.722.253-1.585-.079-1.917-.332-.332-.568.258-.525 1.312.048 1.165.285 1.402.604.605zm303.876 15.812h-42.113c-23.162 0-42.373.26-42.69.578-.318.318 1.807 4.705 4.723 9.75l5.302 9.172h85.694l5.052-8.5a1761.493 1761.493 0 0 0 7.796-13.235l2.744-4.735-7.18-4.603c-3.95-2.532-7.697-4.801-8.327-5.042-.63-.242-3.363 3.397-6.073 8.088l-4.928 8.527zm-128.559-2.603c0 .789 10.484.786 11.273-.004.611-.61-4.34-10.353-5.273-10.378-.275-.007-1.738 2.19-3.25 4.883s-2.75 5.168-2.75 5.499zM1.057 536.958c-.514-.81-.808.62-.756 3.675.058 3.429.292 4.262.744 2.652.587-2.09 1.082-1.592 4.48 4.5 4.754 8.52 8.661 17.66 8.661 20.259 0 3.334 1.534 3.167 5.092-.554 4.806-5.027 21.783-16.357 24.51-16.357 1.22 0-.423 25.288-1.97 30.328-1.372 4.466-1.358 4.777.192 4.135 4.094-1.696 10.491-2.695 21.176-3.305l11.5-.658v-31l-15.583-.275-15.583-.274-7.757-13.476c-4.266-7.411-8.068-13.475-8.448-13.475-.38 0-6.255 3.409-13.054 7.575-9.437 5.782-12.563 7.262-13.204 6.25zm99.692 10.276c.594.962 98.707 1.296 99.663.34.308-.308-1.915-4.808-4.939-10l-5.499-9.441h-88.489l-.646 9.1c-.355 5.007-.396 9.507-.09 10zm-.563 12.398v8.165l8.54 4.418c7.205 3.727 8.683 4.183 9.452 2.918 7.23-11.887 13.708-23.658 13.347-24.25-.565-.927-29.749-1.006-30.672-.083-.367.366-.667 4.34-.667 8.832zm39.38 28.627c-.309.56 38.435 21.874 39.764 21.874.571 0 43.052-22.89 43.755-23.576.472-.46-17.527-32.12-19.712-34.674-1.332-1.557-3.655-1.748-21.092-1.735-10.777.009-20.068.346-20.647.75-.766.536-16.078 26.458-22.069 37.36zm99.052-25.626c3.972 6.84 6.966 10.95 7.915 10.872.84-.071 4.497-1.791 8.13-3.822l6.605-3.693-.29-7.68-.292-7.677-14.25-.277c-7.838-.153-14.24.072-14.229.5.012.427 2.896 5.727 6.411 11.777zm25.568 5.103l-40.5 21.879c-22.275 12.033-40.498 22.134-40.495 22.448.003.313 4.391 2.895 9.75 5.736l9.745 5.166 40.5-21.918 40.5-21.918-.369-13.748c-.203-7.561-.567-14.085-.809-14.498-.242-.413-4.463-.75-9.38-.75h-8.942v17.602zm-243.48 1.945l-3.79 3.789 6.885 3.47c3.787 1.91 8.36 4.597 10.162 5.972 1.803 1.375 3.423 2.325 3.602 2.11 2.472-2.97 5.066-28.89 2.891-28.89-.557 0-4.377 2.197-8.488 4.88-4.11 2.684-9.179 6.585-11.263 8.669zm305.564 15.004c.46.284 3.442-1.252 6.627-3.415 3.184-2.163 7.5-4.64 9.59-5.505 3.245-1.343 3.655-1.846 2.801-3.441-1.638-3.06-19.975-16.191-22.61-16.191-.433 0-.48 4.36-.106 9.69.708 10.076 2.256 17.97 3.698 18.862zM.87 573.32c.288-.722.252-1.585-.08-1.917-.332-.332-.568.258-.525 1.312.048 1.165.285 1.402.604.605zm43.806 20.665c1.885 2.625 4.518 7.123 5.85 9.996l2.42 5.225 3.188-2.684c2.89-2.432 10.96-13.516 13.933-19.14l1.19-2.25-8.286.084c-4.557.046-10.76.62-13.785 1.276-8.28 1.796-8.427 2.04-4.51 7.493zm264.498 14.14c2.663 1.426 2.733 1.383 3.988-2.421.623-1.886 2.916-6.19 5.097-9.564 2.182-3.375 3.724-6.527 3.43-7.005-1.143-1.848-28.503-5.105-28.503-3.393 0 2.73 12.831 20.694 15.988 22.383z" fill="#158A70" fill-rule="evenodd"/>
</svg>
