<?xml version="1.0" encoding="UTF-8"?>
<svg width="48px" height="53px" viewBox="0 0 48 53" version="1.1" xmlns="http://www.w3.org/2000/svg" xmlns:xlink="http://www.w3.org/1999/xlink">
    <!-- Generator: Sketch 48.2 (47327) - http://www.bohemiancoding.com/sketch -->
    <title>Shape Copy</title>
    <desc>Created with Sketch.</desc>
    <defs></defs>
    <g id="A4" stroke="none" stroke-width="1" fill="none" fill-rule="evenodd" transform="translate(-175.000000, -279.000000)">
        <g id="screen" transform="translate(-2.000000, 90.000000)" fill="#6BABB5">
            <g id="Author-right-Copy" transform="translate(0.000000, 170.000000)">
                <path d="M200.389149,19.8952848 C200.118461,19.9148524 199.789986,19.960169 199.659153,19.9959884 C199.528362,20.0318077 199.333959,20.0611182 199.227201,20.0611182 C199.120444,20.0611182 198.932152,20.0899784 198.808825,20.1252656 C198.685498,20.1605528 198.469071,20.2059103 198.327903,20.226092 C198.186735,20.2462327 197.949515,20.3002278 197.800677,20.3461175 C197.65184,20.3920073 197.481266,20.429546 197.421633,20.4295869 C197.361958,20.4295869 197.216074,20.4664297 197.097382,20.5114597 C196.97873,20.5564489 196.821854,20.593701 196.748769,20.5941922 C196.675724,20.5946835 196.535459,20.6315262 196.43715,20.6760651 C196.3388,20.7206039 196.213504,20.7570373 196.158669,20.7570373 C196.103835,20.7570373 195.986619,20.7938801 195.898194,20.8389101 C195.809769,20.8839402 195.685909,20.9208648 195.622995,20.9209467 C195.56004,20.9210286 195.4532,20.9547602 195.385528,20.9958603 C195.317856,21.0370014 195.191617,21.0821134 195.105038,21.0960727 C195.018418,21.1100729 194.918961,21.1451964 194.883977,21.1741794 C194.849033,21.2031623 194.744531,21.2485199 194.6518,21.2749648 C194.343627,21.3629781 194.011501,21.4893079 193.919836,21.5534143 C193.870005,21.5882103 193.791875,21.6168248 193.746104,21.6169886 C193.700374,21.6171114 193.607602,21.6538313 193.53993,21.6985749 C193.472258,21.7433184 193.377846,21.7800383 193.330147,21.7801611 C193.282449,21.7803249 193.196485,21.8172905 193.139107,21.8623205 C193.081771,21.9073506 193.014345,21.9441933 192.989286,21.9441933 C192.964227,21.9441933 192.847175,21.9923755 192.72918,22.0512421 C192.611143,22.1101086 192.431546,22.1959114 192.330038,22.241883 C192.22853,22.2878546 192.117795,22.3411538 192.083959,22.3602711 C192.050123,22.3794293 191.976299,22.4153306 191.919906,22.4400971 C191.863512,22.4648636 191.789688,22.5017883 191.755852,22.5221746 C191.722016,22.5426019 191.620509,22.5955736 191.530279,22.6399487 C191.44005,22.6842828 191.218578,22.8031622 191.03812,22.9040295 C190.857661,23.0048968 190.663874,23.10777 190.60748,23.1325775 C190.551087,23.1574259 190.468035,23.2087602 190.422921,23.2466673 C190.34598,23.311265 190.248081,23.3722193 190.053801,23.4764025 C189.967181,23.5228653 189.556105,23.7857589 189.368469,23.9146677 C189.307359,23.9566685 189.241369,23.9910141 189.221847,23.9910141 C189.202283,23.9910141 189.142978,24.0370676 189.089989,24.0933552 C189.037,24.1496427 188.979253,24.1956962 188.961617,24.1956962 C188.918225,24.1956962 188.695154,24.3488393 188.468392,24.5343222 C188.365776,24.6182419 188.267919,24.6869332 188.251021,24.6869332 C188.234083,24.6869332 188.076387,24.8066722 187.900604,24.9530199 C187.724821,25.0993676 187.565238,25.2193932 187.545962,25.2197616 C187.526727,25.2200891 187.354102,25.3589454 187.162365,25.5282994 C186.970627,25.6976533 186.680869,25.9404881 186.518497,26.0678823 C186.126902,26.3751919 184.234918,28.285367 183.819782,28.7925692 C183.085562,29.6896498 182.972735,29.8324769 182.620717,30.3105733 C182.310452,30.7320137 182.158744,30.9510235 182.158744,30.9775503 C182.158744,30.9903225 182.107969,31.0605694 182.045957,31.1336409 C181.983904,31.2067124 181.862136,31.3841308 181.77527,31.5279405 C181.688445,31.6717501 181.559253,31.8802393 181.488177,31.9912588 C181.336345,32.2284444 181.234715,32.4009914 181.062295,32.7143187 C180.992982,32.8402391 180.878309,33.0428744 180.807438,33.1646193 C180.620828,33.4851105 180.613445,33.4986604 180.563901,33.6110718 C180.539088,33.6673594 180.502176,33.741045 180.481875,33.7748175 C180.461573,33.8085901 180.424661,33.8822756 180.399848,33.9385632 C180.375035,33.9948507 180.338123,34.0685363 180.317822,34.1023088 C180.29752,34.1360814 180.260608,34.2097669 180.235795,34.2660545 C180.210982,34.3223421 180.173414,34.3960276 180.152292,34.4298002 C180.13117,34.4635727 180.073628,34.5833117 180.024454,34.6958869 C179.858678,35.0753674 179.732275,35.3500508 179.653365,35.5022524 C179.610219,35.5855171 179.574825,35.6868347 179.574743,35.7274027 C179.574661,35.7679707 179.539882,35.8579489 179.497474,35.9273771 C179.455066,35.9968052 179.406588,36.1162986 179.389732,36.1928907 C179.372876,36.2694827 179.335635,36.3692447 179.306967,36.4146023 C179.278299,36.4599598 179.241674,36.5600494 179.225556,36.6369689 C179.209438,36.7138884 179.161575,36.8336274 179.119167,36.9030556 C179.07676,36.9724838 179.041857,37.0845267 179.041611,37.1520718 C179.041365,37.2196169 179.004535,37.3301452 178.959708,37.3976903 C178.91488,37.4652354 178.878091,37.5712198 178.877968,37.6332384 C178.877804,37.6952162 178.840769,37.8146686 178.795655,37.8987111 C178.75054,37.9827126 178.713218,38.1069956 178.712726,38.1748682 C178.712234,38.2427407 178.675322,38.3786087 178.630699,38.4767333 C178.586077,38.5748988 178.549575,38.6991408 178.549575,38.7528904 C178.549575,38.8066399 178.514344,38.95659 178.471321,39.0861537 C178.428258,39.2157175 178.381543,39.4023466 178.367476,39.5008805 C178.353408,39.5994145 178.305546,39.7876401 178.261169,39.9191688 C178.216793,40.0506975 178.180004,40.2187825 178.179471,40.2926318 C178.178979,40.366522 178.142067,40.5639174 178.097444,40.7312245 C178.052863,40.8985726 178.016197,41.1196292 178.01591,41.2224615 C178.015664,41.3253347 177.987611,41.5107767 177.953611,41.6346093 C177.91957,41.758442 177.874783,42.0716056 177.854072,42.3305284 C177.833319,42.5894512 177.786277,43.0315645 177.749529,43.3130024 C177.657495,44.0176819 177.683169,47.5389505 177.783857,48.0206902 C177.819169,48.1895529 177.849232,48.456663 177.850667,48.6142682 C177.852144,48.7718734 177.880894,49.0021408 177.914566,49.1259734 C177.948238,49.2498061 177.99364,49.517694 178.015418,49.7212708 C178.037196,49.9248476 178.083254,50.1712439 178.117746,50.2688363 C178.152238,50.3663878 178.180455,50.51818 178.180455,50.6061114 C178.180455,50.6940428 178.216178,50.8719116 178.259857,51.0013116 C178.303536,51.1307116 178.35226,51.3373586 178.368091,51.4605363 C178.383963,51.583714 178.431293,51.7726765 178.473249,51.880462 C178.515247,51.9882476 178.549575,52.1202676 178.549575,52.1738533 C178.549575,52.2274391 178.586487,52.3572485 178.631601,52.4622913 C178.676716,52.5673342 178.713628,52.7070911 178.713628,52.7728759 C178.713628,52.8386198 178.75054,52.9611425 178.795655,53.0451849 C178.840769,53.1291865 178.877681,53.2445453 178.877681,53.3014878 C178.877681,53.3584304 178.914593,53.4737892 178.959708,53.5577907 C179.004822,53.6418332 179.041734,53.7523615 179.041734,53.8034092 C179.041734,53.8544979 179.078646,53.9650262 179.123761,54.0490277 C179.168875,54.1330702 179.205951,54.2341013 179.206157,54.273564 C179.206362,54.3130676 179.251927,54.4374734 179.307418,54.5500485 C179.362909,54.6626237 179.408967,54.7823627 179.409828,54.8161352 C179.41069,54.8499078 179.448053,54.932804 179.49288,55.0003491 C179.537708,55.0678942 179.574497,55.1715452 179.57462,55.2307392 C179.574784,55.2898924 179.60054,55.3595252 179.631874,55.3854789 C179.663209,55.4114326 179.708938,55.5124227 179.733546,55.6099333 C179.758154,55.7074029 179.806345,55.8104398 179.840632,55.8388497 C179.87496,55.8672596 179.903013,55.9318163 179.903013,55.9823318 C179.903013,56.0328064 179.939925,56.1209425 179.98504,56.1782126 C180.030154,56.2354417 180.067148,56.3069986 180.06723,56.3372506 C180.067312,56.3674616 180.104224,56.4524866 180.149257,56.5262131 C180.19429,56.5999395 180.231119,56.6860288 180.231119,56.7175089 C180.231119,56.74903 180.277259,56.8295519 180.333653,56.896442 C180.390046,56.9633321 180.436596,57.0430353 180.437088,57.0735329 C180.43758,57.1040715 180.474082,57.1750962 180.518212,57.2313838 C180.562343,57.2876713 180.598845,57.3618481 180.599337,57.3962347 C180.599829,57.4306622 180.630548,57.5019735 180.667542,57.5546996 C180.750266,57.6725555 180.992531,58.1073002 181.070949,58.2785373 C181.102693,58.3478426 181.157405,58.4284055 181.192553,58.4575113 C181.256452,58.6246956 181.302592,58.712627 181.358985,58.7795171 C181.415378,58.8464072 181.461518,58.9113733 181.461518,58.9238589 C181.461518,58.9363855 181.52152,59.0322995 181.594811,59.1370558 C181.668143,59.2418121 181.746355,59.3578668 181.768625,59.3949552 C181.790937,59.4320845 181.873989,59.5612799 181.953185,59.6820832 C182.032423,59.8029275 182.11568,59.9318772 182.138237,59.9686381 C182.160795,60.00544 182.243436,60.117442 182.321895,60.2175725 C182.50547,60.4518107 182.650821,60.6658262 182.651272,60.7025462 C182.651436,60.7184295 182.711603,60.7959222 182.784935,60.8747248 C182.858266,60.9535274 183.028841,61.1641452 183.163938,61.3427508 C183.299077,61.5213564 183.503528,61.7700451 183.618325,61.8953924 C183.73308,62.0207397 183.844103,62.1547246 183.865061,62.1932048 C184.000691,62.4422211 186.086914,64.5534758 186.588179,64.9490034 C186.757358,65.0824971 187.015373,65.2934424 187.161585,65.4177663 C187.307757,65.5420902 187.446176,65.6569987 187.469185,65.6730867 C187.492152,65.6892157 187.658625,65.8187385 187.839084,65.9609516 C188.019542,66.1031238 188.268698,66.2881973 188.392763,66.3721989 C188.516828,66.4562004 188.78444,66.6448763 188.987456,66.7914696 C189.190471,66.938022 189.384259,67.0693051 189.418095,67.0831825 C189.451931,67.09706 189.656505,67.2256003 189.872727,67.3688368 C190.088949,67.5120324 190.294344,67.6292334 190.329123,67.6292334 C190.474556,67.7280948 190.555271,67.7825812 190.624706,67.8141022 C190.694183,67.8456233 190.898675,67.9545551 191.079133,68.0561183 C191.259592,68.1577225 191.536431,68.3069767 191.694332,68.3877852 C191.852234,68.4685936 192.036793,68.5645077 192.104465,68.6009001 C192.374292,68.7459788 192.528133,68.8163894 192.57538,68.8163894 C192.602654,68.8163894 192.673976,68.8509398 192.733855,68.8931861 C192.793735,68.9353916 192.901394,68.9826322 192.973168,68.9981471 C193.0449,69.013662 193.125614,69.0527972 193.152478,69.0850961 C193.305785,69.1438808 193.404956,69.1807235 193.489115,69.2257536 C193.573315,69.2707836 193.665308,69.3081995 193.693566,69.3088954 C193.721865,69.3095914 193.837277,69.3554811 193.950063,69.4108681 C194.06285,69.466255 194.182813,69.5118582 194.216649,69.5121857 C194.250485,69.5125541 194.333537,69.5494378 194.401209,69.5941813 C194.468881,69.6389248 194.574572,69.6756448 194.636051,69.6757676 C194.69753,69.6759314 194.808266,69.7128151 194.882131,69.7577632 C194.955996,69.8027114 195.062548,69.839677 195.118942,69.8399226 C195.175335,69.8401683 195.276843,69.8769292 195.344515,69.9216727 C195.412187,69.9664162 195.52321,70.0031361 195.59121,70.0032589 C195.65921,70.0034227 195.779174,70.0376046 195.857796,70.079196 C195.936418,70.1207874 196.081113,70.167373 196.17934,70.1827242 C196.277567,70.1980344 196.409343,70.2370877 196.472175,70.2695503 C196.535007,70.301972 196.685321,70.3459377 196.806228,70.3672655 C196.927135,70.3885525 197.099883,70.4344013 197.190113,70.4690744 C197.280342,70.5037476 197.419418,70.5329352 197.499148,70.5339177 C197.578877,70.5349002 197.749124,70.5725617 197.877495,70.6175917 C198.005826,70.6626218 198.176154,70.6994646 198.255966,70.6994646 C198.335737,70.6994646 198.534241,70.7363073 198.697064,70.7813374 C198.859845,70.8263674 199.067988,70.8632102 199.15957,70.8632102 C199.251153,70.8632102 199.436082,70.8922341 199.570524,70.9276851 C199.704965,70.963136 200.027206,71.0096398 200.286616,71.0309677 C200.546025,71.0523365 200.905916,71.0886061 201.086375,71.1116124 C202.037637,71.2328251 204.929442,71.2222635 205.925942,71.0939279 C206.19663,71.05905 206.521906,71.0297396 206.648719,71.0287571 C206.775573,71.0277746 207.024729,70.9903997 207.202399,70.9456971 C207.380109,70.9010355 207.610194,70.8641927 207.713711,70.8638243 C207.81727,70.8634968 208.046288,70.8263674 208.222686,70.7813374 C208.399084,70.7363073 208.600418,70.6986458 208.670141,70.6976634 C208.739823,70.6966809 208.870696,70.6681073 208.960925,70.6342119 C209.051154,70.6002756 209.24728,70.5558187 209.396732,70.5354323 C209.546185,70.5150051 209.730744,70.4718171 209.806865,70.4393955 C209.882986,70.4070148 210.037524,70.361821 210.15031,70.3389375 C210.34176,70.3001708 210.59797,70.2241109 210.88855,70.1198049 C210.956221,70.0955296 211.116296,70.0522598 211.244299,70.0236453 C211.372301,69.9949898 211.519457,69.9419362 211.571298,69.9057075 C211.623138,69.8694378 211.712178,69.839718 211.769228,69.8396361 C211.826236,69.8395542 211.933281,69.8027114 212.007146,69.7577632 C212.081011,69.7128151 212.178622,69.6760542 212.224106,69.6760542 C212.26959,69.6760542 212.37524,69.6417085 212.458948,69.5997077 C212.542615,69.5577479 212.678451,69.5112032 212.760806,69.4963024 C212.84312,69.4814015 212.932036,69.4432488 212.958449,69.411523 C212.98482,69.3797973 213.065125,69.3414399 213.136857,69.3262934 C213.20863,69.3111879 213.324862,69.2639473 213.395199,69.2213325 C213.465537,69.1787176 213.560155,69.1438808 213.605516,69.1438808 C213.650835,69.1438808 213.709894,69.1174358 213.736799,69.0850961 C213.763663,69.0527972 213.839906,69.0144398 213.906184,68.9999074 C213.972461,68.985375 214.333337,68.8183953 214.708158,68.6288597 C215.082978,68.4392832 215.412766,68.284216 215.441065,68.284216 C215.558609,68.2047175 215.698793,68.1196926 215.846686,68.0440011 C215.99458,67.9682688 216.136773,67.8808286 216.162694,67.849676 C216.321374,67.792979 216.378014,67.7638323 216.407625,67.7282176 C216.437237,67.6926029 216.527138,67.629479 216.607442,67.5879285 C216.947524,67.4119019 217.00482,67.3802581 217.107271,67.312058 C217.166535,67.2725953 217.323411,67.1688215 217.455884,67.0813813 C217.588357,66.9939821 217.742895,66.8887755 217.799288,66.8475934 C217.855681,66.8063705 217.984873,66.7230649 218.086381,66.6623562 C218.187889,66.6016884 218.356535,66.4812535 218.461201,66.3947139 C218.565826,66.3081743 218.664176,66.2373952 218.67972,66.2373952 C218.695305,66.2373952 218.843527,66.1268669 219.00918,65.9917767 C219.174832,65.8566866 219.325638,65.7454214 219.344299,65.7444799 C219.380227,65.7427196 219.417221,65.7117307 220.00207,65.1935166 C220.205373,65.0133964 220.452683,64.8018779 220.551689,64.7234847 C220.937706,64.4178534 222.71514,62.6113703 222.994236,62.2411005 C223.094636,62.1078115 223.186219,62.0008856 223.431765,61.7301321 C223.525768,61.6264811 223.630352,61.4995782 223.664188,61.4481211 C223.698024,61.396705 223.817987,61.2377489 223.930774,61.0949217 C224.560902,60.2969073 224.739515,60.01506 224.61504,60.01506 C224.596625,60.01506 224.452668,60.1302142 224.295177,60.2709126 C224.137645,60.411652 223.956079,60.563608 223.891688,60.6086381 C223.827297,60.6536681 223.633674,60.8010392 223.461377,60.9361294 C223.28908,61.0712196 223.117686,61.2001693 223.080528,61.2226843 C223.043369,61.2451993 222.825343,61.3925704 222.596079,61.5501756 C222.060404,61.9183987 221.979485,61.971002 221.88011,62.0156227 C221.834995,62.0358862 221.762935,62.0914369 221.719953,62.139046 C221.676971,62.186655 221.608848,62.2256265 221.568573,62.2256265 C221.455458,62.2899785 221.375933,62.3457749 221.292882,62.3910915 C221.20983,62.436449 221.086503,62.5097661 221.018831,62.5540594 C220.951159,62.5983526 220.821967,62.6726112 220.731738,62.719074 C220.641509,62.7655369 220.420037,62.8841297 220.239578,62.9825818 C219.687334,63.2839147 219.428992,63.4127825 219.377274,63.4127825 C219.350082,63.4127825 219.280934,63.4496253 219.223556,63.4946554 C219.16622,63.5396854 219.08813,63.5765282 219.05007,63.5765282 C219.011969,63.5765282 218.931829,63.6110785 218.871949,63.6533249 C218.81207,63.6955304 218.70441,63.742771 218.632637,63.7582859 C218.560905,63.7738008 218.48179,63.811012 218.456854,63.8409775 C218.431959,63.8709429 218.346282,63.9076629 218.266511,63.9226047 C218.186699,63.9375465 218.062798,63.985483 217.991107,64.0290803 C217.919457,64.0727185 217.832427,64.108456 217.797688,64.1085379 C217.762991,64.1086197 217.662222,64.1455444 217.573715,64.1905744 C217.485208,64.2356045 217.380255,64.2724473 217.340472,64.2724473 C217.300648,64.2724473 217.207671,64.3092082 217.133806,64.3541564 C217.059941,64.3991045 216.957285,64.4359473 216.905608,64.4360292 C216.853973,64.4361111 216.739341,64.4730357 216.650916,64.5180658 C216.562491,64.5630958 216.442527,64.5999386 216.38433,64.5999386 C216.326132,64.5999386 216.206168,64.6367814 216.117743,64.6818114 C216.029319,64.7268415 215.923914,64.7636843 215.883557,64.7636843 C215.843159,64.7636843 215.699408,64.7990943 215.564064,64.8423641 C215.231487,64.9487578 214.848546,65.0423384 214.471921,65.1092695 C214.299829,65.139849 214.121832,65.1847562 214.076348,65.2090315 C214.030864,65.2333068 213.885595,65.264746 213.753532,65.27891 C213.62147,65.2930331 213.365752,65.3385134 213.185293,65.3799411 C213.004835,65.4214097 212.709539,65.4648841 212.529081,65.4765919 C212.348622,65.4882998 212.117923,65.5185108 212.016415,65.5436867 C211.825498,65.5910502 209.965053,65.7023153 209.350551,65.7031341 C208.72678,65.7039528 206.710608,65.5891262 206.500128,65.5407802 C206.387342,65.5149084 206.11973,65.4795394 205.905435,65.4622642 C205.691141,65.4449481 205.405812,65.4004093 205.27137,65.3633209 C205.136929,65.3262325 204.97021,65.2958577 204.900938,65.2958577 C204.831626,65.2958577 204.674012,65.2669156 204.550685,65.2315875 C204.427358,65.1962184 204.197232,65.1416911 204.039331,65.1103748 C203.665249,65.0362389 203.250605,64.9350441 203.096025,64.8802302 C203.028354,64.8562006 202.899162,64.8187028 202.808933,64.7968428 C202.718703,64.7749827 202.589511,64.7381399 202.52184,64.7149699 C202.454168,64.6917999 202.324976,64.6540156 202.234747,64.6310093 C202.144517,64.6080031 202.003596,64.5547857 201.921569,64.5127031 C201.839543,64.4706205 201.723475,64.4361929 201.663596,64.4361929 C201.603716,64.4361929 201.482399,64.3993502 201.393974,64.3543201 C201.30555,64.3092901 201.209127,64.2724473 201.17968,64.2724473 C201.150232,64.2724473 201.057296,64.2356045 200.973137,64.1905744 C200.888937,64.1455444 200.787429,64.1087016 200.747564,64.1087016 C200.707658,64.1087016 200.610702,64.0744378 200.53208,64.0325599 C200.453458,63.9906819 200.343009,63.9432366 200.286616,63.9271077 C200.230222,63.9109787 200.110258,63.8634515 200.020029,63.8214917 C199.9298,63.7795319 199.689872,63.668717 199.486856,63.5752182 C199.283841,63.4817195 199.071597,63.3810159 199.015204,63.3514598 C198.95881,63.3218628 198.792707,63.239949 198.646084,63.1694156 C198.499462,63.0988412 198.351814,63.0233954 198.317978,63.0016991 C198.284142,62.9800437 198.212779,62.9435284 198.159338,62.920645 C198.105939,62.8977206 198.015792,62.8424973 197.958989,62.7979176 C197.902226,62.7533378 197.823604,62.7168635 197.784313,62.7168635 C197.630636,62.618002 197.549922,62.5627788 197.480487,62.5303572 C197.41101,62.4979355 197.298798,62.4349753 197.231126,62.3904774 C197.163454,62.3459386 197.050667,62.2768379 196.980494,62.236884 C196.91032,62.1969301 196.7719,62.1096536 196.672894,62.0429682 C196.573888,61.9762828 196.443712,61.8933865 196.383586,61.8587543 C196.216129,61.7623081 195.798245,61.4814024 195.775154,61.4497586 C195.763876,61.4342846 195.633043,61.3374291 195.484411,61.2345149 C194.372828,60.4648694 192.620782,58.8907414 191.82619,57.947771 C191.769264,57.880226 191.60558,57.6899126 191.462443,57.5248569 C191.215502,57.2401442 191.056207,57.0421347 190.844742,56.7571354 C190.793189,56.6876663 190.69086,56.5587166 190.617324,56.4705805 C190.457659,56.2792027 190.32982,56.0967901 189.787625,55.286904 C189.561519,54.9491786 189.348988,54.6368747 189.315275,54.592909 C189.254042,54.4384149 189.225292,54.3929755 189.190143,54.3638697 C189.154995,54.3347639 189.100324,54.254201 189.06858,54.1848957 C189.036877,54.1155494 188.961576,53.9759153 188.901246,53.8745977 C188.76783,53.6504299 188.045668,52.2357083 188.010314,52.1291917 C187.996411,52.0872319 187.967127,52.0252951 187.945308,51.9915225 C187.88182,51.8933161 187.695537,51.4685189 187.695537,51.4219332 C187.695537,51.3985586 187.658707,51.3191419 187.613675,51.2454154 C187.568642,51.1716889 187.53173,51.079582 187.531648,51.0407333 C187.531566,51.0018847 187.494654,50.9097778 187.449622,50.8360513 C187.404589,50.7623248 187.367554,50.6651827 187.367308,50.6201526 C187.367062,50.5751226 187.330232,50.4830156 187.285404,50.4154705 C187.240577,50.3479254 187.203788,50.2504968 187.203665,50.1989169 C187.203501,50.1473779 187.166466,50.0329607 187.121351,49.9447017 C187.076237,49.8564428 187.039325,49.7413296 187.039325,49.6888901 C187.039325,49.6364915 187.002413,49.5213373 186.957298,49.4329966 C186.912184,49.3446558 186.874451,49.2348643 186.873467,49.1889746 C186.872483,49.1430439 186.843117,49.0318197 186.808256,48.9417596 C186.773354,48.8516994 186.720118,48.6674856 186.689974,48.5323954 C186.659788,48.3973052 186.606922,48.2130914 186.572429,48.1230312 C186.537978,48.0329711 186.508941,47.8892843 186.507957,47.8037272 C186.506972,47.718211 186.477443,47.5928228 186.442376,47.525114 C186.40731,47.4574051 186.362729,47.269507 186.343329,47.1075216 C186.32393,46.9455771 186.27902,46.720959 186.243503,46.6083839 C186.207985,46.4958087 186.178087,46.3208055 186.17702,46.2194879 C186.175995,46.1181703 186.147778,45.9247457 186.114352,45.7896555 C186.080926,45.6545654 186.035319,45.2769269 186.013008,44.950459 C185.990697,44.6239911 185.943081,44.1666904 185.907235,43.9342534 C185.819262,43.3639273 185.84674,40.8804378 185.947674,40.2837076 C185.983807,40.0698148 186.013664,39.765862 186.013993,39.6082568 C186.014321,39.4506516 186.051356,39.1685587 186.096306,38.9813974 C186.141257,38.7941952 186.178046,38.5517697 186.178046,38.4426333 C186.178046,38.3334968 186.214712,38.1274229 186.259539,37.9846776 C186.304367,37.8419732 186.341279,37.6556307 186.341566,37.5706467 C186.341853,37.4856627 186.379011,37.3112735 186.424125,37.1831835 C186.46924,37.0550525 186.506972,36.8943361 186.507957,36.8260133 C186.508941,36.7576904 186.538306,36.6280857 186.573168,36.5380256 C186.60807,36.4479655 186.660526,36.2637516 186.689727,36.1286614 C186.718929,35.9935712 186.772615,35.8145563 186.809035,35.7308413 C186.845455,35.6471264 186.875272,35.5359021 186.875272,35.4836673 C186.875272,35.4313914 186.912184,35.3164011 186.957298,35.2280603 C187.002413,35.1397195 187.039325,35.0257934 187.039325,34.9748685 C187.039325,34.9239436 187.073899,34.8035087 187.116184,34.7072263 C187.187916,34.5439309 187.230447,34.4301686 187.334866,34.122777 C187.357793,34.055232 187.40988,33.9262822 187.450606,33.8362221 C187.491373,33.746162 187.546003,33.6036624 187.572087,33.519538 C187.598172,33.4354137 187.636601,33.356038 187.657518,33.343143 C187.695537,33.1953625 187.74381,33.0628923 187.802787,32.9451182 C187.861764,32.8273032 187.943216,32.6572534 187.983738,32.5671932 C188.146888,32.2047422 188.705612,31.0899617 188.782758,30.9728836 C188.828119,30.9041104 188.888983,30.8018103 188.918061,30.7455227 C188.94714,30.6892352 189.01153,30.5759232 189.061198,30.4936819 C189.110865,30.4114816 189.220042,30.2254665 189.303832,30.0803469 C189.387581,29.9352273 189.484455,29.7930142 189.519152,29.7642769 C189.582148,29.6357365 189.664708,29.5044534 189.765601,29.3710416 C189.866534,29.2376708 189.949586,29.1155165 189.950161,29.0996332 C189.951432,29.0661063 190.147598,28.7721419 190.189801,28.740539 C190.234178,28.7072986 190.443427,28.4205799 190.443427,28.3929888 C190.443427,28.3794388 190.588081,28.1893711 190.76493,27.9706478 C190.941739,27.7519245 191.103249,27.5424529 191.123797,27.5052007 C191.144344,27.4679486 191.271896,27.3190219 191.407239,27.1742708 C191.542583,27.0295196 191.797276,26.7442337 191.973182,26.5402885 C192.536499,25.8872299 194.181993,24.3570266 194.667796,24.0344886 C194.769303,23.9670663 194.917977,23.851421 194.998158,23.7774898 C195.078339,23.7035586 195.225986,23.5883636 195.326264,23.5215144 C195.426541,23.4546243 195.594163,23.3303004 195.698829,23.2451936 C195.803453,23.1600458 195.899424,23.090413 195.912098,23.090413 C195.92473,23.090413 196.019963,23.030523 196.123685,22.9573696 C196.227408,22.8842163 196.362136,22.7964486 196.423082,22.7623486 C196.484028,22.7282485 196.616952,22.6433464 196.71846,22.5736726 C196.819968,22.5039579 196.958387,22.4161493 197.026059,22.3785287 C197.093731,22.3409082 197.204467,22.2738134 197.272139,22.2294383 C197.339811,22.1850223 197.450547,22.1196878 197.518219,22.0841959 C197.585891,22.048745 197.733539,21.9669949 197.846325,21.902561 C197.959112,21.8381271 198.09749,21.7645644 198.153843,21.7391428 C198.210195,21.7136804 198.284019,21.6686913 198.317896,21.6391761 C198.351773,21.60962 198.425638,21.5715082 198.482031,21.5545196 C198.538424,21.5374901 198.628571,21.489267 198.682381,21.4473071 C198.73619,21.4053882 198.807102,21.3710835 198.839954,21.3710835 C198.872847,21.3710835 198.946671,21.3342408 199.004007,21.2892107 C199.061385,21.2441806 199.138121,21.2069285 199.17454,21.2064373 C199.21096,21.205946 199.286917,21.1695126 199.34331,21.125465 C199.399703,21.0814174 199.484888,21.044984 199.532586,21.0444928 C199.580285,21.0440016 199.666249,21.0067494 199.723626,20.9617194 C199.780963,20.9166893 199.864015,20.8798465 199.908186,20.8798465 C199.952316,20.8798465 200.035368,20.8430038 200.092746,20.7979737 C200.150082,20.7529436 200.222512,20.7161009 200.253641,20.7161009 C200.284811,20.7161009 200.382669,20.6792581 200.471175,20.634228 C200.559682,20.589198 200.65795,20.5523552 200.689571,20.5523552 C200.721233,20.5523552 200.81421,20.5171499 200.896237,20.4741257 C201.047617,20.3947091 201.301694,20.303339 201.645386,20.2046822 C201.749846,20.1746758 201.891957,20.1209263 201.961229,20.0851888 C202.030459,20.0494104 202.132993,20.0201818 202.189017,20.0201818 C202.245082,20.0201818 202.342899,19.9984036 202.406387,19.9718359 C202.469876,19.9452272 202.595499,19.9037586 202.685524,19.879729 C202.786211,19.8527928 202.854457,19.8083768 202.862824,19.7643292 C202.875456,19.6980122 202.815126,19.6926905 202.053181,19.6926905 C201.376297,19.6926905 201.229921,19.7028427 201.229921,19.7497968 C201.229921,19.8181197 201.066893,19.8463248 200.389149,19.8952848 Z M217.835696,32.157756 C217.798893,32.1812644 217.684739,32.261763 217.582021,32.3366883 C217.479303,32.4116136 217.381215,32.472878 217.364022,32.472878 C217.346869,32.472878 217.290255,32.5200206 217.238231,32.5776393 C217.186208,32.635258 217.124158,32.6836577 217.100361,32.6851663 C217.076523,32.6867168 216.975496,32.7526326 216.875838,32.8316645 C216.77618,32.9107383 216.658403,32.9937512 216.61411,33.0161701 C216.569818,33.038589 216.4611,33.1125924 216.372515,33.1806454 C216.28393,33.2486564 216.093674,33.381829 215.949723,33.4765751 C215.596229,33.7091452 215.270519,33.9324544 215.045312,34.0966782 C214.942553,34.1716035 214.844103,34.2328679 214.826507,34.2328679 C214.808911,34.2328679 214.759988,34.272761 214.717789,34.3214959 C214.67559,34.3702309 214.604843,34.4267601 214.560551,34.4470838 C214.45288,34.496573 214.343357,34.5694031 214.205446,34.6833415 C214.142672,34.7352193 214.073374,34.7776266 214.051469,34.7776266 C214.01672,34.7776266 213.750563,34.9665741 213.694835,35.0308137 C213.683761,35.0435946 213.593163,35.1031829 213.493505,35.163232 C213.393847,35.2233231 213.268781,35.3119931 213.21555,35.3602671 C213.095759,35.4690093 212.980518,35.4721103 212.871961,35.3695699 C212.826259,35.3263663 212.662015,35.199689 212.506991,35.0880134 C212.085408,34.7843314 211.644698,34.4713465 211.538839,34.4004859 C211.487178,34.3659147 211.26185,34.2056299 211.038052,34.0442975 C210.598268,33.7272479 210.273162,33.5015921 209.99569,33.320816 C209.898931,33.2577916 209.724942,33.1260438 209.609057,33.0281129 C209.493171,32.930182 209.380024,32.8500187 209.357637,32.8500187 C209.335249,32.8500187 209.246503,32.7913524 209.160414,32.7196956 C209.008129,32.5928926 208.526791,32.2467193 208.375109,32.1548646 C208.333675,32.1297638 208.264056,32.0756231 208.220448,32.0345567 C208.175028,31.9917722 208.112817,31.9711552 208.074846,31.9863246 C207.994597,32.0183816 208.019078,32.2078738 208.13899,32.4827675 C208.181833,32.5810336 208.217307,32.7031852 208.21779,32.754183 C208.218273,32.8051809 208.254915,32.9425858 208.299208,33.0595413 C208.3435,33.1764968 208.37974,33.3193493 208.37974,33.3770518 C208.37974,33.4347125 208.415979,33.5558584 208.460271,33.6462046 C208.504564,33.7365507 208.541206,33.8725309 208.541689,33.9483362 C208.542172,34.0241834 208.578411,34.1684187 208.622221,34.2688638 C208.66603,34.3693509 208.702269,34.5013501 208.702752,34.5621955 C208.703236,34.6230828 208.736495,34.7482935 208.77664,34.8404834 C208.816826,34.9326734 208.862246,35.0902344 208.877587,35.1905957 C208.892928,35.290957 208.932147,35.4267277 208.964762,35.4923082 C208.997338,35.5578888 209.023994,35.6505397 209.023994,35.698227 C209.023994,35.7459144 209.069293,35.9198601 209.124658,36.0847543 C209.180024,36.2496905 209.225323,36.4264019 209.225323,36.4774835 C209.225323,36.5285651 209.26116,36.6525606 209.304969,36.7530476 C209.348778,36.8534928 209.385017,36.9885091 209.385501,37.0530421 C209.385984,37.1175332 209.414935,37.2277839 209.449805,37.2980159 C209.484716,37.3682479 209.530941,37.5228756 209.552523,37.641633 C209.574106,37.7604323 209.60197,37.909361 209.614412,37.9725949 C209.634062,38.0724115 209.604265,38.1190931 209.38844,38.3266881 C209.251697,38.4581845 208.980587,38.6987164 208.786022,38.8612222 C208.591417,39.023686 208.29808,39.2747779 208.134198,39.419097 C207.970276,39.5634581 207.79371,39.7143144 207.741888,39.7543332 C207.642914,39.8307251 207.400393,40.0466172 207.092883,40.3320708 C206.992298,40.4253922 206.864736,40.5313687 206.809371,40.5675742 C206.754005,40.6037797 206.545629,40.7828797 206.346313,40.9655834 C206.146997,41.1482871 205.897792,41.3655201 205.792577,41.4483653 C205.687322,41.5312106 205.497066,41.6939677 205.369785,41.8100433 C205.242465,41.9260769 205.093038,42.0587885 205.037672,42.1049254 C204.844638,42.2657549 204.955248,42.285031 205.988591,42.2708254 C206.517524,42.263534 207.856162,42.2575835 208.963313,42.2575835 C210.976365,42.2575835 210.976365,42.2575835 211.084922,42.481228 C211.144636,42.6042177 211.205598,42.7645025 211.220416,42.8374164 C211.235194,42.9103303 211.28158,43.0287524 211.323497,43.1006187 C211.365414,43.1724849 211.39968,43.2621187 211.39968,43.2998328 C211.39968,43.3375049 211.435919,43.4387044 211.480212,43.5247343 C211.524504,43.6107224 211.560864,43.7190875 211.561025,43.7655177 C211.561146,43.8119479 211.597265,43.9065264 211.641275,43.9756689 C211.685286,44.0448113 211.721404,44.1393898 211.721525,44.1858201 C211.721686,44.2322503 211.758046,44.3406154 211.802339,44.4266034 C211.846631,44.5126334 211.882951,44.6160538 211.883031,44.6564497 C211.883112,44.6968876 211.917257,44.7880718 211.958892,44.8591419 C212.000527,44.930212 212.04784,45.0512322 212.064067,45.1280432 C212.080294,45.2048542 212.127606,45.3258744 212.169241,45.3969445 C212.210876,45.4680146 212.245022,45.5591988 212.245102,45.5996367 C212.245183,45.6400326 212.281502,45.743453 212.325795,45.829483 C212.370087,45.915471 212.406327,46.0260152 212.406327,46.0750854 C212.406327,46.1241975 212.442566,46.2122808 212.486858,46.2709052 C212.531151,46.3294877 212.567511,46.4215938 212.567672,46.4756088 C212.567793,46.5295818 212.603911,46.6303203 212.647922,46.6994627 C212.691933,46.7686052 212.728172,46.8628903 212.728454,46.9089853 C212.728736,46.9550803 212.757848,47.0493655 212.793201,47.1185079 C212.828514,47.1876504 212.883236,47.3329753 212.914764,47.4414661 C212.946332,47.5499569 212.989779,47.6500668 213.011362,47.6639372 C213.032944,47.6778076 213.050581,47.7307749 213.050581,47.7816051 C213.050581,47.8324352 213.085531,47.9418898 213.128253,48.0248608 C213.170976,48.1078317 213.218288,48.2442729 213.233428,48.32804 C213.278647,48.57909 213.470473,48.48866 213.512994,48.1962084 C213.525476,48.1105136 213.555354,47.9838363 213.579392,47.9146938 C213.603471,47.8455514 213.64116,47.7135521 213.663186,47.6213622 C213.685211,47.5291722 213.737597,47.3590818 213.779554,47.2434253 C213.821551,47.1277269 213.855898,46.9860058 213.855898,46.9285128 C213.855898,46.8709779 213.892137,46.7535615 213.93643,46.6675734 C213.980722,46.5815434 214.017767,46.4686945 214.018733,46.4167748 C214.0197,46.3648132 214.048691,46.2468939 214.083118,46.1547039 C214.117546,46.062514 214.169247,45.8833722 214.198037,45.756611 C214.226787,45.6298498 214.279334,45.4560299 214.314848,45.3703351 C214.350323,45.2846404 214.379354,45.1661344 214.379354,45.1069652 C214.379354,45.047796 214.407299,44.9549775 214.441485,44.9007112 C214.47563,44.8464448 214.519439,44.7103808 214.538807,44.5983701 C214.558175,44.4863593 214.601058,44.3098574 214.634117,44.2061437 C214.667175,44.1024301 214.724554,43.9232882 214.761598,43.8080508 C214.798643,43.6928134 214.844465,43.509062 214.863431,43.3997751 C214.882356,43.2904462 214.926165,43.1589498 214.960753,43.1075748 C214.995301,43.0561999 215.023608,42.9621662 215.023608,42.898597 C215.023608,42.8350697 215.070961,42.6630936 215.128823,42.5164697 C215.233997,42.2498731 215.233997,42.2498731 216.346866,42.2223837 C216.958907,42.2072562 218.387258,42.1948525 219.520944,42.1948106 C220.86377,42.1947687 221.590932,42.1799764 221.60732,42.1524451 C221.662323,42.0597942 221.570597,41.9419587 221.293528,41.7492398 C221.133793,41.6381509 220.920384,41.4760642 220.819317,41.3890705 C220.718209,41.3020767 220.622296,41.2309228 220.606109,41.2309228 C220.589962,41.2309228 220.434335,41.1130873 220.260265,40.9690195 C219.895618,40.6672651 219.304233,40.2140677 219.234975,40.1833098 C219.209004,40.171786 219.059698,40.0539505 218.903144,39.9214065 C218.746591,39.7888625 218.605258,39.6804555 218.589111,39.6804555 C218.572924,39.6804555 218.466219,39.5995379 218.351945,39.5006432 C218.237711,39.4017486 218.063641,39.265056 217.965191,39.1968355 C217.866741,39.1286568 217.739904,39.0284212 217.68333,38.9741548 C217.626757,38.9198466 217.480833,38.8077101 217.359029,38.7249906 C217.237225,38.6422291 217.053532,38.5028128 216.950773,38.4151066 C216.848055,38.3274424 216.746665,38.2557018 216.725486,38.2557018 C216.645236,38.2557018 216.553711,38.0968418 216.553711,37.9574674 C216.553711,37.8777231 216.589951,37.7385162 216.634243,37.6480863 C216.678536,37.5576563 216.714775,37.4397789 216.714775,37.3861411 C216.714775,37.3324614 216.751014,37.2146259 216.795307,37.1242798 C216.839599,37.0339336 216.875838,36.9165591 216.875838,36.8634241 C216.875838,36.8102892 216.912078,36.6964765 216.95637,36.6104885 C217.000663,36.5244585 217.037304,36.4116096 217.037788,36.3596899 C217.038271,36.3077283 217.07451,36.1830204 217.118319,36.0825753 C217.162129,35.9820883 217.198126,35.8595175 217.198328,35.8101959 C217.198529,35.7608324 217.243264,35.6261932 217.297744,35.5109557 C217.352224,35.3957183 217.397362,35.2535782 217.398046,35.1950376 C217.398731,35.1365388 217.435534,35.0147224 217.479826,34.9242925 C217.524119,34.8338625 217.560358,34.7159851 217.560358,34.6623473 C217.560358,34.6086676 217.596597,34.4908321 217.64089,34.4004859 C217.685182,34.3101398 217.721422,34.1887843 217.721422,34.1307885 C217.721422,34.0727926 217.75758,33.9636313 217.801792,33.8881613 C217.846004,33.8126912 217.882244,33.6966157 217.882324,33.6301971 C217.882405,33.5637784 217.916429,33.4506362 217.957903,33.3787699 C217.999377,33.3069037 218.045079,33.1666492 218.059494,33.0670841 C218.073869,32.9674771 218.111074,32.8449063 218.14216,32.7947047 C218.173245,32.7444612 218.21182,32.6285533 218.227886,32.5371595 C218.243952,32.4457239 218.291747,32.28942 218.334107,32.1897711 C218.415243,31.9989379 218.417337,31.8407064 218.339181,31.8139713 C218.313531,31.8051714 218.280272,31.8185808 218.265333,31.8438073 C218.241858,31.8832814 218.079184,32.0021645 217.835696,32.157756 Z" id="Shape-Copy"></path>
            </g>
        </g>
    </g>
</svg>