<svg width="48" height="53" xmlns="http://www.w3.org/2000/svg">
    <path d="M23.39.895c-.272.02-.6.065-.73.101-.132.036-.326.065-.433.065-.107 0-.295.029-.418.064-.124.036-.34.08-.481.101-.141.02-.378.074-.527.12-.15.046-.32.084-.38.084-.059 0-.205.036-.324.081a1.295 1.295 0 0 1-.348.083.957.957 0 0 0-.312.082.904.904 0 0 1-.278.081.75.75 0 0 0-.26.082.768.768 0 0 1-.276.082.554.554 0 0 0-.237.075.93.93 0 0 1-.281.1.58.58 0 0 0-.221.078.828.828 0 0 1-.232.101c-.308.088-.64.214-.732.278a.37.37 0 0 1-.174.064.49.49 0 0 0-.206.082.492.492 0 0 1-.21.081.39.39 0 0 0-.19.082.39.39 0 0 1-.15.082c-.026 0-.143.048-.26.107-.119.06-.298.145-.4.19-.101.047-.212.1-.246.12a2.28 2.28 0 0 1-.164.08c-.056.024-.13.06-.164.081-.034.02-.135.074-.226.118-.09.044-.311.163-.492.264-.18.1-.374.204-.43.229a.924.924 0 0 0-.185.114 2.129 2.129 0 0 1-.37.23c-.086.046-.497.309-.685.438a.476.476 0 0 1-.146.076c-.02 0-.079.046-.132.102-.053.057-.11.103-.128.103-.044 0-.267.153-.494.338a1.08 1.08 0 0 1-.217.153c-.017 0-.175.12-.35.266-.176.146-.336.266-.355.267-.02 0-.192.139-.384.308-.191.17-.481.412-.644.54-.391.307-2.283 2.217-2.698 2.725-.734.897-.847 1.04-1.2 1.518-.31.421-.461.64-.461.667a.74.74 0 0 1-.113.156c-.062.073-.184.25-.27.394-.088.144-.217.352-.288.463-.152.237-.253.41-.426.723-.069.126-.184.329-.255.45-.186.321-.194.335-.243.447-.025.056-.062.13-.082.164-.02.034-.057.107-.082.164-.025.056-.062.13-.082.163-.02.034-.057.108-.082.164-.025.056-.063.13-.084.164a3.14 3.14 0 0 0-.128.266c-.165.38-.292.654-.37.806a.698.698 0 0 0-.08.225c0 .041-.034.13-.077.2-.042.07-.09.19-.107.266a.848.848 0 0 1-.083.222.825.825 0 0 0-.081.222 1.012 1.012 0 0 1-.107.266.578.578 0 0 0-.077.25.535.535 0 0 1-.082.245.518.518 0 0 0-.082.235.708.708 0 0 1-.082.266.73.73 0 0 0-.083.276.939.939 0 0 1-.082.302.899.899 0 0 0-.081.276c0 .054-.036.204-.079.333a2.95 2.95 0 0 0-.104.415 2.912 2.912 0 0 1-.106.418c-.044.132-.081.3-.082.374 0 .074-.037.27-.082.438a2.473 2.473 0 0 0-.081.491c0 .103-.028.289-.062.413a5.002 5.002 0 0 0-.1.696c-.02.258-.068.7-.104.982-.093.705-.067 4.226.034 4.708.035.169.065.436.067.593.001.158.03.388.064.512.033.124.079.392.1.595.022.204.068.45.103.548.034.097.062.25.062.337 0 .088.036.266.08.395.044.13.092.336.108.46.016.123.063.312.105.42.042.107.077.24.077.293 0 .053.036.183.082.288.045.105.082.245.082.31 0 .067.037.19.082.273.045.084.082.2.082.256 0 .057.037.173.082.257a.685.685 0 0 1 .082.245c0 .051.037.162.082.246a.694.694 0 0 1 .082.225c0 .04.046.163.101.276.056.113.102.232.103.266 0 .034.038.117.083.184a.511.511 0 0 1 .082.23c0 .06.026.13.057.155a.554.554 0 0 1 .102.225.55.55 0 0 0 .107.229.21.21 0 0 1 .062.143c0 .05.037.139.082.196a.379.379 0 0 1 .082.16c0 .03.037.114.082.188.045.074.082.16.082.192 0 .031.046.112.103.178.056.067.103.147.103.178 0 .03.037.101.081.157.044.057.08.13.081.165 0 .035.032.106.069.159.082.118.325.552.403.724.032.069.086.15.122.179.063.167.11.255.166.322a.649.649 0 0 1 .103.144c0 .012.06.108.133.213.073.105.151.22.174.258.022.037.105.166.184.287.08.12.163.25.185.287.023.036.105.148.184.249.183.234.329.448.33.485 0 .015.06.093.133.172.073.079.244.29.379.468.135.178.34.427.454.552.115.126.226.26.247.298.136.25 2.222 2.36 2.723 2.756.17.133.427.344.574.469.146.124.284.239.307.255.023.016.19.146.37.288s.43.327.554.411c.124.084.391.273.594.42.203.146.397.277.431.291.034.014.239.143.455.286.216.143.421.26.456.26.146.1.226.154.296.185.07.032.274.14.454.242.18.102.457.251.615.332.158.08.343.177.41.213.27.145.424.215.471.215.028 0 .099.035.159.077.06.042.167.09.24.105a.383.383 0 0 1 .178.087c.154.059.253.096.337.14a.772.772 0 0 0 .205.084c.028 0 .143.046.256.102.113.055.233.1.267.101.033 0 .117.037.184.082a.52.52 0 0 0 .235.082c.062 0 .172.037.246.082.074.045.18.082.237.082.056 0 .158.037.226.082a.537.537 0 0 0 .246.081c.068 0 .188.035.267.076.078.042.223.088.321.104.099.015.23.054.293.087.063.032.213.076.334.097.121.022.294.067.384.102.09.035.23.064.31.065.079 0 .25.039.377.084.129.045.3.081.379.081.08 0 .278.037.441.082.163.045.371.082.463.082.091 0 .276.03.41.065.135.035.457.082.717.103.259.021.619.058.8.08.95.122 3.842.111 4.839-.017.27-.035.596-.064.723-.065.127-.001.376-.039.553-.083.178-.045.408-.082.512-.082a2.7 2.7 0 0 0 .509-.083 2.82 2.82 0 0 1 .447-.083c.07-.001.2-.03.29-.064.091-.034.287-.078.437-.099.15-.02.334-.063.41-.096.076-.032.23-.077.343-.1.192-.039.448-.115.739-.22.067-.023.227-.067.355-.095.128-.029.275-.082.327-.118a.41.41 0 0 1 .198-.066.574.574 0 0 0 .238-.082.555.555 0 0 1 .217-.082.712.712 0 0 0 .235-.076c.084-.042.22-.089.302-.104.082-.015.171-.053.197-.084a.378.378 0 0 1 .179-.086 1 1 0 0 0 .258-.105.531.531 0 0 1 .21-.077.193.193 0 0 0 .132-.059.36.36 0 0 1 .17-.085c.065-.015.426-.182.801-.371.375-.19.705-.345.733-.345a3.95 3.95 0 0 1 .406-.24c.148-.076.29-.163.316-.194.158-.057.215-.086.245-.122a.808.808 0 0 1 .2-.14c.34-.176.397-.208.5-.276l.348-.23c.132-.088.287-.193.343-.234a4.76 4.76 0 0 1 .287-.186c.102-.06.27-.18.375-.267.105-.087.203-.158.219-.158.015 0 .164-.11.33-.245.165-.135.316-.247.334-.248.036-.001.073-.032.658-.55.203-.18.45-.392.55-.47.386-.306 2.163-2.113 2.442-2.483.1-.133.192-.24.438-.51.094-.105.198-.231.232-.283.034-.051.154-.21.267-.353.63-.798.809-1.08.684-1.08-.018 0-.162.115-.32.256a6.54 6.54 0 0 1-.403.338c-.065.045-.258.192-.43.327a8.035 8.035 0 0 1-.381.287c-.038.022-.256.17-.485.327-.536.368-.617.421-.716.466a.596.596 0 0 0-.16.123c-.043.048-.111.087-.151.087-.114.064-.193.12-.276.165a4.875 4.875 0 0 0-.274.163 3.898 3.898 0 0 1-.287.165c-.09.047-.312.165-.492.264-.553.3-.811.43-.863.43a.384.384 0 0 0-.153.082.376.376 0 0 1-.174.082.413.413 0 0 0-.178.076.784.784 0 0 1-.24.105.38.38 0 0 0-.175.083c-.025.03-.11.067-.19.082a.985.985 0 0 0-.276.106.542.542 0 0 1-.193.08.77.77 0 0 0-.224.082.752.752 0 0 1-.234.081.553.553 0 0 0-.206.082.564.564 0 0 1-.228.082.75.75 0 0 0-.255.082.755.755 0 0 1-.267.082.755.755 0 0 0-.266.082.75.75 0 0 1-.234.082c-.04 0-.185.035-.32.078a8.64 8.64 0 0 1-1.092.267c-.172.03-.35.076-.396.1a1.25 1.25 0 0 1-.322.07c-.133.014-.388.06-.569.1-.18.042-.475.086-.656.098-.18.011-.411.042-.513.067-.19.047-2.05.158-2.665.16-.624 0-2.64-.115-2.85-.163a5.419 5.419 0 0 0-.596-.079 4.283 4.283 0 0 1-.634-.099 1.872 1.872 0 0 0-.37-.067 1.67 1.67 0 0 1-.35-.064 7.71 7.71 0 0 0-.512-.122 9.189 9.189 0 0 1-.943-.23 3.549 3.549 0 0 0-.287-.083 3.98 3.98 0 0 1-.287-.082 4.584 4.584 0 0 0-.287-.084 1.805 1.805 0 0 1-.313-.118.71.71 0 0 0-.258-.077.759.759 0 0 1-.27-.082.794.794 0 0 0-.214-.082.723.723 0 0 1-.207-.081.689.689 0 0 0-.225-.082.642.642 0 0 1-.216-.076 1.59 1.59 0 0 0-.245-.106 2.347 2.347 0 0 1-.267-.106l-.533-.246a16.957 16.957 0 0 1-.472-.224c-.056-.03-.222-.111-.369-.182a5.434 5.434 0 0 1-.328-.167 1.345 1.345 0 0 0-.159-.081 1.103 1.103 0 0 1-.2-.123.373.373 0 0 0-.175-.081c-.153-.099-.234-.154-.304-.187a2.389 2.389 0 0 1-.249-.14 5.523 5.523 0 0 0-.25-.153 6.053 6.053 0 0 1-.308-.194 6.296 6.296 0 0 0-.29-.184c-.167-.097-.585-.378-.608-.41a3.38 3.38 0 0 0-.29-.214c-1.112-.77-2.864-2.344-3.659-3.287-.057-.068-.22-.258-.364-.423a11.636 11.636 0 0 1-.617-.768 7.92 7.92 0 0 0-.228-.286c-.16-.192-.287-.374-.83-1.184a33.95 33.95 0 0 0-.472-.694c-.061-.155-.09-.2-.125-.23a.612.612 0 0 1-.121-.178 4.103 4.103 0 0 0-.168-.31c-.133-.225-.855-1.64-.89-1.746a.727.727 0 0 0-.066-.137c-.063-.099-.25-.523-.25-.57a.606.606 0 0 0-.081-.177.554.554 0 0 1-.082-.204.554.554 0 0 0-.082-.205.558.558 0 0 1-.083-.216.489.489 0 0 0-.082-.205.496.496 0 0 1-.081-.216.749.749 0 0 0-.083-.254.744.744 0 0 1-.082-.256.745.745 0 0 0-.082-.256.78.78 0 0 1-.084-.244.995.995 0 0 0-.065-.247 3.53 3.53 0 0 1-.118-.41 3.633 3.633 0 0 0-.118-.409 1.114 1.114 0 0 1-.064-.32.74.74 0 0 0-.066-.278 1.627 1.627 0 0 1-.099-.417 3.378 3.378 0 0 0-.1-.5 1.623 1.623 0 0 1-.066-.389 2.308 2.308 0 0 0-.063-.43 6.82 6.82 0 0 1-.101-.839c-.022-.326-.07-.783-.106-1.016-.088-.57-.06-3.054.04-3.65a5.08 5.08 0 0 0 .067-.676c0-.157.037-.44.082-.627a2.99 2.99 0 0 0 .082-.538c0-.11.037-.316.082-.458a1.81 1.81 0 0 0 .082-.414c0-.085.037-.26.082-.388.045-.128.083-.289.084-.357 0-.068.03-.198.065-.288.035-.09.088-.274.117-.41.029-.134.083-.313.119-.397a.802.802 0 0 0 .066-.247c0-.053.037-.168.082-.256a.744.744 0 0 0 .082-.253c0-.051.035-.171.077-.268a6.33 6.33 0 0 0 .219-.584c.023-.068.075-.197.116-.287.04-.09.095-.232.121-.316.026-.085.065-.164.086-.177a2 2 0 0 1 .145-.398c.059-.118.14-.288.18-.378.164-.362.723-1.477.8-1.594a3.06 3.06 0 0 0 .135-.227c.03-.057.094-.17.143-.252.05-.083.159-.269.243-.414.084-.145.18-.287.215-.316.063-.128.146-.26.247-.393.1-.133.184-.255.184-.271.001-.034.198-.328.24-.36.044-.033.253-.32.253-.347 0-.014.145-.204.322-.422a8.07 8.07 0 0 0 .359-.466c.02-.037.148-.186.283-.33.136-.145.39-.43.566-.635.563-.653 2.209-2.183 2.695-2.506.101-.067.25-.183.33-.257.08-.073.228-.189.328-.255.1-.067.268-.192.373-.277.104-.085.2-.155.213-.155.013 0 .108-.06.212-.133.103-.073.238-.16.3-.195.06-.034.193-.119.294-.188.102-.07.24-.158.308-.195.068-.038.178-.105.246-.15.068-.044.179-.11.246-.145.068-.035.216-.117.328-.181.113-.065.251-.138.308-.164a.811.811 0 0 0 .164-.1.531.531 0 0 1 .164-.084.746.746 0 0 0 .2-.108.354.354 0 0 1 .158-.076.376.376 0 0 0 .164-.082.385.385 0 0 1 .17-.083.379.379 0 0 0 .17-.08.39.39 0 0 1 .189-.082.394.394 0 0 0 .19-.082.381.381 0 0 1 .185-.082.382.382 0 0 0 .185-.082.378.378 0 0 1 .16-.082.784.784 0 0 0 .218-.082.781.781 0 0 1 .219-.082.698.698 0 0 0 .206-.078c.152-.08.406-.17.75-.27.104-.03.246-.083.315-.119a.61.61 0 0 1 .228-.065.683.683 0 0 0 .217-.048c.064-.027.19-.068.28-.092.1-.027.168-.072.177-.116.012-.066-.048-.071-.81-.071-.677 0-.823.01-.823.057 0 .068-.163.096-.84.145zm17.446 12.263a7.66 7.66 0 0 0-.254.179c-.103.075-.2.136-.218.136-.017 0-.074.047-.126.105-.052.057-.114.106-.138.107a.937.937 0 0 0-.224.147c-.1.079-.218.162-.262.184a2.17 2.17 0 0 0-.241.165 8.948 8.948 0 0 1-.423.296c-.354.232-.68.455-.905.62a1.068 1.068 0 0 1-.218.136c-.018 0-.067.04-.11.088a.577.577 0 0 1-.156.126c-.108.05-.218.122-.356.236a.448.448 0 0 1-.154.095c-.034 0-.3.189-.356.253a1.905 1.905 0 0 1-.201.132c-.1.06-.225.149-.278.197-.12.109-.235.112-.344.01a5.395 5.395 0 0 0-.365-.282 62.832 62.832 0 0 0-.968-.688 33.269 33.269 0 0 1-.5-.356c-.44-.317-.766-.542-1.043-.723a4.8 4.8 0 0 1-.387-.293c-.116-.098-.229-.178-.251-.178-.023 0-.111-.059-.198-.13a11.134 11.134 0 0 0-.785-.565 1.136 1.136 0 0 1-.155-.12c-.045-.043-.107-.064-.145-.049-.08.032-.056.222.064.497.043.098.078.22.079.271 0 .051.037.189.081.306.045.116.08.26.08.317 0 .058.037.179.081.27.045.09.081.226.082.301 0 .076.036.22.08.32.044.101.08.233.08.294.001.061.034.186.075.278.04.093.085.25.1.35.016.101.055.237.088.302a.58.58 0 0 1 .059.206c0 .048.045.222.1.387.056.165.101.341.101.392 0 .052.036.176.08.276.044.1.08.236.08.3.001.065.03.175.065.245a1.6 1.6 0 0 1 .103.344l.061.33c.02.1-.01.147-.226.355-.136.131-.407.372-.602.534a39.59 39.59 0 0 0-.652.558c-.164.144-.34.295-.392.335-.1.077-.342.293-.65.578-.1.093-.227.2-.283.236a6.746 6.746 0 0 0-.463.398c-.199.182-.448.4-.553.482a9.415 9.415 0 0 0-.423.362c-.128.116-.277.249-.332.295-.193.16-.083.18.95.166a292.65 292.65 0 0 1 2.975-.013c2.013 0 2.013 0 2.122.223.06.123.12.284.135.356.015.073.062.192.103.264a.553.553 0 0 1 .077.199c0 .038.036.139.08.225.045.086.08.194.081.24 0 .047.036.142.08.21.044.07.08.164.08.21 0 .047.037.156.081.242.045.086.081.19.081.23 0 .04.034.131.076.202.042.071.089.192.105.269.016.077.064.198.105.269a.547.547 0 0 1 .076.203c0 .04.037.143.08.23a.72.72 0 0 1 .081.245c0 .05.037.137.08.196.045.058.082.15.082.205 0 .054.036.154.08.223.044.07.08.164.08.21 0 .046.03.14.065.21.036.069.09.214.122.322.031.109.075.21.096.223.022.014.04.067.04.118 0 .05.035.16.077.243.043.083.09.22.105.303.046.251.237.16.28-.132.012-.085.042-.212.066-.281.024-.07.062-.201.084-.294.022-.092.075-.262.117-.378.042-.115.076-.257.076-.314a.73.73 0 0 1 .08-.261.754.754 0 0 0 .083-.251c0-.052.03-.17.064-.262.035-.092.086-.272.115-.398.029-.127.081-.301.117-.387a.868.868 0 0 0 .064-.263.46.46 0 0 1 .062-.206 1.05 1.05 0 0 0 .098-.303 3.56 3.56 0 0 1 .095-.392l.128-.398c.037-.115.082-.299.101-.408a.945.945 0 0 1 .098-.292.44.44 0 0 0 .063-.21c0-.063.047-.235.105-.382.105-.266.105-.266 1.218-.294.612-.015 2.04-.027 3.174-.027 1.343 0 2.07-.015 2.086-.043.055-.092-.036-.21-.313-.403a7.213 7.213 0 0 1-.475-.36 1.083 1.083 0 0 0-.213-.158c-.016 0-.172-.118-.346-.262-.364-.302-.956-.755-1.025-.786a3.81 3.81 0 0 1-.332-.262c-.156-.132-.298-.24-.314-.24-.016 0-.123-.081-.237-.18a5.6 5.6 0 0 0-.387-.304 2.84 2.84 0 0 1-.282-.223 3.19 3.19 0 0 0-.324-.249 5.668 5.668 0 0 1-.408-.31c-.103-.088-.204-.16-.226-.16-.08 0-.171-.158-.171-.298 0-.08.036-.218.08-.309a.786.786 0 0 0 .08-.262c0-.054.037-.171.081-.262a.785.785 0 0 0 .08-.26c0-.054.037-.168.081-.254a.738.738 0 0 0 .082-.25c0-.052.037-.177.08-.277a.96.96 0 0 0 .08-.273c0-.05.045-.184.1-.299.054-.115.1-.257.1-.316 0-.058.038-.18.082-.27a.786.786 0 0 0 .08-.263c0-.053.037-.171.08-.262a.791.791 0 0 0 .081-.27.6.6 0 0 1 .08-.242.623.623 0 0 0 .081-.258.61.61 0 0 1 .076-.251c.041-.072.087-.212.101-.312a.885.885 0 0 1 .083-.272.898.898 0 0 0 .086-.258c.016-.091.064-.248.106-.347.081-.191.083-.35.005-.376-.025-.009-.059.005-.074.03-.023.04-.186.158-.43.314z" fill="#6BABB5" fill-rule="evenodd"/>
</svg>
