<?xml version="1.0" encoding="UTF-8"?>
<svg width="20px" height="21px" viewBox="0 0 20 21" version="1.1" xmlns="http://www.w3.org/2000/svg" xmlns:xlink="http://www.w3.org/1999/xlink">
    <!-- Generator: Sketch 48.2 (47327) - http://www.bohemiancoding.com/sketch -->
    <title>Combined Shape</title>
    <desc>Created with Sketch.</desc>
    <defs></defs>
    <g id="04" stroke="none" stroke-width="1" fill="none" fill-rule="evenodd" transform="translate(-531.000000, -229.000000)">
        <g id="search" transform="translate(283.000000, 223.000000)" stroke="#12745E">
            <path d="M262.552702,19.5195398 L267.032056,24.6724478 L265.513852,25.9922025 L261.077068,20.8882663 C259.803585,21.7971382 258.249929,22.3309737 256.573046,22.3309737 C252.252497,22.3309737 248.75,18.7870895 248.75,14.4154869 C248.75,10.0438842 252.252497,6.5 256.573046,6.5 C260.893594,6.5 264.396091,10.0438842 264.396091,14.4154869 C264.396091,16.3603992 263.702831,18.1414786 262.552702,19.5195398 Z M261.501398,18.392731 C262.334099,17.3315394 262.831482,15.9888237 262.831482,14.5285652 C262.831482,11.0937346 260.07952,8.30925414 256.684803,8.30925414 C253.290087,8.30925414 250.538125,11.0937346 250.538125,14.5285652 C250.538125,17.9633959 253.290087,20.7478763 256.684803,20.7478763 C257.933455,20.7478763 259.095146,20.3711558 260.064914,19.7239169 L260.024081,19.6769434 L261.501398,18.392731 Z" id="Combined-Shape"></path>
        </g>
    </g>
</svg>