<svg width="20" height="21" xmlns="http://www.w3.org/2000/svg">
    <path d="M14.553 13.52l4.48 5.152-1.52 1.32-4.436-5.104a7.725 7.725 0 0 1-4.504 1.443c-4.32 0-7.823-3.544-7.823-7.916C.75 4.044 4.252.5 8.573.5c4.32 0 7.823 3.544 7.823 7.915a7.94 7.94 0 0 1-1.843 5.105zM13.5 12.393a6.239 6.239 0 0 0 1.33-3.864c0-3.435-2.751-6.22-6.146-6.22S2.538 5.094 2.538 8.53c0 3.434 2.752 6.219 6.147 6.219 1.248 0 2.41-.377 3.38-1.024l-.04-.047 1.476-1.284z" stroke="#12745E" fill="none" fill-rule="evenodd"/>
</svg>
